<?xml version="1.0" encoding="utf-8" standalone="no"?>
<!DOCTYPE svg PUBLIC "-//W3C//DTD SVG 1.1//EN"
  "http://www.w3.org/Graphics/SVG/1.1/DTD/svg11.dtd">
<!-- Created with matplotlib (https://matplotlib.org/) -->
<svg height="936pt" version="1.1" viewBox="0 0 360 936" width="360pt" xmlns="http://www.w3.org/2000/svg" xmlns:xlink="http://www.w3.org/1999/xlink">
 <metadata>
  <rdf:RDF xmlns:cc="http://creativecommons.org/ns#" xmlns:dc="http://purl.org/dc/elements/1.1/" xmlns:rdf="http://www.w3.org/1999/02/22-rdf-syntax-ns#">
   <cc:Work>
    <dc:type rdf:resource="http://purl.org/dc/dcmitype/StillImage"/>
    <dc:date>2022-09-09T14:31:27.215577</dc:date>
    <dc:format>image/svg+xml</dc:format>
    <dc:creator>
     <cc:Agent>
      <dc:title>Matplotlib v3.3.4, https://matplotlib.org/</dc:title>
     </cc:Agent>
    </dc:creator>
   </cc:Work>
  </rdf:RDF>
 </metadata>
 <defs>
  <style type="text/css">*{stroke-linecap:butt;stroke-linejoin:round;}</style>
 </defs>
 <g id="figure_1">
  <g id="patch_1">
   <path d="M 0 936 
L 360 936 
L 360 0 
L 0 0 
z
" style="fill:none;"/>
  </g>
  <g id="axes_1">
   <g id="patch_2">
    <path d="M 45 433.538182 
L 324 433.538182 
L 324 112.32 
L 45 112.32 
z
" style="fill:#ffffff;"/>
   </g>
   <g id="matplotlib.axis_1">
    <g id="xtick_1">
     <g id="line2d_1">
      <path clip-path="url(#pd033eba8c8)" d="M 79.875 433.538182 
L 79.875 112.32 
" style="fill:none;stroke:#808080;stroke-linecap:square;stroke-width:0.8;"/>
     </g>
     <g id="line2d_2">
      <defs>
       <path d="M 0 0 
L 0 3.5 
" id="m5a24faa0f4" style="stroke:#000000;stroke-width:0.8;"/>
      </defs>
      <g>
       <use style="stroke:#000000;stroke-width:0.8;" x="79.875" xlink:href="#m5a24faa0f4" y="433.538182"/>
      </g>
     </g>
     <g id="text_1">
      <!-- 1 -->
      <g transform="translate(76.69375 448.136619)scale(0.1 -0.1)">
       <defs>
        <path d="M 12.40625 8.296875 
L 28.515625 8.296875 
L 28.515625 63.921875 
L 10.984375 60.40625 
L 10.984375 69.390625 
L 28.421875 72.90625 
L 38.28125 72.90625 
L 38.28125 8.296875 
L 54.390625 8.296875 
L 54.390625 0 
L 12.40625 0 
z
" id="DejaVuSans-49"/>
       </defs>
       <use xlink:href="#DejaVuSans-49"/>
      </g>
     </g>
    </g>
    <g id="xtick_2">
     <g id="line2d_3">
      <path clip-path="url(#pd033eba8c8)" d="M 149.625 433.538182 
L 149.625 112.32 
" style="fill:none;stroke:#808080;stroke-linecap:square;stroke-width:0.8;"/>
     </g>
     <g id="line2d_4">
      <g>
       <use style="stroke:#000000;stroke-width:0.8;" x="149.625" xlink:href="#m5a24faa0f4" y="433.538182"/>
      </g>
     </g>
     <g id="text_2">
      <!-- 2 -->
      <g transform="translate(146.44375 448.136619)scale(0.1 -0.1)">
       <defs>
        <path d="M 19.1875 8.296875 
L 53.609375 8.296875 
L 53.609375 0 
L 7.328125 0 
L 7.328125 8.296875 
Q 12.9375 14.109375 22.625 23.890625 
Q 32.328125 33.6875 34.8125 36.53125 
Q 39.546875 41.84375 41.421875 45.53125 
Q 43.3125 49.21875 43.3125 52.78125 
Q 43.3125 58.59375 39.234375 62.25 
Q 35.15625 65.921875 28.609375 65.921875 
Q 23.96875 65.921875 18.8125 64.3125 
Q 13.671875 62.703125 7.8125 59.421875 
L 7.8125 69.390625 
Q 13.765625 71.78125 18.9375 73 
Q 24.125 74.21875 28.421875 74.21875 
Q 39.75 74.21875 46.484375 68.546875 
Q 53.21875 62.890625 53.21875 53.421875 
Q 53.21875 48.921875 51.53125 44.890625 
Q 49.859375 40.875 45.40625 35.40625 
Q 44.1875 33.984375 37.640625 27.21875 
Q 31.109375 20.453125 19.1875 8.296875 
z
" id="DejaVuSans-50"/>
       </defs>
       <use xlink:href="#DejaVuSans-50"/>
      </g>
     </g>
    </g>
    <g id="xtick_3">
     <g id="line2d_5">
      <path clip-path="url(#pd033eba8c8)" d="M 219.375 433.538182 
L 219.375 112.32 
" style="fill:none;stroke:#808080;stroke-linecap:square;stroke-width:0.8;"/>
     </g>
     <g id="line2d_6">
      <g>
       <use style="stroke:#000000;stroke-width:0.8;" x="219.375" xlink:href="#m5a24faa0f4" y="433.538182"/>
      </g>
     </g>
     <g id="text_3">
      <!-- 4 -->
      <g transform="translate(216.19375 448.136619)scale(0.1 -0.1)">
       <defs>
        <path d="M 37.796875 64.3125 
L 12.890625 25.390625 
L 37.796875 25.390625 
z
M 35.203125 72.90625 
L 47.609375 72.90625 
L 47.609375 25.390625 
L 58.015625 25.390625 
L 58.015625 17.1875 
L 47.609375 17.1875 
L 47.609375 0 
L 37.796875 0 
L 37.796875 17.1875 
L 4.890625 17.1875 
L 4.890625 26.703125 
z
" id="DejaVuSans-52"/>
       </defs>
       <use xlink:href="#DejaVuSans-52"/>
      </g>
     </g>
    </g>
    <g id="xtick_4">
     <g id="line2d_7">
      <path clip-path="url(#pd033eba8c8)" d="M 289.125 433.538182 
L 289.125 112.32 
" style="fill:none;stroke:#808080;stroke-linecap:square;stroke-width:0.8;"/>
     </g>
     <g id="line2d_8">
      <g>
       <use style="stroke:#000000;stroke-width:0.8;" x="289.125" xlink:href="#m5a24faa0f4" y="433.538182"/>
      </g>
     </g>
     <g id="text_4">
      <!-- 8 -->
      <g transform="translate(285.94375 448.136619)scale(0.1 -0.1)">
       <defs>
        <path d="M 31.78125 34.625 
Q 24.75 34.625 20.71875 30.859375 
Q 16.703125 27.09375 16.703125 20.515625 
Q 16.703125 13.921875 20.71875 10.15625 
Q 24.75 6.390625 31.78125 6.390625 
Q 38.8125 6.390625 42.859375 10.171875 
Q 46.921875 13.96875 46.921875 20.515625 
Q 46.921875 27.09375 42.890625 30.859375 
Q 38.875 34.625 31.78125 34.625 
z
M 21.921875 38.8125 
Q 15.578125 40.375 12.03125 44.71875 
Q 8.5 49.078125 8.5 55.328125 
Q 8.5 64.0625 14.71875 69.140625 
Q 20.953125 74.21875 31.78125 74.21875 
Q 42.671875 74.21875 48.875 69.140625 
Q 55.078125 64.0625 55.078125 55.328125 
Q 55.078125 49.078125 51.53125 44.71875 
Q 48 40.375 41.703125 38.8125 
Q 48.828125 37.15625 52.796875 32.3125 
Q 56.78125 27.484375 56.78125 20.515625 
Q 56.78125 9.90625 50.3125 4.234375 
Q 43.84375 -1.421875 31.78125 -1.421875 
Q 19.734375 -1.421875 13.25 4.234375 
Q 6.78125 9.90625 6.78125 20.515625 
Q 6.78125 27.484375 10.78125 32.3125 
Q 14.796875 37.15625 21.921875 38.8125 
z
M 18.3125 54.390625 
Q 18.3125 48.734375 21.84375 45.5625 
Q 25.390625 42.390625 31.78125 42.390625 
Q 38.140625 42.390625 41.71875 45.5625 
Q 45.3125 48.734375 45.3125 54.390625 
Q 45.3125 60.0625 41.71875 63.234375 
Q 38.140625 66.40625 31.78125 66.40625 
Q 25.390625 66.40625 21.84375 63.234375 
Q 18.3125 60.0625 18.3125 54.390625 
z
" id="DejaVuSans-56"/>
       </defs>
       <use xlink:href="#DejaVuSans-56"/>
      </g>
     </g>
    </g>
    <g id="text_5">
     <!-- size -->
     <g transform="translate(172.866562 463.334432)scale(0.12 -0.12)">
      <defs>
       <path d="M 44.28125 53.078125 
L 44.28125 44.578125 
Q 40.484375 46.53125 36.375 47.5 
Q 32.28125 48.484375 27.875 48.484375 
Q 21.1875 48.484375 17.84375 46.4375 
Q 14.5 44.390625 14.5 40.28125 
Q 14.5 37.15625 16.890625 35.375 
Q 19.28125 33.59375 26.515625 31.984375 
L 29.59375 31.296875 
Q 39.15625 29.25 43.1875 25.515625 
Q 47.21875 21.78125 47.21875 15.09375 
Q 47.21875 7.46875 41.1875 3.015625 
Q 35.15625 -1.421875 24.609375 -1.421875 
Q 20.21875 -1.421875 15.453125 -0.5625 
Q 10.6875 0.296875 5.421875 2 
L 5.421875 11.28125 
Q 10.40625 8.6875 15.234375 7.390625 
Q 20.0625 6.109375 24.8125 6.109375 
Q 31.15625 6.109375 34.5625 8.28125 
Q 37.984375 10.453125 37.984375 14.40625 
Q 37.984375 18.0625 35.515625 20.015625 
Q 33.0625 21.96875 24.703125 23.78125 
L 21.578125 24.515625 
Q 13.234375 26.265625 9.515625 29.90625 
Q 5.8125 33.546875 5.8125 39.890625 
Q 5.8125 47.609375 11.28125 51.796875 
Q 16.75 56 26.8125 56 
Q 31.78125 56 36.171875 55.265625 
Q 40.578125 54.546875 44.28125 53.078125 
z
" id="DejaVuSans-115"/>
       <path d="M 9.421875 54.6875 
L 18.40625 54.6875 
L 18.40625 0 
L 9.421875 0 
z
M 9.421875 75.984375 
L 18.40625 75.984375 
L 18.40625 64.59375 
L 9.421875 64.59375 
z
" id="DejaVuSans-105"/>
       <path d="M 5.515625 54.6875 
L 48.1875 54.6875 
L 48.1875 46.484375 
L 14.40625 7.171875 
L 48.1875 7.171875 
L 48.1875 0 
L 4.296875 0 
L 4.296875 8.203125 
L 38.09375 47.515625 
L 5.515625 47.515625 
z
" id="DejaVuSans-122"/>
       <path d="M 56.203125 29.59375 
L 56.203125 25.203125 
L 14.890625 25.203125 
Q 15.484375 15.921875 20.484375 11.0625 
Q 25.484375 6.203125 34.421875 6.203125 
Q 39.59375 6.203125 44.453125 7.46875 
Q 49.3125 8.734375 54.109375 11.28125 
L 54.109375 2.78125 
Q 49.265625 0.734375 44.1875 -0.34375 
Q 39.109375 -1.421875 33.890625 -1.421875 
Q 20.796875 -1.421875 13.15625 6.1875 
Q 5.515625 13.8125 5.515625 26.8125 
Q 5.515625 40.234375 12.765625 48.109375 
Q 20.015625 56 32.328125 56 
Q 43.359375 56 49.78125 48.890625 
Q 56.203125 41.796875 56.203125 29.59375 
z
M 47.21875 32.234375 
Q 47.125 39.59375 43.09375 43.984375 
Q 39.0625 48.390625 32.421875 48.390625 
Q 24.90625 48.390625 20.390625 44.140625 
Q 15.875 39.890625 15.1875 32.171875 
z
" id="DejaVuSans-101"/>
      </defs>
      <use xlink:href="#DejaVuSans-115"/>
      <use x="52.099609" xlink:href="#DejaVuSans-105"/>
      <use x="79.882812" xlink:href="#DejaVuSans-122"/>
      <use x="132.373047" xlink:href="#DejaVuSans-101"/>
     </g>
    </g>
   </g>
   <g id="matplotlib.axis_2">
    <g id="ytick_1">
     <g id="line2d_9">
      <path clip-path="url(#pd033eba8c8)" d="M 45 388.716888 
L 324 388.716888 
" style="fill:none;stroke:#808080;stroke-linecap:square;stroke-width:0.8;"/>
     </g>
     <g id="line2d_10">
      <defs>
       <path d="M 0 0 
L -3.5 0 
" id="mf8a5e5d6c1" style="stroke:#000000;stroke-width:0.8;"/>
      </defs>
      <g>
       <use style="stroke:#000000;stroke-width:0.8;" x="45" xlink:href="#mf8a5e5d6c1" y="388.716888"/>
      </g>
     </g>
     <g id="text_6">
      <!-- −6 -->
      <g transform="translate(23.257812 392.516107)scale(0.1 -0.1)">
       <defs>
        <path d="M 10.59375 35.5 
L 73.1875 35.5 
L 73.1875 27.203125 
L 10.59375 27.203125 
z
" id="DejaVuSans-8722"/>
        <path d="M 33.015625 40.375 
Q 26.375 40.375 22.484375 35.828125 
Q 18.609375 31.296875 18.609375 23.390625 
Q 18.609375 15.53125 22.484375 10.953125 
Q 26.375 6.390625 33.015625 6.390625 
Q 39.65625 6.390625 43.53125 10.953125 
Q 47.40625 15.53125 47.40625 23.390625 
Q 47.40625 31.296875 43.53125 35.828125 
Q 39.65625 40.375 33.015625 40.375 
z
M 52.59375 71.296875 
L 52.59375 62.3125 
Q 48.875 64.0625 45.09375 64.984375 
Q 41.3125 65.921875 37.59375 65.921875 
Q 27.828125 65.921875 22.671875 59.328125 
Q 17.53125 52.734375 16.796875 39.40625 
Q 19.671875 43.65625 24.015625 45.921875 
Q 28.375 48.1875 33.59375 48.1875 
Q 44.578125 48.1875 50.953125 41.515625 
Q 57.328125 34.859375 57.328125 23.390625 
Q 57.328125 12.15625 50.6875 5.359375 
Q 44.046875 -1.421875 33.015625 -1.421875 
Q 20.359375 -1.421875 13.671875 8.265625 
Q 6.984375 17.96875 6.984375 36.375 
Q 6.984375 53.65625 15.1875 63.9375 
Q 23.390625 74.21875 37.203125 74.21875 
Q 40.921875 74.21875 44.703125 73.484375 
Q 48.484375 72.75 52.59375 71.296875 
z
" id="DejaVuSans-54"/>
       </defs>
       <use xlink:href="#DejaVuSans-8722"/>
       <use x="83.789062" xlink:href="#DejaVuSans-54"/>
      </g>
     </g>
    </g>
    <g id="ytick_2">
     <g id="line2d_11">
      <path clip-path="url(#pd033eba8c8)" d="M 45 341.700248 
L 324 341.700248 
" style="fill:none;stroke:#808080;stroke-linecap:square;stroke-width:0.8;"/>
     </g>
     <g id="line2d_12">
      <g>
       <use style="stroke:#000000;stroke-width:0.8;" x="45" xlink:href="#mf8a5e5d6c1" y="341.700248"/>
      </g>
     </g>
     <g id="text_7">
      <!-- −5 -->
      <g transform="translate(23.257812 345.499467)scale(0.1 -0.1)">
       <defs>
        <path d="M 10.796875 72.90625 
L 49.515625 72.90625 
L 49.515625 64.59375 
L 19.828125 64.59375 
L 19.828125 46.734375 
Q 21.96875 47.46875 24.109375 47.828125 
Q 26.265625 48.1875 28.421875 48.1875 
Q 40.625 48.1875 47.75 41.5 
Q 54.890625 34.8125 54.890625 23.390625 
Q 54.890625 11.625 47.5625 5.09375 
Q 40.234375 -1.421875 26.90625 -1.421875 
Q 22.3125 -1.421875 17.546875 -0.640625 
Q 12.796875 0.140625 7.71875 1.703125 
L 7.71875 11.625 
Q 12.109375 9.234375 16.796875 8.0625 
Q 21.484375 6.890625 26.703125 6.890625 
Q 35.15625 6.890625 40.078125 11.328125 
Q 45.015625 15.765625 45.015625 23.390625 
Q 45.015625 31 40.078125 35.4375 
Q 35.15625 39.890625 26.703125 39.890625 
Q 22.75 39.890625 18.8125 39.015625 
Q 14.890625 38.140625 10.796875 36.28125 
z
" id="DejaVuSans-53"/>
       </defs>
       <use xlink:href="#DejaVuSans-8722"/>
       <use x="83.789062" xlink:href="#DejaVuSans-53"/>
      </g>
     </g>
    </g>
    <g id="ytick_3">
     <g id="line2d_13">
      <path clip-path="url(#pd033eba8c8)" d="M 45 294.683608 
L 324 294.683608 
" style="fill:none;stroke:#808080;stroke-linecap:square;stroke-width:0.8;"/>
     </g>
     <g id="line2d_14">
      <g>
       <use style="stroke:#000000;stroke-width:0.8;" x="45" xlink:href="#mf8a5e5d6c1" y="294.683608"/>
      </g>
     </g>
     <g id="text_8">
      <!-- −4 -->
      <g transform="translate(23.257812 298.482827)scale(0.1 -0.1)">
       <use xlink:href="#DejaVuSans-8722"/>
       <use x="83.789062" xlink:href="#DejaVuSans-52"/>
      </g>
     </g>
    </g>
    <g id="ytick_4">
     <g id="line2d_15">
      <path clip-path="url(#pd033eba8c8)" d="M 45 247.666969 
L 324 247.666969 
" style="fill:none;stroke:#808080;stroke-linecap:square;stroke-width:0.8;"/>
     </g>
     <g id="line2d_16">
      <g>
       <use style="stroke:#000000;stroke-width:0.8;" x="45" xlink:href="#mf8a5e5d6c1" y="247.666969"/>
      </g>
     </g>
     <g id="text_9">
      <!-- −3 -->
      <g transform="translate(23.257812 251.466187)scale(0.1 -0.1)">
       <defs>
        <path d="M 40.578125 39.3125 
Q 47.65625 37.796875 51.625 33 
Q 55.609375 28.21875 55.609375 21.1875 
Q 55.609375 10.40625 48.1875 4.484375 
Q 40.765625 -1.421875 27.09375 -1.421875 
Q 22.515625 -1.421875 17.65625 -0.515625 
Q 12.796875 0.390625 7.625 2.203125 
L 7.625 11.71875 
Q 11.71875 9.328125 16.59375 8.109375 
Q 21.484375 6.890625 26.8125 6.890625 
Q 36.078125 6.890625 40.9375 10.546875 
Q 45.796875 14.203125 45.796875 21.1875 
Q 45.796875 27.640625 41.28125 31.265625 
Q 36.765625 34.90625 28.71875 34.90625 
L 20.21875 34.90625 
L 20.21875 43.015625 
L 29.109375 43.015625 
Q 36.375 43.015625 40.234375 45.921875 
Q 44.09375 48.828125 44.09375 54.296875 
Q 44.09375 59.90625 40.109375 62.90625 
Q 36.140625 65.921875 28.71875 65.921875 
Q 24.65625 65.921875 20.015625 65.03125 
Q 15.375 64.15625 9.8125 62.3125 
L 9.8125 71.09375 
Q 15.4375 72.65625 20.34375 73.4375 
Q 25.25 74.21875 29.59375 74.21875 
Q 40.828125 74.21875 47.359375 69.109375 
Q 53.90625 64.015625 53.90625 55.328125 
Q 53.90625 49.265625 50.4375 45.09375 
Q 46.96875 40.921875 40.578125 39.3125 
z
" id="DejaVuSans-51"/>
       </defs>
       <use xlink:href="#DejaVuSans-8722"/>
       <use x="83.789062" xlink:href="#DejaVuSans-51"/>
      </g>
     </g>
    </g>
    <g id="ytick_5">
     <g id="line2d_17">
      <path clip-path="url(#pd033eba8c8)" d="M 45 200.650329 
L 324 200.650329 
" style="fill:none;stroke:#808080;stroke-linecap:square;stroke-width:0.8;"/>
     </g>
     <g id="line2d_18">
      <g>
       <use style="stroke:#000000;stroke-width:0.8;" x="45" xlink:href="#mf8a5e5d6c1" y="200.650329"/>
      </g>
     </g>
     <g id="text_10">
      <!-- −2 -->
      <g transform="translate(23.257812 204.449548)scale(0.1 -0.1)">
       <use xlink:href="#DejaVuSans-8722"/>
       <use x="83.789062" xlink:href="#DejaVuSans-50"/>
      </g>
     </g>
    </g>
    <g id="ytick_6">
     <g id="line2d_19">
      <path clip-path="url(#pd033eba8c8)" d="M 45 153.633689 
L 324 153.633689 
" style="fill:none;stroke:#808080;stroke-linecap:square;stroke-width:0.8;"/>
     </g>
     <g id="line2d_20">
      <g>
       <use style="stroke:#000000;stroke-width:0.8;" x="45" xlink:href="#mf8a5e5d6c1" y="153.633689"/>
      </g>
     </g>
     <g id="text_11">
      <!-- −1 -->
      <g transform="translate(23.257812 157.432908)scale(0.1 -0.1)">
       <use xlink:href="#DejaVuSans-8722"/>
       <use x="83.789062" xlink:href="#DejaVuSans-49"/>
      </g>
     </g>
    </g>
    <g id="text_12">
     <!-- $\log_{10}(\mathcal{L}_\theta)$ -->
     <g transform="translate(16.737812 299.329091)rotate(-90)scale(0.12 -0.12)">
      <defs>
       <path d="M 9.421875 75.984375 
L 18.40625 75.984375 
L 18.40625 0 
L 9.421875 0 
z
" id="DejaVuSans-108"/>
       <path d="M 30.609375 48.390625 
Q 23.390625 48.390625 19.1875 42.75 
Q 14.984375 37.109375 14.984375 27.296875 
Q 14.984375 17.484375 19.15625 11.84375 
Q 23.34375 6.203125 30.609375 6.203125 
Q 37.796875 6.203125 41.984375 11.859375 
Q 46.1875 17.53125 46.1875 27.296875 
Q 46.1875 37.015625 41.984375 42.703125 
Q 37.796875 48.390625 30.609375 48.390625 
z
M 30.609375 56 
Q 42.328125 56 49.015625 48.375 
Q 55.71875 40.765625 55.71875 27.296875 
Q 55.71875 13.875 49.015625 6.21875 
Q 42.328125 -1.421875 30.609375 -1.421875 
Q 18.84375 -1.421875 12.171875 6.21875 
Q 5.515625 13.875 5.515625 27.296875 
Q 5.515625 40.765625 12.171875 48.375 
Q 18.84375 56 30.609375 56 
z
" id="DejaVuSans-111"/>
       <path d="M 45.40625 27.984375 
Q 45.40625 37.75 41.375 43.109375 
Q 37.359375 48.484375 30.078125 48.484375 
Q 22.859375 48.484375 18.828125 43.109375 
Q 14.796875 37.75 14.796875 27.984375 
Q 14.796875 18.265625 18.828125 12.890625 
Q 22.859375 7.515625 30.078125 7.515625 
Q 37.359375 7.515625 41.375 12.890625 
Q 45.40625 18.265625 45.40625 27.984375 
z
M 54.390625 6.78125 
Q 54.390625 -7.171875 48.1875 -13.984375 
Q 42 -20.796875 29.203125 -20.796875 
Q 24.46875 -20.796875 20.265625 -20.09375 
Q 16.0625 -19.390625 12.109375 -17.921875 
L 12.109375 -9.1875 
Q 16.0625 -11.328125 19.921875 -12.34375 
Q 23.78125 -13.375 27.78125 -13.375 
Q 36.625 -13.375 41.015625 -8.765625 
Q 45.40625 -4.15625 45.40625 5.171875 
L 45.40625 9.625 
Q 42.625 4.78125 38.28125 2.390625 
Q 33.9375 0 27.875 0 
Q 17.828125 0 11.671875 7.65625 
Q 5.515625 15.328125 5.515625 27.984375 
Q 5.515625 40.671875 11.671875 48.328125 
Q 17.828125 56 27.875 56 
Q 33.9375 56 38.28125 53.609375 
Q 42.625 51.21875 45.40625 46.390625 
L 45.40625 54.6875 
L 54.390625 54.6875 
z
" id="DejaVuSans-103"/>
       <path d="M 31.78125 66.40625 
Q 24.171875 66.40625 20.328125 58.90625 
Q 16.5 51.421875 16.5 36.375 
Q 16.5 21.390625 20.328125 13.890625 
Q 24.171875 6.390625 31.78125 6.390625 
Q 39.453125 6.390625 43.28125 13.890625 
Q 47.125 21.390625 47.125 36.375 
Q 47.125 51.421875 43.28125 58.90625 
Q 39.453125 66.40625 31.78125 66.40625 
z
M 31.78125 74.21875 
Q 44.046875 74.21875 50.515625 64.515625 
Q 56.984375 54.828125 56.984375 36.375 
Q 56.984375 17.96875 50.515625 8.265625 
Q 44.046875 -1.421875 31.78125 -1.421875 
Q 19.53125 -1.421875 13.0625 8.265625 
Q 6.59375 17.96875 6.59375 36.375 
Q 6.59375 54.828125 13.0625 64.515625 
Q 19.53125 74.21875 31.78125 74.21875 
z
" id="DejaVuSans-48"/>
       <path d="M 31 75.875 
Q 24.46875 64.65625 21.28125 53.65625 
Q 18.109375 42.671875 18.109375 31.390625 
Q 18.109375 20.125 21.3125 9.0625 
Q 24.515625 -2 31 -13.1875 
L 23.1875 -13.1875 
Q 15.875 -1.703125 12.234375 9.375 
Q 8.59375 20.453125 8.59375 31.390625 
Q 8.59375 42.28125 12.203125 53.3125 
Q 15.828125 64.359375 23.1875 75.875 
z
" id="DejaVuSans-40"/>
       <path d="M 63.59375 14.296875 
L 65.296875 12.5 
Q 52.296875 -0.703125 37.703125 -0.703125 
Q 33.703125 -0.703125 28.90625 0.40625 
Q 21.796875 1.90625 17.90625 1.90625 
Q 15.703125 1.90625 10.5 0.953125 
Q 5.296875 0 3 0 
L 3.59375 2.40625 
Q 9.09375 2.40625 11.40625 11.703125 
L 18.40625 40.09375 
Q 20.09375 47 23.6875 52.390625 
Q 27.296875 57.796875 31.640625 60.84375 
Q 36 63.90625 40.390625 65.453125 
Q 44.796875 67 48.796875 67 
Q 53.796875 67 56.140625 63.796875 
Q 58.5 60.59375 58.5 56 
Q 58.5 52.296875 56.140625 50 
Q 53.796875 47.703125 50.40625 47.703125 
Q 48.203125 47.703125 46.796875 49.203125 
Q 45.40625 50.703125 45.40625 52.796875 
Q 45.40625 54.40625 46.203125 55.5 
Q 47 56.59375 47.890625 56.9375 
Q 48.796875 57.296875 49.59375 57.890625 
Q 50.40625 58.5 50.40625 59.203125 
Q 50.40625 63 44.59375 63 
Q 39.40625 63 36.09375 59.140625 
Q 32.796875 55.296875 31.09375 48.9375 
Q 29.40625 42.59375 28.046875 35.6875 
Q 26.703125 28.796875 24.203125 21.296875 
Q 21.703125 13.796875 18.09375 9.203125 
L 18.09375 8.796875 
Q 21.296875 11 29.5 11 
Q 34.796875 11 38.4375 8.5 
Q 42.09375 6 46.296875 6 
Q 54.796875 6 63.59375 14.296875 
z
" id="STIXNonUnicode-Italic-57912"/>
       <path d="M 45.515625 34.671875 
L 14.453125 34.671875 
Q 12.359375 20.0625 14.5 13.875 
Q 17.1875 6.25 24.46875 6.25 
Q 31.78125 6.25 37.359375 13.921875 
Q 42.234375 20.65625 45.515625 34.671875 
z
M 47.015625 42.96875 
Q 48.34375 56.84375 46.625 61.71875 
Q 43.953125 69.4375 36.765625 69.4375 
Q 29.296875 69.4375 23.828125 61.8125 
Q 19.53125 55.671875 16.15625 42.96875 
z
M 38.1875 76.765625 
Q 49.90625 76.765625 54.59375 66.40625 
Q 59.28125 56.109375 55.71875 37.84375 
Q 52.203125 19.625 43.453125 9.28125 
Q 34.765625 -1.125 23.046875 -1.125 
Q 11.28125 -1.125 6.640625 9.28125 
Q 2 19.625 5.515625 37.84375 
Q 9.078125 56.109375 17.71875 66.40625 
Q 26.421875 76.765625 38.1875 76.765625 
z
" id="DejaVuSans-Oblique-952"/>
       <path d="M 8.015625 75.875 
L 15.828125 75.875 
Q 23.140625 64.359375 26.78125 53.3125 
Q 30.421875 42.28125 30.421875 31.390625 
Q 30.421875 20.453125 26.78125 9.375 
Q 23.140625 -1.703125 15.828125 -13.1875 
L 8.015625 -13.1875 
Q 14.5 -2 17.703125 9.0625 
Q 20.90625 20.125 20.90625 31.390625 
Q 20.90625 42.671875 17.703125 53.65625 
Q 14.5 64.65625 8.015625 75.875 
z
" id="DejaVuSans-41"/>
      </defs>
      <use transform="translate(0 0.015625)" xlink:href="#DejaVuSans-108"/>
      <use transform="translate(27.783203 0.015625)" xlink:href="#DejaVuSans-111"/>
      <use transform="translate(88.964844 0.015625)" xlink:href="#DejaVuSans-103"/>
      <use transform="translate(153.398438 -16.390625)scale(0.7)" xlink:href="#DejaVuSans-49"/>
      <use transform="translate(197.93457 -16.390625)scale(0.7)" xlink:href="#DejaVuSans-48"/>
      <use transform="translate(245.205078 0.015625)" xlink:href="#DejaVuSans-40"/>
      <use transform="translate(284.21875 0.015625)" xlink:href="#STIXNonUnicode-Italic-57912"/>
      <use transform="translate(354.475769 -16.390625)scale(0.7)" xlink:href="#DejaVuSans-Oblique-952"/>
      <use transform="translate(400.037292 0.015625)" xlink:href="#DejaVuSans-41"/>
     </g>
    </g>
   </g>
   <g id="PolyCollection_1">
    <defs>
     <path d="M 81.527593 -540.127166 
L 78.222407 -540.127166 
L 77.935694 -542.843852 
L 77.61259 -545.560539 
L 77.251116 -548.277226 
L 76.849688 -550.993913 
L 76.407211 -553.7106 
L 75.923181 -556.427287 
L 75.397775 -559.143974 
L 74.831932 -561.860661 
L 74.227429 -564.577348 
L 73.586925 -567.294035 
L 72.913997 -570.010722 
L 72.213141 -572.727409 
L 71.489749 -575.444096 
L 70.750051 -578.160783 
L 70.001034 -580.87747 
L 69.250316 -583.594157 
L 68.50601 -586.310844 
L 67.776544 -589.027531 
L 67.070473 -591.744218 
L 66.396267 -594.460905 
L 65.762099 -597.177591 
L 65.175629 -599.894278 
L 64.643789 -602.610965 
L 64.172599 -605.327652 
L 63.766987 -608.044339 
L 63.430657 -610.761026 
L 63.165983 -613.477713 
L 62.973939 -616.1944 
L 62.854087 -618.911087 
L 62.804591 -621.627774 
L 62.822285 -624.344461 
L 62.902779 -627.061148 
L 63.040595 -629.777835 
L 63.229341 -632.494522 
L 63.461901 -635.211209 
L 63.730646 -637.927896 
L 64.027648 -640.644583 
L 64.344897 -643.36127 
L 64.674512 -646.077957 
L 65.008934 -648.794644 
L 65.341104 -651.51133 
L 65.664613 -654.228017 
L 65.973831 -656.944704 
L 66.263997 -659.661391 
L 66.531292 -662.378078 
L 66.772872 -665.094765 
L 66.986879 -667.811452 
L 67.172424 -670.528139 
L 67.329549 -673.244826 
L 67.45917 -675.961513 
L 67.563 -678.6782 
L 67.643464 -681.394887 
L 67.703599 -684.111574 
L 67.746952 -686.828261 
L 67.777473 -689.544948 
L 67.799403 -692.261635 
L 67.817168 -694.978322 
L 67.835271 -697.695009 
L 67.858185 -700.411696 
L 67.890262 -703.128383 
L 67.935636 -705.845069 
L 67.99814 -708.561756 
L 68.08123 -711.278443 
L 68.187919 -713.99513 
L 68.320715 -716.711817 
L 68.481586 -719.428504 
L 68.671915 -722.145191 
L 68.892488 -724.861878 
L 69.143479 -727.578565 
L 69.424463 -730.295252 
L 69.734424 -733.011939 
L 70.071798 -735.728626 
L 70.434507 -738.445313 
L 70.820014 -741.162 
L 71.225392 -743.878687 
L 71.647389 -746.595374 
L 72.082508 -749.312061 
L 72.527086 -752.028748 
L 72.977378 -754.745435 
L 73.429634 -757.462122 
L 73.88018 -760.178808 
L 74.32549 -762.895495 
L 74.762249 -765.612182 
L 75.187413 -768.328869 
L 75.598252 -771.045556 
L 75.992388 -773.762243 
L 76.36782 -776.47893 
L 76.722938 -779.195617 
L 77.056525 -781.912304 
L 77.367749 -784.628991 
L 77.656152 -787.345678 
L 77.92162 -790.062365 
L 78.164357 -792.779052 
L 78.384849 -795.495739 
L 78.583825 -798.212426 
L 78.762217 -800.929113 
L 78.921122 -803.6458 
L 79.061757 -806.362487 
L 79.185426 -809.079174 
L 80.564574 -809.079174 
L 80.564574 -809.079174 
L 80.688243 -806.362487 
L 80.828878 -803.6458 
L 80.987783 -800.929113 
L 81.166175 -798.212426 
L 81.365151 -795.495739 
L 81.585643 -792.779052 
L 81.82838 -790.062365 
L 82.093848 -787.345678 
L 82.382251 -784.628991 
L 82.693475 -781.912304 
L 83.027062 -779.195617 
L 83.38218 -776.47893 
L 83.757612 -773.762243 
L 84.151748 -771.045556 
L 84.562587 -768.328869 
L 84.987751 -765.612182 
L 85.42451 -762.895495 
L 85.86982 -760.178808 
L 86.320366 -757.462122 
L 86.772622 -754.745435 
L 87.222914 -752.028748 
L 87.667492 -749.312061 
L 88.102611 -746.595374 
L 88.524608 -743.878687 
L 88.929986 -741.162 
L 89.315493 -738.445313 
L 89.678202 -735.728626 
L 90.015576 -733.011939 
L 90.325537 -730.295252 
L 90.606521 -727.578565 
L 90.857512 -724.861878 
L 91.078085 -722.145191 
L 91.268414 -719.428504 
L 91.429285 -716.711817 
L 91.562081 -713.99513 
L 91.66877 -711.278443 
L 91.75186 -708.561756 
L 91.814364 -705.845069 
L 91.859738 -703.128383 
L 91.891815 -700.411696 
L 91.914729 -697.695009 
L 91.932832 -694.978322 
L 91.950597 -692.261635 
L 91.972527 -689.544948 
L 92.003048 -686.828261 
L 92.046401 -684.111574 
L 92.106536 -681.394887 
L 92.187 -678.6782 
L 92.29083 -675.961513 
L 92.420451 -673.244826 
L 92.577576 -670.528139 
L 92.763121 -667.811452 
L 92.977128 -665.094765 
L 93.218708 -662.378078 
L 93.486003 -659.661391 
L 93.776169 -656.944704 
L 94.085387 -654.228017 
L 94.408896 -651.51133 
L 94.741066 -648.794644 
L 95.075488 -646.077957 
L 95.405103 -643.36127 
L 95.722352 -640.644583 
L 96.019354 -637.927896 
L 96.288099 -635.211209 
L 96.520659 -632.494522 
L 96.709405 -629.777835 
L 96.847221 -627.061148 
L 96.927715 -624.344461 
L 96.945409 -621.627774 
L 96.895913 -618.911087 
L 96.776061 -616.1944 
L 96.584017 -613.477713 
L 96.319343 -610.761026 
L 95.983013 -608.044339 
L 95.577401 -605.327652 
L 95.106211 -602.610965 
L 94.574371 -599.894278 
L 93.987901 -597.177591 
L 93.353733 -594.460905 
L 92.679527 -591.744218 
L 91.973456 -589.027531 
L 91.24399 -586.310844 
L 90.499684 -583.594157 
L 89.748966 -580.87747 
L 88.999949 -578.160783 
L 88.260251 -575.444096 
L 87.536859 -572.727409 
L 86.836003 -570.010722 
L 86.163075 -567.294035 
L 85.522571 -564.577348 
L 84.918068 -561.860661 
L 84.352225 -559.143974 
L 83.826819 -556.427287 
L 83.342789 -553.7106 
L 82.900312 -550.993913 
L 82.498884 -548.277226 
L 82.13741 -545.560539 
L 81.814306 -542.843852 
L 81.527593 -540.127166 
z
" id="mc50dd5fa52"/>
    </defs>
    <g clip-path="url(#pd033eba8c8)">
     <use style="fill:#ce1e5c;" x="0" xlink:href="#mc50dd5fa52" y="936"/>
    </g>
   </g>
   <g id="PolyCollection_2">
    <defs>
     <path d="M 150.417838 -517.062645 
L 148.832162 -517.062645 
L 148.690597 -519.713445 
L 148.530189 -522.364245 
L 148.349714 -525.015045 
L 148.148111 -527.665845 
L 147.924528 -530.316645 
L 147.678373 -532.967445 
L 147.409359 -535.618245 
L 147.117553 -538.269045 
L 146.803412 -540.919845 
L 146.467813 -543.570645 
L 146.112079 -546.221445 
L 145.737984 -548.872245 
L 145.347751 -551.523045 
L 144.944035 -554.173845 
L 144.529888 -556.824646 
L 144.108712 -559.475446 
L 143.684196 -562.126246 
L 143.260237 -564.777046 
L 142.840857 -567.427846 
L 142.430101 -570.078646 
L 142.031937 -572.729446 
L 141.65015 -575.380246 
L 141.288237 -578.031046 
L 140.949303 -580.681846 
L 140.635976 -583.332646 
L 140.350315 -585.983446 
L 140.093749 -588.634246 
L 139.867025 -591.285046 
L 139.670168 -593.935846 
L 139.502471 -596.586646 
L 139.362496 -599.237447 
L 139.248096 -601.888247 
L 139.156457 -604.539047 
L 139.084152 -607.189847 
L 139.027211 -609.840647 
L 138.981213 -612.491447 
L 138.941373 -615.142247 
L 138.902651 -617.793047 
L 138.859865 -620.443847 
L 138.807802 -623.094647 
L 138.741346 -625.745447 
L 138.655593 -628.396247 
L 138.545976 -631.047047 
L 138.408381 -633.697847 
L 138.239269 -636.348647 
L 138.035781 -638.999447 
L 137.795842 -641.650247 
L 137.518255 -644.301048 
L 137.202777 -646.951848 
L 136.850184 -649.602648 
L 136.462314 -652.253448 
L 136.042093 -654.904248 
L 135.593531 -657.555048 
L 135.121696 -660.205848 
L 134.632657 -662.856648 
L 134.133396 -665.507448 
L 133.631702 -668.158248 
L 133.136016 -670.809048 
L 132.655276 -673.459848 
L 132.198716 -676.110648 
L 131.775661 -678.761448 
L 131.395306 -681.412248 
L 131.06649 -684.063048 
L 130.797466 -686.713849 
L 130.595687 -689.364649 
L 130.467605 -692.015449 
L 130.418489 -694.666249 
L 130.45228 -697.317049 
L 130.571475 -699.967849 
L 130.777053 -702.618649 
L 131.068447 -705.269449 
L 131.44355 -707.920249 
L 131.898775 -710.571049 
L 132.429148 -713.221849 
L 133.028446 -715.872649 
L 133.689359 -718.523449 
L 134.403685 -721.174249 
L 135.162544 -723.825049 
L 135.956597 -726.475849 
L 136.776279 -729.126649 
L 137.612021 -731.77745 
L 138.454462 -734.42825 
L 139.294645 -737.07905 
L 140.124193 -739.72985 
L 140.93545 -742.38065 
L 141.7216 -745.03145 
L 142.476752 -747.68225 
L 143.195989 -750.33305 
L 143.875394 -752.98385 
L 144.51204 -755.63465 
L 145.103956 -758.28545 
L 145.650073 -760.93625 
L 146.150149 -763.58705 
L 146.604682 -766.23785 
L 147.014812 -768.88865 
L 147.382218 -771.53945 
L 147.709014 -774.190251 
L 147.997647 -776.841051 
L 148.2508 -779.491851 
L 150.9992 -779.491851 
L 150.9992 -779.491851 
L 151.252353 -776.841051 
L 151.540986 -774.190251 
L 151.867782 -771.53945 
L 152.235188 -768.88865 
L 152.645318 -766.23785 
L 153.099851 -763.58705 
L 153.599927 -760.93625 
L 154.146044 -758.28545 
L 154.73796 -755.63465 
L 155.374606 -752.98385 
L 156.054011 -750.33305 
L 156.773248 -747.68225 
L 157.5284 -745.03145 
L 158.31455 -742.38065 
L 159.125807 -739.72985 
L 159.955355 -737.07905 
L 160.795538 -734.42825 
L 161.637979 -731.77745 
L 162.473721 -729.126649 
L 163.293403 -726.475849 
L 164.087456 -723.825049 
L 164.846315 -721.174249 
L 165.560641 -718.523449 
L 166.221554 -715.872649 
L 166.820852 -713.221849 
L 167.351225 -710.571049 
L 167.80645 -707.920249 
L 168.181553 -705.269449 
L 168.472947 -702.618649 
L 168.678525 -699.967849 
L 168.79772 -697.317049 
L 168.831511 -694.666249 
L 168.782395 -692.015449 
L 168.654313 -689.364649 
L 168.452534 -686.713849 
L 168.18351 -684.063048 
L 167.854694 -681.412248 
L 167.474339 -678.761448 
L 167.051284 -676.110648 
L 166.594724 -673.459848 
L 166.113984 -670.809048 
L 165.618298 -668.158248 
L 165.116604 -665.507448 
L 164.617343 -662.856648 
L 164.128304 -660.205848 
L 163.656469 -657.555048 
L 163.207907 -654.904248 
L 162.787686 -652.253448 
L 162.399816 -649.602648 
L 162.047223 -646.951848 
L 161.731745 -644.301048 
L 161.454158 -641.650247 
L 161.214219 -638.999447 
L 161.010731 -636.348647 
L 160.841619 -633.697847 
L 160.704024 -631.047047 
L 160.594407 -628.396247 
L 160.508654 -625.745447 
L 160.442198 -623.094647 
L 160.390135 -620.443847 
L 160.347349 -617.793047 
L 160.308627 -615.142247 
L 160.268787 -612.491447 
L 160.222789 -609.840647 
L 160.165848 -607.189847 
L 160.093543 -604.539047 
L 160.001904 -601.888247 
L 159.887504 -599.237447 
L 159.747529 -596.586646 
L 159.579832 -593.935846 
L 159.382975 -591.285046 
L 159.156251 -588.634246 
L 158.899685 -585.983446 
L 158.614024 -583.332646 
L 158.300697 -580.681846 
L 157.961763 -578.031046 
L 157.59985 -575.380246 
L 157.218063 -572.729446 
L 156.819899 -570.078646 
L 156.409143 -567.427846 
L 155.989763 -564.777046 
L 155.565804 -562.126246 
L 155.141288 -559.475446 
L 154.720112 -556.824646 
L 154.305965 -554.173845 
L 153.902249 -551.523045 
L 153.512016 -548.872245 
L 153.137921 -546.221445 
L 152.782187 -543.570645 
L 152.446588 -540.919845 
L 152.132447 -538.269045 
L 151.840641 -535.618245 
L 151.571627 -532.967445 
L 151.325472 -530.316645 
L 151.101889 -527.665845 
L 150.900286 -525.015045 
L 150.719811 -522.364245 
L 150.559403 -519.713445 
L 150.417838 -517.062645 
z
" id="m94ce1dd715"/>
    </defs>
    <g clip-path="url(#pd033eba8c8)">
     <use style="fill:#e05230;" x="0" xlink:href="#m94ce1dd715" y="936"/>
    </g>
   </g>
   <g id="PolyCollection_3">
    <defs>
     <path d="M 220.489851 -539.223882 
L 218.260149 -539.223882 
L 218.048017 -541.034482 
L 217.805516 -542.845083 
L 217.530393 -544.655683 
L 217.220638 -546.466283 
L 216.874567 -548.276883 
L 216.490914 -550.087483 
L 216.068915 -551.898083 
L 215.608396 -553.708683 
L 215.109841 -555.519283 
L 214.574455 -557.329883 
L 214.004205 -559.140484 
L 213.401843 -560.951084 
L 212.770898 -562.761684 
L 212.11565 -564.572284 
L 211.441072 -566.382884 
L 210.752737 -568.193484 
L 210.056711 -570.004084 
L 209.359413 -571.814684 
L 208.667452 -573.625284 
L 207.987454 -575.435885 
L 207.325873 -577.246485 
L 206.688802 -579.057085 
L 206.081783 -580.867685 
L 205.50963 -582.678285 
L 204.976267 -584.488885 
L 204.484588 -586.299485 
L 204.036348 -588.110085 
L 203.632088 -589.920685 
L 203.271092 -591.731286 
L 202.951387 -593.541886 
L 202.669781 -595.352486 
L 202.421941 -597.163086 
L 202.202509 -598.973686 
L 202.005247 -600.784286 
L 201.823223 -602.594886 
L 201.649009 -604.405486 
L 201.474912 -606.216087 
L 201.293212 -608.026687 
L 201.096408 -609.837287 
L 200.877463 -611.647887 
L 200.630053 -613.458487 
L 200.348787 -615.269087 
L 200.029418 -617.079687 
L 199.669026 -618.890287 
L 199.266164 -620.700887 
L 198.820969 -622.511488 
L 198.335231 -624.322088 
L 197.812413 -626.132688 
L 197.257626 -627.943288 
L 196.677551 -629.753888 
L 196.080316 -631.564488 
L 195.475327 -633.375088 
L 194.873052 -635.185688 
L 194.284777 -636.996288 
L 193.722325 -638.806889 
L 193.197763 -640.617489 
L 192.723088 -642.428089 
L 192.309917 -644.238689 
L 191.969188 -646.049289 
L 191.710869 -647.859889 
L 191.543708 -649.670489 
L 191.475 -651.481089 
L 191.510415 -653.291689 
L 191.653857 -655.10229 
L 191.907378 -656.91289 
L 192.271145 -658.72349 
L 192.743453 -660.53409 
L 193.320793 -662.34469 
L 193.997953 -664.15529 
L 194.768173 -665.96589 
L 195.623323 -667.77649 
L 196.554113 -669.58709 
L 197.55032 -671.397691 
L 198.60103 -673.208291 
L 199.694883 -675.018891 
L 200.820315 -676.829491 
L 201.965798 -678.640091 
L 203.120054 -680.450691 
L 204.272266 -682.261291 
L 205.412249 -684.071891 
L 206.530606 -685.882492 
L 207.618855 -687.693092 
L 208.66952 -689.503692 
L 209.676196 -691.314292 
L 210.63359 -693.124892 
L 211.537523 -694.935492 
L 212.384916 -696.746092 
L 213.173746 -698.556692 
L 213.902989 -700.367292 
L 214.572537 -702.177893 
L 215.183111 -703.988493 
L 215.736157 -705.799093 
L 216.23374 -707.609693 
L 216.678437 -709.420293 
L 217.073225 -711.230893 
L 217.421378 -713.041493 
L 217.72637 -714.852093 
L 217.991781 -716.662693 
L 218.221215 -718.473294 
L 220.528785 -718.473294 
L 220.528785 -718.473294 
L 220.758219 -716.662693 
L 221.02363 -714.852093 
L 221.328622 -713.041493 
L 221.676775 -711.230893 
L 222.071563 -709.420293 
L 222.51626 -707.609693 
L 223.013843 -705.799093 
L 223.566889 -703.988493 
L 224.177463 -702.177893 
L 224.847011 -700.367292 
L 225.576254 -698.556692 
L 226.365084 -696.746092 
L 227.212477 -694.935492 
L 228.11641 -693.124892 
L 229.073804 -691.314292 
L 230.08048 -689.503692 
L 231.131145 -687.693092 
L 232.219394 -685.882492 
L 233.337751 -684.071891 
L 234.477734 -682.261291 
L 235.629946 -680.450691 
L 236.784202 -678.640091 
L 237.929685 -676.829491 
L 239.055117 -675.018891 
L 240.14897 -673.208291 
L 241.19968 -671.397691 
L 242.195887 -669.58709 
L 243.126677 -667.77649 
L 243.981827 -665.96589 
L 244.752047 -664.15529 
L 245.429207 -662.34469 
L 246.006547 -660.53409 
L 246.478855 -658.72349 
L 246.842622 -656.91289 
L 247.096143 -655.10229 
L 247.239585 -653.291689 
L 247.275 -651.481089 
L 247.206292 -649.670489 
L 247.039131 -647.859889 
L 246.780812 -646.049289 
L 246.440083 -644.238689 
L 246.026912 -642.428089 
L 245.552237 -640.617489 
L 245.027675 -638.806889 
L 244.465223 -636.996288 
L 243.876948 -635.185688 
L 243.274673 -633.375088 
L 242.669684 -631.564488 
L 242.072449 -629.753888 
L 241.492374 -627.943288 
L 240.937587 -626.132688 
L 240.414769 -624.322088 
L 239.929031 -622.511488 
L 239.483836 -620.700887 
L 239.080974 -618.890287 
L 238.720582 -617.079687 
L 238.401213 -615.269087 
L 238.119947 -613.458487 
L 237.872537 -611.647887 
L 237.653592 -609.837287 
L 237.456788 -608.026687 
L 237.275088 -606.216087 
L 237.100991 -604.405486 
L 236.926777 -602.594886 
L 236.744753 -600.784286 
L 236.547491 -598.973686 
L 236.328059 -597.163086 
L 236.080219 -595.352486 
L 235.798613 -593.541886 
L 235.478908 -591.731286 
L 235.117912 -589.920685 
L 234.713652 -588.110085 
L 234.265412 -586.299485 
L 233.773733 -584.488885 
L 233.24037 -582.678285 
L 232.668217 -580.867685 
L 232.061198 -579.057085 
L 231.424127 -577.246485 
L 230.762546 -575.435885 
L 230.082548 -573.625284 
L 229.390587 -571.814684 
L 228.693289 -570.004084 
L 227.997263 -568.193484 
L 227.308928 -566.382884 
L 226.63435 -564.572284 
L 225.979102 -562.761684 
L 225.348157 -560.951084 
L 224.745795 -559.140484 
L 224.175545 -557.329883 
L 223.640159 -555.519283 
L 223.141604 -553.708683 
L 222.681085 -551.898083 
L 222.259086 -550.087483 
L 221.875433 -548.276883 
L 221.529362 -546.466283 
L 221.219607 -544.655683 
L 220.944484 -542.845083 
L 220.701983 -541.034482 
L 220.489851 -539.223882 
z
" id="mc633f162fe"/>
    </defs>
    <g clip-path="url(#pd033eba8c8)">
     <use style="fill:#379d4b;" x="0" xlink:href="#mc633f162fe" y="936"/>
    </g>
   </g>
   <g id="PolyCollection_4">
    <defs>
     <path d="M 289.814349 -518.926467 
L 288.435651 -518.926467 
L 288.296022 -521.518031 
L 288.134805 -524.109595 
L 287.950052 -526.701159 
L 287.739881 -529.292722 
L 287.502516 -531.884286 
L 287.236328 -534.47585 
L 286.939871 -537.067414 
L 286.611912 -539.658977 
L 286.251457 -542.250541 
L 285.857775 -544.842105 
L 285.430405 -547.433669 
L 284.969168 -550.025232 
L 284.474167 -552.616796 
L 283.945784 -555.20836 
L 283.384682 -557.799923 
L 282.791802 -560.391487 
L 282.168371 -562.983051 
L 281.515913 -565.574615 
L 280.836266 -568.166178 
L 280.131619 -570.757742 
L 279.404545 -573.349306 
L 278.658051 -575.94087 
L 277.895623 -578.532433 
L 277.121278 -581.123997 
L 276.3396 -583.715561 
L 275.555767 -586.307125 
L 274.775552 -588.898688 
L 274.0053 -591.490252 
L 273.251871 -594.081816 
L 272.522539 -596.673379 
L 271.824864 -599.264943 
L 271.166518 -601.856507 
L 270.555086 -604.448071 
L 269.997839 -607.039634 
L 269.501495 -609.631198 
L 269.071983 -612.222762 
L 268.714215 -614.814326 
L 268.431886 -617.405889 
L 268.227322 -619.997453 
L 268.101368 -622.589017 
L 268.053349 -625.180581 
L 268.081085 -627.772144 
L 268.180982 -630.363708 
L 268.348176 -632.955272 
L 268.576736 -635.546835 
L 268.859907 -638.138399 
L 269.190385 -640.729963 
L 269.560598 -643.321527 
L 269.962987 -645.91309 
L 270.390263 -648.504654 
L 270.835636 -651.096218 
L 271.292995 -653.687782 
L 271.757039 -656.279345 
L 272.22335 -658.870909 
L 272.68842 -661.462473 
L 273.149625 -664.054037 
L 273.605155 -666.6456 
L 274.053923 -669.237164 
L 274.495445 -671.828728 
L 274.929716 -674.420291 
L 275.357088 -677.011855 
L 275.778154 -679.603419 
L 276.193654 -682.194983 
L 276.604399 -684.786546 
L 277.011211 -687.37811 
L 277.414889 -689.969674 
L 277.816189 -692.561238 
L 278.215818 -695.152801 
L 278.614424 -697.744365 
L 279.012607 -700.335929 
L 279.410906 -702.927493 
L 279.809796 -705.519056 
L 280.209667 -708.11062 
L 280.610802 -710.702184 
L 281.013347 -713.293747 
L 281.417276 -715.885311 
L 281.822356 -718.476875 
L 282.228122 -721.068439 
L 282.63385 -723.660002 
L 283.038554 -726.251566 
L 283.440985 -728.84313 
L 283.839651 -731.434694 
L 284.232857 -734.026257 
L 284.618745 -736.617821 
L 284.995361 -739.209385 
L 285.360714 -741.800949 
L 285.712856 -744.392512 
L 286.049943 -746.984076 
L 286.370307 -749.57564 
L 286.672509 -752.167203 
L 286.955388 -754.758767 
L 287.218091 -757.350331 
L 287.460095 -759.941895 
L 287.681205 -762.533458 
L 287.881553 -765.125022 
L 288.061569 -767.716586 
L 288.22195 -770.30815 
L 288.363627 -772.899713 
L 288.487715 -775.491277 
L 289.762285 -775.491277 
L 289.762285 -775.491277 
L 289.886373 -772.899713 
L 290.02805 -770.30815 
L 290.188431 -767.716586 
L 290.368447 -765.125022 
L 290.568795 -762.533458 
L 290.789905 -759.941895 
L 291.031909 -757.350331 
L 291.294612 -754.758767 
L 291.577491 -752.167203 
L 291.879693 -749.57564 
L 292.200057 -746.984076 
L 292.537144 -744.392512 
L 292.889286 -741.800949 
L 293.254639 -739.209385 
L 293.631255 -736.617821 
L 294.017143 -734.026257 
L 294.410349 -731.434694 
L 294.809015 -728.84313 
L 295.211446 -726.251566 
L 295.61615 -723.660002 
L 296.021878 -721.068439 
L 296.427644 -718.476875 
L 296.832724 -715.885311 
L 297.236653 -713.293747 
L 297.639198 -710.702184 
L 298.040333 -708.11062 
L 298.440204 -705.519056 
L 298.839094 -702.927493 
L 299.237393 -700.335929 
L 299.635576 -697.744365 
L 300.034182 -695.152801 
L 300.433811 -692.561238 
L 300.835111 -689.969674 
L 301.238789 -687.37811 
L 301.645601 -684.786546 
L 302.056346 -682.194983 
L 302.471846 -679.603419 
L 302.892912 -677.011855 
L 303.320284 -674.420291 
L 303.754555 -671.828728 
L 304.196077 -669.237164 
L 304.644845 -666.6456 
L 305.100375 -664.054037 
L 305.56158 -661.462473 
L 306.02665 -658.870909 
L 306.492961 -656.279345 
L 306.957005 -653.687782 
L 307.414364 -651.096218 
L 307.859737 -648.504654 
L 308.287013 -645.91309 
L 308.689402 -643.321527 
L 309.059615 -640.729963 
L 309.390093 -638.138399 
L 309.673264 -635.546835 
L 309.901824 -632.955272 
L 310.069018 -630.363708 
L 310.168915 -627.772144 
L 310.196651 -625.180581 
L 310.148632 -622.589017 
L 310.022678 -619.997453 
L 309.818114 -617.405889 
L 309.535785 -614.814326 
L 309.178017 -612.222762 
L 308.748505 -609.631198 
L 308.252161 -607.039634 
L 307.694914 -604.448071 
L 307.083482 -601.856507 
L 306.425136 -599.264943 
L 305.727461 -596.673379 
L 304.998129 -594.081816 
L 304.2447 -591.490252 
L 303.474448 -588.898688 
L 302.694233 -586.307125 
L 301.9104 -583.715561 
L 301.128722 -581.123997 
L 300.354377 -578.532433 
L 299.591949 -575.94087 
L 298.845455 -573.349306 
L 298.118381 -570.757742 
L 297.413734 -568.166178 
L 296.734087 -565.574615 
L 296.081629 -562.983051 
L 295.458198 -560.391487 
L 294.865318 -557.799923 
L 294.304216 -555.20836 
L 293.775833 -552.616796 
L 293.280832 -550.025232 
L 292.819595 -547.433669 
L 292.392225 -544.842105 
L 291.998543 -542.250541 
L 291.638088 -539.658977 
L 291.310129 -537.067414 
L 291.013672 -534.47585 
L 290.747484 -531.884286 
L 290.510119 -529.292722 
L 290.299948 -526.701159 
L 290.115195 -524.109595 
L 289.953978 -521.518031 
L 289.814349 -518.926467 
z
" id="m4f59706358"/>
    </defs>
    <g clip-path="url(#pd033eba8c8)">
     <use style="fill:#3d63a0;" x="0" xlink:href="#m4f59706358" y="936"/>
    </g>
   </g>
   <g id="line2d_21">
    <path clip-path="url(#pd033eba8c8)" d="M 79.875 325.849392 
L 79.875 196.944269 
" style="fill:none;stroke:#404040;stroke-linecap:square;stroke-width:1.5;"/>
   </g>
   <g id="line2d_22">
    <path clip-path="url(#pd033eba8c8)" d="M 79.875 319.848137 
L 79.875 232.799035 
" style="fill:none;stroke:#404040;stroke-linecap:square;stroke-width:4.5;"/>
   </g>
   <g id="line2d_23">
    <path clip-path="url(#pd033eba8c8)" d="M 149.625 351.477415 
L 149.625 223.96809 
" style="fill:none;stroke:#404040;stroke-linecap:square;stroke-width:1.5;"/>
   </g>
   <g id="line2d_24">
    <path clip-path="url(#pd033eba8c8)" d="M 149.625 311.374571 
L 149.625 233.567719 
" style="fill:none;stroke:#404040;stroke-linecap:square;stroke-width:4.5;"/>
   </g>
   <g id="line2d_25">
    <path clip-path="url(#pd033eba8c8)" d="M 219.375 353.038332 
L 219.375 261.264493 
" style="fill:none;stroke:#404040;stroke-linecap:square;stroke-width:1.5;"/>
   </g>
   <g id="line2d_26">
    <path clip-path="url(#pd033eba8c8)" d="M 219.375 326.842648 
L 219.375 278.440464 
" style="fill:none;stroke:#404040;stroke-linecap:square;stroke-width:4.5;"/>
   </g>
   <g id="line2d_27">
    <path clip-path="url(#pd033eba8c8)" d="M 289.125 358.569572 
L 289.125 219.012684 
" style="fill:none;stroke:#404040;stroke-linecap:square;stroke-width:1.5;"/>
   </g>
   <g id="line2d_28">
    <path clip-path="url(#pd033eba8c8)" d="M 289.125 315.559798 
L 289.125 267.16811 
" style="fill:none;stroke:#404040;stroke-linecap:square;stroke-width:4.5;"/>
   </g>
   <g id="patch_3">
    <path d="M 45 433.538182 
L 45 112.32 
" style="fill:none;stroke:#000000;stroke-linecap:square;stroke-linejoin:miter;stroke-width:0.8;"/>
   </g>
   <g id="patch_4">
    <path d="M 324 433.538182 
L 324 112.32 
" style="fill:none;stroke:#000000;stroke-linecap:square;stroke-linejoin:miter;stroke-width:0.8;"/>
   </g>
   <g id="patch_5">
    <path d="M 45 433.538182 
L 324 433.538182 
" style="fill:none;stroke:#000000;stroke-linecap:square;stroke-linejoin:miter;stroke-width:0.8;"/>
   </g>
   <g id="patch_6">
    <path d="M 45 112.32 
L 324 112.32 
" style="fill:none;stroke:#000000;stroke-linecap:square;stroke-linejoin:miter;stroke-width:0.8;"/>
   </g>
   <g id="PathCollection_1">
    <defs>
     <path d="M 0 1.5 
C 0.397805 1.5 0.77937 1.341951 1.06066 1.06066 
C 1.341951 0.77937 1.5 0.397805 1.5 0 
C 1.5 -0.397805 1.341951 -0.77937 1.06066 -1.06066 
C 0.77937 -1.341951 0.397805 -1.5 0 -1.5 
C -0.397805 -1.5 -0.77937 -1.341951 -1.06066 -1.06066 
C -1.341951 -0.77937 -1.5 -0.397805 -1.5 0 
C -1.5 0.397805 -1.341951 0.77937 -1.06066 1.06066 
C -0.77937 1.341951 -0.397805 1.5 0 1.5 
z
" id="m5162327323"/>
    </defs>
    <g clip-path="url(#pd033eba8c8)">
     <use style="fill:#ffffff;" x="79.875" xlink:href="#m5162327323" y="295.093161"/>
    </g>
   </g>
   <g id="PathCollection_2">
    <g clip-path="url(#pd033eba8c8)">
     <use style="fill:#ffffff;" x="149.625" xlink:href="#m5162327323" y="251.640724"/>
    </g>
   </g>
   <g id="PathCollection_3">
    <g clip-path="url(#pd033eba8c8)">
     <use style="fill:#ffffff;" x="219.375" xlink:href="#m5162327323" y="292.542257"/>
    </g>
   </g>
   <g id="PathCollection_4">
    <g clip-path="url(#pd033eba8c8)">
     <use style="fill:#ffffff;" x="289.125" xlink:href="#m5162327323" y="309.612269"/>
    </g>
   </g>
   <g id="text_13">
    <!-- Loss $\mathcal{L}_\theta$ -->
    <g transform="translate(162.36 106.32)scale(0.12 -0.12)">
     <defs>
      <path d="M 9.8125 72.90625 
L 19.671875 72.90625 
L 19.671875 8.296875 
L 55.171875 8.296875 
L 55.171875 0 
L 9.8125 0 
z
" id="DejaVuSans-76"/>
      <path id="DejaVuSans-32"/>
     </defs>
     <use transform="translate(0 0.09375)" xlink:href="#DejaVuSans-76"/>
     <use transform="translate(55.712891 0.09375)" xlink:href="#DejaVuSans-111"/>
     <use transform="translate(116.894531 0.09375)" xlink:href="#DejaVuSans-115"/>
     <use transform="translate(168.994141 0.09375)" xlink:href="#DejaVuSans-115"/>
     <use transform="translate(221.09375 0.09375)" xlink:href="#DejaVuSans-32"/>
     <use transform="translate(252.880859 0.09375)" xlink:href="#STIXNonUnicode-Italic-57912"/>
     <use transform="translate(323.137878 -16.3125)scale(0.7)" xlink:href="#DejaVuSans-Oblique-952"/>
    </g>
   </g>
  </g>
  <g id="axes_2">
   <g id="patch_7">
    <path d="M 45 819 
L 324 819 
L 324 497.781818 
L 45 497.781818 
z
" style="fill:#ffffff;"/>
   </g>
   <g id="matplotlib.axis_3">
    <g id="xtick_5">
     <g id="line2d_29">
      <path clip-path="url(#p255f8b25a6)" d="M 79.875 819 
L 79.875 497.781818 
" style="fill:none;stroke:#808080;stroke-linecap:square;stroke-width:0.8;"/>
     </g>
     <g id="line2d_30">
      <g>
       <use style="stroke:#000000;stroke-width:0.8;" x="79.875" xlink:href="#m5a24faa0f4" y="819"/>
      </g>
     </g>
     <g id="text_14">
      <!-- 1 -->
      <g transform="translate(76.69375 833.598437)scale(0.1 -0.1)">
       <use xlink:href="#DejaVuSans-49"/>
      </g>
     </g>
    </g>
    <g id="xtick_6">
     <g id="line2d_31">
      <path clip-path="url(#p255f8b25a6)" d="M 149.625 819 
L 149.625 497.781818 
" style="fill:none;stroke:#808080;stroke-linecap:square;stroke-width:0.8;"/>
     </g>
     <g id="line2d_32">
      <g>
       <use style="stroke:#000000;stroke-width:0.8;" x="149.625" xlink:href="#m5a24faa0f4" y="819"/>
      </g>
     </g>
     <g id="text_15">
      <!-- 2 -->
      <g transform="translate(146.44375 833.598437)scale(0.1 -0.1)">
       <use xlink:href="#DejaVuSans-50"/>
      </g>
     </g>
    </g>
    <g id="xtick_7">
     <g id="line2d_33">
      <path clip-path="url(#p255f8b25a6)" d="M 219.375 819 
L 219.375 497.781818 
" style="fill:none;stroke:#808080;stroke-linecap:square;stroke-width:0.8;"/>
     </g>
     <g id="line2d_34">
      <g>
       <use style="stroke:#000000;stroke-width:0.8;" x="219.375" xlink:href="#m5a24faa0f4" y="819"/>
      </g>
     </g>
     <g id="text_16">
      <!-- 4 -->
      <g transform="translate(216.19375 833.598437)scale(0.1 -0.1)">
       <use xlink:href="#DejaVuSans-52"/>
      </g>
     </g>
    </g>
    <g id="xtick_8">
     <g id="line2d_35">
      <path clip-path="url(#p255f8b25a6)" d="M 289.125 819 
L 289.125 497.781818 
" style="fill:none;stroke:#808080;stroke-linecap:square;stroke-width:0.8;"/>
     </g>
     <g id="line2d_36">
      <g>
       <use style="stroke:#000000;stroke-width:0.8;" x="289.125" xlink:href="#m5a24faa0f4" y="819"/>
      </g>
     </g>
     <g id="text_17">
      <!-- 8 -->
      <g transform="translate(285.94375 833.598437)scale(0.1 -0.1)">
       <use xlink:href="#DejaVuSans-56"/>
      </g>
     </g>
    </g>
    <g id="text_18">
     <!-- size -->
     <g transform="translate(172.866562 848.79625)scale(0.12 -0.12)">
      <use xlink:href="#DejaVuSans-115"/>
      <use x="52.099609" xlink:href="#DejaVuSans-105"/>
      <use x="79.882812" xlink:href="#DejaVuSans-122"/>
      <use x="132.373047" xlink:href="#DejaVuSans-101"/>
     </g>
    </g>
   </g>
   <g id="matplotlib.axis_4">
    <g id="ytick_7">
     <g id="line2d_37">
      <path clip-path="url(#p255f8b25a6)" d="M 45 802.565194 
L 324 802.565194 
" style="fill:none;stroke:#808080;stroke-linecap:square;stroke-width:0.8;"/>
     </g>
     <g id="line2d_38">
      <g>
       <use style="stroke:#000000;stroke-width:0.8;" x="45" xlink:href="#mf8a5e5d6c1" y="802.565194"/>
      </g>
     </g>
     <g id="text_19">
      <!-- −4.5 -->
      <g transform="translate(13.717187 806.364413)scale(0.1 -0.1)">
       <defs>
        <path d="M 10.6875 12.40625 
L 21 12.40625 
L 21 0 
L 10.6875 0 
z
" id="DejaVuSans-46"/>
       </defs>
       <use xlink:href="#DejaVuSans-8722"/>
       <use x="83.789062" xlink:href="#DejaVuSans-52"/>
       <use x="147.412109" xlink:href="#DejaVuSans-46"/>
       <use x="179.199219" xlink:href="#DejaVuSans-53"/>
      </g>
     </g>
    </g>
    <g id="ytick_8">
     <g id="line2d_39">
      <path clip-path="url(#p255f8b25a6)" d="M 45 765.910089 
L 324 765.910089 
" style="fill:none;stroke:#808080;stroke-linecap:square;stroke-width:0.8;"/>
     </g>
     <g id="line2d_40">
      <g>
       <use style="stroke:#000000;stroke-width:0.8;" x="45" xlink:href="#mf8a5e5d6c1" y="765.910089"/>
      </g>
     </g>
     <g id="text_20">
      <!-- −4.0 -->
      <g transform="translate(13.717187 769.709308)scale(0.1 -0.1)">
       <use xlink:href="#DejaVuSans-8722"/>
       <use x="83.789062" xlink:href="#DejaVuSans-52"/>
       <use x="147.412109" xlink:href="#DejaVuSans-46"/>
       <use x="179.199219" xlink:href="#DejaVuSans-48"/>
      </g>
     </g>
    </g>
    <g id="ytick_9">
     <g id="line2d_41">
      <path clip-path="url(#p255f8b25a6)" d="M 45 729.254984 
L 324 729.254984 
" style="fill:none;stroke:#808080;stroke-linecap:square;stroke-width:0.8;"/>
     </g>
     <g id="line2d_42">
      <g>
       <use style="stroke:#000000;stroke-width:0.8;" x="45" xlink:href="#mf8a5e5d6c1" y="729.254984"/>
      </g>
     </g>
     <g id="text_21">
      <!-- −3.5 -->
      <g transform="translate(13.717187 733.054202)scale(0.1 -0.1)">
       <use xlink:href="#DejaVuSans-8722"/>
       <use x="83.789062" xlink:href="#DejaVuSans-51"/>
       <use x="147.412109" xlink:href="#DejaVuSans-46"/>
       <use x="179.199219" xlink:href="#DejaVuSans-53"/>
      </g>
     </g>
    </g>
    <g id="ytick_10">
     <g id="line2d_43">
      <path clip-path="url(#p255f8b25a6)" d="M 45 692.599878 
L 324 692.599878 
" style="fill:none;stroke:#808080;stroke-linecap:square;stroke-width:0.8;"/>
     </g>
     <g id="line2d_44">
      <g>
       <use style="stroke:#000000;stroke-width:0.8;" x="45" xlink:href="#mf8a5e5d6c1" y="692.599878"/>
      </g>
     </g>
     <g id="text_22">
      <!-- −3.0 -->
      <g transform="translate(13.717187 696.399097)scale(0.1 -0.1)">
       <use xlink:href="#DejaVuSans-8722"/>
       <use x="83.789062" xlink:href="#DejaVuSans-51"/>
       <use x="147.412109" xlink:href="#DejaVuSans-46"/>
       <use x="179.199219" xlink:href="#DejaVuSans-48"/>
      </g>
     </g>
    </g>
    <g id="ytick_11">
     <g id="line2d_45">
      <path clip-path="url(#p255f8b25a6)" d="M 45 655.944773 
L 324 655.944773 
" style="fill:none;stroke:#808080;stroke-linecap:square;stroke-width:0.8;"/>
     </g>
     <g id="line2d_46">
      <g>
       <use style="stroke:#000000;stroke-width:0.8;" x="45" xlink:href="#mf8a5e5d6c1" y="655.944773"/>
      </g>
     </g>
     <g id="text_23">
      <!-- −2.5 -->
      <g transform="translate(13.717187 659.743991)scale(0.1 -0.1)">
       <use xlink:href="#DejaVuSans-8722"/>
       <use x="83.789062" xlink:href="#DejaVuSans-50"/>
       <use x="147.412109" xlink:href="#DejaVuSans-46"/>
       <use x="179.199219" xlink:href="#DejaVuSans-53"/>
      </g>
     </g>
    </g>
    <g id="ytick_12">
     <g id="line2d_47">
      <path clip-path="url(#p255f8b25a6)" d="M 45 619.289667 
L 324 619.289667 
" style="fill:none;stroke:#808080;stroke-linecap:square;stroke-width:0.8;"/>
     </g>
     <g id="line2d_48">
      <g>
       <use style="stroke:#000000;stroke-width:0.8;" x="45" xlink:href="#mf8a5e5d6c1" y="619.289667"/>
      </g>
     </g>
     <g id="text_24">
      <!-- −2.0 -->
      <g transform="translate(13.717187 623.088886)scale(0.1 -0.1)">
       <use xlink:href="#DejaVuSans-8722"/>
       <use x="83.789062" xlink:href="#DejaVuSans-50"/>
       <use x="147.412109" xlink:href="#DejaVuSans-46"/>
       <use x="179.199219" xlink:href="#DejaVuSans-48"/>
      </g>
     </g>
    </g>
    <g id="ytick_13">
     <g id="line2d_49">
      <path clip-path="url(#p255f8b25a6)" d="M 45 582.634562 
L 324 582.634562 
" style="fill:none;stroke:#808080;stroke-linecap:square;stroke-width:0.8;"/>
     </g>
     <g id="line2d_50">
      <g>
       <use style="stroke:#000000;stroke-width:0.8;" x="45" xlink:href="#mf8a5e5d6c1" y="582.634562"/>
      </g>
     </g>
     <g id="text_25">
      <!-- −1.5 -->
      <g transform="translate(13.717187 586.433781)scale(0.1 -0.1)">
       <use xlink:href="#DejaVuSans-8722"/>
       <use x="83.789062" xlink:href="#DejaVuSans-49"/>
       <use x="147.412109" xlink:href="#DejaVuSans-46"/>
       <use x="179.199219" xlink:href="#DejaVuSans-53"/>
      </g>
     </g>
    </g>
    <g id="ytick_14">
     <g id="line2d_51">
      <path clip-path="url(#p255f8b25a6)" d="M 45 545.979456 
L 324 545.979456 
" style="fill:none;stroke:#808080;stroke-linecap:square;stroke-width:0.8;"/>
     </g>
     <g id="line2d_52">
      <g>
       <use style="stroke:#000000;stroke-width:0.8;" x="45" xlink:href="#mf8a5e5d6c1" y="545.979456"/>
      </g>
     </g>
     <g id="text_26">
      <!-- −1.0 -->
      <g transform="translate(13.717187 549.778675)scale(0.1 -0.1)">
       <use xlink:href="#DejaVuSans-8722"/>
       <use x="83.789062" xlink:href="#DejaVuSans-49"/>
       <use x="147.412109" xlink:href="#DejaVuSans-46"/>
       <use x="179.199219" xlink:href="#DejaVuSans-48"/>
      </g>
     </g>
    </g>
    <g id="ytick_15">
     <g id="line2d_53">
      <path clip-path="url(#p255f8b25a6)" d="M 45 509.324351 
L 324 509.324351 
" style="fill:none;stroke:#808080;stroke-linecap:square;stroke-width:0.8;"/>
     </g>
     <g id="line2d_54">
      <g>
       <use style="stroke:#000000;stroke-width:0.8;" x="45" xlink:href="#mf8a5e5d6c1" y="509.324351"/>
      </g>
     </g>
     <g id="text_27">
      <!-- −0.5 -->
      <g transform="translate(13.717187 513.12357)scale(0.1 -0.1)">
       <use xlink:href="#DejaVuSans-8722"/>
       <use x="83.789062" xlink:href="#DejaVuSans-48"/>
       <use x="147.412109" xlink:href="#DejaVuSans-46"/>
       <use x="179.199219" xlink:href="#DejaVuSans-53"/>
      </g>
     </g>
    </g>
    <g id="text_28">
     <!-- $\log_{10}(\mathcal{E}_\theta)$ -->
     <g transform="translate(7.197187 683.950909)rotate(-90)scale(0.12 -0.12)">
      <defs>
       <path d="M 51.09375 15.203125 
L 52.703125 13.40625 
Q 45.203125 5.40625 35.5 2 
Q 29 -0.40625 20.796875 -0.40625 
Q 14 -0.40625 9 2.640625 
Q 4 5.703125 4 11.5 
Q 4 19.796875 10.296875 25.796875 
Q 16.59375 31.796875 25.296875 35.296875 
Q 23.203125 36.296875 22.09375 37 
Q 21 37.703125 19.640625 38.953125 
Q 18.296875 40.203125 17.6875 42 
Q 17.09375 43.796875 17.09375 46.296875 
Q 17.09375 51.703125 21.890625 56.703125 
Q 26.703125 61.703125 33 64.34375 
Q 39.296875 67 44.5 67 
Q 51.5 67 55.703125 64.5 
Q 59.90625 62 59.90625 57.09375 
Q 59.90625 54.90625 58.09375 52.15625 
Q 56.296875 49.40625 52.703125 49.40625 
Q 50.59375 49.40625 48.9375 50.796875 
Q 47.296875 52.203125 47.296875 54.296875 
Q 47.296875 56.59375 48.796875 58.296875 
Q 50.296875 60 50.296875 60.296875 
Q 50.296875 62.203125 49.1875 62.953125 
Q 48.09375 63.703125 45.59375 63.703125 
Q 38 63.703125 31.84375 59.25 
Q 25.703125 54.796875 25.703125 49.296875 
Q 25.703125 45.203125 29.390625 42.84375 
Q 33.09375 40.5 39.09375 40.5 
L 45.90625 40.5 
L 45 36.703125 
Q 40.703125 36.703125 35.546875 35.046875 
Q 30.40625 33.40625 25.703125 30.59375 
Q 21 27.796875 17.84375 23.34375 
Q 14.703125 18.90625 14.703125 14 
Q 14.703125 9.59375 18.046875 7.296875 
Q 21.40625 5 27.203125 5 
Q 33.296875 5 40.25 8.046875 
Q 47.203125 11.09375 51.09375 15.203125 
z
" id="STIXNonUnicode-Italic-57905"/>
      </defs>
      <use transform="translate(0 0.015625)" xlink:href="#DejaVuSans-108"/>
      <use transform="translate(27.783203 0.015625)" xlink:href="#DejaVuSans-111"/>
      <use transform="translate(88.964844 0.015625)" xlink:href="#DejaVuSans-103"/>
      <use transform="translate(153.398438 -16.390625)scale(0.7)" xlink:href="#DejaVuSans-49"/>
      <use transform="translate(197.93457 -16.390625)scale(0.7)" xlink:href="#DejaVuSans-48"/>
      <use transform="translate(245.205078 0.015625)" xlink:href="#DejaVuSans-40"/>
      <use transform="translate(284.21875 0.015625)" xlink:href="#STIXNonUnicode-Italic-57905"/>
      <use transform="translate(340.475769 -16.390625)scale(0.7)" xlink:href="#DejaVuSans-Oblique-952"/>
      <use transform="translate(386.037292 0.015625)" xlink:href="#DejaVuSans-41"/>
     </g>
    </g>
   </g>
   <g id="PolyCollection_5">
    <defs>
     <path d="M 80.435673 -131.600826 
L 79.314327 -131.600826 
L 79.206655 -134.302458 
L 79.084548 -137.00409 
L 78.947428 -139.705722 
L 78.794976 -142.407354 
L 78.627178 -145.108986 
L 78.444363 -147.810618 
L 78.247229 -150.51225 
L 78.036858 -153.213882 
L 77.814705 -155.915513 
L 77.582569 -158.617145 
L 77.342546 -161.318777 
L 77.096951 -164.020409 
L 76.848221 -166.722041 
L 76.598798 -169.423673 
L 76.350996 -172.125305 
L 76.106858 -174.826937 
L 75.868008 -177.528568 
L 75.635514 -180.2302 
L 75.409761 -182.931832 
L 75.190345 -185.633464 
L 74.97601 -188.335096 
L 74.76461 -191.036728 
L 74.553132 -193.73836 
L 74.337754 -196.439992 
L 74.113967 -199.141624 
L 73.876735 -201.843255 
L 73.620704 -204.544887 
L 73.340447 -207.246519 
L 73.030732 -209.948151 
L 72.686802 -212.649783 
L 72.304656 -215.351415 
L 71.881307 -218.053047 
L 71.415015 -220.754679 
L 70.905463 -223.45631 
L 70.353887 -226.157942 
L 69.763124 -228.859574 
L 69.137601 -231.561206 
L 68.483235 -234.262838 
L 67.807273 -236.96447 
L 67.118057 -239.666102 
L 66.424738 -242.367734 
L 65.736954 -245.069366 
L 65.064478 -247.770997 
L 64.416865 -250.472629 
L 63.803112 -253.174261 
L 63.231352 -255.875893 
L 62.708592 -258.577525 
L 62.240517 -261.279157 
L 61.831367 -263.980789 
L 61.483877 -266.682421 
L 61.199312 -269.384052 
L 60.977554 -272.085684 
L 60.817267 -274.787316 
L 60.716102 -277.488948 
L 60.670944 -280.19058 
L 60.678173 -282.892212 
L 60.733928 -285.593844 
L 60.834357 -288.295476 
L 60.975834 -290.997108 
L 61.155141 -293.698739 
L 61.369589 -296.400371 
L 61.617098 -299.102003 
L 61.896206 -301.803635 
L 62.206039 -304.505267 
L 62.546221 -307.206899 
L 62.916755 -309.908531 
L 63.317874 -312.610163 
L 63.749873 -315.311794 
L 64.212943 -318.013426 
L 64.707007 -320.715058 
L 65.231579 -323.41669 
L 65.785648 -326.118322 
L 66.367596 -328.819954 
L 66.975151 -331.521586 
L 67.605378 -334.223218 
L 68.25471 -336.92485 
L 68.919014 -339.626481 
L 69.593681 -342.328113 
L 70.273743 -345.029745 
L 70.954008 -347.731377 
L 71.629203 -350.433009 
L 72.294115 -353.134641 
L 72.943732 -355.836273 
L 73.573374 -358.537905 
L 74.178798 -361.239536 
L 74.756299 -363.941168 
L 75.302771 -366.6428 
L 75.815758 -369.344432 
L 76.293474 -372.046064 
L 76.7348 -374.747696 
L 77.139262 -377.449328 
L 77.50699 -380.15096 
L 77.83866 -382.852592 
L 78.135431 -385.554223 
L 78.398862 -388.255855 
L 78.630841 -390.957487 
L 78.833498 -393.659119 
L 79.009131 -396.360751 
L 79.16013 -399.062383 
L 80.58987 -399.062383 
L 80.58987 -399.062383 
L 80.740869 -396.360751 
L 80.916502 -393.659119 
L 81.119159 -390.957487 
L 81.351138 -388.255855 
L 81.614569 -385.554223 
L 81.91134 -382.852592 
L 82.24301 -380.15096 
L 82.610738 -377.449328 
L 83.0152 -374.747696 
L 83.456526 -372.046064 
L 83.934242 -369.344432 
L 84.447229 -366.6428 
L 84.993701 -363.941168 
L 85.571202 -361.239536 
L 86.176626 -358.537905 
L 86.806268 -355.836273 
L 87.455885 -353.134641 
L 88.120797 -350.433009 
L 88.795992 -347.731377 
L 89.476257 -345.029745 
L 90.156319 -342.328113 
L 90.830986 -339.626481 
L 91.49529 -336.92485 
L 92.144622 -334.223218 
L 92.774849 -331.521586 
L 93.382404 -328.819954 
L 93.964352 -326.118322 
L 94.518421 -323.41669 
L 95.042993 -320.715058 
L 95.537057 -318.013426 
L 96.000127 -315.311794 
L 96.432126 -312.610163 
L 96.833245 -309.908531 
L 97.203779 -307.206899 
L 97.543961 -304.505267 
L 97.853794 -301.803635 
L 98.132902 -299.102003 
L 98.380411 -296.400371 
L 98.594859 -293.698739 
L 98.774166 -290.997108 
L 98.915643 -288.295476 
L 99.016072 -285.593844 
L 99.071827 -282.892212 
L 99.079056 -280.19058 
L 99.033898 -277.488948 
L 98.932733 -274.787316 
L 98.772446 -272.085684 
L 98.550688 -269.384052 
L 98.266123 -266.682421 
L 97.918633 -263.980789 
L 97.509483 -261.279157 
L 97.041408 -258.577525 
L 96.518648 -255.875893 
L 95.946888 -253.174261 
L 95.333135 -250.472629 
L 94.685522 -247.770997 
L 94.013046 -245.069366 
L 93.325262 -242.367734 
L 92.631943 -239.666102 
L 91.942727 -236.96447 
L 91.266765 -234.262838 
L 90.612399 -231.561206 
L 89.986876 -228.859574 
L 89.396113 -226.157942 
L 88.844537 -223.45631 
L 88.334985 -220.754679 
L 87.868693 -218.053047 
L 87.445344 -215.351415 
L 87.063198 -212.649783 
L 86.719268 -209.948151 
L 86.409553 -207.246519 
L 86.129296 -204.544887 
L 85.873265 -201.843255 
L 85.636033 -199.141624 
L 85.412246 -196.439992 
L 85.196868 -193.73836 
L 84.98539 -191.036728 
L 84.77399 -188.335096 
L 84.559655 -185.633464 
L 84.340239 -182.931832 
L 84.114486 -180.2302 
L 83.881992 -177.528568 
L 83.643142 -174.826937 
L 83.399004 -172.125305 
L 83.151202 -169.423673 
L 82.901779 -166.722041 
L 82.653049 -164.020409 
L 82.407454 -161.318777 
L 82.167431 -158.617145 
L 81.935295 -155.915513 
L 81.713142 -153.213882 
L 81.502771 -150.51225 
L 81.305637 -147.810618 
L 81.122822 -145.108986 
L 80.955024 -142.407354 
L 80.802572 -139.705722 
L 80.665452 -137.00409 
L 80.543345 -134.302458 
L 80.435673 -131.600826 
z
" id="md09196ba83"/>
    </defs>
    <g clip-path="url(#p255f8b25a6)">
     <use style="fill:#ce1e5c;" x="0" xlink:href="#md09196ba83" y="936"/>
    </g>
   </g>
   <g id="PolyCollection_6">
    <defs>
     <path d="M 150.276872 -142.649922 
L 148.973128 -142.649922 
L 148.848465 -145.487977 
L 148.70582 -148.326032 
L 148.543831 -151.164087 
L 148.361265 -154.002142 
L 148.157077 -156.840196 
L 147.930452 -159.678251 
L 147.680864 -162.516306 
L 147.408116 -165.354361 
L 147.112388 -168.192416 
L 146.794265 -171.030471 
L 146.454763 -173.868526 
L 146.095339 -176.706581 
L 145.717889 -179.544636 
L 145.324725 -182.38269 
L 144.918546 -185.220745 
L 144.502381 -188.0588 
L 144.079527 -190.896855 
L 143.653469 -193.73491 
L 143.227788 -196.572965 
L 142.806064 -199.41102 
L 142.391774 -202.249075 
L 141.988188 -205.087129 
L 141.598273 -207.925184 
L 141.224599 -210.763239 
L 140.869262 -213.601294 
L 140.533825 -216.439349 
L 140.219266 -219.277404 
L 139.925964 -222.115459 
L 139.653686 -224.953514 
L 139.401619 -227.791569 
L 139.1684 -230.629623 
L 138.952184 -233.467678 
L 138.750716 -236.305733 
L 138.561425 -239.143788 
L 138.381526 -241.981843 
L 138.208121 -244.819898 
L 138.038318 -247.657953 
L 137.869326 -250.496008 
L 137.698569 -253.334062 
L 137.523769 -256.172117 
L 137.343031 -259.010172 
L 137.154909 -261.848227 
L 136.958459 -264.686282 
L 136.753273 -267.524337 
L 136.539498 -270.362392 
L 136.317844 -273.200447 
L 136.089565 -276.038502 
L 135.856442 -278.876556 
L 135.620738 -281.714611 
L 135.385158 -284.552666 
L 135.152787 -287.390721 
L 134.927031 -290.228776 
L 134.711546 -293.066831 
L 134.510169 -295.904886 
L 134.32684 -298.742941 
L 134.165529 -301.580995 
L 134.03016 -304.41905 
L 133.924537 -307.257105 
L 133.852265 -310.09516 
L 133.816685 -312.933215 
L 133.820801 -315.77127 
L 133.867216 -318.609325 
L 133.958071 -321.44738 
L 134.094991 -324.285435 
L 134.27904 -327.123489 
L 134.510677 -329.961544 
L 134.789733 -332.799599 
L 135.11539 -335.637654 
L 135.486177 -338.475709 
L 135.899978 -341.313764 
L 136.354058 -344.151819 
L 136.845094 -346.989874 
L 137.369234 -349.827928 
L 137.922156 -352.665983 
L 138.49915 -355.504038 
L 139.095205 -358.342093 
L 139.7051 -361.180148 
L 140.323512 -364.018203 
L 140.945118 -366.856258 
L 141.564692 -369.694313 
L 142.177211 -372.532367 
L 142.777942 -375.370422 
L 143.362527 -378.208477 
L 143.927046 -381.046532 
L 144.468081 -383.884587 
L 144.982749 -386.722642 
L 145.468729 -389.560697 
L 145.924273 -392.398752 
L 146.348195 -395.236807 
L 146.739851 -398.074861 
L 147.099107 -400.912916 
L 147.426299 -403.750971 
L 147.722173 -406.589026 
L 147.987836 -409.427081 
L 148.224692 -412.265136 
L 148.434378 -415.103191 
L 148.618709 -417.941246 
L 148.779615 -420.7793 
L 148.91909 -423.617355 
L 150.33091 -423.617355 
L 150.33091 -423.617355 
L 150.470385 -420.7793 
L 150.631291 -417.941246 
L 150.815622 -415.103191 
L 151.025308 -412.265136 
L 151.262164 -409.427081 
L 151.527827 -406.589026 
L 151.823701 -403.750971 
L 152.150893 -400.912916 
L 152.510149 -398.074861 
L 152.901805 -395.236807 
L 153.325727 -392.398752 
L 153.781271 -389.560697 
L 154.267251 -386.722642 
L 154.781919 -383.884587 
L 155.322954 -381.046532 
L 155.887473 -378.208477 
L 156.472058 -375.370422 
L 157.072789 -372.532367 
L 157.685308 -369.694313 
L 158.304882 -366.856258 
L 158.926488 -364.018203 
L 159.5449 -361.180148 
L 160.154795 -358.342093 
L 160.75085 -355.504038 
L 161.327844 -352.665983 
L 161.880766 -349.827928 
L 162.404906 -346.989874 
L 162.895942 -344.151819 
L 163.350022 -341.313764 
L 163.763823 -338.475709 
L 164.13461 -335.637654 
L 164.460267 -332.799599 
L 164.739323 -329.961544 
L 164.97096 -327.123489 
L 165.155009 -324.285435 
L 165.291929 -321.44738 
L 165.382784 -318.609325 
L 165.429199 -315.77127 
L 165.433315 -312.933215 
L 165.397735 -310.09516 
L 165.325463 -307.257105 
L 165.21984 -304.41905 
L 165.084471 -301.580995 
L 164.92316 -298.742941 
L 164.739831 -295.904886 
L 164.538454 -293.066831 
L 164.322969 -290.228776 
L 164.097213 -287.390721 
L 163.864842 -284.552666 
L 163.629262 -281.714611 
L 163.393558 -278.876556 
L 163.160435 -276.038502 
L 162.932156 -273.200447 
L 162.710502 -270.362392 
L 162.496727 -267.524337 
L 162.291541 -264.686282 
L 162.095091 -261.848227 
L 161.906969 -259.010172 
L 161.726231 -256.172117 
L 161.551431 -253.334062 
L 161.380674 -250.496008 
L 161.211682 -247.657953 
L 161.041879 -244.819898 
L 160.868474 -241.981843 
L 160.688575 -239.143788 
L 160.499284 -236.305733 
L 160.297816 -233.467678 
L 160.0816 -230.629623 
L 159.848381 -227.791569 
L 159.596314 -224.953514 
L 159.324036 -222.115459 
L 159.030734 -219.277404 
L 158.716175 -216.439349 
L 158.380738 -213.601294 
L 158.025401 -210.763239 
L 157.651727 -207.925184 
L 157.261812 -205.087129 
L 156.858226 -202.249075 
L 156.443936 -199.41102 
L 156.022212 -196.572965 
L 155.596531 -193.73491 
L 155.170473 -190.896855 
L 154.747619 -188.0588 
L 154.331454 -185.220745 
L 153.925275 -182.38269 
L 153.532111 -179.544636 
L 153.154661 -176.706581 
L 152.795237 -173.868526 
L 152.455735 -171.030471 
L 152.137612 -168.192416 
L 151.841884 -165.354361 
L 151.569136 -162.516306 
L 151.319548 -159.678251 
L 151.092923 -156.840196 
L 150.888735 -154.002142 
L 150.706169 -151.164087 
L 150.54418 -148.326032 
L 150.401535 -145.487977 
L 150.276872 -142.649922 
z
" id="m9ac1b458cd"/>
    </defs>
    <g clip-path="url(#p255f8b25a6)">
     <use style="fill:#e05230;" x="0" xlink:href="#m9ac1b458cd" y="936"/>
    </g>
   </g>
   <g id="PolyCollection_7">
    <defs>
     <path d="M 220.688809 -205.268426 
L 218.061191 -205.268426 
L 217.798117 -206.775919 
L 217.494321 -208.283411 
L 217.146098 -209.790904 
L 216.749924 -211.298396 
L 216.302574 -212.805889 
L 215.801248 -214.313381 
L 215.243707 -215.820873 
L 214.628404 -217.328366 
L 213.954615 -218.835858 
L 213.222563 -220.343351 
L 212.433516 -221.850843 
L 211.589871 -223.358336 
L 210.695212 -224.865828 
L 209.754322 -226.373321 
L 208.773173 -227.880813 
L 207.758858 -229.388305 
L 206.719498 -230.895798 
L 205.664088 -232.40329 
L 204.602312 -233.910783 
L 203.544325 -235.418275 
L 202.500492 -236.925768 
L 201.48112 -238.43326 
L 200.496164 -239.940753 
L 199.554939 -241.448245 
L 198.665844 -242.955737 
L 197.836103 -244.46323 
L 197.071543 -245.970722 
L 196.376417 -247.478215 
L 195.753279 -248.985707 
L 195.20292 -250.4932 
L 194.724371 -252.000692 
L 194.314969 -253.508185 
L 193.970486 -255.015677 
L 193.685326 -256.523169 
L 193.452763 -258.030662 
L 193.265234 -259.538154 
L 193.114652 -261.045647 
L 192.992745 -262.553139 
L 192.891392 -264.060632 
L 192.802951 -265.568124 
L 192.720566 -267.075617 
L 192.63843 -268.583109 
L 192.552007 -270.090601 
L 192.458194 -271.598094 
L 192.355425 -273.105586 
L 192.243706 -274.613079 
L 192.124591 -276.120571 
L 192.001094 -277.628064 
L 191.87754 -279.135556 
L 191.759377 -280.643049 
L 191.652936 -282.150541 
L 191.565179 -283.658033 
L 191.503409 -285.165526 
L 191.475 -286.673018 
L 191.487111 -288.180511 
L 191.546433 -289.688003 
L 191.658961 -291.195496 
L 191.829796 -292.702988 
L 192.062994 -294.21048 
L 192.36146 -295.717973 
L 192.726887 -297.225465 
L 193.15974 -298.732958 
L 193.659286 -300.24045 
L 194.223658 -301.747943 
L 194.849958 -303.255435 
L 195.534371 -304.762928 
L 196.272311 -306.27042 
L 197.058565 -307.777912 
L 197.887442 -309.285405 
L 198.752919 -310.792897 
L 199.648772 -312.30039 
L 200.568698 -313.807882 
L 201.506416 -315.315375 
L 202.455753 -316.822867 
L 203.410716 -318.33036 
L 204.365539 -319.837852 
L 205.314729 -321.345344 
L 206.253095 -322.852837 
L 207.175768 -324.360329 
L 208.078224 -325.867822 
L 208.956296 -327.375314 
L 209.806192 -328.882807 
L 210.624512 -330.390299 
L 211.408262 -331.897792 
L 212.154873 -333.405284 
L 212.862216 -334.912776 
L 213.528616 -336.420269 
L 214.15286 -337.927761 
L 214.734202 -339.435254 
L 215.272359 -340.942746 
L 215.767501 -342.450239 
L 216.220228 -343.957731 
L 216.631544 -345.465224 
L 217.00282 -346.972716 
L 217.335747 -348.480208 
L 217.632292 -349.987701 
L 217.894641 -351.495193 
L 218.125145 -353.002686 
L 218.326262 -354.510178 
L 220.423738 -354.510178 
L 220.423738 -354.510178 
L 220.624855 -353.002686 
L 220.855359 -351.495193 
L 221.117708 -349.987701 
L 221.414253 -348.480208 
L 221.74718 -346.972716 
L 222.118456 -345.465224 
L 222.529772 -343.957731 
L 222.982499 -342.450239 
L 223.477641 -340.942746 
L 224.015798 -339.435254 
L 224.59714 -337.927761 
L 225.221384 -336.420269 
L 225.887784 -334.912776 
L 226.595127 -333.405284 
L 227.341738 -331.897792 
L 228.125488 -330.390299 
L 228.943808 -328.882807 
L 229.793704 -327.375314 
L 230.671776 -325.867822 
L 231.574232 -324.360329 
L 232.496905 -322.852837 
L 233.435271 -321.345344 
L 234.384461 -319.837852 
L 235.339284 -318.33036 
L 236.294247 -316.822867 
L 237.243584 -315.315375 
L 238.181302 -313.807882 
L 239.101228 -312.30039 
L 239.997081 -310.792897 
L 240.862558 -309.285405 
L 241.691435 -307.777912 
L 242.477689 -306.27042 
L 243.215629 -304.762928 
L 243.900042 -303.255435 
L 244.526342 -301.747943 
L 245.090714 -300.24045 
L 245.59026 -298.732958 
L 246.023113 -297.225465 
L 246.38854 -295.717973 
L 246.687006 -294.21048 
L 246.920204 -292.702988 
L 247.091039 -291.195496 
L 247.203567 -289.688003 
L 247.262889 -288.180511 
L 247.275 -286.673018 
L 247.246591 -285.165526 
L 247.184821 -283.658033 
L 247.097064 -282.150541 
L 246.990623 -280.643049 
L 246.87246 -279.135556 
L 246.748906 -277.628064 
L 246.625409 -276.120571 
L 246.506294 -274.613079 
L 246.394575 -273.105586 
L 246.291806 -271.598094 
L 246.197993 -270.090601 
L 246.11157 -268.583109 
L 246.029434 -267.075617 
L 245.947049 -265.568124 
L 245.858608 -264.060632 
L 245.757255 -262.553139 
L 245.635348 -261.045647 
L 245.484766 -259.538154 
L 245.297237 -258.030662 
L 245.064674 -256.523169 
L 244.779514 -255.015677 
L 244.435031 -253.508185 
L 244.025629 -252.000692 
L 243.54708 -250.4932 
L 242.996721 -248.985707 
L 242.373583 -247.478215 
L 241.678457 -245.970722 
L 240.913897 -244.46323 
L 240.084156 -242.955737 
L 239.195061 -241.448245 
L 238.253836 -239.940753 
L 237.26888 -238.43326 
L 236.249508 -236.925768 
L 235.205675 -235.418275 
L 234.147688 -233.910783 
L 233.085912 -232.40329 
L 232.030502 -230.895798 
L 230.991142 -229.388305 
L 229.976827 -227.880813 
L 228.995678 -226.373321 
L 228.054788 -224.865828 
L 227.160129 -223.358336 
L 226.316484 -221.850843 
L 225.527437 -220.343351 
L 224.795385 -218.835858 
L 224.121596 -217.328366 
L 223.506293 -215.820873 
L 222.948752 -214.313381 
L 222.447426 -212.805889 
L 222.000076 -211.298396 
L 221.603902 -209.790904 
L 221.255679 -208.283411 
L 220.951883 -206.775919 
L 220.688809 -205.268426 
z
" id="m05973a498d"/>
    </defs>
    <g clip-path="url(#p255f8b25a6)">
     <use style="fill:#379d4b;" x="0" xlink:href="#m05973a498d" y="936"/>
    </g>
   </g>
   <g id="PolyCollection_8">
    <defs>
     <path d="M 289.907397 -178.142738 
L 288.342603 -178.142738 
L 288.179486 -180.571435 
L 287.989385 -183.000132 
L 287.769351 -185.428829 
L 287.516401 -187.857526 
L 287.227578 -190.286222 
L 286.900018 -192.714919 
L 286.53102 -195.143616 
L 286.118132 -197.572313 
L 285.659233 -200.00101 
L 285.152626 -202.429707 
L 284.597128 -204.858404 
L 283.992163 -207.287101 
L 283.337855 -209.715798 
L 282.635105 -212.144495 
L 281.885673 -214.573192 
L 281.092239 -217.001889 
L 280.258449 -219.430586 
L 279.388953 -221.859283 
L 278.489401 -224.28798 
L 277.566438 -226.716677 
L 276.627646 -229.145374 
L 275.681477 -231.574071 
L 274.73714 -234.002768 
L 273.804461 -236.431465 
L 272.893716 -238.860162 
L 272.015429 -241.288859 
L 271.180149 -243.717556 
L 270.398209 -246.146252 
L 269.679479 -248.574949 
L 269.033103 -251.003646 
L 268.467256 -253.432343 
L 267.988913 -255.86104 
L 267.603643 -258.289737 
L 267.315436 -260.718434 
L 267.126583 -263.147131 
L 267.037597 -265.575828 
L 267.047193 -268.004525 
L 267.152322 -270.433222 
L 267.348265 -272.861919 
L 267.628774 -275.290616 
L 267.986264 -277.719313 
L 268.412046 -280.14801 
L 268.896581 -282.576707 
L 269.429766 -285.005404 
L 270.001212 -287.434101 
L 270.600532 -289.862798 
L 271.217607 -292.291495 
L 271.842833 -294.720192 
L 272.46733 -297.148889 
L 273.08312 -299.577586 
L 273.683264 -302.006282 
L 274.26195 -304.434979 
L 274.814549 -306.863676 
L 275.337621 -309.292373 
L 275.828896 -311.72107 
L 276.287209 -314.149767 
L 276.712426 -316.578464 
L 277.105339 -319.007161 
L 277.467548 -321.435858 
L 277.80134 -323.864555 
L 278.109561 -326.293252 
L 278.395486 -328.721949 
L 278.662692 -331.150646 
L 278.914948 -333.579343 
L 279.156094 -336.00804 
L 279.389944 -338.436737 
L 279.620192 -340.865434 
L 279.850323 -343.294131 
L 280.08354 -345.722828 
L 280.322698 -348.151525 
L 280.570243 -350.580222 
L 280.828169 -353.008919 
L 281.097976 -355.437616 
L 281.380649 -357.866312 
L 281.676638 -360.295009 
L 281.985864 -362.723706 
L 282.307727 -365.152403 
L 282.641136 -367.5811 
L 282.984545 -370.009797 
L 283.336013 -372.438494 
L 283.693261 -374.867191 
L 284.053753 -377.295888 
L 284.414773 -379.724585 
L 284.773512 -382.153282 
L 285.127155 -384.581979 
L 285.472962 -387.010676 
L 285.808348 -389.439373 
L 286.130953 -391.86807 
L 286.438696 -394.296767 
L 286.729823 -396.725464 
L 287.002938 -399.154161 
L 287.257019 -401.582858 
L 287.491421 -404.011555 
L 287.705864 -406.440252 
L 287.900411 -408.868949 
L 288.07544 -411.297646 
L 288.231597 -413.726343 
L 288.369763 -416.155039 
L 288.490996 -418.583736 
L 289.759004 -418.583736 
L 289.759004 -418.583736 
L 289.880237 -416.155039 
L 290.018403 -413.726343 
L 290.17456 -411.297646 
L 290.349589 -408.868949 
L 290.544136 -406.440252 
L 290.758579 -404.011555 
L 290.992981 -401.582858 
L 291.247062 -399.154161 
L 291.520177 -396.725464 
L 291.811304 -394.296767 
L 292.119047 -391.86807 
L 292.441652 -389.439373 
L 292.777038 -387.010676 
L 293.122845 -384.581979 
L 293.476488 -382.153282 
L 293.835227 -379.724585 
L 294.196247 -377.295888 
L 294.556739 -374.867191 
L 294.913987 -372.438494 
L 295.265455 -370.009797 
L 295.608864 -367.5811 
L 295.942273 -365.152403 
L 296.264136 -362.723706 
L 296.573362 -360.295009 
L 296.869351 -357.866312 
L 297.152024 -355.437616 
L 297.421831 -353.008919 
L 297.679757 -350.580222 
L 297.927302 -348.151525 
L 298.16646 -345.722828 
L 298.399677 -343.294131 
L 298.629808 -340.865434 
L 298.860056 -338.436737 
L 299.093906 -336.00804 
L 299.335052 -333.579343 
L 299.587308 -331.150646 
L 299.854514 -328.721949 
L 300.140439 -326.293252 
L 300.44866 -323.864555 
L 300.782452 -321.435858 
L 301.144661 -319.007161 
L 301.537574 -316.578464 
L 301.962791 -314.149767 
L 302.421104 -311.72107 
L 302.912379 -309.292373 
L 303.435451 -306.863676 
L 303.98805 -304.434979 
L 304.566736 -302.006282 
L 305.16688 -299.577586 
L 305.78267 -297.148889 
L 306.407167 -294.720192 
L 307.032393 -292.291495 
L 307.649468 -289.862798 
L 308.248788 -287.434101 
L 308.820234 -285.005404 
L 309.353419 -282.576707 
L 309.837954 -280.14801 
L 310.263736 -277.719313 
L 310.621226 -275.290616 
L 310.901735 -272.861919 
L 311.097678 -270.433222 
L 311.202807 -268.004525 
L 311.212403 -265.575828 
L 311.123417 -263.147131 
L 310.934564 -260.718434 
L 310.646357 -258.289737 
L 310.261087 -255.86104 
L 309.782744 -253.432343 
L 309.216897 -251.003646 
L 308.570521 -248.574949 
L 307.851791 -246.146252 
L 307.069851 -243.717556 
L 306.234571 -241.288859 
L 305.356284 -238.860162 
L 304.445539 -236.431465 
L 303.51286 -234.002768 
L 302.568523 -231.574071 
L 301.622354 -229.145374 
L 300.683562 -226.716677 
L 299.760599 -224.28798 
L 298.861047 -221.859283 
L 297.991551 -219.430586 
L 297.157761 -217.001889 
L 296.364327 -214.573192 
L 295.614895 -212.144495 
L 294.912145 -209.715798 
L 294.257837 -207.287101 
L 293.652872 -204.858404 
L 293.097374 -202.429707 
L 292.590767 -200.00101 
L 292.131868 -197.572313 
L 291.71898 -195.143616 
L 291.349982 -192.714919 
L 291.022422 -190.286222 
L 290.733599 -187.857526 
L 290.480649 -185.428829 
L 290.260615 -183.000132 
L 290.070514 -180.571435 
L 289.907397 -178.142738 
z
" id="mb8020472e7"/>
    </defs>
    <g clip-path="url(#p255f8b25a6)">
     <use style="fill:#3d63a0;" x="0" xlink:href="#mb8020472e7" y="936"/>
    </g>
   </g>
   <g id="line2d_55">
    <path clip-path="url(#p255f8b25a6)" d="M 79.875 744.026793 
L 79.875 597.309997 
" style="fill:none;stroke:#404040;stroke-linecap:square;stroke-width:1.5;"/>
   </g>
   <g id="line2d_56">
    <path clip-path="url(#p255f8b25a6)" d="M 79.875 676.421956 
L 79.875 624.784005 
" style="fill:none;stroke:#404040;stroke-linecap:square;stroke-width:4.5;"/>
   </g>
   <g id="line2d_57">
    <path clip-path="url(#p255f8b25a6)" d="M 149.625 725.100926 
L 149.625 580.631796 
" style="fill:none;stroke:#404040;stroke-linecap:square;stroke-width:1.5;"/>
   </g>
   <g id="line2d_58">
    <path clip-path="url(#p255f8b25a6)" d="M 149.625 683.065068 
L 149.625 607.838536 
" style="fill:none;stroke:#404040;stroke-linecap:square;stroke-width:4.5;"/>
   </g>
   <g id="line2d_59">
    <path clip-path="url(#p255f8b25a6)" d="M 219.375 695.039531 
L 219.375 617.181865 
" style="fill:none;stroke:#404040;stroke-linecap:square;stroke-width:1.5;"/>
   </g>
   <g id="line2d_60">
    <path clip-path="url(#p255f8b25a6)" d="M 219.375 681.6805 
L 219.375 639.268816 
" style="fill:none;stroke:#404040;stroke-linecap:square;stroke-width:4.5;"/>
   </g>
   <g id="line2d_61">
    <path clip-path="url(#p255f8b25a6)" d="M 289.125 701.834683 
L 289.125 573.438843 
" style="fill:none;stroke:#404040;stroke-linecap:square;stroke-width:1.5;"/>
   </g>
   <g id="line2d_62">
    <path clip-path="url(#p255f8b25a6)" d="M 289.125 677.142266 
L 289.125 628.744908 
" style="fill:none;stroke:#404040;stroke-linecap:square;stroke-width:4.5;"/>
   </g>
   <g id="patch_8">
    <path d="M 45 819 
L 45 497.781818 
" style="fill:none;stroke:#000000;stroke-linecap:square;stroke-linejoin:miter;stroke-width:0.8;"/>
   </g>
   <g id="patch_9">
    <path d="M 324 819 
L 324 497.781818 
" style="fill:none;stroke:#000000;stroke-linecap:square;stroke-linejoin:miter;stroke-width:0.8;"/>
   </g>
   <g id="patch_10">
    <path d="M 45 819 
L 324 819 
" style="fill:none;stroke:#000000;stroke-linecap:square;stroke-linejoin:miter;stroke-width:0.8;"/>
   </g>
   <g id="patch_11">
    <path d="M 45 497.781818 
L 324 497.781818 
" style="fill:none;stroke:#000000;stroke-linecap:square;stroke-linejoin:miter;stroke-width:0.8;"/>
   </g>
   <g id="PathCollection_5">
    <g clip-path="url(#p255f8b25a6)">
     <use style="fill:#ffffff;" x="79.875" xlink:href="#m5162327323" y="660.93875"/>
    </g>
   </g>
   <g id="PathCollection_6">
    <g clip-path="url(#p255f8b25a6)">
     <use style="fill:#ffffff;" x="149.625" xlink:href="#m5162327323" y="638.628423"/>
    </g>
   </g>
   <g id="PathCollection_7">
    <g clip-path="url(#p255f8b25a6)">
     <use style="fill:#ffffff;" x="219.375" xlink:href="#m5162327323" y="656.092495"/>
    </g>
   </g>
   <g id="PathCollection_8">
    <g clip-path="url(#p255f8b25a6)">
     <use style="fill:#ffffff;" x="289.125" xlink:href="#m5162327323" y="664.027378"/>
    </g>
   </g>
   <g id="text_29">
    <!-- Rel. $L^2$ error $\mathcal{E}_\theta$ -->
    <g transform="translate(139.86 491.781818)scale(0.12 -0.12)">
     <defs>
      <path d="M 44.390625 34.1875 
Q 47.5625 33.109375 50.5625 29.59375 
Q 53.5625 26.078125 56.59375 19.921875 
L 66.609375 0 
L 56 0 
L 46.6875 18.703125 
Q 43.0625 26.03125 39.671875 28.421875 
Q 36.28125 30.8125 30.421875 30.8125 
L 19.671875 30.8125 
L 19.671875 0 
L 9.8125 0 
L 9.8125 72.90625 
L 32.078125 72.90625 
Q 44.578125 72.90625 50.734375 67.671875 
Q 56.890625 62.453125 56.890625 51.90625 
Q 56.890625 45.015625 53.6875 40.46875 
Q 50.484375 35.9375 44.390625 34.1875 
z
M 19.671875 64.796875 
L 19.671875 38.921875 
L 32.078125 38.921875 
Q 39.203125 38.921875 42.84375 42.21875 
Q 46.484375 45.515625 46.484375 51.90625 
Q 46.484375 58.296875 42.84375 61.546875 
Q 39.203125 64.796875 32.078125 64.796875 
z
" id="DejaVuSans-82"/>
      <path d="M 16.796875 72.90625 
L 26.703125 72.90625 
L 14.203125 8.203125 
L 49.703125 8.203125 
L 48.09375 0 
L 2.6875 0 
z
" id="DejaVuSans-Oblique-76"/>
      <path d="M 41.109375 46.296875 
Q 39.59375 47.171875 37.8125 47.578125 
Q 36.03125 48 33.890625 48 
Q 26.265625 48 22.1875 43.046875 
Q 18.109375 38.09375 18.109375 28.8125 
L 18.109375 0 
L 9.078125 0 
L 9.078125 54.6875 
L 18.109375 54.6875 
L 18.109375 46.1875 
Q 20.953125 51.171875 25.484375 53.578125 
Q 30.03125 56 36.53125 56 
Q 37.453125 56 38.578125 55.875 
Q 39.703125 55.765625 41.0625 55.515625 
z
" id="DejaVuSans-114"/>
     </defs>
     <use transform="translate(0 0.765625)" xlink:href="#DejaVuSans-82"/>
     <use transform="translate(69.482422 0.765625)" xlink:href="#DejaVuSans-101"/>
     <use transform="translate(131.005859 0.765625)" xlink:href="#DejaVuSans-108"/>
     <use transform="translate(158.789062 0.765625)" xlink:href="#DejaVuSans-46"/>
     <use transform="translate(190.576172 0.765625)" xlink:href="#DejaVuSans-32"/>
     <use transform="translate(222.363281 0.765625)" xlink:href="#DejaVuSans-Oblique-76"/>
     <use transform="translate(285.092943 39.046875)scale(0.7)" xlink:href="#DejaVuSans-50"/>
     <use transform="translate(332.363451 0.765625)" xlink:href="#DejaVuSans-32"/>
     <use transform="translate(364.15056 0.765625)" xlink:href="#DejaVuSans-101"/>
     <use transform="translate(425.673997 0.765625)" xlink:href="#DejaVuSans-114"/>
     <use transform="translate(466.787279 0.765625)" xlink:href="#DejaVuSans-114"/>
     <use transform="translate(507.90056 0.765625)" xlink:href="#DejaVuSans-111"/>
     <use transform="translate(569.082201 0.765625)" xlink:href="#DejaVuSans-114"/>
     <use transform="translate(610.195482 0.765625)" xlink:href="#DejaVuSans-32"/>
     <use transform="translate(641.982591 0.765625)" xlink:href="#STIXNonUnicode-Italic-57905"/>
     <use transform="translate(698.23961 -15.640625)scale(0.7)" xlink:href="#DejaVuSans-Oblique-952"/>
    </g>
   </g>
  </g>
 </g>
 <defs>
  <clipPath id="pd033eba8c8">
   <rect height="321.218182" width="279" x="45" y="112.32"/>
  </clipPath>
  <clipPath id="p255f8b25a6">
   <rect height="321.218182" width="279" x="45" y="497.781818"/>
  </clipPath>
 </defs>
</svg>
