<?xml version="1.0" encoding="utf-8" standalone="no"?>
<!DOCTYPE svg PUBLIC "-//W3C//DTD SVG 1.1//EN"
  "http://www.w3.org/Graphics/SVG/1.1/DTD/svg11.dtd">
<!-- Created with matplotlib (https://matplotlib.org/) -->
<svg height="936pt" version="1.1" viewBox="0 0 360 936" width="360pt" xmlns="http://www.w3.org/2000/svg" xmlns:xlink="http://www.w3.org/1999/xlink">
 <metadata>
  <rdf:RDF xmlns:cc="http://creativecommons.org/ns#" xmlns:dc="http://purl.org/dc/elements/1.1/" xmlns:rdf="http://www.w3.org/1999/02/22-rdf-syntax-ns#">
   <cc:Work>
    <dc:type rdf:resource="http://purl.org/dc/dcmitype/StillImage"/>
    <dc:date>2022-09-09T14:33:04.582017</dc:date>
    <dc:format>image/svg+xml</dc:format>
    <dc:creator>
     <cc:Agent>
      <dc:title>Matplotlib v3.3.4, https://matplotlib.org/</dc:title>
     </cc:Agent>
    </dc:creator>
   </cc:Work>
  </rdf:RDF>
 </metadata>
 <defs>
  <style type="text/css">*{stroke-linecap:butt;stroke-linejoin:round;}</style>
 </defs>
 <g id="figure_1">
  <g id="patch_1">
   <path d="M 0 936 
L 360 936 
L 360 0 
L 0 0 
z
" style="fill:none;"/>
  </g>
  <g id="axes_1">
   <g id="patch_2">
    <path d="M 45 433.538182 
L 324 433.538182 
L 324 112.32 
L 45 112.32 
z
" style="fill:#ffffff;"/>
   </g>
   <g id="matplotlib.axis_1">
    <g id="xtick_1">
     <g id="line2d_1">
      <path clip-path="url(#p4f8d66cb8a)" d="M 79.875 433.538182 
L 79.875 112.32 
" style="fill:none;stroke:#808080;stroke-linecap:square;stroke-width:0.8;"/>
     </g>
     <g id="line2d_2">
      <defs>
       <path d="M 0 0 
L 0 3.5 
" id="m64f6b4a2fc" style="stroke:#000000;stroke-width:0.8;"/>
      </defs>
      <g>
       <use style="stroke:#000000;stroke-width:0.8;" x="79.875" xlink:href="#m64f6b4a2fc" y="433.538182"/>
      </g>
     </g>
     <g id="text_1">
      <!-- 1 -->
      <g transform="translate(76.69375 448.136619)scale(0.1 -0.1)">
       <defs>
        <path d="M 12.40625 8.296875 
L 28.515625 8.296875 
L 28.515625 63.921875 
L 10.984375 60.40625 
L 10.984375 69.390625 
L 28.421875 72.90625 
L 38.28125 72.90625 
L 38.28125 8.296875 
L 54.390625 8.296875 
L 54.390625 0 
L 12.40625 0 
z
" id="DejaVuSans-49"/>
       </defs>
       <use xlink:href="#DejaVuSans-49"/>
      </g>
     </g>
    </g>
    <g id="xtick_2">
     <g id="line2d_3">
      <path clip-path="url(#p4f8d66cb8a)" d="M 149.625 433.538182 
L 149.625 112.32 
" style="fill:none;stroke:#808080;stroke-linecap:square;stroke-width:0.8;"/>
     </g>
     <g id="line2d_4">
      <g>
       <use style="stroke:#000000;stroke-width:0.8;" x="149.625" xlink:href="#m64f6b4a2fc" y="433.538182"/>
      </g>
     </g>
     <g id="text_2">
      <!-- 2 -->
      <g transform="translate(146.44375 448.136619)scale(0.1 -0.1)">
       <defs>
        <path d="M 19.1875 8.296875 
L 53.609375 8.296875 
L 53.609375 0 
L 7.328125 0 
L 7.328125 8.296875 
Q 12.9375 14.109375 22.625 23.890625 
Q 32.328125 33.6875 34.8125 36.53125 
Q 39.546875 41.84375 41.421875 45.53125 
Q 43.3125 49.21875 43.3125 52.78125 
Q 43.3125 58.59375 39.234375 62.25 
Q 35.15625 65.921875 28.609375 65.921875 
Q 23.96875 65.921875 18.8125 64.3125 
Q 13.671875 62.703125 7.8125 59.421875 
L 7.8125 69.390625 
Q 13.765625 71.78125 18.9375 73 
Q 24.125 74.21875 28.421875 74.21875 
Q 39.75 74.21875 46.484375 68.546875 
Q 53.21875 62.890625 53.21875 53.421875 
Q 53.21875 48.921875 51.53125 44.890625 
Q 49.859375 40.875 45.40625 35.40625 
Q 44.1875 33.984375 37.640625 27.21875 
Q 31.109375 20.453125 19.1875 8.296875 
z
" id="DejaVuSans-50"/>
       </defs>
       <use xlink:href="#DejaVuSans-50"/>
      </g>
     </g>
    </g>
    <g id="xtick_3">
     <g id="line2d_5">
      <path clip-path="url(#p4f8d66cb8a)" d="M 219.375 433.538182 
L 219.375 112.32 
" style="fill:none;stroke:#808080;stroke-linecap:square;stroke-width:0.8;"/>
     </g>
     <g id="line2d_6">
      <g>
       <use style="stroke:#000000;stroke-width:0.8;" x="219.375" xlink:href="#m64f6b4a2fc" y="433.538182"/>
      </g>
     </g>
     <g id="text_3">
      <!-- 4 -->
      <g transform="translate(216.19375 448.136619)scale(0.1 -0.1)">
       <defs>
        <path d="M 37.796875 64.3125 
L 12.890625 25.390625 
L 37.796875 25.390625 
z
M 35.203125 72.90625 
L 47.609375 72.90625 
L 47.609375 25.390625 
L 58.015625 25.390625 
L 58.015625 17.1875 
L 47.609375 17.1875 
L 47.609375 0 
L 37.796875 0 
L 37.796875 17.1875 
L 4.890625 17.1875 
L 4.890625 26.703125 
z
" id="DejaVuSans-52"/>
       </defs>
       <use xlink:href="#DejaVuSans-52"/>
      </g>
     </g>
    </g>
    <g id="xtick_4">
     <g id="line2d_7">
      <path clip-path="url(#p4f8d66cb8a)" d="M 289.125 433.538182 
L 289.125 112.32 
" style="fill:none;stroke:#808080;stroke-linecap:square;stroke-width:0.8;"/>
     </g>
     <g id="line2d_8">
      <g>
       <use style="stroke:#000000;stroke-width:0.8;" x="289.125" xlink:href="#m64f6b4a2fc" y="433.538182"/>
      </g>
     </g>
     <g id="text_4">
      <!-- 8 -->
      <g transform="translate(285.94375 448.136619)scale(0.1 -0.1)">
       <defs>
        <path d="M 31.78125 34.625 
Q 24.75 34.625 20.71875 30.859375 
Q 16.703125 27.09375 16.703125 20.515625 
Q 16.703125 13.921875 20.71875 10.15625 
Q 24.75 6.390625 31.78125 6.390625 
Q 38.8125 6.390625 42.859375 10.171875 
Q 46.921875 13.96875 46.921875 20.515625 
Q 46.921875 27.09375 42.890625 30.859375 
Q 38.875 34.625 31.78125 34.625 
z
M 21.921875 38.8125 
Q 15.578125 40.375 12.03125 44.71875 
Q 8.5 49.078125 8.5 55.328125 
Q 8.5 64.0625 14.71875 69.140625 
Q 20.953125 74.21875 31.78125 74.21875 
Q 42.671875 74.21875 48.875 69.140625 
Q 55.078125 64.0625 55.078125 55.328125 
Q 55.078125 49.078125 51.53125 44.71875 
Q 48 40.375 41.703125 38.8125 
Q 48.828125 37.15625 52.796875 32.3125 
Q 56.78125 27.484375 56.78125 20.515625 
Q 56.78125 9.90625 50.3125 4.234375 
Q 43.84375 -1.421875 31.78125 -1.421875 
Q 19.734375 -1.421875 13.25 4.234375 
Q 6.78125 9.90625 6.78125 20.515625 
Q 6.78125 27.484375 10.78125 32.3125 
Q 14.796875 37.15625 21.921875 38.8125 
z
M 18.3125 54.390625 
Q 18.3125 48.734375 21.84375 45.5625 
Q 25.390625 42.390625 31.78125 42.390625 
Q 38.140625 42.390625 41.71875 45.5625 
Q 45.3125 48.734375 45.3125 54.390625 
Q 45.3125 60.0625 41.71875 63.234375 
Q 38.140625 66.40625 31.78125 66.40625 
Q 25.390625 66.40625 21.84375 63.234375 
Q 18.3125 60.0625 18.3125 54.390625 
z
" id="DejaVuSans-56"/>
       </defs>
       <use xlink:href="#DejaVuSans-56"/>
      </g>
     </g>
    </g>
    <g id="text_5">
     <!-- size -->
     <g transform="translate(172.866562 463.334432)scale(0.12 -0.12)">
      <defs>
       <path d="M 44.28125 53.078125 
L 44.28125 44.578125 
Q 40.484375 46.53125 36.375 47.5 
Q 32.28125 48.484375 27.875 48.484375 
Q 21.1875 48.484375 17.84375 46.4375 
Q 14.5 44.390625 14.5 40.28125 
Q 14.5 37.15625 16.890625 35.375 
Q 19.28125 33.59375 26.515625 31.984375 
L 29.59375 31.296875 
Q 39.15625 29.25 43.1875 25.515625 
Q 47.21875 21.78125 47.21875 15.09375 
Q 47.21875 7.46875 41.1875 3.015625 
Q 35.15625 -1.421875 24.609375 -1.421875 
Q 20.21875 -1.421875 15.453125 -0.5625 
Q 10.6875 0.296875 5.421875 2 
L 5.421875 11.28125 
Q 10.40625 8.6875 15.234375 7.390625 
Q 20.0625 6.109375 24.8125 6.109375 
Q 31.15625 6.109375 34.5625 8.28125 
Q 37.984375 10.453125 37.984375 14.40625 
Q 37.984375 18.0625 35.515625 20.015625 
Q 33.0625 21.96875 24.703125 23.78125 
L 21.578125 24.515625 
Q 13.234375 26.265625 9.515625 29.90625 
Q 5.8125 33.546875 5.8125 39.890625 
Q 5.8125 47.609375 11.28125 51.796875 
Q 16.75 56 26.8125 56 
Q 31.78125 56 36.171875 55.265625 
Q 40.578125 54.546875 44.28125 53.078125 
z
" id="DejaVuSans-115"/>
       <path d="M 9.421875 54.6875 
L 18.40625 54.6875 
L 18.40625 0 
L 9.421875 0 
z
M 9.421875 75.984375 
L 18.40625 75.984375 
L 18.40625 64.59375 
L 9.421875 64.59375 
z
" id="DejaVuSans-105"/>
       <path d="M 5.515625 54.6875 
L 48.1875 54.6875 
L 48.1875 46.484375 
L 14.40625 7.171875 
L 48.1875 7.171875 
L 48.1875 0 
L 4.296875 0 
L 4.296875 8.203125 
L 38.09375 47.515625 
L 5.515625 47.515625 
z
" id="DejaVuSans-122"/>
       <path d="M 56.203125 29.59375 
L 56.203125 25.203125 
L 14.890625 25.203125 
Q 15.484375 15.921875 20.484375 11.0625 
Q 25.484375 6.203125 34.421875 6.203125 
Q 39.59375 6.203125 44.453125 7.46875 
Q 49.3125 8.734375 54.109375 11.28125 
L 54.109375 2.78125 
Q 49.265625 0.734375 44.1875 -0.34375 
Q 39.109375 -1.421875 33.890625 -1.421875 
Q 20.796875 -1.421875 13.15625 6.1875 
Q 5.515625 13.8125 5.515625 26.8125 
Q 5.515625 40.234375 12.765625 48.109375 
Q 20.015625 56 32.328125 56 
Q 43.359375 56 49.78125 48.890625 
Q 56.203125 41.796875 56.203125 29.59375 
z
M 47.21875 32.234375 
Q 47.125 39.59375 43.09375 43.984375 
Q 39.0625 48.390625 32.421875 48.390625 
Q 24.90625 48.390625 20.390625 44.140625 
Q 15.875 39.890625 15.1875 32.171875 
z
" id="DejaVuSans-101"/>
      </defs>
      <use xlink:href="#DejaVuSans-115"/>
      <use x="52.099609" xlink:href="#DejaVuSans-105"/>
      <use x="79.882812" xlink:href="#DejaVuSans-122"/>
      <use x="132.373047" xlink:href="#DejaVuSans-101"/>
     </g>
    </g>
   </g>
   <g id="matplotlib.axis_2">
    <g id="ytick_1">
     <g id="line2d_9">
      <path clip-path="url(#p4f8d66cb8a)" d="M 45 428.071806 
L 324 428.071806 
" style="fill:none;stroke:#808080;stroke-linecap:square;stroke-width:0.8;"/>
     </g>
     <g id="line2d_10">
      <defs>
       <path d="M 0 0 
L -3.5 0 
" id="m83a22b3bf6" style="stroke:#000000;stroke-width:0.8;"/>
      </defs>
      <g>
       <use style="stroke:#000000;stroke-width:0.8;" x="45" xlink:href="#m83a22b3bf6" y="428.071806"/>
      </g>
     </g>
     <g id="text_6">
      <!-- −6 -->
      <g transform="translate(23.257812 431.871025)scale(0.1 -0.1)">
       <defs>
        <path d="M 10.59375 35.5 
L 73.1875 35.5 
L 73.1875 27.203125 
L 10.59375 27.203125 
z
" id="DejaVuSans-8722"/>
        <path d="M 33.015625 40.375 
Q 26.375 40.375 22.484375 35.828125 
Q 18.609375 31.296875 18.609375 23.390625 
Q 18.609375 15.53125 22.484375 10.953125 
Q 26.375 6.390625 33.015625 6.390625 
Q 39.65625 6.390625 43.53125 10.953125 
Q 47.40625 15.53125 47.40625 23.390625 
Q 47.40625 31.296875 43.53125 35.828125 
Q 39.65625 40.375 33.015625 40.375 
z
M 52.59375 71.296875 
L 52.59375 62.3125 
Q 48.875 64.0625 45.09375 64.984375 
Q 41.3125 65.921875 37.59375 65.921875 
Q 27.828125 65.921875 22.671875 59.328125 
Q 17.53125 52.734375 16.796875 39.40625 
Q 19.671875 43.65625 24.015625 45.921875 
Q 28.375 48.1875 33.59375 48.1875 
Q 44.578125 48.1875 50.953125 41.515625 
Q 57.328125 34.859375 57.328125 23.390625 
Q 57.328125 12.15625 50.6875 5.359375 
Q 44.046875 -1.421875 33.015625 -1.421875 
Q 20.359375 -1.421875 13.671875 8.265625 
Q 6.984375 17.96875 6.984375 36.375 
Q 6.984375 53.65625 15.1875 63.9375 
Q 23.390625 74.21875 37.203125 74.21875 
Q 40.921875 74.21875 44.703125 73.484375 
Q 48.484375 72.75 52.59375 71.296875 
z
" id="DejaVuSans-54"/>
       </defs>
       <use xlink:href="#DejaVuSans-8722"/>
       <use x="83.789062" xlink:href="#DejaVuSans-54"/>
      </g>
     </g>
    </g>
    <g id="ytick_2">
     <g id="line2d_11">
      <path clip-path="url(#p4f8d66cb8a)" d="M 45 378.976553 
L 324 378.976553 
" style="fill:none;stroke:#808080;stroke-linecap:square;stroke-width:0.8;"/>
     </g>
     <g id="line2d_12">
      <g>
       <use style="stroke:#000000;stroke-width:0.8;" x="45" xlink:href="#m83a22b3bf6" y="378.976553"/>
      </g>
     </g>
     <g id="text_7">
      <!-- −5 -->
      <g transform="translate(23.257812 382.775772)scale(0.1 -0.1)">
       <defs>
        <path d="M 10.796875 72.90625 
L 49.515625 72.90625 
L 49.515625 64.59375 
L 19.828125 64.59375 
L 19.828125 46.734375 
Q 21.96875 47.46875 24.109375 47.828125 
Q 26.265625 48.1875 28.421875 48.1875 
Q 40.625 48.1875 47.75 41.5 
Q 54.890625 34.8125 54.890625 23.390625 
Q 54.890625 11.625 47.5625 5.09375 
Q 40.234375 -1.421875 26.90625 -1.421875 
Q 22.3125 -1.421875 17.546875 -0.640625 
Q 12.796875 0.140625 7.71875 1.703125 
L 7.71875 11.625 
Q 12.109375 9.234375 16.796875 8.0625 
Q 21.484375 6.890625 26.703125 6.890625 
Q 35.15625 6.890625 40.078125 11.328125 
Q 45.015625 15.765625 45.015625 23.390625 
Q 45.015625 31 40.078125 35.4375 
Q 35.15625 39.890625 26.703125 39.890625 
Q 22.75 39.890625 18.8125 39.015625 
Q 14.890625 38.140625 10.796875 36.28125 
z
" id="DejaVuSans-53"/>
       </defs>
       <use xlink:href="#DejaVuSans-8722"/>
       <use x="83.789062" xlink:href="#DejaVuSans-53"/>
      </g>
     </g>
    </g>
    <g id="ytick_3">
     <g id="line2d_13">
      <path clip-path="url(#p4f8d66cb8a)" d="M 45 329.8813 
L 324 329.8813 
" style="fill:none;stroke:#808080;stroke-linecap:square;stroke-width:0.8;"/>
     </g>
     <g id="line2d_14">
      <g>
       <use style="stroke:#000000;stroke-width:0.8;" x="45" xlink:href="#m83a22b3bf6" y="329.8813"/>
      </g>
     </g>
     <g id="text_8">
      <!-- −4 -->
      <g transform="translate(23.257812 333.680519)scale(0.1 -0.1)">
       <use xlink:href="#DejaVuSans-8722"/>
       <use x="83.789062" xlink:href="#DejaVuSans-52"/>
      </g>
     </g>
    </g>
    <g id="ytick_4">
     <g id="line2d_15">
      <path clip-path="url(#p4f8d66cb8a)" d="M 45 280.786047 
L 324 280.786047 
" style="fill:none;stroke:#808080;stroke-linecap:square;stroke-width:0.8;"/>
     </g>
     <g id="line2d_16">
      <g>
       <use style="stroke:#000000;stroke-width:0.8;" x="45" xlink:href="#m83a22b3bf6" y="280.786047"/>
      </g>
     </g>
     <g id="text_9">
      <!-- −3 -->
      <g transform="translate(23.257812 284.585266)scale(0.1 -0.1)">
       <defs>
        <path d="M 40.578125 39.3125 
Q 47.65625 37.796875 51.625 33 
Q 55.609375 28.21875 55.609375 21.1875 
Q 55.609375 10.40625 48.1875 4.484375 
Q 40.765625 -1.421875 27.09375 -1.421875 
Q 22.515625 -1.421875 17.65625 -0.515625 
Q 12.796875 0.390625 7.625 2.203125 
L 7.625 11.71875 
Q 11.71875 9.328125 16.59375 8.109375 
Q 21.484375 6.890625 26.8125 6.890625 
Q 36.078125 6.890625 40.9375 10.546875 
Q 45.796875 14.203125 45.796875 21.1875 
Q 45.796875 27.640625 41.28125 31.265625 
Q 36.765625 34.90625 28.71875 34.90625 
L 20.21875 34.90625 
L 20.21875 43.015625 
L 29.109375 43.015625 
Q 36.375 43.015625 40.234375 45.921875 
Q 44.09375 48.828125 44.09375 54.296875 
Q 44.09375 59.90625 40.109375 62.90625 
Q 36.140625 65.921875 28.71875 65.921875 
Q 24.65625 65.921875 20.015625 65.03125 
Q 15.375 64.15625 9.8125 62.3125 
L 9.8125 71.09375 
Q 15.4375 72.65625 20.34375 73.4375 
Q 25.25 74.21875 29.59375 74.21875 
Q 40.828125 74.21875 47.359375 69.109375 
Q 53.90625 64.015625 53.90625 55.328125 
Q 53.90625 49.265625 50.4375 45.09375 
Q 46.96875 40.921875 40.578125 39.3125 
z
" id="DejaVuSans-51"/>
       </defs>
       <use xlink:href="#DejaVuSans-8722"/>
       <use x="83.789062" xlink:href="#DejaVuSans-51"/>
      </g>
     </g>
    </g>
    <g id="ytick_5">
     <g id="line2d_17">
      <path clip-path="url(#p4f8d66cb8a)" d="M 45 231.690795 
L 324 231.690795 
" style="fill:none;stroke:#808080;stroke-linecap:square;stroke-width:0.8;"/>
     </g>
     <g id="line2d_18">
      <g>
       <use style="stroke:#000000;stroke-width:0.8;" x="45" xlink:href="#m83a22b3bf6" y="231.690795"/>
      </g>
     </g>
     <g id="text_10">
      <!-- −2 -->
      <g transform="translate(23.257812 235.490013)scale(0.1 -0.1)">
       <use xlink:href="#DejaVuSans-8722"/>
       <use x="83.789062" xlink:href="#DejaVuSans-50"/>
      </g>
     </g>
    </g>
    <g id="ytick_6">
     <g id="line2d_19">
      <path clip-path="url(#p4f8d66cb8a)" d="M 45 182.595542 
L 324 182.595542 
" style="fill:none;stroke:#808080;stroke-linecap:square;stroke-width:0.8;"/>
     </g>
     <g id="line2d_20">
      <g>
       <use style="stroke:#000000;stroke-width:0.8;" x="45" xlink:href="#m83a22b3bf6" y="182.595542"/>
      </g>
     </g>
     <g id="text_11">
      <!-- −1 -->
      <g transform="translate(23.257812 186.39476)scale(0.1 -0.1)">
       <use xlink:href="#DejaVuSans-8722"/>
       <use x="83.789062" xlink:href="#DejaVuSans-49"/>
      </g>
     </g>
    </g>
    <g id="ytick_7">
     <g id="line2d_21">
      <path clip-path="url(#p4f8d66cb8a)" d="M 45 133.500289 
L 324 133.500289 
" style="fill:none;stroke:#808080;stroke-linecap:square;stroke-width:0.8;"/>
     </g>
     <g id="line2d_22">
      <g>
       <use style="stroke:#000000;stroke-width:0.8;" x="45" xlink:href="#m83a22b3bf6" y="133.500289"/>
      </g>
     </g>
     <g id="text_12">
      <!-- 0 -->
      <g transform="translate(31.6375 137.299508)scale(0.1 -0.1)">
       <defs>
        <path d="M 31.78125 66.40625 
Q 24.171875 66.40625 20.328125 58.90625 
Q 16.5 51.421875 16.5 36.375 
Q 16.5 21.390625 20.328125 13.890625 
Q 24.171875 6.390625 31.78125 6.390625 
Q 39.453125 6.390625 43.28125 13.890625 
Q 47.125 21.390625 47.125 36.375 
Q 47.125 51.421875 43.28125 58.90625 
Q 39.453125 66.40625 31.78125 66.40625 
z
M 31.78125 74.21875 
Q 44.046875 74.21875 50.515625 64.515625 
Q 56.984375 54.828125 56.984375 36.375 
Q 56.984375 17.96875 50.515625 8.265625 
Q 44.046875 -1.421875 31.78125 -1.421875 
Q 19.53125 -1.421875 13.0625 8.265625 
Q 6.59375 17.96875 6.59375 36.375 
Q 6.59375 54.828125 13.0625 64.515625 
Q 19.53125 74.21875 31.78125 74.21875 
z
" id="DejaVuSans-48"/>
       </defs>
       <use xlink:href="#DejaVuSans-48"/>
      </g>
     </g>
    </g>
    <g id="text_13">
     <!-- $\log_{10}(\mathcal{L}_\theta)$ -->
     <g transform="translate(16.737812 299.329091)rotate(-90)scale(0.12 -0.12)">
      <defs>
       <path d="M 9.421875 75.984375 
L 18.40625 75.984375 
L 18.40625 0 
L 9.421875 0 
z
" id="DejaVuSans-108"/>
       <path d="M 30.609375 48.390625 
Q 23.390625 48.390625 19.1875 42.75 
Q 14.984375 37.109375 14.984375 27.296875 
Q 14.984375 17.484375 19.15625 11.84375 
Q 23.34375 6.203125 30.609375 6.203125 
Q 37.796875 6.203125 41.984375 11.859375 
Q 46.1875 17.53125 46.1875 27.296875 
Q 46.1875 37.015625 41.984375 42.703125 
Q 37.796875 48.390625 30.609375 48.390625 
z
M 30.609375 56 
Q 42.328125 56 49.015625 48.375 
Q 55.71875 40.765625 55.71875 27.296875 
Q 55.71875 13.875 49.015625 6.21875 
Q 42.328125 -1.421875 30.609375 -1.421875 
Q 18.84375 -1.421875 12.171875 6.21875 
Q 5.515625 13.875 5.515625 27.296875 
Q 5.515625 40.765625 12.171875 48.375 
Q 18.84375 56 30.609375 56 
z
" id="DejaVuSans-111"/>
       <path d="M 45.40625 27.984375 
Q 45.40625 37.75 41.375 43.109375 
Q 37.359375 48.484375 30.078125 48.484375 
Q 22.859375 48.484375 18.828125 43.109375 
Q 14.796875 37.75 14.796875 27.984375 
Q 14.796875 18.265625 18.828125 12.890625 
Q 22.859375 7.515625 30.078125 7.515625 
Q 37.359375 7.515625 41.375 12.890625 
Q 45.40625 18.265625 45.40625 27.984375 
z
M 54.390625 6.78125 
Q 54.390625 -7.171875 48.1875 -13.984375 
Q 42 -20.796875 29.203125 -20.796875 
Q 24.46875 -20.796875 20.265625 -20.09375 
Q 16.0625 -19.390625 12.109375 -17.921875 
L 12.109375 -9.1875 
Q 16.0625 -11.328125 19.921875 -12.34375 
Q 23.78125 -13.375 27.78125 -13.375 
Q 36.625 -13.375 41.015625 -8.765625 
Q 45.40625 -4.15625 45.40625 5.171875 
L 45.40625 9.625 
Q 42.625 4.78125 38.28125 2.390625 
Q 33.9375 0 27.875 0 
Q 17.828125 0 11.671875 7.65625 
Q 5.515625 15.328125 5.515625 27.984375 
Q 5.515625 40.671875 11.671875 48.328125 
Q 17.828125 56 27.875 56 
Q 33.9375 56 38.28125 53.609375 
Q 42.625 51.21875 45.40625 46.390625 
L 45.40625 54.6875 
L 54.390625 54.6875 
z
" id="DejaVuSans-103"/>
       <path d="M 31 75.875 
Q 24.46875 64.65625 21.28125 53.65625 
Q 18.109375 42.671875 18.109375 31.390625 
Q 18.109375 20.125 21.3125 9.0625 
Q 24.515625 -2 31 -13.1875 
L 23.1875 -13.1875 
Q 15.875 -1.703125 12.234375 9.375 
Q 8.59375 20.453125 8.59375 31.390625 
Q 8.59375 42.28125 12.203125 53.3125 
Q 15.828125 64.359375 23.1875 75.875 
z
" id="DejaVuSans-40"/>
       <path d="M 63.59375 14.296875 
L 65.296875 12.5 
Q 52.296875 -0.703125 37.703125 -0.703125 
Q 33.703125 -0.703125 28.90625 0.40625 
Q 21.796875 1.90625 17.90625 1.90625 
Q 15.703125 1.90625 10.5 0.953125 
Q 5.296875 0 3 0 
L 3.59375 2.40625 
Q 9.09375 2.40625 11.40625 11.703125 
L 18.40625 40.09375 
Q 20.09375 47 23.6875 52.390625 
Q 27.296875 57.796875 31.640625 60.84375 
Q 36 63.90625 40.390625 65.453125 
Q 44.796875 67 48.796875 67 
Q 53.796875 67 56.140625 63.796875 
Q 58.5 60.59375 58.5 56 
Q 58.5 52.296875 56.140625 50 
Q 53.796875 47.703125 50.40625 47.703125 
Q 48.203125 47.703125 46.796875 49.203125 
Q 45.40625 50.703125 45.40625 52.796875 
Q 45.40625 54.40625 46.203125 55.5 
Q 47 56.59375 47.890625 56.9375 
Q 48.796875 57.296875 49.59375 57.890625 
Q 50.40625 58.5 50.40625 59.203125 
Q 50.40625 63 44.59375 63 
Q 39.40625 63 36.09375 59.140625 
Q 32.796875 55.296875 31.09375 48.9375 
Q 29.40625 42.59375 28.046875 35.6875 
Q 26.703125 28.796875 24.203125 21.296875 
Q 21.703125 13.796875 18.09375 9.203125 
L 18.09375 8.796875 
Q 21.296875 11 29.5 11 
Q 34.796875 11 38.4375 8.5 
Q 42.09375 6 46.296875 6 
Q 54.796875 6 63.59375 14.296875 
z
" id="STIXNonUnicode-Italic-57912"/>
       <path d="M 45.515625 34.671875 
L 14.453125 34.671875 
Q 12.359375 20.0625 14.5 13.875 
Q 17.1875 6.25 24.46875 6.25 
Q 31.78125 6.25 37.359375 13.921875 
Q 42.234375 20.65625 45.515625 34.671875 
z
M 47.015625 42.96875 
Q 48.34375 56.84375 46.625 61.71875 
Q 43.953125 69.4375 36.765625 69.4375 
Q 29.296875 69.4375 23.828125 61.8125 
Q 19.53125 55.671875 16.15625 42.96875 
z
M 38.1875 76.765625 
Q 49.90625 76.765625 54.59375 66.40625 
Q 59.28125 56.109375 55.71875 37.84375 
Q 52.203125 19.625 43.453125 9.28125 
Q 34.765625 -1.125 23.046875 -1.125 
Q 11.28125 -1.125 6.640625 9.28125 
Q 2 19.625 5.515625 37.84375 
Q 9.078125 56.109375 17.71875 66.40625 
Q 26.421875 76.765625 38.1875 76.765625 
z
" id="DejaVuSans-Oblique-952"/>
       <path d="M 8.015625 75.875 
L 15.828125 75.875 
Q 23.140625 64.359375 26.78125 53.3125 
Q 30.421875 42.28125 30.421875 31.390625 
Q 30.421875 20.453125 26.78125 9.375 
Q 23.140625 -1.703125 15.828125 -13.1875 
L 8.015625 -13.1875 
Q 14.5 -2 17.703125 9.0625 
Q 20.90625 20.125 20.90625 31.390625 
Q 20.90625 42.671875 17.703125 53.65625 
Q 14.5 64.65625 8.015625 75.875 
z
" id="DejaVuSans-41"/>
      </defs>
      <use transform="translate(0 0.015625)" xlink:href="#DejaVuSans-108"/>
      <use transform="translate(27.783203 0.015625)" xlink:href="#DejaVuSans-111"/>
      <use transform="translate(88.964844 0.015625)" xlink:href="#DejaVuSans-103"/>
      <use transform="translate(153.398438 -16.390625)scale(0.7)" xlink:href="#DejaVuSans-49"/>
      <use transform="translate(197.93457 -16.390625)scale(0.7)" xlink:href="#DejaVuSans-48"/>
      <use transform="translate(245.205078 0.015625)" xlink:href="#DejaVuSans-40"/>
      <use transform="translate(284.21875 0.015625)" xlink:href="#STIXNonUnicode-Italic-57912"/>
      <use transform="translate(354.475769 -16.390625)scale(0.7)" xlink:href="#DejaVuSans-Oblique-952"/>
      <use transform="translate(400.037292 0.015625)" xlink:href="#DejaVuSans-41"/>
     </g>
    </g>
   </g>
   <g id="PolyCollection_1">
    <defs>
     <path d="M 80.639048 -517.062645 
L 79.110952 -517.062645 
L 78.968818 -519.557138 
L 78.807437 -522.051631 
L 78.625664 -524.546124 
L 78.422556 -527.040617 
L 78.197419 -529.53511 
L 77.949849 -532.029603 
L 77.679772 -534.524096 
L 77.387471 -537.018589 
L 77.073598 -539.513082 
L 76.739184 -542.007575 
L 76.385621 -544.502068 
L 76.014639 -546.996561 
L 75.628261 -549.491054 
L 75.228744 -551.985547 
L 74.818511 -554.48004 
L 74.400069 -556.974533 
L 73.975919 -559.469026 
L 73.548471 -561.963519 
L 73.119948 -564.458012 
L 72.692309 -566.952505 
L 72.267174 -569.446998 
L 71.845766 -571.941491 
L 71.428874 -574.435984 
L 71.016828 -576.930477 
L 70.609504 -579.42497 
L 70.20635 -581.919463 
L 69.806423 -584.413956 
L 69.408457 -586.908449 
L 69.010937 -589.402942 
L 68.612191 -591.897435 
L 68.21048 -594.391928 
L 67.804098 -596.886421 
L 67.391461 -599.380914 
L 66.971195 -601.875407 
L 66.542201 -604.3699 
L 66.103716 -606.864393 
L 65.655344 -609.358886 
L 65.197078 -611.853379 
L 64.729291 -614.347872 
L 64.252716 -616.842365 
L 63.768412 -619.336858 
L 63.277709 -621.831351 
L 62.782151 -624.325844 
L 62.283439 -626.820337 
L 61.783369 -629.31483 
L 61.283785 -631.809323 
L 60.786542 -634.303816 
L 60.293483 -636.798309 
L 59.806444 -639.292802 
L 59.327269 -641.787295 
L 58.857856 -644.281788 
L 58.400209 -646.776281 
L 57.956519 -649.270774 
L 57.529236 -651.765267 
L 57.121155 -654.25976 
L 56.735489 -656.754253 
L 56.375929 -659.248746 
L 56.046675 -661.743239 
L 55.752446 -664.237732 
L 55.498446 -666.732225 
L 55.290294 -669.226718 
L 55.133911 -671.721211 
L 55.035374 -674.215704 
L 55.000727 -676.710197 
L 55.035772 -679.20469 
L 55.145839 -681.699183 
L 55.335551 -684.193676 
L 55.60859 -686.688169 
L 55.967487 -689.182662 
L 56.413437 -691.677155 
L 56.946158 -694.171648 
L 57.563798 -696.666141 
L 58.262897 -699.160634 
L 59.03841 -701.655127 
L 59.88379 -704.14962 
L 60.791123 -706.644113 
L 61.751317 -709.138606 
L 62.754338 -711.633099 
L 63.789464 -714.127592 
L 64.845577 -716.622085 
L 65.911449 -719.116578 
L 66.976027 -721.611071 
L 68.028708 -724.105564 
L 69.05958 -726.600057 
L 70.059631 -729.09455 
L 71.020921 -731.589043 
L 71.936701 -734.083536 
L 72.801494 -736.578029 
L 73.611123 -739.072522 
L 74.362702 -741.567015 
L 75.054585 -744.061508 
L 75.686281 -746.556001 
L 76.258344 -749.050494 
L 76.772244 -751.544987 
L 77.230226 -754.03948 
L 77.635157 -756.533973 
L 77.990386 -759.028466 
L 78.299597 -761.522959 
L 78.566677 -764.017452 
L 81.183323 -764.017452 
L 81.183323 -764.017452 
L 81.450403 -761.522959 
L 81.759614 -759.028466 
L 82.114843 -756.533973 
L 82.519774 -754.03948 
L 82.977756 -751.544987 
L 83.491656 -749.050494 
L 84.063719 -746.556001 
L 84.695415 -744.061508 
L 85.387298 -741.567015 
L 86.138877 -739.072522 
L 86.948506 -736.578029 
L 87.813299 -734.083536 
L 88.729079 -731.589043 
L 89.690369 -729.09455 
L 90.69042 -726.600057 
L 91.721292 -724.105564 
L 92.773973 -721.611071 
L 93.838551 -719.116578 
L 94.904423 -716.622085 
L 95.960536 -714.127592 
L 96.995662 -711.633099 
L 97.998683 -709.138606 
L 98.958877 -706.644113 
L 99.86621 -704.14962 
L 100.71159 -701.655127 
L 101.487103 -699.160634 
L 102.186202 -696.666141 
L 102.803842 -694.171648 
L 103.336563 -691.677155 
L 103.782513 -689.182662 
L 104.14141 -686.688169 
L 104.414449 -684.193676 
L 104.604161 -681.699183 
L 104.714228 -679.20469 
L 104.749273 -676.710197 
L 104.714626 -674.215704 
L 104.616089 -671.721211 
L 104.459706 -669.226718 
L 104.251554 -666.732225 
L 103.997554 -664.237732 
L 103.703325 -661.743239 
L 103.374071 -659.248746 
L 103.014511 -656.754253 
L 102.628845 -654.25976 
L 102.220764 -651.765267 
L 101.793481 -649.270774 
L 101.349791 -646.776281 
L 100.892144 -644.281788 
L 100.422731 -641.787295 
L 99.943556 -639.292802 
L 99.456517 -636.798309 
L 98.963458 -634.303816 
L 98.466215 -631.809323 
L 97.966631 -629.31483 
L 97.466561 -626.820337 
L 96.967849 -624.325844 
L 96.472291 -621.831351 
L 95.981588 -619.336858 
L 95.497284 -616.842365 
L 95.020709 -614.347872 
L 94.552922 -611.853379 
L 94.094656 -609.358886 
L 93.646284 -606.864393 
L 93.207799 -604.3699 
L 92.778805 -601.875407 
L 92.358539 -599.380914 
L 91.945902 -596.886421 
L 91.53952 -594.391928 
L 91.137809 -591.897435 
L 90.739063 -589.402942 
L 90.341543 -586.908449 
L 89.943577 -584.413956 
L 89.54365 -581.919463 
L 89.140496 -579.42497 
L 88.733172 -576.930477 
L 88.321126 -574.435984 
L 87.904234 -571.941491 
L 87.482826 -569.446998 
L 87.057691 -566.952505 
L 86.630052 -564.458012 
L 86.201529 -561.963519 
L 85.774081 -559.469026 
L 85.349931 -556.974533 
L 84.931489 -554.48004 
L 84.521256 -551.985547 
L 84.121739 -549.491054 
L 83.735361 -546.996561 
L 83.364379 -544.502068 
L 83.010816 -542.007575 
L 82.676402 -539.513082 
L 82.362529 -537.018589 
L 82.070228 -534.524096 
L 81.800151 -532.029603 
L 81.552581 -529.53511 
L 81.327444 -527.040617 
L 81.124336 -524.546124 
L 80.942563 -522.051631 
L 80.781182 -519.557138 
L 80.639048 -517.062645 
z
" id="m80431e3b36"/>
    </defs>
    <g clip-path="url(#p4f8d66cb8a)">
     <use style="fill:#ce1e5c;" x="0" xlink:href="#m80431e3b36" y="936"/>
    </g>
   </g>
   <g id="PolyCollection_2">
    <defs>
     <path d="M 150.789601 -531.884868 
L 148.460399 -531.884868 
L 148.250172 -534.393878 
L 148.011969 -536.902888 
L 147.744076 -539.411898 
L 147.445059 -541.920908 
L 147.113827 -544.429918 
L 146.749716 -546.938927 
L 146.352551 -549.447937 
L 145.92271 -551.956947 
L 145.461174 -554.465957 
L 144.969559 -556.974967 
L 144.45014 -559.483977 
L 143.90584 -561.992987 
L 143.340214 -564.501997 
L 142.757392 -567.011007 
L 142.162015 -569.520017 
L 141.559137 -572.029027 
L 140.954113 -574.538037 
L 140.352471 -577.047047 
L 139.759767 -579.556057 
L 139.181436 -582.065067 
L 138.622643 -584.574077 
L 138.08813 -587.083087 
L 137.582086 -589.592097 
L 137.108018 -592.101107 
L 136.668653 -594.610117 
L 136.265859 -597.119127 
L 135.900594 -599.628137 
L 135.572887 -602.137147 
L 135.281838 -604.646156 
L 135.025662 -607.155166 
L 134.801744 -609.664176 
L 134.606725 -612.173186 
L 134.436606 -614.682196 
L 134.286867 -617.191206 
L 134.152595 -619.700216 
L 134.028621 -622.209226 
L 133.909657 -624.718236 
L 133.790432 -627.227246 
L 133.665826 -629.736256 
L 133.530996 -632.245266 
L 133.381493 -634.754276 
L 133.213369 -637.263286 
L 133.023281 -639.772296 
L 132.808579 -642.281306 
L 132.567379 -644.790316 
L 132.298639 -647.299326 
L 132.002212 -649.808336 
L 131.678889 -652.317346 
L 131.33043 -654.826356 
L 130.959578 -657.335366 
L 130.570054 -659.844375 
L 130.166533 -662.353385 
L 129.754598 -664.862395 
L 129.340666 -667.371405 
L 128.931895 -669.880415 
L 128.536059 -672.389425 
L 128.1614 -674.898435 
L 127.816459 -677.407445 
L 127.509883 -679.916455 
L 127.250223 -682.425465 
L 127.045713 -684.934475 
L 126.904054 -687.443485 
L 126.832199 -689.952495 
L 126.836149 -692.461505 
L 126.920773 -694.970515 
L 127.089648 -697.479525 
L 127.344938 -699.988535 
L 127.687312 -702.497545 
L 128.115897 -705.006555 
L 128.628288 -707.515565 
L 129.220588 -710.024575 
L 129.887504 -712.533585 
L 130.622475 -715.042595 
L 131.417841 -717.551604 
L 132.265029 -720.060614 
L 133.154779 -722.569624 
L 134.077363 -725.078634 
L 135.022825 -727.587644 
L 135.98121 -730.096654 
L 136.942783 -732.605664 
L 137.898233 -735.114674 
L 138.838851 -737.623684 
L 139.756685 -740.132694 
L 140.644659 -742.641704 
L 141.49666 -745.150714 
L 142.307596 -747.659724 
L 143.07342 -750.168734 
L 143.791122 -752.677744 
L 144.458696 -755.186754 
L 145.075082 -757.695764 
L 145.640093 -760.204774 
L 146.154324 -762.713784 
L 146.619048 -765.222794 
L 147.036114 -767.731804 
L 147.407835 -770.240814 
L 147.736885 -772.749823 
L 148.026194 -775.258833 
L 148.278856 -777.767843 
L 148.498042 -780.276853 
L 150.751958 -780.276853 
L 150.751958 -780.276853 
L 150.971144 -777.767843 
L 151.223806 -775.258833 
L 151.513115 -772.749823 
L 151.842165 -770.240814 
L 152.213886 -767.731804 
L 152.630952 -765.222794 
L 153.095676 -762.713784 
L 153.609907 -760.204774 
L 154.174918 -757.695764 
L 154.791304 -755.186754 
L 155.458878 -752.677744 
L 156.17658 -750.168734 
L 156.942404 -747.659724 
L 157.75334 -745.150714 
L 158.605341 -742.641704 
L 159.493315 -740.132694 
L 160.411149 -737.623684 
L 161.351767 -735.114674 
L 162.307217 -732.605664 
L 163.26879 -730.096654 
L 164.227175 -727.587644 
L 165.172637 -725.078634 
L 166.095221 -722.569624 
L 166.984971 -720.060614 
L 167.832159 -717.551604 
L 168.627525 -715.042595 
L 169.362496 -712.533585 
L 170.029412 -710.024575 
L 170.621712 -707.515565 
L 171.134103 -705.006555 
L 171.562688 -702.497545 
L 171.905062 -699.988535 
L 172.160352 -697.479525 
L 172.329227 -694.970515 
L 172.413851 -692.461505 
L 172.417801 -689.952495 
L 172.345946 -687.443485 
L 172.204287 -684.934475 
L 171.999777 -682.425465 
L 171.740117 -679.916455 
L 171.433541 -677.407445 
L 171.0886 -674.898435 
L 170.713941 -672.389425 
L 170.318105 -669.880415 
L 169.909334 -667.371405 
L 169.495402 -664.862395 
L 169.083467 -662.353385 
L 168.679946 -659.844375 
L 168.290422 -657.335366 
L 167.91957 -654.826356 
L 167.571111 -652.317346 
L 167.247788 -649.808336 
L 166.951361 -647.299326 
L 166.682621 -644.790316 
L 166.441421 -642.281306 
L 166.226719 -639.772296 
L 166.036631 -637.263286 
L 165.868507 -634.754276 
L 165.719004 -632.245266 
L 165.584174 -629.736256 
L 165.459568 -627.227246 
L 165.340343 -624.718236 
L 165.221379 -622.209226 
L 165.097405 -619.700216 
L 164.963133 -617.191206 
L 164.813394 -614.682196 
L 164.643275 -612.173186 
L 164.448256 -609.664176 
L 164.224338 -607.155166 
L 163.968162 -604.646156 
L 163.677113 -602.137147 
L 163.349406 -599.628137 
L 162.984141 -597.119127 
L 162.581347 -594.610117 
L 162.141982 -592.101107 
L 161.667914 -589.592097 
L 161.16187 -587.083087 
L 160.627357 -584.574077 
L 160.068564 -582.065067 
L 159.490233 -579.556057 
L 158.897529 -577.047047 
L 158.295887 -574.538037 
L 157.690863 -572.029027 
L 157.087985 -569.520017 
L 156.492608 -567.011007 
L 155.909786 -564.501997 
L 155.34416 -561.992987 
L 154.79986 -559.483977 
L 154.280441 -556.974967 
L 153.788826 -554.465957 
L 153.32729 -551.956947 
L 152.897449 -549.447937 
L 152.500284 -546.938927 
L 152.136173 -544.429918 
L 151.804941 -541.920908 
L 151.505924 -539.411898 
L 151.238031 -536.902888 
L 150.999828 -534.393878 
L 150.789601 -531.884868 
z
" id="m430a13c3b0"/>
    </defs>
    <g clip-path="url(#p4f8d66cb8a)">
     <use style="fill:#e05230;" x="0" xlink:href="#m430a13c3b0" y="936"/>
    </g>
   </g>
   <g id="PolyCollection_3">
    <defs>
     <path d="M 220.541111 -561.9032 
L 218.208889 -561.9032 
L 218.009448 -564.399927 
L 217.785519 -566.896654 
L 217.536001 -569.393381 
L 217.26011 -571.890108 
L 216.957451 -574.386835 
L 216.628087 -576.883562 
L 216.272595 -579.380289 
L 215.892125 -581.877016 
L 215.488439 -584.373743 
L 215.06394 -586.87047 
L 214.621676 -589.367197 
L 214.165332 -591.863924 
L 213.699196 -594.360651 
L 213.228095 -596.857378 
L 212.757317 -599.354105 
L 212.292502 -601.850832 
L 211.839516 -604.347559 
L 211.404297 -606.844286 
L 210.992699 -609.341013 
L 210.610314 -611.83774 
L 210.262294 -614.334467 
L 209.953172 -616.831194 
L 209.686691 -619.327921 
L 209.465647 -621.824648 
L 209.291749 -624.321375 
L 209.16551 -626.818102 
L 209.086159 -629.314829 
L 209.051597 -631.811556 
L 209.058383 -634.308283 
L 209.101759 -636.80501 
L 209.175717 -639.301737 
L 209.273098 -641.798464 
L 209.385734 -644.295191 
L 209.504608 -646.791918 
L 209.620059 -649.288645 
L 209.721993 -651.785372 
L 209.80012 -654.282099 
L 209.8442 -656.778826 
L 209.844294 -659.275553 
L 209.791007 -661.77228 
L 209.67574 -664.269007 
L 209.490907 -666.765734 
L 209.230159 -669.262461 
L 208.888565 -671.759188 
L 208.462778 -674.255915 
L 207.951172 -676.752642 
L 207.353934 -679.249369 
L 206.67314 -681.746096 
L 205.912772 -684.242823 
L 205.078712 -686.73955 
L 204.178684 -689.236277 
L 203.222167 -691.733004 
L 202.220258 -694.229731 
L 201.1855 -696.726458 
L 200.131676 -699.223185 
L 199.073563 -701.719912 
L 198.026663 -704.216639 
L 197.006907 -706.713366 
L 196.030337 -709.210093 
L 195.112783 -711.70682 
L 194.269531 -714.203547 
L 193.514997 -716.700274 
L 192.862412 -719.197001 
L 192.323534 -721.693728 
L 191.908381 -724.190455 
L 191.62501 -726.687182 
L 191.479335 -729.183909 
L 191.475 -731.680636 
L 191.613302 -734.177363 
L 191.893175 -736.67409 
L 192.311235 -739.170817 
L 192.861872 -741.667544 
L 193.53741 -744.164271 
L 194.328305 -746.660998 
L 195.223391 -749.157725 
L 196.210163 -751.654452 
L 197.275077 -754.151179 
L 198.403878 -756.647906 
L 199.581923 -759.144633 
L 200.794509 -761.64136 
L 202.027175 -764.138087 
L 203.265997 -766.634814 
L 204.497838 -769.131541 
L 205.710574 -771.628268 
L 206.893268 -774.124995 
L 208.036312 -776.621722 
L 209.131514 -779.118449 
L 210.172149 -781.615176 
L 211.152963 -784.111903 
L 212.07014 -786.60863 
L 212.92124 -789.105358 
L 213.705099 -791.602085 
L 214.421714 -794.098812 
L 215.072112 -796.595539 
L 215.658199 -799.092266 
L 216.182616 -801.588993 
L 216.648587 -804.08572 
L 217.059775 -806.582447 
L 217.420146 -809.079174 
L 221.329854 -809.079174 
L 221.329854 -809.079174 
L 221.690225 -806.582447 
L 222.101413 -804.08572 
L 222.567384 -801.588993 
L 223.091801 -799.092266 
L 223.677888 -796.595539 
L 224.328286 -794.098812 
L 225.044901 -791.602085 
L 225.82876 -789.105358 
L 226.67986 -786.60863 
L 227.597037 -784.111903 
L 228.577851 -781.615176 
L 229.618486 -779.118449 
L 230.713688 -776.621722 
L 231.856732 -774.124995 
L 233.039426 -771.628268 
L 234.252162 -769.131541 
L 235.484003 -766.634814 
L 236.722825 -764.138087 
L 237.955491 -761.64136 
L 239.168077 -759.144633 
L 240.346122 -756.647906 
L 241.474923 -754.151179 
L 242.539837 -751.654452 
L 243.526609 -749.157725 
L 244.421695 -746.660998 
L 245.21259 -744.164271 
L 245.888128 -741.667544 
L 246.438765 -739.170817 
L 246.856825 -736.67409 
L 247.136698 -734.177363 
L 247.275 -731.680636 
L 247.270665 -729.183909 
L 247.12499 -726.687182 
L 246.841619 -724.190455 
L 246.426466 -721.693728 
L 245.887588 -719.197001 
L 245.235003 -716.700274 
L 244.480469 -714.203547 
L 243.637217 -711.70682 
L 242.719663 -709.210093 
L 241.743093 -706.713366 
L 240.723337 -704.216639 
L 239.676437 -701.719912 
L 238.618324 -699.223185 
L 237.5645 -696.726458 
L 236.529742 -694.229731 
L 235.527833 -691.733004 
L 234.571316 -689.236277 
L 233.671288 -686.73955 
L 232.837228 -684.242823 
L 232.07686 -681.746096 
L 231.396066 -679.249369 
L 230.798828 -676.752642 
L 230.287222 -674.255915 
L 229.861435 -671.759188 
L 229.519841 -669.262461 
L 229.259093 -666.765734 
L 229.07426 -664.269007 
L 228.958993 -661.77228 
L 228.905706 -659.275553 
L 228.9058 -656.778826 
L 228.94988 -654.282099 
L 229.028007 -651.785372 
L 229.129941 -649.288645 
L 229.245392 -646.791918 
L 229.364266 -644.295191 
L 229.476902 -641.798464 
L 229.574283 -639.301737 
L 229.648241 -636.80501 
L 229.691617 -634.308283 
L 229.698403 -631.811556 
L 229.663841 -629.314829 
L 229.58449 -626.818102 
L 229.458251 -624.321375 
L 229.284353 -621.824648 
L 229.063309 -619.327921 
L 228.796828 -616.831194 
L 228.487706 -614.334467 
L 228.139686 -611.83774 
L 227.757301 -609.341013 
L 227.345703 -606.844286 
L 226.910484 -604.347559 
L 226.457498 -601.850832 
L 225.992683 -599.354105 
L 225.521905 -596.857378 
L 225.050804 -594.360651 
L 224.584668 -591.863924 
L 224.128324 -589.367197 
L 223.68606 -586.87047 
L 223.261561 -584.373743 
L 222.857875 -581.877016 
L 222.477405 -579.380289 
L 222.121913 -576.883562 
L 221.792549 -574.386835 
L 221.48989 -571.890108 
L 221.213999 -569.393381 
L 220.964481 -566.896654 
L 220.740552 -564.399927 
L 220.541111 -561.9032 
z
" id="me94dbb862e"/>
    </defs>
    <g clip-path="url(#p4f8d66cb8a)">
     <use style="fill:#379d4b;" x="0" xlink:href="#me94dbb862e" y="936"/>
    </g>
   </g>
   <g id="PolyCollection_4">
    <defs>
     <path d="M 290.745042 -570.381513 
L 287.504958 -570.381513 
L 287.199131 -572.386223 
L 286.848824 -574.390933 
L 286.450334 -576.395643 
L 286.000186 -578.400353 
L 285.495258 -580.405064 
L 284.932907 -582.409774 
L 284.311108 -584.414484 
L 283.628594 -586.419194 
L 282.884986 -588.423904 
L 282.080924 -590.428614 
L 281.218174 -592.433325 
L 280.299723 -594.438035 
L 279.329844 -596.442745 
L 278.314126 -598.447455 
L 277.259474 -600.452165 
L 276.174062 -602.456875 
L 275.067248 -604.461586 
L 273.949441 -606.466296 
L 272.831927 -608.471006 
L 271.726653 -610.475716 
L 270.645973 -612.480426 
L 269.602366 -614.485136 
L 268.608129 -616.489847 
L 267.675061 -618.494557 
L 266.814137 -620.499267 
L 266.035199 -622.503977 
L 265.346662 -624.508687 
L 264.755256 -626.513397 
L 264.265803 -628.518108 
L 263.881055 -630.522818 
L 263.601584 -632.527528 
L 263.425738 -634.532238 
L 263.34967 -636.536948 
L 263.367427 -638.541658 
L 263.471113 -640.546369 
L 263.651108 -642.551079 
L 263.896342 -644.555789 
L 264.194623 -646.560499 
L 264.532984 -648.565209 
L 264.898065 -650.569919 
L 265.276501 -652.57463 
L 265.655301 -654.57934 
L 266.022222 -656.58405 
L 266.366102 -658.58876 
L 266.677164 -660.59347 
L 266.94727 -662.59818 
L 267.17012 -664.602891 
L 267.341392 -666.607601 
L 267.458821 -668.612311 
L 267.522215 -670.617021 
L 267.533414 -672.621731 
L 267.496186 -674.626441 
L 267.416074 -676.631152 
L 267.300198 -678.635862 
L 267.157016 -680.640572 
L 266.996056 -682.645282 
L 266.827626 -684.649992 
L 266.66251 -686.654702 
L 266.511661 -688.659413 
L 266.385901 -690.664123 
L 266.295625 -692.668833 
L 266.250532 -694.673543 
L 266.259383 -696.678253 
L 266.329782 -698.682963 
L 266.468006 -700.687674 
L 266.678864 -702.692384 
L 266.965602 -704.697094 
L 267.329857 -706.701804 
L 267.771649 -708.706514 
L 268.289412 -710.711224 
L 268.880075 -712.715935 
L 269.53917 -714.720645 
L 270.26098 -716.725355 
L 271.038704 -718.730065 
L 271.864655 -720.734775 
L 272.730461 -722.739485 
L 273.627283 -724.744196 
L 274.546028 -726.748906 
L 275.477564 -728.753616 
L 276.412917 -730.758326 
L 277.343455 -732.763036 
L 278.261057 -734.767746 
L 279.158247 -736.772457 
L 280.028314 -738.777167 
L 280.865393 -740.781877 
L 281.664528 -742.786587 
L 282.421694 -744.791297 
L 283.133812 -746.796007 
L 283.798717 -748.800718 
L 284.415125 -750.805428 
L 284.982568 -752.810138 
L 285.501321 -754.814848 
L 285.972318 -756.819558 
L 286.397061 -758.824268 
L 286.777522 -760.828979 
L 287.116048 -762.833689 
L 287.41527 -764.838399 
L 287.678013 -766.843109 
L 287.907216 -768.847819 
L 290.342784 -768.847819 
L 290.342784 -768.847819 
L 290.571987 -766.843109 
L 290.83473 -764.838399 
L 291.133952 -762.833689 
L 291.472478 -760.828979 
L 291.852939 -758.824268 
L 292.277682 -756.819558 
L 292.748679 -754.814848 
L 293.267432 -752.810138 
L 293.834875 -750.805428 
L 294.451283 -748.800718 
L 295.116188 -746.796007 
L 295.828306 -744.791297 
L 296.585472 -742.786587 
L 297.384607 -740.781877 
L 298.221686 -738.777167 
L 299.091753 -736.772457 
L 299.988943 -734.767746 
L 300.906545 -732.763036 
L 301.837083 -730.758326 
L 302.772436 -728.753616 
L 303.703972 -726.748906 
L 304.622717 -724.744196 
L 305.519539 -722.739485 
L 306.385345 -720.734775 
L 307.211296 -718.730065 
L 307.98902 -716.725355 
L 308.71083 -714.720645 
L 309.369925 -712.715935 
L 309.960588 -710.711224 
L 310.478351 -708.706514 
L 310.920143 -706.701804 
L 311.284398 -704.697094 
L 311.571136 -702.692384 
L 311.781994 -700.687674 
L 311.920218 -698.682963 
L 311.990617 -696.678253 
L 311.999468 -694.673543 
L 311.954375 -692.668833 
L 311.864099 -690.664123 
L 311.738339 -688.659413 
L 311.58749 -686.654702 
L 311.422374 -684.649992 
L 311.253944 -682.645282 
L 311.092984 -680.640572 
L 310.949802 -678.635862 
L 310.833926 -676.631152 
L 310.753814 -674.626441 
L 310.716586 -672.621731 
L 310.727785 -670.617021 
L 310.791179 -668.612311 
L 310.908608 -666.607601 
L 311.07988 -664.602891 
L 311.30273 -662.59818 
L 311.572836 -660.59347 
L 311.883898 -658.58876 
L 312.227778 -656.58405 
L 312.594699 -654.57934 
L 312.973499 -652.57463 
L 313.351935 -650.569919 
L 313.717016 -648.565209 
L 314.055377 -646.560499 
L 314.353658 -644.555789 
L 314.598892 -642.551079 
L 314.778887 -640.546369 
L 314.882573 -638.541658 
L 314.90033 -636.536948 
L 314.824262 -634.532238 
L 314.648416 -632.527528 
L 314.368945 -630.522818 
L 313.984197 -628.518108 
L 313.494744 -626.513397 
L 312.903338 -624.508687 
L 312.214801 -622.503977 
L 311.435863 -620.499267 
L 310.574939 -618.494557 
L 309.641871 -616.489847 
L 308.647634 -614.485136 
L 307.604027 -612.480426 
L 306.523347 -610.475716 
L 305.418073 -608.471006 
L 304.300559 -606.466296 
L 303.182752 -604.461586 
L 302.075938 -602.456875 
L 300.990526 -600.452165 
L 299.935874 -598.447455 
L 298.920156 -596.442745 
L 297.950277 -594.438035 
L 297.031826 -592.433325 
L 296.169076 -590.428614 
L 295.365014 -588.423904 
L 294.621406 -586.419194 
L 293.938892 -584.414484 
L 293.317093 -582.409774 
L 292.754742 -580.405064 
L 292.249814 -578.400353 
L 291.799666 -576.395643 
L 291.401176 -574.390933 
L 291.050869 -572.386223 
L 290.745042 -570.381513 
z
" id="m58fb9e4963"/>
    </defs>
    <g clip-path="url(#p4f8d66cb8a)">
     <use style="fill:#3d63a0;" x="0" xlink:href="#m58fb9e4963" y="936"/>
    </g>
   </g>
   <g id="line2d_23">
    <path clip-path="url(#p4f8d66cb8a)" d="M 79.875 360.178141 
L 79.875 230.741762 
" style="fill:none;stroke:#404040;stroke-linecap:square;stroke-width:1.5;"/>
   </g>
   <g id="line2d_24">
    <path clip-path="url(#p4f8d66cb8a)" d="M 79.875 301.045609 
L 79.875 246.381814 
" style="fill:none;stroke:#404040;stroke-linecap:square;stroke-width:4.5;"/>
   </g>
   <g id="line2d_25">
    <path clip-path="url(#p4f8d66cb8a)" d="M 149.625 341.630144 
L 149.625 218.208135 
" style="fill:none;stroke:#404040;stroke-linecap:square;stroke-width:1.5;"/>
   </g>
   <g id="line2d_26">
    <path clip-path="url(#p4f8d66cb8a)" d="M 149.625 309.489206 
L 149.625 239.183426 
" style="fill:none;stroke:#404040;stroke-linecap:square;stroke-width:4.5;"/>
   </g>
   <g id="line2d_27">
    <path clip-path="url(#p4f8d66cb8a)" d="M 219.375 305.191918 
L 219.375 190.980004 
" style="fill:none;stroke:#404040;stroke-linecap:square;stroke-width:1.5;"/>
   </g>
   <g id="line2d_28">
    <path clip-path="url(#p4f8d66cb8a)" d="M 219.375 243.066455 
L 219.375 198.422533 
" style="fill:none;stroke:#404040;stroke-linecap:square;stroke-width:4.5;"/>
   </g>
   <g id="line2d_29">
    <path clip-path="url(#p4f8d66cb8a)" d="M 289.125 315.148223 
L 289.125 217.622445 
" style="fill:none;stroke:#404040;stroke-linecap:square;stroke-width:1.5;"/>
   </g>
   <g id="line2d_30">
    <path clip-path="url(#p4f8d66cb8a)" d="M 289.125 300.116038 
L 289.125 235.879134 
" style="fill:none;stroke:#404040;stroke-linecap:square;stroke-width:4.5;"/>
   </g>
   <g id="patch_3">
    <path d="M 45 433.538182 
L 45 112.32 
" style="fill:none;stroke:#000000;stroke-linecap:square;stroke-linejoin:miter;stroke-width:0.8;"/>
   </g>
   <g id="patch_4">
    <path d="M 324 433.538182 
L 324 112.32 
" style="fill:none;stroke:#000000;stroke-linecap:square;stroke-linejoin:miter;stroke-width:0.8;"/>
   </g>
   <g id="patch_5">
    <path d="M 45 433.538182 
L 324 433.538182 
" style="fill:none;stroke:#000000;stroke-linecap:square;stroke-linejoin:miter;stroke-width:0.8;"/>
   </g>
   <g id="patch_6">
    <path d="M 45 112.32 
L 324 112.32 
" style="fill:none;stroke:#000000;stroke-linecap:square;stroke-linejoin:miter;stroke-width:0.8;"/>
   </g>
   <g id="PathCollection_1">
    <defs>
     <path d="M 0 1.5 
C 0.397805 1.5 0.77937 1.341951 1.06066 1.06066 
C 1.341951 0.77937 1.5 0.397805 1.5 0 
C 1.5 -0.397805 1.341951 -0.77937 1.06066 -1.06066 
C 0.77937 -1.341951 0.397805 -1.5 0 -1.5 
C -0.397805 -1.5 -0.77937 -1.341951 -1.06066 -1.06066 
C -1.341951 -0.77937 -1.5 -0.397805 -1.5 0 
C -1.5 0.397805 -1.341951 0.77937 -1.06066 1.06066 
C -0.77937 1.341951 -0.397805 1.5 0 1.5 
z
" id="maa150ad330"/>
    </defs>
    <g clip-path="url(#p4f8d66cb8a)">
     <use style="fill:#ffffff;" x="79.875" xlink:href="#maa150ad330" y="275.113108"/>
    </g>
   </g>
   <g id="PathCollection_2">
    <g clip-path="url(#p4f8d66cb8a)">
     <use style="fill:#ffffff;" x="149.625" xlink:href="#maa150ad330" y="260.48676"/>
    </g>
   </g>
   <g id="PathCollection_3">
    <g clip-path="url(#p4f8d66cb8a)">
     <use style="fill:#ffffff;" x="219.375" xlink:href="#maa150ad330" y="212.640019"/>
    </g>
   </g>
   <g id="PathCollection_4">
    <g clip-path="url(#p4f8d66cb8a)">
     <use style="fill:#ffffff;" x="289.125" xlink:href="#maa150ad330" y="276.16855"/>
    </g>
   </g>
   <g id="text_14">
    <!-- Loss $\mathcal{L}_\theta$ -->
    <g transform="translate(162.36 106.32)scale(0.12 -0.12)">
     <defs>
      <path d="M 9.8125 72.90625 
L 19.671875 72.90625 
L 19.671875 8.296875 
L 55.171875 8.296875 
L 55.171875 0 
L 9.8125 0 
z
" id="DejaVuSans-76"/>
      <path id="DejaVuSans-32"/>
     </defs>
     <use transform="translate(0 0.09375)" xlink:href="#DejaVuSans-76"/>
     <use transform="translate(55.712891 0.09375)" xlink:href="#DejaVuSans-111"/>
     <use transform="translate(116.894531 0.09375)" xlink:href="#DejaVuSans-115"/>
     <use transform="translate(168.994141 0.09375)" xlink:href="#DejaVuSans-115"/>
     <use transform="translate(221.09375 0.09375)" xlink:href="#DejaVuSans-32"/>
     <use transform="translate(252.880859 0.09375)" xlink:href="#STIXNonUnicode-Italic-57912"/>
     <use transform="translate(323.137878 -16.3125)scale(0.7)" xlink:href="#DejaVuSans-Oblique-952"/>
    </g>
   </g>
  </g>
  <g id="axes_2">
   <g id="patch_7">
    <path d="M 45 819 
L 324 819 
L 324 497.781818 
L 45 497.781818 
z
" style="fill:#ffffff;"/>
   </g>
   <g id="matplotlib.axis_3">
    <g id="xtick_5">
     <g id="line2d_31">
      <path clip-path="url(#p320ca1f5f3)" d="M 79.875 819 
L 79.875 497.781818 
" style="fill:none;stroke:#808080;stroke-linecap:square;stroke-width:0.8;"/>
     </g>
     <g id="line2d_32">
      <g>
       <use style="stroke:#000000;stroke-width:0.8;" x="79.875" xlink:href="#m64f6b4a2fc" y="819"/>
      </g>
     </g>
     <g id="text_15">
      <!-- 1 -->
      <g transform="translate(76.69375 833.598437)scale(0.1 -0.1)">
       <use xlink:href="#DejaVuSans-49"/>
      </g>
     </g>
    </g>
    <g id="xtick_6">
     <g id="line2d_33">
      <path clip-path="url(#p320ca1f5f3)" d="M 149.625 819 
L 149.625 497.781818 
" style="fill:none;stroke:#808080;stroke-linecap:square;stroke-width:0.8;"/>
     </g>
     <g id="line2d_34">
      <g>
       <use style="stroke:#000000;stroke-width:0.8;" x="149.625" xlink:href="#m64f6b4a2fc" y="819"/>
      </g>
     </g>
     <g id="text_16">
      <!-- 2 -->
      <g transform="translate(146.44375 833.598437)scale(0.1 -0.1)">
       <use xlink:href="#DejaVuSans-50"/>
      </g>
     </g>
    </g>
    <g id="xtick_7">
     <g id="line2d_35">
      <path clip-path="url(#p320ca1f5f3)" d="M 219.375 819 
L 219.375 497.781818 
" style="fill:none;stroke:#808080;stroke-linecap:square;stroke-width:0.8;"/>
     </g>
     <g id="line2d_36">
      <g>
       <use style="stroke:#000000;stroke-width:0.8;" x="219.375" xlink:href="#m64f6b4a2fc" y="819"/>
      </g>
     </g>
     <g id="text_17">
      <!-- 4 -->
      <g transform="translate(216.19375 833.598437)scale(0.1 -0.1)">
       <use xlink:href="#DejaVuSans-52"/>
      </g>
     </g>
    </g>
    <g id="xtick_8">
     <g id="line2d_37">
      <path clip-path="url(#p320ca1f5f3)" d="M 289.125 819 
L 289.125 497.781818 
" style="fill:none;stroke:#808080;stroke-linecap:square;stroke-width:0.8;"/>
     </g>
     <g id="line2d_38">
      <g>
       <use style="stroke:#000000;stroke-width:0.8;" x="289.125" xlink:href="#m64f6b4a2fc" y="819"/>
      </g>
     </g>
     <g id="text_18">
      <!-- 8 -->
      <g transform="translate(285.94375 833.598437)scale(0.1 -0.1)">
       <use xlink:href="#DejaVuSans-56"/>
      </g>
     </g>
    </g>
    <g id="text_19">
     <!-- size -->
     <g transform="translate(172.866562 848.79625)scale(0.12 -0.12)">
      <use xlink:href="#DejaVuSans-115"/>
      <use x="52.099609" xlink:href="#DejaVuSans-105"/>
      <use x="79.882812" xlink:href="#DejaVuSans-122"/>
      <use x="132.373047" xlink:href="#DejaVuSans-101"/>
     </g>
    </g>
   </g>
   <g id="matplotlib.axis_4">
    <g id="ytick_8">
     <g id="line2d_39">
      <path clip-path="url(#p320ca1f5f3)" d="M 45 805.042011 
L 324 805.042011 
" style="fill:none;stroke:#808080;stroke-linecap:square;stroke-width:0.8;"/>
     </g>
     <g id="line2d_40">
      <g>
       <use style="stroke:#000000;stroke-width:0.8;" x="45" xlink:href="#m83a22b3bf6" y="805.042011"/>
      </g>
     </g>
     <g id="text_20">
      <!-- −4 -->
      <g transform="translate(23.257812 808.841229)scale(0.1 -0.1)">
       <use xlink:href="#DejaVuSans-8722"/>
       <use x="83.789062" xlink:href="#DejaVuSans-52"/>
      </g>
     </g>
    </g>
    <g id="ytick_9">
     <g id="line2d_41">
      <path clip-path="url(#p320ca1f5f3)" d="M 45 760.142116 
L 324 760.142116 
" style="fill:none;stroke:#808080;stroke-linecap:square;stroke-width:0.8;"/>
     </g>
     <g id="line2d_42">
      <g>
       <use style="stroke:#000000;stroke-width:0.8;" x="45" xlink:href="#m83a22b3bf6" y="760.142116"/>
      </g>
     </g>
     <g id="text_21">
      <!-- −3 -->
      <g transform="translate(23.257812 763.941335)scale(0.1 -0.1)">
       <use xlink:href="#DejaVuSans-8722"/>
       <use x="83.789062" xlink:href="#DejaVuSans-51"/>
      </g>
     </g>
    </g>
    <g id="ytick_10">
     <g id="line2d_43">
      <path clip-path="url(#p320ca1f5f3)" d="M 45 715.242222 
L 324 715.242222 
" style="fill:none;stroke:#808080;stroke-linecap:square;stroke-width:0.8;"/>
     </g>
     <g id="line2d_44">
      <g>
       <use style="stroke:#000000;stroke-width:0.8;" x="45" xlink:href="#m83a22b3bf6" y="715.242222"/>
      </g>
     </g>
     <g id="text_22">
      <!-- −2 -->
      <g transform="translate(23.257812 719.041441)scale(0.1 -0.1)">
       <use xlink:href="#DejaVuSans-8722"/>
       <use x="83.789062" xlink:href="#DejaVuSans-50"/>
      </g>
     </g>
    </g>
    <g id="ytick_11">
     <g id="line2d_45">
      <path clip-path="url(#p320ca1f5f3)" d="M 45 670.342328 
L 324 670.342328 
" style="fill:none;stroke:#808080;stroke-linecap:square;stroke-width:0.8;"/>
     </g>
     <g id="line2d_46">
      <g>
       <use style="stroke:#000000;stroke-width:0.8;" x="45" xlink:href="#m83a22b3bf6" y="670.342328"/>
      </g>
     </g>
     <g id="text_23">
      <!-- −1 -->
      <g transform="translate(23.257812 674.141547)scale(0.1 -0.1)">
       <use xlink:href="#DejaVuSans-8722"/>
       <use x="83.789062" xlink:href="#DejaVuSans-49"/>
      </g>
     </g>
    </g>
    <g id="ytick_12">
     <g id="line2d_47">
      <path clip-path="url(#p320ca1f5f3)" d="M 45 625.442434 
L 324 625.442434 
" style="fill:none;stroke:#808080;stroke-linecap:square;stroke-width:0.8;"/>
     </g>
     <g id="line2d_48">
      <g>
       <use style="stroke:#000000;stroke-width:0.8;" x="45" xlink:href="#m83a22b3bf6" y="625.442434"/>
      </g>
     </g>
     <g id="text_24">
      <!-- 0 -->
      <g transform="translate(31.6375 629.241652)scale(0.1 -0.1)">
       <use xlink:href="#DejaVuSans-48"/>
      </g>
     </g>
    </g>
    <g id="ytick_13">
     <g id="line2d_49">
      <path clip-path="url(#p320ca1f5f3)" d="M 45 580.542539 
L 324 580.542539 
" style="fill:none;stroke:#808080;stroke-linecap:square;stroke-width:0.8;"/>
     </g>
     <g id="line2d_50">
      <g>
       <use style="stroke:#000000;stroke-width:0.8;" x="45" xlink:href="#m83a22b3bf6" y="580.542539"/>
      </g>
     </g>
     <g id="text_25">
      <!-- 1 -->
      <g transform="translate(31.6375 584.341758)scale(0.1 -0.1)">
       <use xlink:href="#DejaVuSans-49"/>
      </g>
     </g>
    </g>
    <g id="ytick_14">
     <g id="line2d_51">
      <path clip-path="url(#p320ca1f5f3)" d="M 45 535.642645 
L 324 535.642645 
" style="fill:none;stroke:#808080;stroke-linecap:square;stroke-width:0.8;"/>
     </g>
     <g id="line2d_52">
      <g>
       <use style="stroke:#000000;stroke-width:0.8;" x="45" xlink:href="#m83a22b3bf6" y="535.642645"/>
      </g>
     </g>
     <g id="text_26">
      <!-- 2 -->
      <g transform="translate(31.6375 539.441864)scale(0.1 -0.1)">
       <use xlink:href="#DejaVuSans-50"/>
      </g>
     </g>
    </g>
    <g id="text_27">
     <!-- $\log_{10}(\mathcal{E}_\theta)$ -->
     <g transform="translate(16.737812 683.950909)rotate(-90)scale(0.12 -0.12)">
      <defs>
       <path d="M 51.09375 15.203125 
L 52.703125 13.40625 
Q 45.203125 5.40625 35.5 2 
Q 29 -0.40625 20.796875 -0.40625 
Q 14 -0.40625 9 2.640625 
Q 4 5.703125 4 11.5 
Q 4 19.796875 10.296875 25.796875 
Q 16.59375 31.796875 25.296875 35.296875 
Q 23.203125 36.296875 22.09375 37 
Q 21 37.703125 19.640625 38.953125 
Q 18.296875 40.203125 17.6875 42 
Q 17.09375 43.796875 17.09375 46.296875 
Q 17.09375 51.703125 21.890625 56.703125 
Q 26.703125 61.703125 33 64.34375 
Q 39.296875 67 44.5 67 
Q 51.5 67 55.703125 64.5 
Q 59.90625 62 59.90625 57.09375 
Q 59.90625 54.90625 58.09375 52.15625 
Q 56.296875 49.40625 52.703125 49.40625 
Q 50.59375 49.40625 48.9375 50.796875 
Q 47.296875 52.203125 47.296875 54.296875 
Q 47.296875 56.59375 48.796875 58.296875 
Q 50.296875 60 50.296875 60.296875 
Q 50.296875 62.203125 49.1875 62.953125 
Q 48.09375 63.703125 45.59375 63.703125 
Q 38 63.703125 31.84375 59.25 
Q 25.703125 54.796875 25.703125 49.296875 
Q 25.703125 45.203125 29.390625 42.84375 
Q 33.09375 40.5 39.09375 40.5 
L 45.90625 40.5 
L 45 36.703125 
Q 40.703125 36.703125 35.546875 35.046875 
Q 30.40625 33.40625 25.703125 30.59375 
Q 21 27.796875 17.84375 23.34375 
Q 14.703125 18.90625 14.703125 14 
Q 14.703125 9.59375 18.046875 7.296875 
Q 21.40625 5 27.203125 5 
Q 33.296875 5 40.25 8.046875 
Q 47.203125 11.09375 51.09375 15.203125 
z
" id="STIXNonUnicode-Italic-57905"/>
      </defs>
      <use transform="translate(0 0.015625)" xlink:href="#DejaVuSans-108"/>
      <use transform="translate(27.783203 0.015625)" xlink:href="#DejaVuSans-111"/>
      <use transform="translate(88.964844 0.015625)" xlink:href="#DejaVuSans-103"/>
      <use transform="translate(153.398438 -16.390625)scale(0.7)" xlink:href="#DejaVuSans-49"/>
      <use transform="translate(197.93457 -16.390625)scale(0.7)" xlink:href="#DejaVuSans-48"/>
      <use transform="translate(245.205078 0.015625)" xlink:href="#DejaVuSans-40"/>
      <use transform="translate(284.21875 0.015625)" xlink:href="#STIXNonUnicode-Italic-57905"/>
      <use transform="translate(340.475769 -16.390625)scale(0.7)" xlink:href="#DejaVuSans-Oblique-952"/>
      <use transform="translate(386.037292 0.015625)" xlink:href="#DejaVuSans-41"/>
     </g>
    </g>
   </g>
   <g id="PolyCollection_5">
    <defs>
     <path d="M 80.159273 -131.600826 
L 79.590727 -131.600826 
L 79.5284 -133.958683 
L 79.455336 -136.316539 
L 79.37033 -138.674395 
L 79.272159 -141.032251 
L 79.159605 -143.390107 
L 79.031475 -145.747963 
L 78.886626 -148.10582 
L 78.723987 -150.463676 
L 78.542585 -152.821532 
L 78.34157 -155.179388 
L 78.120238 -157.537244 
L 77.878062 -159.8951 
L 77.61471 -162.252957 
L 77.330083 -164.610813 
L 77.024333 -166.968669 
L 76.697904 -169.326525 
L 76.351555 -171.684381 
L 75.986401 -174.042237 
L 75.603941 -176.400094 
L 75.206095 -178.75795 
L 74.79523 -181.115806 
L 74.374187 -183.473662 
L 73.946293 -185.831518 
L 73.515365 -188.189374 
L 73.085699 -190.54723 
L 72.662034 -192.905087 
L 72.249505 -195.262943 
L 71.853564 -197.620799 
L 71.479883 -199.978655 
L 71.134233 -202.336511 
L 70.822348 -204.694367 
L 70.549764 -207.052224 
L 70.321662 -209.41008 
L 70.142692 -211.767936 
L 70.016818 -214.125792 
L 69.947164 -216.483648 
L 69.935883 -218.841504 
L 69.984056 -221.199361 
L 70.091625 -223.557217 
L 70.257357 -225.915073 
L 70.478854 -228.272929 
L 70.752605 -230.630785 
L 71.074068 -232.988641 
L 71.437797 -235.346498 
L 71.837593 -237.704354 
L 72.266675 -240.06221 
L 72.717873 -242.420066 
L 73.183821 -244.777922 
L 73.657153 -247.135778 
L 74.130684 -249.493635 
L 74.597588 -251.851491 
L 75.051537 -254.209347 
L 75.486834 -256.567203 
L 75.898508 -258.925059 
L 76.282382 -261.282915 
L 76.635124 -263.640772 
L 76.954257 -265.998628 
L 77.23816 -268.356484 
L 77.486043 -270.71434 
L 77.697904 -273.072196 
L 77.874474 -275.430052 
L 78.017153 -277.787908 
L 78.127932 -280.145765 
L 78.209318 -282.503621 
L 78.264242 -284.861477 
L 78.295979 -287.219333 
L 78.308052 -289.577189 
L 78.304141 -291.935045 
L 78.287998 -294.292902 
L 78.263348 -296.650758 
L 78.233812 -299.008614 
L 78.202817 -301.36647 
L 78.17352 -303.724326 
L 78.148744 -306.082182 
L 78.130917 -308.440039 
L 78.122027 -310.797895 
L 78.123591 -313.155751 
L 78.13664 -315.513607 
L 78.161716 -317.871463 
L 78.198893 -320.229319 
L 78.247805 -322.587176 
L 78.307694 -324.945032 
L 78.377463 -327.302888 
L 78.455747 -329.660744 
L 78.54098 -332.0186 
L 78.631469 -334.376456 
L 78.72547 -336.734313 
L 78.821251 -339.092169 
L 78.917155 -341.450025 
L 79.011655 -343.807881 
L 79.10339 -346.165737 
L 79.191197 -348.523593 
L 79.274133 -350.88145 
L 79.351474 -353.239306 
L 79.42272 -355.597162 
L 79.487578 -357.955018 
L 79.545945 -360.312874 
L 79.597887 -362.67073 
L 79.643607 -365.028586 
L 80.106393 -365.028586 
L 80.106393 -365.028586 
L 80.152113 -362.67073 
L 80.204055 -360.312874 
L 80.262422 -357.955018 
L 80.32728 -355.597162 
L 80.398526 -353.239306 
L 80.475867 -350.88145 
L 80.558803 -348.523593 
L 80.64661 -346.165737 
L 80.738345 -343.807881 
L 80.832845 -341.450025 
L 80.928749 -339.092169 
L 81.02453 -336.734313 
L 81.118531 -334.376456 
L 81.20902 -332.0186 
L 81.294253 -329.660744 
L 81.372537 -327.302888 
L 81.442306 -324.945032 
L 81.502195 -322.587176 
L 81.551107 -320.229319 
L 81.588284 -317.871463 
L 81.61336 -315.513607 
L 81.626409 -313.155751 
L 81.627973 -310.797895 
L 81.619083 -308.440039 
L 81.601256 -306.082182 
L 81.57648 -303.724326 
L 81.547183 -301.36647 
L 81.516188 -299.008614 
L 81.486652 -296.650758 
L 81.462002 -294.292902 
L 81.445859 -291.935045 
L 81.441948 -289.577189 
L 81.454021 -287.219333 
L 81.485758 -284.861477 
L 81.540682 -282.503621 
L 81.622068 -280.145765 
L 81.732847 -277.787908 
L 81.875526 -275.430052 
L 82.052096 -273.072196 
L 82.263957 -270.71434 
L 82.51184 -268.356484 
L 82.795743 -265.998628 
L 83.114876 -263.640772 
L 83.467618 -261.282915 
L 83.851492 -258.925059 
L 84.263166 -256.567203 
L 84.698463 -254.209347 
L 85.152412 -251.851491 
L 85.619316 -249.493635 
L 86.092847 -247.135778 
L 86.566179 -244.777922 
L 87.032127 -242.420066 
L 87.483325 -240.06221 
L 87.912407 -237.704354 
L 88.312203 -235.346498 
L 88.675932 -232.988641 
L 88.997395 -230.630785 
L 89.271146 -228.272929 
L 89.492643 -225.915073 
L 89.658375 -223.557217 
L 89.765944 -221.199361 
L 89.814117 -218.841504 
L 89.802836 -216.483648 
L 89.733182 -214.125792 
L 89.607308 -211.767936 
L 89.428338 -209.41008 
L 89.200236 -207.052224 
L 88.927652 -204.694367 
L 88.615767 -202.336511 
L 88.270117 -199.978655 
L 87.896436 -197.620799 
L 87.500495 -195.262943 
L 87.087966 -192.905087 
L 86.664301 -190.54723 
L 86.234635 -188.189374 
L 85.803707 -185.831518 
L 85.375813 -183.473662 
L 84.95477 -181.115806 
L 84.543905 -178.75795 
L 84.146059 -176.400094 
L 83.763599 -174.042237 
L 83.398445 -171.684381 
L 83.052096 -169.326525 
L 82.725667 -166.968669 
L 82.419917 -164.610813 
L 82.13529 -162.252957 
L 81.871938 -159.8951 
L 81.629762 -157.537244 
L 81.40843 -155.179388 
L 81.207415 -152.821532 
L 81.026013 -150.463676 
L 80.863374 -148.10582 
L 80.718525 -145.747963 
L 80.590395 -143.390107 
L 80.477841 -141.032251 
L 80.37967 -138.674395 
L 80.294664 -136.316539 
L 80.2216 -133.958683 
L 80.159273 -131.600826 
z
" id="m235df51128"/>
    </defs>
    <g clip-path="url(#p320ca1f5f3)">
     <use style="fill:#ce1e5c;" x="0" xlink:href="#m235df51128" y="936"/>
    </g>
   </g>
   <g id="PolyCollection_6">
    <defs>
     <path d="M 150.036231 -136.654761 
L 149.213769 -136.654761 
L 149.134686 -139.553373 
L 149.043777 -142.451985 
L 148.939989 -145.350598 
L 148.822321 -148.24921 
L 148.689849 -151.147822 
L 148.541768 -154.046434 
L 148.377425 -156.945046 
L 148.196364 -159.843658 
L 147.998363 -162.74227 
L 147.783469 -165.640882 
L 147.55204 -168.539494 
L 147.30477 -171.438106 
L 147.042721 -174.336718 
L 146.76733 -177.23533 
L 146.480429 -180.133942 
L 146.184232 -183.032554 
L 145.881328 -185.931166 
L 145.57465 -188.829778 
L 145.267441 -191.728391 
L 144.9632 -194.627003 
L 144.665621 -197.525615 
L 144.37852 -200.424227 
L 144.105757 -203.322839 
L 143.851146 -206.221451 
L 143.618367 -209.120063 
L 143.410874 -212.018675 
L 143.231807 -214.917287 
L 143.083905 -217.815899 
L 142.969435 -220.714511 
L 142.89012 -223.613123 
L 142.847096 -226.511735 
L 142.840868 -229.410347 
L 142.871292 -232.308959 
L 142.937572 -235.207571 
L 143.038277 -238.106183 
L 143.171366 -241.004796 
L 143.334242 -243.903408 
L 143.523813 -246.80202 
L 143.736561 -249.700632 
L 143.968633 -252.599244 
L 144.215926 -255.497856 
L 144.474189 -258.396468 
L 144.739114 -261.29508 
L 145.006436 -264.193692 
L 145.272023 -267.092304 
L 145.531964 -269.990916 
L 145.782643 -272.889528 
L 146.020808 -275.78814 
L 146.243628 -278.686752 
L 146.448738 -281.585364 
L 146.634269 -284.483976 
L 146.798869 -287.382589 
L 146.941707 -290.281201 
L 147.062472 -293.179813 
L 147.161353 -296.078425 
L 147.239015 -298.977037 
L 147.296559 -301.875649 
L 147.335482 -304.774261 
L 147.357621 -307.672873 
L 147.365098 -310.571485 
L 147.36026 -313.470097 
L 147.345609 -316.368709 
L 147.323744 -319.267321 
L 147.297288 -322.165933 
L 147.268826 -325.064545 
L 147.240848 -327.963157 
L 147.215686 -330.861769 
L 147.195468 -333.760381 
L 147.182074 -336.658994 
L 147.177096 -339.557606 
L 147.181816 -342.456218 
L 147.197188 -345.35483 
L 147.223828 -348.253442 
L 147.262018 -351.152054 
L 147.311717 -354.050666 
L 147.372577 -356.949278 
L 147.443976 -359.84789 
L 147.52505 -362.746502 
L 147.614728 -365.645114 
L 147.711778 -368.543726 
L 147.814852 -371.442338 
L 147.922529 -374.34095 
L 148.033357 -377.239562 
L 148.145899 -380.138174 
L 148.258764 -383.036787 
L 148.370646 -385.935399 
L 148.480347 -388.834011 
L 148.586799 -391.732623 
L 148.689083 -394.631235 
L 148.786433 -397.529847 
L 148.878242 -400.428459 
L 148.964062 -403.327071 
L 149.043596 -406.225683 
L 149.11669 -409.124295 
L 149.183315 -412.022907 
L 149.24356 -414.921519 
L 149.297606 -417.820131 
L 149.345719 -420.718743 
L 149.388223 -423.617355 
L 149.861777 -423.617355 
L 149.861777 -423.617355 
L 149.904281 -420.718743 
L 149.952394 -417.820131 
L 150.00644 -414.921519 
L 150.066685 -412.022907 
L 150.13331 -409.124295 
L 150.206404 -406.225683 
L 150.285938 -403.327071 
L 150.371758 -400.428459 
L 150.463567 -397.529847 
L 150.560917 -394.631235 
L 150.663201 -391.732623 
L 150.769653 -388.834011 
L 150.879354 -385.935399 
L 150.991236 -383.036787 
L 151.104101 -380.138174 
L 151.216643 -377.239562 
L 151.327471 -374.34095 
L 151.435148 -371.442338 
L 151.538222 -368.543726 
L 151.635272 -365.645114 
L 151.72495 -362.746502 
L 151.806024 -359.84789 
L 151.877423 -356.949278 
L 151.938283 -354.050666 
L 151.987982 -351.152054 
L 152.026172 -348.253442 
L 152.052812 -345.35483 
L 152.068184 -342.456218 
L 152.072904 -339.557606 
L 152.067926 -336.658994 
L 152.054532 -333.760381 
L 152.034314 -330.861769 
L 152.009152 -327.963157 
L 151.981174 -325.064545 
L 151.952712 -322.165933 
L 151.926256 -319.267321 
L 151.904391 -316.368709 
L 151.88974 -313.470097 
L 151.884902 -310.571485 
L 151.892379 -307.672873 
L 151.914518 -304.774261 
L 151.953441 -301.875649 
L 152.010985 -298.977037 
L 152.088647 -296.078425 
L 152.187528 -293.179813 
L 152.308293 -290.281201 
L 152.451131 -287.382589 
L 152.615731 -284.483976 
L 152.801262 -281.585364 
L 153.006372 -278.686752 
L 153.229192 -275.78814 
L 153.467357 -272.889528 
L 153.718036 -269.990916 
L 153.977977 -267.092304 
L 154.243564 -264.193692 
L 154.510886 -261.29508 
L 154.775811 -258.396468 
L 155.034074 -255.497856 
L 155.281367 -252.599244 
L 155.513439 -249.700632 
L 155.726187 -246.80202 
L 155.915758 -243.903408 
L 156.078634 -241.004796 
L 156.211723 -238.106183 
L 156.312428 -235.207571 
L 156.378708 -232.308959 
L 156.409132 -229.410347 
L 156.402904 -226.511735 
L 156.35988 -223.613123 
L 156.280565 -220.714511 
L 156.166095 -217.815899 
L 156.018193 -214.917287 
L 155.839126 -212.018675 
L 155.631633 -209.120063 
L 155.398854 -206.221451 
L 155.144243 -203.322839 
L 154.87148 -200.424227 
L 154.584379 -197.525615 
L 154.2868 -194.627003 
L 153.982559 -191.728391 
L 153.67535 -188.829778 
L 153.368672 -185.931166 
L 153.065768 -183.032554 
L 152.769571 -180.133942 
L 152.48267 -177.23533 
L 152.207279 -174.336718 
L 151.94523 -171.438106 
L 151.69796 -168.539494 
L 151.466531 -165.640882 
L 151.251637 -162.74227 
L 151.053636 -159.843658 
L 150.872575 -156.945046 
L 150.708232 -154.046434 
L 150.560151 -151.147822 
L 150.427679 -148.24921 
L 150.310011 -145.350598 
L 150.206223 -142.451985 
L 150.115314 -139.553373 
L 150.036231 -136.654761 
z
" id="mc9cbd9a712"/>
    </defs>
    <g clip-path="url(#p320ca1f5f3)">
     <use style="fill:#e05230;" x="0" xlink:href="#mc9cbd9a712" y="936"/>
    </g>
   </g>
   <g id="PolyCollection_7">
    <defs>
     <path d="M 219.866627 -273.362272 
L 218.883373 -273.362272 
L 218.79269 -274.402616 
L 218.690104 -275.44296 
L 218.575038 -276.483303 
L 218.447075 -277.523647 
L 218.305984 -278.56399 
L 218.151747 -279.604334 
L 217.984572 -280.644677 
L 217.804909 -281.685021 
L 217.613445 -282.725364 
L 217.411089 -283.765708 
L 217.198955 -284.806052 
L 216.978313 -285.846395 
L 216.750551 -286.886739 
L 216.517106 -287.927082 
L 216.279404 -288.967426 
L 216.038782 -290.007769 
L 215.79642 -291.048113 
L 215.553269 -292.088457 
L 215.309991 -293.1288 
L 215.066912 -294.169144 
L 214.82399 -295.209487 
L 214.580802 -296.249831 
L 214.336555 -297.290174 
L 214.090121 -298.330518 
L 213.84009 -299.370861 
L 213.584851 -300.411205 
L 213.322679 -301.451549 
L 213.051844 -302.491892 
L 212.770721 -303.532236 
L 212.477899 -304.572579 
L 212.172289 -305.612923 
L 211.853206 -306.653266 
L 211.520442 -307.69361 
L 211.17431 -308.733954 
L 210.815661 -309.774297 
L 210.445866 -310.814641 
L 210.06678 -311.854984 
L 209.680665 -312.895328 
L 209.290104 -313.935671 
L 208.897889 -314.976015 
L 208.506901 -316.016359 
L 208.119992 -317.056702 
L 207.739862 -318.097046 
L 207.368961 -319.137389 
L 207.009405 -320.177733 
L 206.662909 -321.218076 
L 206.330764 -322.25842 
L 206.013831 -323.298763 
L 205.712575 -324.339107 
L 205.427116 -325.379451 
L 205.157319 -326.419794 
L 204.902894 -327.460138 
L 204.663509 -328.500481 
L 204.438915 -329.540825 
L 204.229063 -330.581168 
L 204.034215 -331.621512 
L 203.855036 -332.661856 
L 203.692666 -333.702199 
L 203.548761 -334.742543 
L 203.4255 -335.782886 
L 203.325569 -336.82323 
L 203.252095 -337.863573 
L 203.208562 -338.903917 
L 203.198689 -339.94426 
L 203.226288 -340.984604 
L 203.295102 -342.024948 
L 203.408635 -343.065291 
L 203.569981 -344.105635 
L 203.781653 -345.145978 
L 204.045437 -346.186322 
L 204.362255 -347.226665 
L 204.732074 -348.267009 
L 205.153834 -349.307353 
L 205.625422 -350.347696 
L 206.143688 -351.38804 
L 206.704496 -352.428383 
L 207.302813 -353.468727 
L 207.932838 -354.50907 
L 208.58815 -355.549414 
L 209.261885 -356.589758 
L 209.946923 -357.630101 
L 210.63608 -358.670445 
L 211.322296 -359.710788 
L 211.998816 -360.751132 
L 212.659348 -361.791475 
L 213.298202 -362.831819 
L 213.910401 -363.872162 
L 214.491758 -364.912506 
L 215.038925 -365.95285 
L 215.54941 -366.993193 
L 216.021565 -368.033537 
L 216.45455 -369.07388 
L 216.848273 -370.114224 
L 217.203312 -371.154567 
L 217.520824 -372.194911 
L 217.802454 -373.235255 
L 218.050229 -374.275598 
L 218.266463 -375.315942 
L 218.45366 -376.356285 
L 220.29634 -376.356285 
L 220.29634 -376.356285 
L 220.483537 -375.315942 
L 220.699771 -374.275598 
L 220.947546 -373.235255 
L 221.229176 -372.194911 
L 221.546688 -371.154567 
L 221.901727 -370.114224 
L 222.29545 -369.07388 
L 222.728435 -368.033537 
L 223.20059 -366.993193 
L 223.711075 -365.95285 
L 224.258242 -364.912506 
L 224.839599 -363.872162 
L 225.451798 -362.831819 
L 226.090652 -361.791475 
L 226.751184 -360.751132 
L 227.427704 -359.710788 
L 228.11392 -358.670445 
L 228.803077 -357.630101 
L 229.488115 -356.589758 
L 230.16185 -355.549414 
L 230.817162 -354.50907 
L 231.447187 -353.468727 
L 232.045504 -352.428383 
L 232.606312 -351.38804 
L 233.124578 -350.347696 
L 233.596166 -349.307353 
L 234.017926 -348.267009 
L 234.387745 -347.226665 
L 234.704563 -346.186322 
L 234.968347 -345.145978 
L 235.180019 -344.105635 
L 235.341365 -343.065291 
L 235.454898 -342.024948 
L 235.523712 -340.984604 
L 235.551311 -339.94426 
L 235.541438 -338.903917 
L 235.497905 -337.863573 
L 235.424431 -336.82323 
L 235.3245 -335.782886 
L 235.201239 -334.742543 
L 235.057334 -333.702199 
L 234.894964 -332.661856 
L 234.715785 -331.621512 
L 234.520937 -330.581168 
L 234.311085 -329.540825 
L 234.086491 -328.500481 
L 233.847106 -327.460138 
L 233.592681 -326.419794 
L 233.322884 -325.379451 
L 233.037425 -324.339107 
L 232.736169 -323.298763 
L 232.419236 -322.25842 
L 232.087091 -321.218076 
L 231.740595 -320.177733 
L 231.381039 -319.137389 
L 231.010138 -318.097046 
L 230.630008 -317.056702 
L 230.243099 -316.016359 
L 229.852111 -314.976015 
L 229.459896 -313.935671 
L 229.069335 -312.895328 
L 228.68322 -311.854984 
L 228.304134 -310.814641 
L 227.934339 -309.774297 
L 227.57569 -308.733954 
L 227.229558 -307.69361 
L 226.896794 -306.653266 
L 226.577711 -305.612923 
L 226.272101 -304.572579 
L 225.979279 -303.532236 
L 225.698156 -302.491892 
L 225.427321 -301.451549 
L 225.165149 -300.411205 
L 224.90991 -299.370861 
L 224.659879 -298.330518 
L 224.413445 -297.290174 
L 224.169198 -296.249831 
L 223.92601 -295.209487 
L 223.683088 -294.169144 
L 223.440009 -293.1288 
L 223.196731 -292.088457 
L 222.95358 -291.048113 
L 222.711218 -290.007769 
L 222.470596 -288.967426 
L 222.232894 -287.927082 
L 221.999449 -286.886739 
L 221.771687 -285.846395 
L 221.551045 -284.806052 
L 221.338911 -283.765708 
L 221.136555 -282.725364 
L 220.945091 -281.685021 
L 220.765428 -280.644677 
L 220.598253 -279.604334 
L 220.444016 -278.56399 
L 220.302925 -277.523647 
L 220.174962 -276.483303 
L 220.059896 -275.44296 
L 219.95731 -274.402616 
L 219.866627 -273.362272 
z
" id="m536bd9c496"/>
    </defs>
    <g clip-path="url(#p320ca1f5f3)">
     <use style="fill:#379d4b;" x="0" xlink:href="#m536bd9c496" y="936"/>
    </g>
   </g>
   <g id="PolyCollection_8">
    <defs>
     <path d="M 289.805792 -289.827806 
L 288.444208 -289.827806 
L 288.322055 -290.579704 
L 288.183798 -291.331602 
L 288.028466 -292.0835 
L 287.855242 -292.835398 
L 287.663504 -293.587296 
L 287.452861 -294.339193 
L 287.223195 -295.091091 
L 286.974694 -295.842989 
L 286.707876 -296.594887 
L 286.423617 -297.346785 
L 286.12316 -298.098683 
L 285.808117 -298.850581 
L 285.480467 -299.602479 
L 285.142536 -300.354377 
L 284.796969 -301.106275 
L 284.446694 -301.858173 
L 284.09487 -302.610071 
L 283.744835 -303.361969 
L 283.400038 -304.113867 
L 283.06397 -304.865765 
L 282.740093 -305.617663 
L 282.431758 -306.369561 
L 282.142128 -307.121459 
L 281.874101 -307.873357 
L 281.630231 -308.625255 
L 281.412654 -309.377153 
L 281.223015 -310.129051 
L 281.062401 -310.880949 
L 280.931279 -311.632847 
L 280.829436 -312.384745 
L 280.75593 -313.136643 
L 280.709046 -313.888541 
L 280.686266 -314.640439 
L 280.684239 -315.392337 
L 280.698779 -316.144235 
L 280.724868 -316.896133 
L 280.756682 -317.648031 
L 280.787635 -318.399929 
L 280.81045 -319.151827 
L 280.817257 -319.903725 
L 280.79971 -320.655623 
L 280.749148 -321.407521 
L 280.656769 -322.159419 
L 280.513842 -322.911317 
L 280.311943 -323.663215 
L 280.043204 -324.415113 
L 279.700587 -325.167011 
L 279.278161 -325.918909 
L 278.771376 -326.670807 
L 278.177333 -327.422705 
L 277.495022 -328.174603 
L 276.725537 -328.926501 
L 275.872242 -329.678399 
L 274.94088 -330.430297 
L 273.939623 -331.182195 
L 272.879045 -331.934093 
L 271.772018 -332.685991 
L 270.633531 -333.437889 
L 269.480421 -334.189787 
L 268.331042 -334.941685 
L 267.204846 -335.693583 
L 266.121926 -336.445481 
L 265.102501 -337.197379 
L 264.166384 -337.949277 
L 263.332434 -338.701175 
L 262.618027 -339.453073 
L 262.038555 -340.204971 
L 261.606978 -340.956869 
L 261.333445 -341.708767 
L 261.225 -342.460665 
L 261.285385 -343.212563 
L 261.514946 -343.964461 
L 261.910649 -344.716359 
L 262.466197 -345.468257 
L 263.172256 -346.220155 
L 264.01676 -346.972053 
L 264.985305 -347.723951 
L 266.061594 -348.475849 
L 267.227923 -349.227747 
L 268.465698 -349.979645 
L 269.755943 -350.731543 
L 271.079796 -351.483441 
L 272.418972 -352.235339 
L 273.756173 -352.987237 
L 275.075445 -353.739135 
L 276.362454 -354.491033 
L 277.604703 -355.242931 
L 278.791667 -355.994829 
L 279.914854 -356.746727 
L 280.967802 -357.498625 
L 281.946017 -358.250523 
L 282.846855 -359.002421 
L 283.669363 -359.754319 
L 284.414094 -360.506217 
L 285.082898 -361.258115 
L 285.678698 -362.010013 
L 286.205278 -362.76191 
L 286.667061 -363.513808 
L 287.068914 -364.265706 
L 291.181086 -364.265706 
L 291.181086 -364.265706 
L 291.582939 -363.513808 
L 292.044722 -362.76191 
L 292.571302 -362.010013 
L 293.167102 -361.258115 
L 293.835906 -360.506217 
L 294.580637 -359.754319 
L 295.403145 -359.002421 
L 296.303983 -358.250523 
L 297.282198 -357.498625 
L 298.335146 -356.746727 
L 299.458333 -355.994829 
L 300.645297 -355.242931 
L 301.887546 -354.491033 
L 303.174555 -353.739135 
L 304.493827 -352.987237 
L 305.831028 -352.235339 
L 307.170204 -351.483441 
L 308.494057 -350.731543 
L 309.784302 -349.979645 
L 311.022077 -349.227747 
L 312.188406 -348.475849 
L 313.264695 -347.723951 
L 314.23324 -346.972053 
L 315.077744 -346.220155 
L 315.783803 -345.468257 
L 316.339351 -344.716359 
L 316.735054 -343.964461 
L 316.964615 -343.212563 
L 317.025 -342.460665 
L 316.916555 -341.708767 
L 316.643022 -340.956869 
L 316.211445 -340.204971 
L 315.631973 -339.453073 
L 314.917566 -338.701175 
L 314.083616 -337.949277 
L 313.147499 -337.197379 
L 312.128074 -336.445481 
L 311.045154 -335.693583 
L 309.918958 -334.941685 
L 308.769579 -334.189787 
L 307.616469 -333.437889 
L 306.477982 -332.685991 
L 305.370955 -331.934093 
L 304.310377 -331.182195 
L 303.30912 -330.430297 
L 302.377758 -329.678399 
L 301.524463 -328.926501 
L 300.754978 -328.174603 
L 300.072667 -327.422705 
L 299.478624 -326.670807 
L 298.971839 -325.918909 
L 298.549413 -325.167011 
L 298.206796 -324.415113 
L 297.938057 -323.663215 
L 297.736158 -322.911317 
L 297.593231 -322.159419 
L 297.500852 -321.407521 
L 297.45029 -320.655623 
L 297.432743 -319.903725 
L 297.43955 -319.151827 
L 297.462365 -318.399929 
L 297.493318 -317.648031 
L 297.525132 -316.896133 
L 297.551221 -316.144235 
L 297.565761 -315.392337 
L 297.563734 -314.640439 
L 297.540954 -313.888541 
L 297.49407 -313.136643 
L 297.420564 -312.384745 
L 297.318721 -311.632847 
L 297.187599 -310.880949 
L 297.026985 -310.129051 
L 296.837346 -309.377153 
L 296.619769 -308.625255 
L 296.375899 -307.873357 
L 296.107872 -307.121459 
L 295.818242 -306.369561 
L 295.509907 -305.617663 
L 295.18603 -304.865765 
L 294.849962 -304.113867 
L 294.505165 -303.361969 
L 294.15513 -302.610071 
L 293.803306 -301.858173 
L 293.453031 -301.106275 
L 293.107464 -300.354377 
L 292.769533 -299.602479 
L 292.441883 -298.850581 
L 292.12684 -298.098683 
L 291.826383 -297.346785 
L 291.542124 -296.594887 
L 291.275306 -295.842989 
L 291.026805 -295.091091 
L 290.797139 -294.339193 
L 290.586496 -293.587296 
L 290.394758 -292.835398 
L 290.221534 -292.0835 
L 290.066202 -291.331602 
L 289.927945 -290.579704 
L 289.805792 -289.827806 
z
" id="m489c1db922"/>
    </defs>
    <g clip-path="url(#p320ca1f5f3)">
     <use style="fill:#3d63a0;" x="0" xlink:href="#m489c1db922" y="936"/>
    </g>
   </g>
   <g id="line2d_53">
    <path clip-path="url(#p320ca1f5f3)" d="M 79.875 753.293039 
L 79.875 695.376032 
" style="fill:none;stroke:#404040;stroke-linecap:square;stroke-width:1.5;"/>
   </g>
   <g id="line2d_54">
    <path clip-path="url(#p320ca1f5f3)" d="M 79.875 725.284571 
L 79.875 706.58041 
" style="fill:none;stroke:#404040;stroke-linecap:square;stroke-width:4.5;"/>
   </g>
   <g id="line2d_55">
    <path clip-path="url(#p320ca1f5f3)" d="M 149.625 726.517657 
L 149.625 598.25299 
" style="fill:none;stroke:#404040;stroke-linecap:square;stroke-width:1.5;"/>
   </g>
   <g id="line2d_56">
    <path clip-path="url(#p320ca1f5f3)" d="M 149.625 710.526944 
L 149.625 664.863091 
" style="fill:none;stroke:#404040;stroke-linecap:square;stroke-width:4.5;"/>
   </g>
   <g id="line2d_57">
    <path clip-path="url(#p320ca1f5f3)" d="M 219.375 638.318121 
L 219.375 583.963321 
" style="fill:none;stroke:#404040;stroke-linecap:square;stroke-width:1.5;"/>
   </g>
   <g id="line2d_58">
    <path clip-path="url(#p320ca1f5f3)" d="M 219.375 616.235336 
L 219.375 589.503966 
" style="fill:none;stroke:#404040;stroke-linecap:square;stroke-width:4.5;"/>
   </g>
   <g id="line2d_59">
    <path clip-path="url(#p320ca1f5f3)" d="M 289.125 596.254913 
L 289.125 590.201263 
" style="fill:none;stroke:#404040;stroke-linecap:square;stroke-width:1.5;"/>
   </g>
   <g id="line2d_60">
    <path clip-path="url(#p320ca1f5f3)" d="M 289.125 601.610608 
L 289.125 592.81927 
" style="fill:none;stroke:#404040;stroke-linecap:square;stroke-width:4.5;"/>
   </g>
   <g id="patch_8">
    <path d="M 45 819 
L 45 497.781818 
" style="fill:none;stroke:#000000;stroke-linecap:square;stroke-linejoin:miter;stroke-width:0.8;"/>
   </g>
   <g id="patch_9">
    <path d="M 324 819 
L 324 497.781818 
" style="fill:none;stroke:#000000;stroke-linecap:square;stroke-linejoin:miter;stroke-width:0.8;"/>
   </g>
   <g id="patch_10">
    <path d="M 45 819 
L 324 819 
" style="fill:none;stroke:#000000;stroke-linecap:square;stroke-linejoin:miter;stroke-width:0.8;"/>
   </g>
   <g id="patch_11">
    <path d="M 45 497.781818 
L 324 497.781818 
" style="fill:none;stroke:#000000;stroke-linecap:square;stroke-linejoin:miter;stroke-width:0.8;"/>
   </g>
   <g id="PathCollection_5">
    <g clip-path="url(#p320ca1f5f3)">
     <use style="fill:#ffffff;" x="79.875" xlink:href="#maa150ad330" y="713.645731"/>
    </g>
   </g>
   <g id="PathCollection_6">
    <g clip-path="url(#p320ca1f5f3)">
     <use style="fill:#ffffff;" x="149.625" xlink:href="#maa150ad330" y="702.74318"/>
    </g>
   </g>
   <g id="PathCollection_7">
    <g clip-path="url(#p320ca1f5f3)">
     <use style="fill:#ffffff;" x="219.375" xlink:href="#maa150ad330" y="601.99127"/>
    </g>
   </g>
   <g id="PathCollection_8">
    <g clip-path="url(#p320ca1f5f3)">
     <use style="fill:#ffffff;" x="289.125" xlink:href="#maa150ad330" y="594.198565"/>
    </g>
   </g>
   <g id="text_28">
    <!-- Rel. $L^2$ error $\mathcal{E}_\theta$ -->
    <g transform="translate(139.86 491.781818)scale(0.12 -0.12)">
     <defs>
      <path d="M 44.390625 34.1875 
Q 47.5625 33.109375 50.5625 29.59375 
Q 53.5625 26.078125 56.59375 19.921875 
L 66.609375 0 
L 56 0 
L 46.6875 18.703125 
Q 43.0625 26.03125 39.671875 28.421875 
Q 36.28125 30.8125 30.421875 30.8125 
L 19.671875 30.8125 
L 19.671875 0 
L 9.8125 0 
L 9.8125 72.90625 
L 32.078125 72.90625 
Q 44.578125 72.90625 50.734375 67.671875 
Q 56.890625 62.453125 56.890625 51.90625 
Q 56.890625 45.015625 53.6875 40.46875 
Q 50.484375 35.9375 44.390625 34.1875 
z
M 19.671875 64.796875 
L 19.671875 38.921875 
L 32.078125 38.921875 
Q 39.203125 38.921875 42.84375 42.21875 
Q 46.484375 45.515625 46.484375 51.90625 
Q 46.484375 58.296875 42.84375 61.546875 
Q 39.203125 64.796875 32.078125 64.796875 
z
" id="DejaVuSans-82"/>
      <path d="M 10.6875 12.40625 
L 21 12.40625 
L 21 0 
L 10.6875 0 
z
" id="DejaVuSans-46"/>
      <path d="M 16.796875 72.90625 
L 26.703125 72.90625 
L 14.203125 8.203125 
L 49.703125 8.203125 
L 48.09375 0 
L 2.6875 0 
z
" id="DejaVuSans-Oblique-76"/>
      <path d="M 41.109375 46.296875 
Q 39.59375 47.171875 37.8125 47.578125 
Q 36.03125 48 33.890625 48 
Q 26.265625 48 22.1875 43.046875 
Q 18.109375 38.09375 18.109375 28.8125 
L 18.109375 0 
L 9.078125 0 
L 9.078125 54.6875 
L 18.109375 54.6875 
L 18.109375 46.1875 
Q 20.953125 51.171875 25.484375 53.578125 
Q 30.03125 56 36.53125 56 
Q 37.453125 56 38.578125 55.875 
Q 39.703125 55.765625 41.0625 55.515625 
z
" id="DejaVuSans-114"/>
     </defs>
     <use transform="translate(0 0.765625)" xlink:href="#DejaVuSans-82"/>
     <use transform="translate(69.482422 0.765625)" xlink:href="#DejaVuSans-101"/>
     <use transform="translate(131.005859 0.765625)" xlink:href="#DejaVuSans-108"/>
     <use transform="translate(158.789062 0.765625)" xlink:href="#DejaVuSans-46"/>
     <use transform="translate(190.576172 0.765625)" xlink:href="#DejaVuSans-32"/>
     <use transform="translate(222.363281 0.765625)" xlink:href="#DejaVuSans-Oblique-76"/>
     <use transform="translate(285.092943 39.046875)scale(0.7)" xlink:href="#DejaVuSans-50"/>
     <use transform="translate(332.363451 0.765625)" xlink:href="#DejaVuSans-32"/>
     <use transform="translate(364.15056 0.765625)" xlink:href="#DejaVuSans-101"/>
     <use transform="translate(425.673997 0.765625)" xlink:href="#DejaVuSans-114"/>
     <use transform="translate(466.787279 0.765625)" xlink:href="#DejaVuSans-114"/>
     <use transform="translate(507.90056 0.765625)" xlink:href="#DejaVuSans-111"/>
     <use transform="translate(569.082201 0.765625)" xlink:href="#DejaVuSans-114"/>
     <use transform="translate(610.195482 0.765625)" xlink:href="#DejaVuSans-32"/>
     <use transform="translate(641.982591 0.765625)" xlink:href="#STIXNonUnicode-Italic-57905"/>
     <use transform="translate(698.23961 -15.640625)scale(0.7)" xlink:href="#DejaVuSans-Oblique-952"/>
    </g>
   </g>
  </g>
 </g>
 <defs>
  <clipPath id="p4f8d66cb8a">
   <rect height="321.218182" width="279" x="45" y="112.32"/>
  </clipPath>
  <clipPath id="p320ca1f5f3">
   <rect height="321.218182" width="279" x="45" y="497.781818"/>
  </clipPath>
 </defs>
</svg>
