<?xml version="1.0" encoding="utf-8" standalone="no"?>
<!DOCTYPE svg PUBLIC "-//W3C//DTD SVG 1.1//EN"
  "http://www.w3.org/Graphics/SVG/1.1/DTD/svg11.dtd">
<!-- Created with matplotlib (https://matplotlib.org/) -->
<svg height="936pt" version="1.1" viewBox="0 0 360 936" width="360pt" xmlns="http://www.w3.org/2000/svg" xmlns:xlink="http://www.w3.org/1999/xlink">
 <metadata>
  <rdf:RDF xmlns:cc="http://creativecommons.org/ns#" xmlns:dc="http://purl.org/dc/elements/1.1/" xmlns:rdf="http://www.w3.org/1999/02/22-rdf-syntax-ns#">
   <cc:Work>
    <dc:type rdf:resource="http://purl.org/dc/dcmitype/StillImage"/>
    <dc:date>2022-09-09T15:09:26.964347</dc:date>
    <dc:format>image/svg+xml</dc:format>
    <dc:creator>
     <cc:Agent>
      <dc:title>Matplotlib v3.3.4, https://matplotlib.org/</dc:title>
     </cc:Agent>
    </dc:creator>
   </cc:Work>
  </rdf:RDF>
 </metadata>
 <defs>
  <style type="text/css">*{stroke-linecap:butt;stroke-linejoin:round;}</style>
 </defs>
 <g id="figure_1">
  <g id="patch_1">
   <path d="M 0 936 
L 360 936 
L 360 0 
L 0 0 
z
" style="fill:none;"/>
  </g>
  <g id="axes_1">
   <g id="patch_2">
    <path d="M 45 433.538182 
L 324 433.538182 
L 324 112.32 
L 45 112.32 
z
" style="fill:#ffffff;"/>
   </g>
   <g id="matplotlib.axis_1">
    <g id="xtick_1">
     <g id="line2d_1">
      <path clip-path="url(#pc885e80a22)" d="M 79.875 433.538182 
L 79.875 112.32 
" style="fill:none;stroke:#808080;stroke-linecap:square;stroke-width:0.8;"/>
     </g>
     <g id="line2d_2">
      <defs>
       <path d="M 0 0 
L 0 3.5 
" id="me552f6c5cf" style="stroke:#000000;stroke-width:0.8;"/>
      </defs>
      <g>
       <use style="stroke:#000000;stroke-width:0.8;" x="79.875" xlink:href="#me552f6c5cf" y="433.538182"/>
      </g>
     </g>
     <g id="text_1">
      <!-- 1 -->
      <g transform="translate(76.69375 448.136619)scale(0.1 -0.1)">
       <defs>
        <path d="M 12.40625 8.296875 
L 28.515625 8.296875 
L 28.515625 63.921875 
L 10.984375 60.40625 
L 10.984375 69.390625 
L 28.421875 72.90625 
L 38.28125 72.90625 
L 38.28125 8.296875 
L 54.390625 8.296875 
L 54.390625 0 
L 12.40625 0 
z
" id="DejaVuSans-49"/>
       </defs>
       <use xlink:href="#DejaVuSans-49"/>
      </g>
     </g>
    </g>
    <g id="xtick_2">
     <g id="line2d_3">
      <path clip-path="url(#pc885e80a22)" d="M 149.625 433.538182 
L 149.625 112.32 
" style="fill:none;stroke:#808080;stroke-linecap:square;stroke-width:0.8;"/>
     </g>
     <g id="line2d_4">
      <g>
       <use style="stroke:#000000;stroke-width:0.8;" x="149.625" xlink:href="#me552f6c5cf" y="433.538182"/>
      </g>
     </g>
     <g id="text_2">
      <!-- 2 -->
      <g transform="translate(146.44375 448.136619)scale(0.1 -0.1)">
       <defs>
        <path d="M 19.1875 8.296875 
L 53.609375 8.296875 
L 53.609375 0 
L 7.328125 0 
L 7.328125 8.296875 
Q 12.9375 14.109375 22.625 23.890625 
Q 32.328125 33.6875 34.8125 36.53125 
Q 39.546875 41.84375 41.421875 45.53125 
Q 43.3125 49.21875 43.3125 52.78125 
Q 43.3125 58.59375 39.234375 62.25 
Q 35.15625 65.921875 28.609375 65.921875 
Q 23.96875 65.921875 18.8125 64.3125 
Q 13.671875 62.703125 7.8125 59.421875 
L 7.8125 69.390625 
Q 13.765625 71.78125 18.9375 73 
Q 24.125 74.21875 28.421875 74.21875 
Q 39.75 74.21875 46.484375 68.546875 
Q 53.21875 62.890625 53.21875 53.421875 
Q 53.21875 48.921875 51.53125 44.890625 
Q 49.859375 40.875 45.40625 35.40625 
Q 44.1875 33.984375 37.640625 27.21875 
Q 31.109375 20.453125 19.1875 8.296875 
z
" id="DejaVuSans-50"/>
       </defs>
       <use xlink:href="#DejaVuSans-50"/>
      </g>
     </g>
    </g>
    <g id="xtick_3">
     <g id="line2d_5">
      <path clip-path="url(#pc885e80a22)" d="M 219.375 433.538182 
L 219.375 112.32 
" style="fill:none;stroke:#808080;stroke-linecap:square;stroke-width:0.8;"/>
     </g>
     <g id="line2d_6">
      <g>
       <use style="stroke:#000000;stroke-width:0.8;" x="219.375" xlink:href="#me552f6c5cf" y="433.538182"/>
      </g>
     </g>
     <g id="text_3">
      <!-- 4 -->
      <g transform="translate(216.19375 448.136619)scale(0.1 -0.1)">
       <defs>
        <path d="M 37.796875 64.3125 
L 12.890625 25.390625 
L 37.796875 25.390625 
z
M 35.203125 72.90625 
L 47.609375 72.90625 
L 47.609375 25.390625 
L 58.015625 25.390625 
L 58.015625 17.1875 
L 47.609375 17.1875 
L 47.609375 0 
L 37.796875 0 
L 37.796875 17.1875 
L 4.890625 17.1875 
L 4.890625 26.703125 
z
" id="DejaVuSans-52"/>
       </defs>
       <use xlink:href="#DejaVuSans-52"/>
      </g>
     </g>
    </g>
    <g id="xtick_4">
     <g id="line2d_7">
      <path clip-path="url(#pc885e80a22)" d="M 289.125 433.538182 
L 289.125 112.32 
" style="fill:none;stroke:#808080;stroke-linecap:square;stroke-width:0.8;"/>
     </g>
     <g id="line2d_8">
      <g>
       <use style="stroke:#000000;stroke-width:0.8;" x="289.125" xlink:href="#me552f6c5cf" y="433.538182"/>
      </g>
     </g>
     <g id="text_4">
      <!-- 8 -->
      <g transform="translate(285.94375 448.136619)scale(0.1 -0.1)">
       <defs>
        <path d="M 31.78125 34.625 
Q 24.75 34.625 20.71875 30.859375 
Q 16.703125 27.09375 16.703125 20.515625 
Q 16.703125 13.921875 20.71875 10.15625 
Q 24.75 6.390625 31.78125 6.390625 
Q 38.8125 6.390625 42.859375 10.171875 
Q 46.921875 13.96875 46.921875 20.515625 
Q 46.921875 27.09375 42.890625 30.859375 
Q 38.875 34.625 31.78125 34.625 
z
M 21.921875 38.8125 
Q 15.578125 40.375 12.03125 44.71875 
Q 8.5 49.078125 8.5 55.328125 
Q 8.5 64.0625 14.71875 69.140625 
Q 20.953125 74.21875 31.78125 74.21875 
Q 42.671875 74.21875 48.875 69.140625 
Q 55.078125 64.0625 55.078125 55.328125 
Q 55.078125 49.078125 51.53125 44.71875 
Q 48 40.375 41.703125 38.8125 
Q 48.828125 37.15625 52.796875 32.3125 
Q 56.78125 27.484375 56.78125 20.515625 
Q 56.78125 9.90625 50.3125 4.234375 
Q 43.84375 -1.421875 31.78125 -1.421875 
Q 19.734375 -1.421875 13.25 4.234375 
Q 6.78125 9.90625 6.78125 20.515625 
Q 6.78125 27.484375 10.78125 32.3125 
Q 14.796875 37.15625 21.921875 38.8125 
z
M 18.3125 54.390625 
Q 18.3125 48.734375 21.84375 45.5625 
Q 25.390625 42.390625 31.78125 42.390625 
Q 38.140625 42.390625 41.71875 45.5625 
Q 45.3125 48.734375 45.3125 54.390625 
Q 45.3125 60.0625 41.71875 63.234375 
Q 38.140625 66.40625 31.78125 66.40625 
Q 25.390625 66.40625 21.84375 63.234375 
Q 18.3125 60.0625 18.3125 54.390625 
z
" id="DejaVuSans-56"/>
       </defs>
       <use xlink:href="#DejaVuSans-56"/>
      </g>
     </g>
    </g>
    <g id="text_5">
     <!-- size -->
     <g transform="translate(172.866562 463.334432)scale(0.12 -0.12)">
      <defs>
       <path d="M 44.28125 53.078125 
L 44.28125 44.578125 
Q 40.484375 46.53125 36.375 47.5 
Q 32.28125 48.484375 27.875 48.484375 
Q 21.1875 48.484375 17.84375 46.4375 
Q 14.5 44.390625 14.5 40.28125 
Q 14.5 37.15625 16.890625 35.375 
Q 19.28125 33.59375 26.515625 31.984375 
L 29.59375 31.296875 
Q 39.15625 29.25 43.1875 25.515625 
Q 47.21875 21.78125 47.21875 15.09375 
Q 47.21875 7.46875 41.1875 3.015625 
Q 35.15625 -1.421875 24.609375 -1.421875 
Q 20.21875 -1.421875 15.453125 -0.5625 
Q 10.6875 0.296875 5.421875 2 
L 5.421875 11.28125 
Q 10.40625 8.6875 15.234375 7.390625 
Q 20.0625 6.109375 24.8125 6.109375 
Q 31.15625 6.109375 34.5625 8.28125 
Q 37.984375 10.453125 37.984375 14.40625 
Q 37.984375 18.0625 35.515625 20.015625 
Q 33.0625 21.96875 24.703125 23.78125 
L 21.578125 24.515625 
Q 13.234375 26.265625 9.515625 29.90625 
Q 5.8125 33.546875 5.8125 39.890625 
Q 5.8125 47.609375 11.28125 51.796875 
Q 16.75 56 26.8125 56 
Q 31.78125 56 36.171875 55.265625 
Q 40.578125 54.546875 44.28125 53.078125 
z
" id="DejaVuSans-115"/>
       <path d="M 9.421875 54.6875 
L 18.40625 54.6875 
L 18.40625 0 
L 9.421875 0 
z
M 9.421875 75.984375 
L 18.40625 75.984375 
L 18.40625 64.59375 
L 9.421875 64.59375 
z
" id="DejaVuSans-105"/>
       <path d="M 5.515625 54.6875 
L 48.1875 54.6875 
L 48.1875 46.484375 
L 14.40625 7.171875 
L 48.1875 7.171875 
L 48.1875 0 
L 4.296875 0 
L 4.296875 8.203125 
L 38.09375 47.515625 
L 5.515625 47.515625 
z
" id="DejaVuSans-122"/>
       <path d="M 56.203125 29.59375 
L 56.203125 25.203125 
L 14.890625 25.203125 
Q 15.484375 15.921875 20.484375 11.0625 
Q 25.484375 6.203125 34.421875 6.203125 
Q 39.59375 6.203125 44.453125 7.46875 
Q 49.3125 8.734375 54.109375 11.28125 
L 54.109375 2.78125 
Q 49.265625 0.734375 44.1875 -0.34375 
Q 39.109375 -1.421875 33.890625 -1.421875 
Q 20.796875 -1.421875 13.15625 6.1875 
Q 5.515625 13.8125 5.515625 26.8125 
Q 5.515625 40.234375 12.765625 48.109375 
Q 20.015625 56 32.328125 56 
Q 43.359375 56 49.78125 48.890625 
Q 56.203125 41.796875 56.203125 29.59375 
z
M 47.21875 32.234375 
Q 47.125 39.59375 43.09375 43.984375 
Q 39.0625 48.390625 32.421875 48.390625 
Q 24.90625 48.390625 20.390625 44.140625 
Q 15.875 39.890625 15.1875 32.171875 
z
" id="DejaVuSans-101"/>
      </defs>
      <use xlink:href="#DejaVuSans-115"/>
      <use x="52.099609" xlink:href="#DejaVuSans-105"/>
      <use x="79.882812" xlink:href="#DejaVuSans-122"/>
      <use x="132.373047" xlink:href="#DejaVuSans-101"/>
     </g>
    </g>
   </g>
   <g id="matplotlib.axis_2">
    <g id="ytick_1">
     <g id="line2d_9">
      <path clip-path="url(#pc885e80a22)" d="M 45 395.664669 
L 324 395.664669 
" style="fill:none;stroke:#808080;stroke-linecap:square;stroke-width:0.8;"/>
     </g>
     <g id="line2d_10">
      <defs>
       <path d="M 0 0 
L -3.5 0 
" id="mf4acd4f638" style="stroke:#000000;stroke-width:0.8;"/>
      </defs>
      <g>
       <use style="stroke:#000000;stroke-width:0.8;" x="45" xlink:href="#mf4acd4f638" y="395.664669"/>
      </g>
     </g>
     <g id="text_6">
      <!-- −7 -->
      <g transform="translate(23.257812 399.463888)scale(0.1 -0.1)">
       <defs>
        <path d="M 10.59375 35.5 
L 73.1875 35.5 
L 73.1875 27.203125 
L 10.59375 27.203125 
z
" id="DejaVuSans-8722"/>
        <path d="M 8.203125 72.90625 
L 55.078125 72.90625 
L 55.078125 68.703125 
L 28.609375 0 
L 18.3125 0 
L 43.21875 64.59375 
L 8.203125 64.59375 
z
" id="DejaVuSans-55"/>
       </defs>
       <use xlink:href="#DejaVuSans-8722"/>
       <use x="83.789062" xlink:href="#DejaVuSans-55"/>
      </g>
     </g>
    </g>
    <g id="ytick_2">
     <g id="line2d_11">
      <path clip-path="url(#pc885e80a22)" d="M 45 352.483001 
L 324 352.483001 
" style="fill:none;stroke:#808080;stroke-linecap:square;stroke-width:0.8;"/>
     </g>
     <g id="line2d_12">
      <g>
       <use style="stroke:#000000;stroke-width:0.8;" x="45" xlink:href="#mf4acd4f638" y="352.483001"/>
      </g>
     </g>
     <g id="text_7">
      <!-- −6 -->
      <g transform="translate(23.257812 356.28222)scale(0.1 -0.1)">
       <defs>
        <path d="M 33.015625 40.375 
Q 26.375 40.375 22.484375 35.828125 
Q 18.609375 31.296875 18.609375 23.390625 
Q 18.609375 15.53125 22.484375 10.953125 
Q 26.375 6.390625 33.015625 6.390625 
Q 39.65625 6.390625 43.53125 10.953125 
Q 47.40625 15.53125 47.40625 23.390625 
Q 47.40625 31.296875 43.53125 35.828125 
Q 39.65625 40.375 33.015625 40.375 
z
M 52.59375 71.296875 
L 52.59375 62.3125 
Q 48.875 64.0625 45.09375 64.984375 
Q 41.3125 65.921875 37.59375 65.921875 
Q 27.828125 65.921875 22.671875 59.328125 
Q 17.53125 52.734375 16.796875 39.40625 
Q 19.671875 43.65625 24.015625 45.921875 
Q 28.375 48.1875 33.59375 48.1875 
Q 44.578125 48.1875 50.953125 41.515625 
Q 57.328125 34.859375 57.328125 23.390625 
Q 57.328125 12.15625 50.6875 5.359375 
Q 44.046875 -1.421875 33.015625 -1.421875 
Q 20.359375 -1.421875 13.671875 8.265625 
Q 6.984375 17.96875 6.984375 36.375 
Q 6.984375 53.65625 15.1875 63.9375 
Q 23.390625 74.21875 37.203125 74.21875 
Q 40.921875 74.21875 44.703125 73.484375 
Q 48.484375 72.75 52.59375 71.296875 
z
" id="DejaVuSans-54"/>
       </defs>
       <use xlink:href="#DejaVuSans-8722"/>
       <use x="83.789062" xlink:href="#DejaVuSans-54"/>
      </g>
     </g>
    </g>
    <g id="ytick_3">
     <g id="line2d_13">
      <path clip-path="url(#pc885e80a22)" d="M 45 309.301333 
L 324 309.301333 
" style="fill:none;stroke:#808080;stroke-linecap:square;stroke-width:0.8;"/>
     </g>
     <g id="line2d_14">
      <g>
       <use style="stroke:#000000;stroke-width:0.8;" x="45" xlink:href="#mf4acd4f638" y="309.301333"/>
      </g>
     </g>
     <g id="text_8">
      <!-- −5 -->
      <g transform="translate(23.257812 313.100552)scale(0.1 -0.1)">
       <defs>
        <path d="M 10.796875 72.90625 
L 49.515625 72.90625 
L 49.515625 64.59375 
L 19.828125 64.59375 
L 19.828125 46.734375 
Q 21.96875 47.46875 24.109375 47.828125 
Q 26.265625 48.1875 28.421875 48.1875 
Q 40.625 48.1875 47.75 41.5 
Q 54.890625 34.8125 54.890625 23.390625 
Q 54.890625 11.625 47.5625 5.09375 
Q 40.234375 -1.421875 26.90625 -1.421875 
Q 22.3125 -1.421875 17.546875 -0.640625 
Q 12.796875 0.140625 7.71875 1.703125 
L 7.71875 11.625 
Q 12.109375 9.234375 16.796875 8.0625 
Q 21.484375 6.890625 26.703125 6.890625 
Q 35.15625 6.890625 40.078125 11.328125 
Q 45.015625 15.765625 45.015625 23.390625 
Q 45.015625 31 40.078125 35.4375 
Q 35.15625 39.890625 26.703125 39.890625 
Q 22.75 39.890625 18.8125 39.015625 
Q 14.890625 38.140625 10.796875 36.28125 
z
" id="DejaVuSans-53"/>
       </defs>
       <use xlink:href="#DejaVuSans-8722"/>
       <use x="83.789062" xlink:href="#DejaVuSans-53"/>
      </g>
     </g>
    </g>
    <g id="ytick_4">
     <g id="line2d_15">
      <path clip-path="url(#pc885e80a22)" d="M 45 266.119665 
L 324 266.119665 
" style="fill:none;stroke:#808080;stroke-linecap:square;stroke-width:0.8;"/>
     </g>
     <g id="line2d_16">
      <g>
       <use style="stroke:#000000;stroke-width:0.8;" x="45" xlink:href="#mf4acd4f638" y="266.119665"/>
      </g>
     </g>
     <g id="text_9">
      <!-- −4 -->
      <g transform="translate(23.257812 269.918884)scale(0.1 -0.1)">
       <use xlink:href="#DejaVuSans-8722"/>
       <use x="83.789062" xlink:href="#DejaVuSans-52"/>
      </g>
     </g>
    </g>
    <g id="ytick_5">
     <g id="line2d_17">
      <path clip-path="url(#pc885e80a22)" d="M 45 222.937997 
L 324 222.937997 
" style="fill:none;stroke:#808080;stroke-linecap:square;stroke-width:0.8;"/>
     </g>
     <g id="line2d_18">
      <g>
       <use style="stroke:#000000;stroke-width:0.8;" x="45" xlink:href="#mf4acd4f638" y="222.937997"/>
      </g>
     </g>
     <g id="text_10">
      <!-- −3 -->
      <g transform="translate(23.257812 226.737216)scale(0.1 -0.1)">
       <defs>
        <path d="M 40.578125 39.3125 
Q 47.65625 37.796875 51.625 33 
Q 55.609375 28.21875 55.609375 21.1875 
Q 55.609375 10.40625 48.1875 4.484375 
Q 40.765625 -1.421875 27.09375 -1.421875 
Q 22.515625 -1.421875 17.65625 -0.515625 
Q 12.796875 0.390625 7.625 2.203125 
L 7.625 11.71875 
Q 11.71875 9.328125 16.59375 8.109375 
Q 21.484375 6.890625 26.8125 6.890625 
Q 36.078125 6.890625 40.9375 10.546875 
Q 45.796875 14.203125 45.796875 21.1875 
Q 45.796875 27.640625 41.28125 31.265625 
Q 36.765625 34.90625 28.71875 34.90625 
L 20.21875 34.90625 
L 20.21875 43.015625 
L 29.109375 43.015625 
Q 36.375 43.015625 40.234375 45.921875 
Q 44.09375 48.828125 44.09375 54.296875 
Q 44.09375 59.90625 40.109375 62.90625 
Q 36.140625 65.921875 28.71875 65.921875 
Q 24.65625 65.921875 20.015625 65.03125 
Q 15.375 64.15625 9.8125 62.3125 
L 9.8125 71.09375 
Q 15.4375 72.65625 20.34375 73.4375 
Q 25.25 74.21875 29.59375 74.21875 
Q 40.828125 74.21875 47.359375 69.109375 
Q 53.90625 64.015625 53.90625 55.328125 
Q 53.90625 49.265625 50.4375 45.09375 
Q 46.96875 40.921875 40.578125 39.3125 
z
" id="DejaVuSans-51"/>
       </defs>
       <use xlink:href="#DejaVuSans-8722"/>
       <use x="83.789062" xlink:href="#DejaVuSans-51"/>
      </g>
     </g>
    </g>
    <g id="ytick_6">
     <g id="line2d_19">
      <path clip-path="url(#pc885e80a22)" d="M 45 179.756329 
L 324 179.756329 
" style="fill:none;stroke:#808080;stroke-linecap:square;stroke-width:0.8;"/>
     </g>
     <g id="line2d_20">
      <g>
       <use style="stroke:#000000;stroke-width:0.8;" x="45" xlink:href="#mf4acd4f638" y="179.756329"/>
      </g>
     </g>
     <g id="text_11">
      <!-- −2 -->
      <g transform="translate(23.257812 183.555548)scale(0.1 -0.1)">
       <use xlink:href="#DejaVuSans-8722"/>
       <use x="83.789062" xlink:href="#DejaVuSans-50"/>
      </g>
     </g>
    </g>
    <g id="ytick_7">
     <g id="line2d_21">
      <path clip-path="url(#pc885e80a22)" d="M 45 136.574661 
L 324 136.574661 
" style="fill:none;stroke:#808080;stroke-linecap:square;stroke-width:0.8;"/>
     </g>
     <g id="line2d_22">
      <g>
       <use style="stroke:#000000;stroke-width:0.8;" x="45" xlink:href="#mf4acd4f638" y="136.574661"/>
      </g>
     </g>
     <g id="text_12">
      <!-- −1 -->
      <g transform="translate(23.257812 140.37388)scale(0.1 -0.1)">
       <use xlink:href="#DejaVuSans-8722"/>
       <use x="83.789062" xlink:href="#DejaVuSans-49"/>
      </g>
     </g>
    </g>
    <g id="text_13">
     <!-- $\log_{10}(\mathcal{L}_\theta)$ -->
     <g transform="translate(16.737812 299.329091)rotate(-90)scale(0.12 -0.12)">
      <defs>
       <path d="M 9.421875 75.984375 
L 18.40625 75.984375 
L 18.40625 0 
L 9.421875 0 
z
" id="DejaVuSans-108"/>
       <path d="M 30.609375 48.390625 
Q 23.390625 48.390625 19.1875 42.75 
Q 14.984375 37.109375 14.984375 27.296875 
Q 14.984375 17.484375 19.15625 11.84375 
Q 23.34375 6.203125 30.609375 6.203125 
Q 37.796875 6.203125 41.984375 11.859375 
Q 46.1875 17.53125 46.1875 27.296875 
Q 46.1875 37.015625 41.984375 42.703125 
Q 37.796875 48.390625 30.609375 48.390625 
z
M 30.609375 56 
Q 42.328125 56 49.015625 48.375 
Q 55.71875 40.765625 55.71875 27.296875 
Q 55.71875 13.875 49.015625 6.21875 
Q 42.328125 -1.421875 30.609375 -1.421875 
Q 18.84375 -1.421875 12.171875 6.21875 
Q 5.515625 13.875 5.515625 27.296875 
Q 5.515625 40.765625 12.171875 48.375 
Q 18.84375 56 30.609375 56 
z
" id="DejaVuSans-111"/>
       <path d="M 45.40625 27.984375 
Q 45.40625 37.75 41.375 43.109375 
Q 37.359375 48.484375 30.078125 48.484375 
Q 22.859375 48.484375 18.828125 43.109375 
Q 14.796875 37.75 14.796875 27.984375 
Q 14.796875 18.265625 18.828125 12.890625 
Q 22.859375 7.515625 30.078125 7.515625 
Q 37.359375 7.515625 41.375 12.890625 
Q 45.40625 18.265625 45.40625 27.984375 
z
M 54.390625 6.78125 
Q 54.390625 -7.171875 48.1875 -13.984375 
Q 42 -20.796875 29.203125 -20.796875 
Q 24.46875 -20.796875 20.265625 -20.09375 
Q 16.0625 -19.390625 12.109375 -17.921875 
L 12.109375 -9.1875 
Q 16.0625 -11.328125 19.921875 -12.34375 
Q 23.78125 -13.375 27.78125 -13.375 
Q 36.625 -13.375 41.015625 -8.765625 
Q 45.40625 -4.15625 45.40625 5.171875 
L 45.40625 9.625 
Q 42.625 4.78125 38.28125 2.390625 
Q 33.9375 0 27.875 0 
Q 17.828125 0 11.671875 7.65625 
Q 5.515625 15.328125 5.515625 27.984375 
Q 5.515625 40.671875 11.671875 48.328125 
Q 17.828125 56 27.875 56 
Q 33.9375 56 38.28125 53.609375 
Q 42.625 51.21875 45.40625 46.390625 
L 45.40625 54.6875 
L 54.390625 54.6875 
z
" id="DejaVuSans-103"/>
       <path d="M 31.78125 66.40625 
Q 24.171875 66.40625 20.328125 58.90625 
Q 16.5 51.421875 16.5 36.375 
Q 16.5 21.390625 20.328125 13.890625 
Q 24.171875 6.390625 31.78125 6.390625 
Q 39.453125 6.390625 43.28125 13.890625 
Q 47.125 21.390625 47.125 36.375 
Q 47.125 51.421875 43.28125 58.90625 
Q 39.453125 66.40625 31.78125 66.40625 
z
M 31.78125 74.21875 
Q 44.046875 74.21875 50.515625 64.515625 
Q 56.984375 54.828125 56.984375 36.375 
Q 56.984375 17.96875 50.515625 8.265625 
Q 44.046875 -1.421875 31.78125 -1.421875 
Q 19.53125 -1.421875 13.0625 8.265625 
Q 6.59375 17.96875 6.59375 36.375 
Q 6.59375 54.828125 13.0625 64.515625 
Q 19.53125 74.21875 31.78125 74.21875 
z
" id="DejaVuSans-48"/>
       <path d="M 31 75.875 
Q 24.46875 64.65625 21.28125 53.65625 
Q 18.109375 42.671875 18.109375 31.390625 
Q 18.109375 20.125 21.3125 9.0625 
Q 24.515625 -2 31 -13.1875 
L 23.1875 -13.1875 
Q 15.875 -1.703125 12.234375 9.375 
Q 8.59375 20.453125 8.59375 31.390625 
Q 8.59375 42.28125 12.203125 53.3125 
Q 15.828125 64.359375 23.1875 75.875 
z
" id="DejaVuSans-40"/>
       <path d="M 63.59375 14.296875 
L 65.296875 12.5 
Q 52.296875 -0.703125 37.703125 -0.703125 
Q 33.703125 -0.703125 28.90625 0.40625 
Q 21.796875 1.90625 17.90625 1.90625 
Q 15.703125 1.90625 10.5 0.953125 
Q 5.296875 0 3 0 
L 3.59375 2.40625 
Q 9.09375 2.40625 11.40625 11.703125 
L 18.40625 40.09375 
Q 20.09375 47 23.6875 52.390625 
Q 27.296875 57.796875 31.640625 60.84375 
Q 36 63.90625 40.390625 65.453125 
Q 44.796875 67 48.796875 67 
Q 53.796875 67 56.140625 63.796875 
Q 58.5 60.59375 58.5 56 
Q 58.5 52.296875 56.140625 50 
Q 53.796875 47.703125 50.40625 47.703125 
Q 48.203125 47.703125 46.796875 49.203125 
Q 45.40625 50.703125 45.40625 52.796875 
Q 45.40625 54.40625 46.203125 55.5 
Q 47 56.59375 47.890625 56.9375 
Q 48.796875 57.296875 49.59375 57.890625 
Q 50.40625 58.5 50.40625 59.203125 
Q 50.40625 63 44.59375 63 
Q 39.40625 63 36.09375 59.140625 
Q 32.796875 55.296875 31.09375 48.9375 
Q 29.40625 42.59375 28.046875 35.6875 
Q 26.703125 28.796875 24.203125 21.296875 
Q 21.703125 13.796875 18.09375 9.203125 
L 18.09375 8.796875 
Q 21.296875 11 29.5 11 
Q 34.796875 11 38.4375 8.5 
Q 42.09375 6 46.296875 6 
Q 54.796875 6 63.59375 14.296875 
z
" id="STIXNonUnicode-Italic-57912"/>
       <path d="M 45.515625 34.671875 
L 14.453125 34.671875 
Q 12.359375 20.0625 14.5 13.875 
Q 17.1875 6.25 24.46875 6.25 
Q 31.78125 6.25 37.359375 13.921875 
Q 42.234375 20.65625 45.515625 34.671875 
z
M 47.015625 42.96875 
Q 48.34375 56.84375 46.625 61.71875 
Q 43.953125 69.4375 36.765625 69.4375 
Q 29.296875 69.4375 23.828125 61.8125 
Q 19.53125 55.671875 16.15625 42.96875 
z
M 38.1875 76.765625 
Q 49.90625 76.765625 54.59375 66.40625 
Q 59.28125 56.109375 55.71875 37.84375 
Q 52.203125 19.625 43.453125 9.28125 
Q 34.765625 -1.125 23.046875 -1.125 
Q 11.28125 -1.125 6.640625 9.28125 
Q 2 19.625 5.515625 37.84375 
Q 9.078125 56.109375 17.71875 66.40625 
Q 26.421875 76.765625 38.1875 76.765625 
z
" id="DejaVuSans-Oblique-952"/>
       <path d="M 8.015625 75.875 
L 15.828125 75.875 
Q 23.140625 64.359375 26.78125 53.3125 
Q 30.421875 42.28125 30.421875 31.390625 
Q 30.421875 20.453125 26.78125 9.375 
Q 23.140625 -1.703125 15.828125 -13.1875 
L 8.015625 -13.1875 
Q 14.5 -2 17.703125 9.0625 
Q 20.90625 20.125 20.90625 31.390625 
Q 20.90625 42.671875 17.703125 53.65625 
Q 14.5 64.65625 8.015625 75.875 
z
" id="DejaVuSans-41"/>
      </defs>
      <use transform="translate(0 0.015625)" xlink:href="#DejaVuSans-108"/>
      <use transform="translate(27.783203 0.015625)" xlink:href="#DejaVuSans-111"/>
      <use transform="translate(88.964844 0.015625)" xlink:href="#DejaVuSans-103"/>
      <use transform="translate(153.398438 -16.390625)scale(0.7)" xlink:href="#DejaVuSans-49"/>
      <use transform="translate(197.93457 -16.390625)scale(0.7)" xlink:href="#DejaVuSans-48"/>
      <use transform="translate(245.205078 0.015625)" xlink:href="#DejaVuSans-40"/>
      <use transform="translate(284.21875 0.015625)" xlink:href="#STIXNonUnicode-Italic-57912"/>
      <use transform="translate(354.475769 -16.390625)scale(0.7)" xlink:href="#DejaVuSans-Oblique-952"/>
      <use transform="translate(400.037292 0.015625)" xlink:href="#DejaVuSans-41"/>
     </g>
    </g>
   </g>
   <g id="PolyCollection_1">
    <defs>
     <path d="M 80.494817 -545.812302 
L 79.255183 -545.812302 
L 79.131649 -548.222989 
L 78.988766 -550.633676 
L 78.824645 -553.044364 
L 78.637438 -555.455051 
L 78.425392 -557.865738 
L 78.186906 -560.276425 
L 77.920595 -562.687112 
L 77.625356 -565.097799 
L 77.300435 -567.508487 
L 76.945494 -569.919174 
L 76.560674 -572.329861 
L 76.146654 -574.740548 
L 75.704698 -577.151235 
L 75.236689 -579.561922 
L 74.745154 -581.97261 
L 74.233266 -584.383297 
L 73.704824 -586.793984 
L 73.164225 -589.204671 
L 72.616395 -591.615358 
L 72.066718 -594.026045 
L 71.520928 -596.436733 
L 70.984994 -598.84742 
L 70.464982 -601.258107 
L 69.966911 -603.668794 
L 69.496593 -606.079481 
L 69.059483 -608.490168 
L 68.660522 -610.900856 
L 68.303996 -613.311543 
L 67.993407 -615.72223 
L 67.731367 -618.132917 
L 67.519512 -620.543604 
L 67.358455 -622.954291 
L 67.24776 -625.364979 
L 67.185956 -627.775666 
L 67.170582 -630.186353 
L 67.198263 -632.59704 
L 67.26482 -635.007727 
L 67.365396 -637.418414 
L 67.494617 -639.829102 
L 67.646753 -642.239789 
L 67.8159 -644.650476 
L 67.996155 -647.061163 
L 68.181798 -649.47185 
L 68.36745 -651.882537 
L 68.548232 -654.293225 
L 68.719887 -656.703912 
L 68.878894 -659.114599 
L 69.022543 -661.525286 
L 69.148988 -663.935973 
L 69.257267 -666.34666 
L 69.3473 -668.757348 
L 69.419851 -671.168035 
L 69.47647 -673.578722 
L 69.519412 -675.989409 
L 69.551536 -678.400096 
L 69.576195 -680.810783 
L 69.597104 -683.221471 
L 69.618216 -685.632158 
L 69.643585 -688.042845 
L 69.677235 -690.453532 
L 69.723042 -692.864219 
L 69.784613 -695.274906 
L 69.865188 -697.685594 
L 69.967555 -700.096281 
L 70.093976 -702.506968 
L 70.246143 -704.917655 
L 70.425138 -707.328342 
L 70.631427 -709.739029 
L 70.864858 -712.149717 
L 71.124684 -714.560404 
L 71.409602 -716.971091 
L 71.717799 -719.381778 
L 72.047015 -721.792465 
L 72.394608 -724.203152 
L 72.757634 -726.61384 
L 73.132924 -729.024527 
L 73.517159 -731.435214 
L 73.906957 -733.845901 
L 74.298942 -736.256588 
L 74.689816 -738.667275 
L 75.076424 -741.077963 
L 75.455811 -743.48865 
L 75.825267 -745.899337 
L 76.182371 -748.310024 
L 76.525013 -750.720711 
L 76.85142 -753.131398 
L 77.160163 -755.542086 
L 77.450157 -757.952773 
L 77.720659 -760.36346 
L 77.971248 -762.774147 
L 78.20181 -765.184834 
L 78.412506 -767.595521 
L 78.603749 -770.006209 
L 78.776165 -772.416896 
L 78.930562 -774.827583 
L 79.067894 -777.23827 
L 79.189227 -779.648957 
L 79.295704 -782.059644 
L 79.388515 -784.470332 
L 80.361485 -784.470332 
L 80.361485 -784.470332 
L 80.454296 -782.059644 
L 80.560773 -779.648957 
L 80.682106 -777.23827 
L 80.819438 -774.827583 
L 80.973835 -772.416896 
L 81.146251 -770.006209 
L 81.337494 -767.595521 
L 81.54819 -765.184834 
L 81.778752 -762.774147 
L 82.029341 -760.36346 
L 82.299843 -757.952773 
L 82.589837 -755.542086 
L 82.89858 -753.131398 
L 83.224987 -750.720711 
L 83.567629 -748.310024 
L 83.924733 -745.899337 
L 84.294189 -743.48865 
L 84.673576 -741.077963 
L 85.060184 -738.667275 
L 85.451058 -736.256588 
L 85.843043 -733.845901 
L 86.232841 -731.435214 
L 86.617076 -729.024527 
L 86.992366 -726.61384 
L 87.355392 -724.203152 
L 87.702985 -721.792465 
L 88.032201 -719.381778 
L 88.340398 -716.971091 
L 88.625316 -714.560404 
L 88.885142 -712.149717 
L 89.118573 -709.739029 
L 89.324862 -707.328342 
L 89.503857 -704.917655 
L 89.656024 -702.506968 
L 89.782445 -700.096281 
L 89.884812 -697.685594 
L 89.965387 -695.274906 
L 90.026958 -692.864219 
L 90.072765 -690.453532 
L 90.106415 -688.042845 
L 90.131784 -685.632158 
L 90.152896 -683.221471 
L 90.173805 -680.810783 
L 90.198464 -678.400096 
L 90.230588 -675.989409 
L 90.27353 -673.578722 
L 90.330149 -671.168035 
L 90.4027 -668.757348 
L 90.492733 -666.34666 
L 90.601012 -663.935973 
L 90.727457 -661.525286 
L 90.871106 -659.114599 
L 91.030113 -656.703912 
L 91.201768 -654.293225 
L 91.38255 -651.882537 
L 91.568202 -649.47185 
L 91.753845 -647.061163 
L 91.9341 -644.650476 
L 92.103247 -642.239789 
L 92.255383 -639.829102 
L 92.384604 -637.418414 
L 92.48518 -635.007727 
L 92.551737 -632.59704 
L 92.579418 -630.186353 
L 92.564044 -627.775666 
L 92.50224 -625.364979 
L 92.391545 -622.954291 
L 92.230488 -620.543604 
L 92.018633 -618.132917 
L 91.756593 -615.72223 
L 91.446004 -613.311543 
L 91.089478 -610.900856 
L 90.690517 -608.490168 
L 90.253407 -606.079481 
L 89.783089 -603.668794 
L 89.285018 -601.258107 
L 88.765006 -598.84742 
L 88.229072 -596.436733 
L 87.683282 -594.026045 
L 87.133605 -591.615358 
L 86.585775 -589.204671 
L 86.045176 -586.793984 
L 85.516734 -584.383297 
L 85.004846 -581.97261 
L 84.513311 -579.561922 
L 84.045302 -577.151235 
L 83.603346 -574.740548 
L 83.189326 -572.329861 
L 82.804506 -569.919174 
L 82.449565 -567.508487 
L 82.124644 -565.097799 
L 81.829405 -562.687112 
L 81.563094 -560.276425 
L 81.324608 -557.865738 
L 81.112562 -555.455051 
L 80.925355 -553.044364 
L 80.761234 -550.633676 
L 80.618351 -548.222989 
L 80.494817 -545.812302 
z
" id="m73c76edcce"/>
    </defs>
    <g clip-path="url(#pc885e80a22)">
     <use style="fill:#ce1e5c;" x="0" xlink:href="#m73c76edcce" y="936"/>
    </g>
   </g>
   <g id="PolyCollection_2">
    <defs>
     <path d="M 150.418323 -567.502749 
L 148.831677 -567.502749 
L 148.68246 -568.819653 
L 148.513631 -570.136558 
L 148.32442 -571.453463 
L 148.114401 -572.770367 
L 147.883549 -574.087272 
L 147.632297 -575.404177 
L 147.361573 -576.721082 
L 147.072818 -578.037986 
L 146.76799 -579.354891 
L 146.449534 -580.671796 
L 146.120324 -581.9887 
L 145.783584 -583.305605 
L 145.442771 -584.62251 
L 145.101439 -585.939415 
L 144.763074 -587.256319 
L 144.430923 -588.573224 
L 144.107806 -589.890129 
L 143.795934 -591.207033 
L 143.496737 -592.523938 
L 143.21071 -593.840843 
L 142.9373 -595.157747 
L 142.674824 -596.474652 
L 142.420437 -597.791557 
L 142.170157 -599.108462 
L 141.918944 -600.425366 
L 141.660838 -601.742271 
L 141.389144 -603.059176 
L 141.096673 -604.37608 
L 140.776015 -605.692985 
L 140.419843 -607.00989 
L 140.021229 -608.326795 
L 139.573961 -609.643699 
L 139.072847 -610.960604 
L 138.513989 -612.277509 
L 137.895014 -613.594413 
L 137.215258 -614.911318 
L 136.475881 -616.228223 
L 135.679921 -617.545127 
L 134.832275 -618.862032 
L 133.939607 -620.178937 
L 133.0102 -621.495842 
L 132.053733 -622.812746 
L 131.081018 -624.129651 
L 130.103697 -625.446556 
L 129.133904 -626.76346 
L 128.18392 -628.080365 
L 127.265826 -629.39727 
L 126.391172 -630.714175 
L 125.570669 -632.031079 
L 124.813924 -633.347984 
L 124.129222 -634.664889 
L 123.523362 -635.981793 
L 123.001555 -637.298698 
L 122.567389 -638.615603 
L 122.222851 -639.932508 
L 121.968412 -641.249412 
L 121.803164 -642.566317 
L 121.725 -643.883222 
L 121.730835 -645.200126 
L 121.816841 -646.517031 
L 121.978694 -647.833936 
L 122.211817 -649.15084 
L 122.511606 -650.467745 
L 122.873621 -651.78465 
L 123.293748 -653.101555 
L 123.768297 -654.418459 
L 124.294071 -655.735364 
L 124.868356 -657.052269 
L 125.488885 -658.369173 
L 126.153737 -659.686078 
L 126.861213 -661.002983 
L 127.609679 -662.319888 
L 128.397398 -663.636792 
L 129.222362 -664.953697 
L 130.082137 -666.270602 
L 130.973732 -667.587506 
L 131.893508 -668.904411 
L 132.837122 -670.221316 
L 133.799525 -671.53822 
L 134.775005 -672.855125 
L 135.757279 -674.17203 
L 136.739617 -675.488935 
L 137.715012 -676.805839 
L 138.676361 -678.122744 
L 139.616663 -679.439649 
L 140.529219 -680.756553 
L 141.407815 -682.073458 
L 142.246891 -683.390363 
L 143.041677 -684.707268 
L 143.788302 -686.024172 
L 144.483853 -687.341077 
L 145.126406 -688.657982 
L 145.715019 -689.974886 
L 146.249681 -691.291791 
L 146.731243 -692.608696 
L 147.16132 -693.925601 
L 147.542175 -695.242505 
L 147.8766 -696.55941 
L 148.167781 -697.876315 
L 151.082219 -697.876315 
L 151.082219 -697.876315 
L 151.3734 -696.55941 
L 151.707825 -695.242505 
L 152.08868 -693.925601 
L 152.518757 -692.608696 
L 153.000319 -691.291791 
L 153.534981 -689.974886 
L 154.123594 -688.657982 
L 154.766147 -687.341077 
L 155.461698 -686.024172 
L 156.208323 -684.707268 
L 157.003109 -683.390363 
L 157.842185 -682.073458 
L 158.720781 -680.756553 
L 159.633337 -679.439649 
L 160.573639 -678.122744 
L 161.534988 -676.805839 
L 162.510383 -675.488935 
L 163.492721 -674.17203 
L 164.474995 -672.855125 
L 165.450475 -671.53822 
L 166.412878 -670.221316 
L 167.356492 -668.904411 
L 168.276268 -667.587506 
L 169.167863 -666.270602 
L 170.027638 -664.953697 
L 170.852602 -663.636792 
L 171.640321 -662.319888 
L 172.388787 -661.002983 
L 173.096263 -659.686078 
L 173.761115 -658.369173 
L 174.381644 -657.052269 
L 174.955929 -655.735364 
L 175.481703 -654.418459 
L 175.956252 -653.101555 
L 176.376379 -651.78465 
L 176.738394 -650.467745 
L 177.038183 -649.15084 
L 177.271306 -647.833936 
L 177.433159 -646.517031 
L 177.519165 -645.200126 
L 177.525 -643.883222 
L 177.446836 -642.566317 
L 177.281588 -641.249412 
L 177.027149 -639.932508 
L 176.682611 -638.615603 
L 176.248445 -637.298698 
L 175.726638 -635.981793 
L 175.120778 -634.664889 
L 174.436076 -633.347984 
L 173.679331 -632.031079 
L 172.858828 -630.714175 
L 171.984174 -629.39727 
L 171.06608 -628.080365 
L 170.116096 -626.76346 
L 169.146303 -625.446556 
L 168.168982 -624.129651 
L 167.196267 -622.812746 
L 166.2398 -621.495842 
L 165.310393 -620.178937 
L 164.417725 -618.862032 
L 163.570079 -617.545127 
L 162.774119 -616.228223 
L 162.034742 -614.911318 
L 161.354986 -613.594413 
L 160.736011 -612.277509 
L 160.177153 -610.960604 
L 159.676039 -609.643699 
L 159.228771 -608.326795 
L 158.830157 -607.00989 
L 158.473985 -605.692985 
L 158.153327 -604.37608 
L 157.860856 -603.059176 
L 157.589162 -601.742271 
L 157.331056 -600.425366 
L 157.079843 -599.108462 
L 156.829563 -597.791557 
L 156.575176 -596.474652 
L 156.3127 -595.157747 
L 156.03929 -593.840843 
L 155.753263 -592.523938 
L 155.454066 -591.207033 
L 155.142194 -589.890129 
L 154.819077 -588.573224 
L 154.486926 -587.256319 
L 154.148561 -585.939415 
L 153.807229 -584.62251 
L 153.466416 -583.305605 
L 153.129676 -581.9887 
L 152.800466 -580.671796 
L 152.48201 -579.354891 
L 152.177182 -578.037986 
L 151.888427 -576.721082 
L 151.617703 -575.404177 
L 151.366451 -574.087272 
L 151.135599 -572.770367 
L 150.92558 -571.453463 
L 150.736369 -570.136558 
L 150.56754 -568.819653 
L 150.418323 -567.502749 
z
" id="m2b331855c1"/>
    </defs>
    <g clip-path="url(#pc885e80a22)">
     <use style="fill:#e05230;" x="0" xlink:href="#m2b331855c1" y="936"/>
    </g>
   </g>
   <g id="PolyCollection_3">
    <defs>
     <path d="M 219.981133 -517.062645 
L 218.768867 -517.062645 
L 218.641734 -520.012307 
L 218.493708 -522.961968 
L 218.322657 -525.91163 
L 218.126495 -528.861292 
L 217.90325 -531.810954 
L 217.651126 -534.760616 
L 217.368578 -537.710278 
L 217.054391 -540.65994 
L 216.707751 -543.609602 
L 216.328324 -546.559264 
L 215.91632 -549.508926 
L 215.472556 -552.458588 
L 214.9985 -555.408249 
L 214.496307 -558.357911 
L 213.968836 -561.307573 
L 213.419641 -564.257235 
L 212.85295 -567.206897 
L 212.273617 -570.156559 
L 211.687058 -573.106221 
L 211.099161 -576.055883 
L 210.516185 -579.005545 
L 209.944632 -581.955207 
L 209.391126 -584.904869 
L 208.862263 -587.85453 
L 208.364472 -590.804192 
L 207.903873 -593.753854 
L 207.486134 -596.703516 
L 207.116347 -599.653178 
L 206.79891 -602.60284 
L 206.537427 -605.552502 
L 206.334629 -608.502164 
L 206.192317 -611.451826 
L 206.11132 -614.401488 
L 206.091488 -617.35115 
L 206.131705 -620.300811 
L 206.229915 -623.250473 
L 206.38319 -626.200135 
L 206.587799 -629.149797 
L 206.839305 -632.099459 
L 207.13268 -635.049121 
L 207.462421 -637.998783 
L 207.822689 -640.948445 
L 208.20744 -643.898107 
L 208.610566 -646.847769 
L 209.026029 -649.797431 
L 209.447988 -652.747092 
L 209.870918 -655.696754 
L 210.289713 -658.646416 
L 210.699769 -661.596078 
L 211.097059 -664.54574 
L 211.478176 -667.495402 
L 211.840365 -670.445064 
L 212.181527 -673.394726 
L 212.500213 -676.344388 
L 212.795593 -679.29405 
L 213.06742 -682.243711 
L 213.315975 -685.193373 
L 213.542007 -688.143035 
L 213.746671 -691.092697 
L 213.931461 -694.042359 
L 214.098141 -696.992021 
L 214.248686 -699.941683 
L 214.38522 -702.891345 
L 214.509959 -705.841007 
L 214.625164 -708.790669 
L 214.733095 -711.740331 
L 214.835964 -714.689992 
L 214.935903 -717.639654 
L 215.034923 -720.589316 
L 215.134885 -723.538978 
L 215.237464 -726.48864 
L 215.344124 -729.438302 
L 215.45609 -732.387964 
L 215.574326 -735.337626 
L 215.699517 -738.287288 
L 215.832057 -741.23695 
L 215.972045 -744.186612 
L 216.119286 -747.136273 
L 216.273303 -750.085935 
L 216.433359 -753.035597 
L 216.598481 -755.985259 
L 216.767498 -758.934921 
L 216.939083 -761.884583 
L 217.111798 -764.834245 
L 217.284147 -767.783907 
L 217.454618 -770.733569 
L 217.62174 -773.683231 
L 217.784121 -776.632893 
L 217.940492 -779.582554 
L 218.089734 -782.532216 
L 218.230909 -785.481878 
L 218.363271 -788.43154 
L 218.486277 -791.381202 
L 218.599586 -794.330864 
L 218.703052 -797.280526 
L 218.79671 -800.230188 
L 218.880758 -803.17985 
L 218.955535 -806.129512 
L 219.021495 -809.079174 
L 219.728505 -809.079174 
L 219.728505 -809.079174 
L 219.794465 -806.129512 
L 219.869242 -803.17985 
L 219.95329 -800.230188 
L 220.046948 -797.280526 
L 220.150414 -794.330864 
L 220.263723 -791.381202 
L 220.386729 -788.43154 
L 220.519091 -785.481878 
L 220.660266 -782.532216 
L 220.809508 -779.582554 
L 220.965879 -776.632893 
L 221.12826 -773.683231 
L 221.295382 -770.733569 
L 221.465853 -767.783907 
L 221.638202 -764.834245 
L 221.810917 -761.884583 
L 221.982502 -758.934921 
L 222.151519 -755.985259 
L 222.316641 -753.035597 
L 222.476697 -750.085935 
L 222.630714 -747.136273 
L 222.777955 -744.186612 
L 222.917943 -741.23695 
L 223.050483 -738.287288 
L 223.175674 -735.337626 
L 223.29391 -732.387964 
L 223.405876 -729.438302 
L 223.512536 -726.48864 
L 223.615115 -723.538978 
L 223.715077 -720.589316 
L 223.814097 -717.639654 
L 223.914036 -714.689992 
L 224.016905 -711.740331 
L 224.124836 -708.790669 
L 224.240041 -705.841007 
L 224.36478 -702.891345 
L 224.501314 -699.941683 
L 224.651859 -696.992021 
L 224.818539 -694.042359 
L 225.003329 -691.092697 
L 225.207993 -688.143035 
L 225.434025 -685.193373 
L 225.68258 -682.243711 
L 225.954407 -679.29405 
L 226.249787 -676.344388 
L 226.568473 -673.394726 
L 226.909635 -670.445064 
L 227.271824 -667.495402 
L 227.652941 -664.54574 
L 228.050231 -661.596078 
L 228.460287 -658.646416 
L 228.879082 -655.696754 
L 229.302012 -652.747092 
L 229.723971 -649.797431 
L 230.139434 -646.847769 
L 230.54256 -643.898107 
L 230.927311 -640.948445 
L 231.287579 -637.998783 
L 231.61732 -635.049121 
L 231.910695 -632.099459 
L 232.162201 -629.149797 
L 232.36681 -626.200135 
L 232.520085 -623.250473 
L 232.618295 -620.300811 
L 232.658512 -617.35115 
L 232.63868 -614.401488 
L 232.557683 -611.451826 
L 232.415371 -608.502164 
L 232.212573 -605.552502 
L 231.95109 -602.60284 
L 231.633653 -599.653178 
L 231.263866 -596.703516 
L 230.846127 -593.753854 
L 230.385528 -590.804192 
L 229.887737 -587.85453 
L 229.358874 -584.904869 
L 228.805368 -581.955207 
L 228.233815 -579.005545 
L 227.650839 -576.055883 
L 227.062942 -573.106221 
L 226.476383 -570.156559 
L 225.89705 -567.206897 
L 225.330359 -564.257235 
L 224.781164 -561.307573 
L 224.253693 -558.357911 
L 223.7515 -555.408249 
L 223.277444 -552.458588 
L 222.83368 -549.508926 
L 222.421676 -546.559264 
L 222.042249 -543.609602 
L 221.695609 -540.65994 
L 221.381422 -537.710278 
L 221.098874 -534.760616 
L 220.84675 -531.810954 
L 220.623505 -528.861292 
L 220.427343 -525.91163 
L 220.256292 -522.961968 
L 220.108266 -520.012307 
L 219.981133 -517.062645 
z
" id="m25551cb9ad"/>
    </defs>
    <g clip-path="url(#pc885e80a22)">
     <use style="fill:#379d4b;" x="0" xlink:href="#m25551cb9ad" y="936"/>
    </g>
   </g>
   <g id="PolyCollection_4">
    <defs>
     <path d="M 290.423343 -563.050353 
L 287.826657 -563.050353 
L 287.583485 -564.992637 
L 287.306588 -566.93492 
L 286.993775 -568.877204 
L 286.643211 -570.819487 
L 286.25352 -572.761771 
L 285.823896 -574.704054 
L 285.354199 -576.646338 
L 284.845061 -578.588622 
L 284.297956 -580.530905 
L 283.715272 -582.473189 
L 283.10034 -584.415472 
L 282.457449 -586.357756 
L 281.791821 -588.300039 
L 281.109547 -590.242323 
L 280.417498 -592.184606 
L 279.723187 -594.12689 
L 279.034604 -596.069173 
L 278.360019 -598.011457 
L 277.707761 -599.95374 
L 277.085978 -601.896024 
L 276.502394 -603.838307 
L 275.964056 -605.780591 
L 275.47711 -607.722874 
L 275.046582 -609.665158 
L 274.676202 -611.607442 
L 274.368271 -613.549725 
L 274.123565 -615.492009 
L 273.941309 -617.434292 
L 273.8192 -619.376576 
L 273.753487 -621.318859 
L 273.739118 -623.261143 
L 273.769926 -625.203426 
L 273.838874 -627.14571 
L 273.93832 -629.087993 
L 274.060321 -631.030277 
L 274.196936 -632.97256 
L 274.340535 -634.914844 
L 274.484089 -636.857127 
L 274.621431 -638.799411 
L 274.747477 -640.741694 
L 274.858402 -642.683978 
L 274.951749 -644.626261 
L 275.026484 -646.568545 
L 275.082986 -648.510829 
L 275.122972 -650.453112 
L 275.149368 -652.395396 
L 275.166123 -654.337679 
L 275.177996 -656.279963 
L 275.190298 -658.222246 
L 275.208627 -660.16453 
L 275.238601 -662.106813 
L 275.285599 -664.049097 
L 275.354521 -665.99138 
L 275.449588 -667.933664 
L 275.574181 -669.875947 
L 275.730728 -671.818231 
L 275.920641 -673.760514 
L 276.144305 -675.702798 
L 276.401117 -677.645081 
L 276.689568 -679.587365 
L 277.007358 -681.529649 
L 277.351547 -683.471932 
L 277.718711 -685.414216 
L 278.10512 -687.356499 
L 278.506898 -689.298783 
L 278.920191 -691.241066 
L 279.341293 -693.18335 
L 279.766771 -695.125633 
L 280.193541 -697.067917 
L 280.61893 -699.0102 
L 281.040698 -700.952484 
L 281.457035 -702.894767 
L 281.866538 -704.837051 
L 282.268161 -706.779334 
L 282.661161 -708.721618 
L 283.045029 -710.663901 
L 283.419419 -712.606185 
L 283.784085 -714.548468 
L 284.138822 -716.490752 
L 284.483415 -718.433036 
L 284.817608 -720.375319 
L 285.141075 -722.317603 
L 285.453421 -724.259886 
L 285.754178 -726.20217 
L 286.042823 -728.144453 
L 286.3188 -730.086737 
L 286.581551 -732.02902 
L 286.830542 -733.971304 
L 287.065298 -735.913587 
L 287.28543 -737.855871 
L 287.490662 -739.798154 
L 287.680845 -741.740438 
L 287.855975 -743.682721 
L 288.016196 -745.625005 
L 288.1618 -747.567288 
L 288.293217 -749.509572 
L 288.411007 -751.451856 
L 288.51584 -753.394139 
L 288.608477 -755.336423 
L 289.641523 -755.336423 
L 289.641523 -755.336423 
L 289.73416 -753.394139 
L 289.838993 -751.451856 
L 289.956783 -749.509572 
L 290.0882 -747.567288 
L 290.233804 -745.625005 
L 290.394025 -743.682721 
L 290.569155 -741.740438 
L 290.759338 -739.798154 
L 290.96457 -737.855871 
L 291.184702 -735.913587 
L 291.419458 -733.971304 
L 291.668449 -732.02902 
L 291.9312 -730.086737 
L 292.207177 -728.144453 
L 292.495822 -726.20217 
L 292.796579 -724.259886 
L 293.108925 -722.317603 
L 293.432392 -720.375319 
L 293.766585 -718.433036 
L 294.111178 -716.490752 
L 294.465915 -714.548468 
L 294.830581 -712.606185 
L 295.204971 -710.663901 
L 295.588839 -708.721618 
L 295.981839 -706.779334 
L 296.383462 -704.837051 
L 296.792965 -702.894767 
L 297.209302 -700.952484 
L 297.63107 -699.0102 
L 298.056459 -697.067917 
L 298.483229 -695.125633 
L 298.908707 -693.18335 
L 299.329809 -691.241066 
L 299.743102 -689.298783 
L 300.14488 -687.356499 
L 300.531289 -685.414216 
L 300.898453 -683.471932 
L 301.242642 -681.529649 
L 301.560432 -679.587365 
L 301.848883 -677.645081 
L 302.105695 -675.702798 
L 302.329359 -673.760514 
L 302.519272 -671.818231 
L 302.675819 -669.875947 
L 302.800412 -667.933664 
L 302.895479 -665.99138 
L 302.964401 -664.049097 
L 303.011399 -662.106813 
L 303.041373 -660.16453 
L 303.059702 -658.222246 
L 303.072004 -656.279963 
L 303.083877 -654.337679 
L 303.100632 -652.395396 
L 303.127028 -650.453112 
L 303.167014 -648.510829 
L 303.223516 -646.568545 
L 303.298251 -644.626261 
L 303.391598 -642.683978 
L 303.502523 -640.741694 
L 303.628569 -638.799411 
L 303.765911 -636.857127 
L 303.909465 -634.914844 
L 304.053064 -632.97256 
L 304.189679 -631.030277 
L 304.31168 -629.087993 
L 304.411126 -627.14571 
L 304.480074 -625.203426 
L 304.510882 -623.261143 
L 304.496513 -621.318859 
L 304.4308 -619.376576 
L 304.308691 -617.434292 
L 304.126435 -615.492009 
L 303.881729 -613.549725 
L 303.573798 -611.607442 
L 303.203418 -609.665158 
L 302.77289 -607.722874 
L 302.285944 -605.780591 
L 301.747606 -603.838307 
L 301.164022 -601.896024 
L 300.542239 -599.95374 
L 299.889981 -598.011457 
L 299.215396 -596.069173 
L 298.526813 -594.12689 
L 297.832502 -592.184606 
L 297.140453 -590.242323 
L 296.458179 -588.300039 
L 295.792551 -586.357756 
L 295.14966 -584.415472 
L 294.534728 -582.473189 
L 293.952044 -580.530905 
L 293.404939 -578.588622 
L 292.895801 -576.646338 
L 292.426104 -574.704054 
L 291.99648 -572.761771 
L 291.606789 -570.819487 
L 291.256225 -568.877204 
L 290.943412 -566.93492 
L 290.666515 -564.992637 
L 290.423343 -563.050353 
z
" id="m292023867b"/>
    </defs>
    <g clip-path="url(#pc885e80a22)">
     <use style="fill:#3d63a0;" x="0" xlink:href="#m292023867b" y="936"/>
    </g>
   </g>
   <g id="line2d_23">
    <path clip-path="url(#pc885e80a22)" d="M 79.875 331.612349 
L 79.875 210.105018 
" style="fill:none;stroke:#404040;stroke-linecap:square;stroke-width:1.5;"/>
   </g>
   <g id="line2d_24">
    <path clip-path="url(#pc885e80a22)" d="M 79.875 311.569248 
L 79.875 238.583931 
" style="fill:none;stroke:#404040;stroke-linecap:square;stroke-width:4.5;"/>
   </g>
   <g id="line2d_25">
    <path clip-path="url(#pc885e80a22)" d="M 149.625 338.493517 
L 149.625 268.12742 
" style="fill:none;stroke:#404040;stroke-linecap:square;stroke-width:1.5;"/>
   </g>
   <g id="line2d_26">
    <path clip-path="url(#pc885e80a22)" d="M 149.625 304.401768 
L 149.625 280.108736 
" style="fill:none;stroke:#404040;stroke-linecap:square;stroke-width:4.5;"/>
   </g>
   <g id="line2d_27">
    <path clip-path="url(#pc885e80a22)" d="M 219.375 350.33259 
L 219.375 243.891648 
" style="fill:none;stroke:#404040;stroke-linecap:square;stroke-width:1.5;"/>
   </g>
   <g id="line2d_28">
    <path clip-path="url(#pc885e80a22)" d="M 219.375 330.659425 
L 219.375 280.927372 
" style="fill:none;stroke:#404040;stroke-linecap:square;stroke-width:4.5;"/>
   </g>
   <g id="line2d_29">
    <path clip-path="url(#pc885e80a22)" d="M 289.125 325.630075 
L 289.125 227.983149 
" style="fill:none;stroke:#404040;stroke-linecap:square;stroke-width:1.5;"/>
   </g>
   <g id="line2d_30">
    <path clip-path="url(#pc885e80a22)" d="M 289.125 320.998711 
L 289.125 266.960172 
" style="fill:none;stroke:#404040;stroke-linecap:square;stroke-width:4.5;"/>
   </g>
   <g id="patch_3">
    <path d="M 45 433.538182 
L 45 112.32 
" style="fill:none;stroke:#000000;stroke-linecap:square;stroke-linejoin:miter;stroke-width:0.8;"/>
   </g>
   <g id="patch_4">
    <path d="M 324 433.538182 
L 324 112.32 
" style="fill:none;stroke:#000000;stroke-linecap:square;stroke-linejoin:miter;stroke-width:0.8;"/>
   </g>
   <g id="patch_5">
    <path d="M 45 433.538182 
L 324 433.538182 
" style="fill:none;stroke:#000000;stroke-linecap:square;stroke-linejoin:miter;stroke-width:0.8;"/>
   </g>
   <g id="patch_6">
    <path d="M 45 112.32 
L 324 112.32 
" style="fill:none;stroke:#000000;stroke-linecap:square;stroke-linejoin:miter;stroke-width:0.8;"/>
   </g>
   <g id="PathCollection_1">
    <defs>
     <path d="M 0 1.5 
C 0.397805 1.5 0.77937 1.341951 1.06066 1.06066 
C 1.341951 0.77937 1.5 0.397805 1.5 0 
C 1.5 -0.397805 1.341951 -0.77937 1.06066 -1.06066 
C 0.77937 -1.341951 0.397805 -1.5 0 -1.5 
C -0.397805 -1.5 -0.77937 -1.341951 -1.06066 -1.06066 
C -1.341951 -0.77937 -1.5 -0.397805 -1.5 0 
C -1.5 0.397805 -1.341951 0.77937 -1.06066 1.06066 
C -0.77937 1.341951 -0.397805 1.5 0 1.5 
z
" id="mc7aac9d916"/>
    </defs>
    <g clip-path="url(#pc885e80a22)">
     <use style="fill:#ffffff;" x="79.875" xlink:href="#mc7aac9d916" y="286.772672"/>
    </g>
   </g>
   <g id="PathCollection_2">
    <g clip-path="url(#pc885e80a22)">
     <use style="fill:#ffffff;" x="149.625" xlink:href="#mc7aac9d916" y="293.538523"/>
    </g>
   </g>
   <g id="PathCollection_3">
    <g clip-path="url(#pc885e80a22)">
     <use style="fill:#ffffff;" x="219.375" xlink:href="#mc7aac9d916" y="308.420061"/>
    </g>
   </g>
   <g id="PathCollection_4">
    <g clip-path="url(#pc885e80a22)">
     <use style="fill:#ffffff;" x="289.125" xlink:href="#mc7aac9d916" y="287.803393"/>
    </g>
   </g>
   <g id="text_14">
    <!-- Loss $\mathcal{L}_\theta$ -->
    <g transform="translate(162.36 106.32)scale(0.12 -0.12)">
     <defs>
      <path d="M 9.8125 72.90625 
L 19.671875 72.90625 
L 19.671875 8.296875 
L 55.171875 8.296875 
L 55.171875 0 
L 9.8125 0 
z
" id="DejaVuSans-76"/>
      <path id="DejaVuSans-32"/>
     </defs>
     <use transform="translate(0 0.09375)" xlink:href="#DejaVuSans-76"/>
     <use transform="translate(55.712891 0.09375)" xlink:href="#DejaVuSans-111"/>
     <use transform="translate(116.894531 0.09375)" xlink:href="#DejaVuSans-115"/>
     <use transform="translate(168.994141 0.09375)" xlink:href="#DejaVuSans-115"/>
     <use transform="translate(221.09375 0.09375)" xlink:href="#DejaVuSans-32"/>
     <use transform="translate(252.880859 0.09375)" xlink:href="#STIXNonUnicode-Italic-57912"/>
     <use transform="translate(323.137878 -16.3125)scale(0.7)" xlink:href="#DejaVuSans-Oblique-952"/>
    </g>
   </g>
  </g>
  <g id="axes_2">
   <g id="patch_7">
    <path d="M 45 819 
L 324 819 
L 324 497.781818 
L 45 497.781818 
z
" style="fill:#ffffff;"/>
   </g>
   <g id="matplotlib.axis_3">
    <g id="xtick_5">
     <g id="line2d_31">
      <path clip-path="url(#p7d2c709457)" d="M 79.875 819 
L 79.875 497.781818 
" style="fill:none;stroke:#808080;stroke-linecap:square;stroke-width:0.8;"/>
     </g>
     <g id="line2d_32">
      <g>
       <use style="stroke:#000000;stroke-width:0.8;" x="79.875" xlink:href="#me552f6c5cf" y="819"/>
      </g>
     </g>
     <g id="text_15">
      <!-- 1 -->
      <g transform="translate(76.69375 833.598437)scale(0.1 -0.1)">
       <use xlink:href="#DejaVuSans-49"/>
      </g>
     </g>
    </g>
    <g id="xtick_6">
     <g id="line2d_33">
      <path clip-path="url(#p7d2c709457)" d="M 149.625 819 
L 149.625 497.781818 
" style="fill:none;stroke:#808080;stroke-linecap:square;stroke-width:0.8;"/>
     </g>
     <g id="line2d_34">
      <g>
       <use style="stroke:#000000;stroke-width:0.8;" x="149.625" xlink:href="#me552f6c5cf" y="819"/>
      </g>
     </g>
     <g id="text_16">
      <!-- 2 -->
      <g transform="translate(146.44375 833.598437)scale(0.1 -0.1)">
       <use xlink:href="#DejaVuSans-50"/>
      </g>
     </g>
    </g>
    <g id="xtick_7">
     <g id="line2d_35">
      <path clip-path="url(#p7d2c709457)" d="M 219.375 819 
L 219.375 497.781818 
" style="fill:none;stroke:#808080;stroke-linecap:square;stroke-width:0.8;"/>
     </g>
     <g id="line2d_36">
      <g>
       <use style="stroke:#000000;stroke-width:0.8;" x="219.375" xlink:href="#me552f6c5cf" y="819"/>
      </g>
     </g>
     <g id="text_17">
      <!-- 4 -->
      <g transform="translate(216.19375 833.598437)scale(0.1 -0.1)">
       <use xlink:href="#DejaVuSans-52"/>
      </g>
     </g>
    </g>
    <g id="xtick_8">
     <g id="line2d_37">
      <path clip-path="url(#p7d2c709457)" d="M 289.125 819 
L 289.125 497.781818 
" style="fill:none;stroke:#808080;stroke-linecap:square;stroke-width:0.8;"/>
     </g>
     <g id="line2d_38">
      <g>
       <use style="stroke:#000000;stroke-width:0.8;" x="289.125" xlink:href="#me552f6c5cf" y="819"/>
      </g>
     </g>
     <g id="text_18">
      <!-- 8 -->
      <g transform="translate(285.94375 833.598437)scale(0.1 -0.1)">
       <use xlink:href="#DejaVuSans-56"/>
      </g>
     </g>
    </g>
    <g id="text_19">
     <!-- size -->
     <g transform="translate(172.866562 848.79625)scale(0.12 -0.12)">
      <use xlink:href="#DejaVuSans-115"/>
      <use x="52.099609" xlink:href="#DejaVuSans-105"/>
      <use x="79.882812" xlink:href="#DejaVuSans-122"/>
      <use x="132.373047" xlink:href="#DejaVuSans-101"/>
     </g>
    </g>
   </g>
   <g id="matplotlib.axis_4">
    <g id="ytick_8">
     <g id="line2d_39">
      <path clip-path="url(#p7d2c709457)" d="M 45 784.775052 
L 324 784.775052 
" style="fill:none;stroke:#808080;stroke-linecap:square;stroke-width:0.8;"/>
     </g>
     <g id="line2d_40">
      <g>
       <use style="stroke:#000000;stroke-width:0.8;" x="45" xlink:href="#mf4acd4f638" y="784.775052"/>
      </g>
     </g>
     <g id="text_20">
      <!-- −3.0 -->
      <g transform="translate(13.717187 788.574271)scale(0.1 -0.1)">
       <defs>
        <path d="M 10.6875 12.40625 
L 21 12.40625 
L 21 0 
L 10.6875 0 
z
" id="DejaVuSans-46"/>
       </defs>
       <use xlink:href="#DejaVuSans-8722"/>
       <use x="83.789062" xlink:href="#DejaVuSans-51"/>
       <use x="147.412109" xlink:href="#DejaVuSans-46"/>
       <use x="179.199219" xlink:href="#DejaVuSans-48"/>
      </g>
     </g>
    </g>
    <g id="ytick_9">
     <g id="line2d_41">
      <path clip-path="url(#p7d2c709457)" d="M 45 740.976757 
L 324 740.976757 
" style="fill:none;stroke:#808080;stroke-linecap:square;stroke-width:0.8;"/>
     </g>
     <g id="line2d_42">
      <g>
       <use style="stroke:#000000;stroke-width:0.8;" x="45" xlink:href="#mf4acd4f638" y="740.976757"/>
      </g>
     </g>
     <g id="text_21">
      <!-- −2.5 -->
      <g transform="translate(13.717187 744.775976)scale(0.1 -0.1)">
       <use xlink:href="#DejaVuSans-8722"/>
       <use x="83.789062" xlink:href="#DejaVuSans-50"/>
       <use x="147.412109" xlink:href="#DejaVuSans-46"/>
       <use x="179.199219" xlink:href="#DejaVuSans-53"/>
      </g>
     </g>
    </g>
    <g id="ytick_10">
     <g id="line2d_43">
      <path clip-path="url(#p7d2c709457)" d="M 45 697.178462 
L 324 697.178462 
" style="fill:none;stroke:#808080;stroke-linecap:square;stroke-width:0.8;"/>
     </g>
     <g id="line2d_44">
      <g>
       <use style="stroke:#000000;stroke-width:0.8;" x="45" xlink:href="#mf4acd4f638" y="697.178462"/>
      </g>
     </g>
     <g id="text_22">
      <!-- −2.0 -->
      <g transform="translate(13.717187 700.977681)scale(0.1 -0.1)">
       <use xlink:href="#DejaVuSans-8722"/>
       <use x="83.789062" xlink:href="#DejaVuSans-50"/>
       <use x="147.412109" xlink:href="#DejaVuSans-46"/>
       <use x="179.199219" xlink:href="#DejaVuSans-48"/>
      </g>
     </g>
    </g>
    <g id="ytick_11">
     <g id="line2d_45">
      <path clip-path="url(#p7d2c709457)" d="M 45 653.380167 
L 324 653.380167 
" style="fill:none;stroke:#808080;stroke-linecap:square;stroke-width:0.8;"/>
     </g>
     <g id="line2d_46">
      <g>
       <use style="stroke:#000000;stroke-width:0.8;" x="45" xlink:href="#mf4acd4f638" y="653.380167"/>
      </g>
     </g>
     <g id="text_23">
      <!-- −1.5 -->
      <g transform="translate(13.717187 657.179386)scale(0.1 -0.1)">
       <use xlink:href="#DejaVuSans-8722"/>
       <use x="83.789062" xlink:href="#DejaVuSans-49"/>
       <use x="147.412109" xlink:href="#DejaVuSans-46"/>
       <use x="179.199219" xlink:href="#DejaVuSans-53"/>
      </g>
     </g>
    </g>
    <g id="ytick_12">
     <g id="line2d_47">
      <path clip-path="url(#p7d2c709457)" d="M 45 609.581872 
L 324 609.581872 
" style="fill:none;stroke:#808080;stroke-linecap:square;stroke-width:0.8;"/>
     </g>
     <g id="line2d_48">
      <g>
       <use style="stroke:#000000;stroke-width:0.8;" x="45" xlink:href="#mf4acd4f638" y="609.581872"/>
      </g>
     </g>
     <g id="text_24">
      <!-- −1.0 -->
      <g transform="translate(13.717187 613.38109)scale(0.1 -0.1)">
       <use xlink:href="#DejaVuSans-8722"/>
       <use x="83.789062" xlink:href="#DejaVuSans-49"/>
       <use x="147.412109" xlink:href="#DejaVuSans-46"/>
       <use x="179.199219" xlink:href="#DejaVuSans-48"/>
      </g>
     </g>
    </g>
    <g id="ytick_13">
     <g id="line2d_49">
      <path clip-path="url(#p7d2c709457)" d="M 45 565.783576 
L 324 565.783576 
" style="fill:none;stroke:#808080;stroke-linecap:square;stroke-width:0.8;"/>
     </g>
     <g id="line2d_50">
      <g>
       <use style="stroke:#000000;stroke-width:0.8;" x="45" xlink:href="#mf4acd4f638" y="565.783576"/>
      </g>
     </g>
     <g id="text_25">
      <!-- −0.5 -->
      <g transform="translate(13.717187 569.582795)scale(0.1 -0.1)">
       <use xlink:href="#DejaVuSans-8722"/>
       <use x="83.789062" xlink:href="#DejaVuSans-48"/>
       <use x="147.412109" xlink:href="#DejaVuSans-46"/>
       <use x="179.199219" xlink:href="#DejaVuSans-53"/>
      </g>
     </g>
    </g>
    <g id="ytick_14">
     <g id="line2d_51">
      <path clip-path="url(#p7d2c709457)" d="M 45 521.985281 
L 324 521.985281 
" style="fill:none;stroke:#808080;stroke-linecap:square;stroke-width:0.8;"/>
     </g>
     <g id="line2d_52">
      <g>
       <use style="stroke:#000000;stroke-width:0.8;" x="45" xlink:href="#mf4acd4f638" y="521.985281"/>
      </g>
     </g>
     <g id="text_26">
      <!-- 0.0 -->
      <g transform="translate(22.096875 525.7845)scale(0.1 -0.1)">
       <use xlink:href="#DejaVuSans-48"/>
       <use x="63.623047" xlink:href="#DejaVuSans-46"/>
       <use x="95.410156" xlink:href="#DejaVuSans-48"/>
      </g>
     </g>
    </g>
    <g id="text_27">
     <!-- $\log_{10}(\mathcal{E}_\theta)$ -->
     <g transform="translate(7.197187 683.950909)rotate(-90)scale(0.12 -0.12)">
      <defs>
       <path d="M 51.09375 15.203125 
L 52.703125 13.40625 
Q 45.203125 5.40625 35.5 2 
Q 29 -0.40625 20.796875 -0.40625 
Q 14 -0.40625 9 2.640625 
Q 4 5.703125 4 11.5 
Q 4 19.796875 10.296875 25.796875 
Q 16.59375 31.796875 25.296875 35.296875 
Q 23.203125 36.296875 22.09375 37 
Q 21 37.703125 19.640625 38.953125 
Q 18.296875 40.203125 17.6875 42 
Q 17.09375 43.796875 17.09375 46.296875 
Q 17.09375 51.703125 21.890625 56.703125 
Q 26.703125 61.703125 33 64.34375 
Q 39.296875 67 44.5 67 
Q 51.5 67 55.703125 64.5 
Q 59.90625 62 59.90625 57.09375 
Q 59.90625 54.90625 58.09375 52.15625 
Q 56.296875 49.40625 52.703125 49.40625 
Q 50.59375 49.40625 48.9375 50.796875 
Q 47.296875 52.203125 47.296875 54.296875 
Q 47.296875 56.59375 48.796875 58.296875 
Q 50.296875 60 50.296875 60.296875 
Q 50.296875 62.203125 49.1875 62.953125 
Q 48.09375 63.703125 45.59375 63.703125 
Q 38 63.703125 31.84375 59.25 
Q 25.703125 54.796875 25.703125 49.296875 
Q 25.703125 45.203125 29.390625 42.84375 
Q 33.09375 40.5 39.09375 40.5 
L 45.90625 40.5 
L 45 36.703125 
Q 40.703125 36.703125 35.546875 35.046875 
Q 30.40625 33.40625 25.703125 30.59375 
Q 21 27.796875 17.84375 23.34375 
Q 14.703125 18.90625 14.703125 14 
Q 14.703125 9.59375 18.046875 7.296875 
Q 21.40625 5 27.203125 5 
Q 33.296875 5 40.25 8.046875 
Q 47.203125 11.09375 51.09375 15.203125 
z
" id="STIXNonUnicode-Italic-57905"/>
      </defs>
      <use transform="translate(0 0.015625)" xlink:href="#DejaVuSans-108"/>
      <use transform="translate(27.783203 0.015625)" xlink:href="#DejaVuSans-111"/>
      <use transform="translate(88.964844 0.015625)" xlink:href="#DejaVuSans-103"/>
      <use transform="translate(153.398438 -16.390625)scale(0.7)" xlink:href="#DejaVuSans-49"/>
      <use transform="translate(197.93457 -16.390625)scale(0.7)" xlink:href="#DejaVuSans-48"/>
      <use transform="translate(245.205078 0.015625)" xlink:href="#DejaVuSans-40"/>
      <use transform="translate(284.21875 0.015625)" xlink:href="#STIXNonUnicode-Italic-57905"/>
      <use transform="translate(340.475769 -16.390625)scale(0.7)" xlink:href="#DejaVuSans-Oblique-952"/>
      <use transform="translate(386.037292 0.015625)" xlink:href="#DejaVuSans-41"/>
     </g>
    </g>
   </g>
   <g id="PolyCollection_5">
    <defs>
     <path d="M 80.472685 -131.600826 
L 79.277315 -131.600826 
L 79.164367 -133.821474 
L 79.034588 -136.042122 
L 78.886389 -138.262769 
L 78.718209 -140.483417 
L 78.528544 -142.704065 
L 78.315996 -144.924712 
L 78.079312 -147.14536 
L 77.817439 -149.366008 
L 77.529567 -151.586655 
L 77.215188 -153.807303 
L 76.874138 -156.027951 
L 76.506653 -158.248598 
L 76.113402 -160.469246 
L 75.69553 -162.689894 
L 75.254685 -164.910541 
L 74.793031 -167.131189 
L 74.313257 -169.351837 
L 73.818566 -171.572484 
L 73.312652 -173.793132 
L 72.799661 -176.01378 
L 72.284133 -178.234427 
L 71.770931 -180.455075 
L 71.265156 -182.675723 
L 70.772043 -184.89637 
L 70.296852 -187.117018 
L 69.844748 -189.337666 
L 69.42067 -191.558313 
L 69.029212 -193.778961 
L 68.674492 -195.999609 
L 68.360034 -198.220256 
L 68.088667 -200.440904 
L 67.862429 -202.661551 
L 67.6825 -204.882199 
L 67.549146 -207.102847 
L 67.461704 -209.323494 
L 67.418579 -211.544142 
L 67.417278 -213.76479 
L 67.454467 -215.985437 
L 67.526054 -218.206085 
L 67.627302 -220.426733 
L 67.752951 -222.64738 
L 67.897367 -224.868028 
L 68.0547 -227.088676 
L 68.219042 -229.309323 
L 68.384599 -231.529971 
L 68.545846 -233.750619 
L 68.697681 -235.971266 
L 68.835566 -238.191914 
L 68.955645 -240.412562 
L 69.054843 -242.633209 
L 69.130945 -244.853857 
L 69.182645 -247.074505 
L 69.209568 -249.295152 
L 69.212272 -251.5158 
L 69.192219 -253.736448 
L 69.15172 -255.957095 
L 69.093864 -258.177743 
L 69.022423 -260.398391 
L 68.94174 -262.619038 
L 68.856605 -264.839686 
L 68.772122 -267.060334 
L 68.693566 -269.280981 
L 68.626238 -271.501629 
L 68.575325 -273.722277 
L 68.54576 -275.942924 
L 68.542095 -278.163572 
L 68.568375 -280.38422 
L 68.628045 -282.604867 
L 68.723853 -284.825515 
L 68.857789 -287.046162 
L 69.031038 -289.26681 
L 69.243955 -291.487458 
L 69.496066 -293.708105 
L 69.786088 -295.928753 
L 70.111974 -298.149401 
L 70.470976 -300.370048 
L 70.859726 -302.590696 
L 71.274334 -304.811344 
L 71.710491 -307.031991 
L 72.163589 -309.252639 
L 72.628839 -311.473287 
L 73.101388 -313.693934 
L 73.576435 -315.914582 
L 74.049343 -318.13523 
L 74.515727 -320.355877 
L 74.97155 -322.576525 
L 75.413182 -324.797173 
L 75.837458 -327.01782 
L 76.241714 -329.238468 
L 76.623804 -331.459116 
L 76.982107 -333.679763 
L 77.315512 -335.900411 
L 77.623394 -338.121059 
L 77.905582 -340.341706 
L 78.162313 -342.562354 
L 78.394179 -344.783002 
L 78.60208 -347.003649 
L 78.787162 -349.224297 
L 78.950762 -351.444945 
L 80.799238 -351.444945 
L 80.799238 -351.444945 
L 80.962838 -349.224297 
L 81.14792 -347.003649 
L 81.355821 -344.783002 
L 81.587687 -342.562354 
L 81.844418 -340.341706 
L 82.126606 -338.121059 
L 82.434488 -335.900411 
L 82.767893 -333.679763 
L 83.126196 -331.459116 
L 83.508286 -329.238468 
L 83.912542 -327.01782 
L 84.336818 -324.797173 
L 84.77845 -322.576525 
L 85.234273 -320.355877 
L 85.700657 -318.13523 
L 86.173565 -315.914582 
L 86.648612 -313.693934 
L 87.121161 -311.473287 
L 87.586411 -309.252639 
L 88.039509 -307.031991 
L 88.475666 -304.811344 
L 88.890274 -302.590696 
L 89.279024 -300.370048 
L 89.638026 -298.149401 
L 89.963912 -295.928753 
L 90.253934 -293.708105 
L 90.506045 -291.487458 
L 90.718962 -289.26681 
L 90.892211 -287.046162 
L 91.026147 -284.825515 
L 91.121955 -282.604867 
L 91.181625 -280.38422 
L 91.207905 -278.163572 
L 91.20424 -275.942924 
L 91.174675 -273.722277 
L 91.123762 -271.501629 
L 91.056434 -269.280981 
L 90.977878 -267.060334 
L 90.893395 -264.839686 
L 90.80826 -262.619038 
L 90.727577 -260.398391 
L 90.656136 -258.177743 
L 90.59828 -255.957095 
L 90.557781 -253.736448 
L 90.537728 -251.5158 
L 90.540432 -249.295152 
L 90.567355 -247.074505 
L 90.619055 -244.853857 
L 90.695157 -242.633209 
L 90.794355 -240.412562 
L 90.914434 -238.191914 
L 91.052319 -235.971266 
L 91.204154 -233.750619 
L 91.365401 -231.529971 
L 91.530958 -229.309323 
L 91.6953 -227.088676 
L 91.852633 -224.868028 
L 91.997049 -222.64738 
L 92.122698 -220.426733 
L 92.223946 -218.206085 
L 92.295533 -215.985437 
L 92.332722 -213.76479 
L 92.331421 -211.544142 
L 92.288296 -209.323494 
L 92.200854 -207.102847 
L 92.0675 -204.882199 
L 91.887571 -202.661551 
L 91.661333 -200.440904 
L 91.389966 -198.220256 
L 91.075508 -195.999609 
L 90.720788 -193.778961 
L 90.32933 -191.558313 
L 89.905252 -189.337666 
L 89.453148 -187.117018 
L 88.977957 -184.89637 
L 88.484844 -182.675723 
L 87.979069 -180.455075 
L 87.465867 -178.234427 
L 86.950339 -176.01378 
L 86.437348 -173.793132 
L 85.931434 -171.572484 
L 85.436743 -169.351837 
L 84.956969 -167.131189 
L 84.495315 -164.910541 
L 84.05447 -162.689894 
L 83.636598 -160.469246 
L 83.243347 -158.248598 
L 82.875862 -156.027951 
L 82.534812 -153.807303 
L 82.220433 -151.586655 
L 81.932561 -149.366008 
L 81.670688 -147.14536 
L 81.434004 -144.924712 
L 81.221456 -142.704065 
L 81.031791 -140.483417 
L 80.863611 -138.262769 
L 80.715412 -136.042122 
L 80.585633 -133.821474 
L 80.472685 -131.600826 
z
" id="mbe70256ba5"/>
    </defs>
    <g clip-path="url(#p7d2c709457)">
     <use style="fill:#ce1e5c;" x="0" xlink:href="#mbe70256ba5" y="936"/>
    </g>
   </g>
   <g id="PolyCollection_6">
    <defs>
     <path d="M 150.417185 -156.610378 
L 148.832815 -156.610378 
L 148.684921 -157.915521 
L 148.517763 -159.220663 
L 148.330609 -160.525805 
L 148.12307 -161.830947 
L 147.895153 -163.136089 
L 147.647323 -164.441232 
L 147.380532 -165.746374 
L 147.096249 -167.051516 
L 146.796457 -168.356658 
L 146.483629 -169.6618 
L 146.160679 -170.966943 
L 145.830877 -172.272085 
L 145.497745 -173.577227 
L 145.164924 -174.882369 
L 144.836013 -176.187511 
L 144.514402 -177.492653 
L 144.203089 -178.797796 
L 143.904495 -180.102938 
L 143.620296 -181.40808 
L 143.351267 -182.713222 
L 143.097157 -184.018364 
L 142.856605 -185.323507 
L 142.627101 -186.628649 
L 142.40499 -187.933791 
L 142.185548 -189.238933 
L 141.963099 -190.544075 
L 141.73119 -191.849217 
L 141.482817 -193.15436 
L 141.210682 -194.459502 
L 140.907492 -195.764644 
L 140.566256 -197.069786 
L 140.180602 -198.374928 
L 139.745068 -199.680071 
L 139.255367 -200.985213 
L 138.708621 -202.290355 
L 138.103527 -203.595497 
L 137.440479 -204.900639 
L 136.721602 -206.205782 
L 135.950738 -207.510924 
L 135.133346 -208.816066 
L 134.276343 -210.121208 
L 133.387892 -211.42635 
L 132.477142 -212.731492 
L 131.553931 -214.036635 
L 130.628475 -215.341777 
L 129.71106 -216.646919 
L 128.811731 -217.952061 
L 127.940026 -219.257203 
L 127.104735 -220.562346 
L 126.313712 -221.867488 
L 125.573749 -223.17263 
L 124.8905 -224.477772 
L 124.268472 -225.782914 
L 123.711066 -227.088057 
L 123.220673 -228.393199 
L 122.798812 -229.698341 
L 122.446289 -231.003483 
L 122.163382 -232.308625 
L 121.950026 -233.613767 
L 121.80599 -234.91891 
L 121.731027 -236.224052 
L 121.725 -237.529194 
L 121.787963 -238.834336 
L 121.920196 -240.139478 
L 122.122198 -241.444621 
L 122.394625 -242.749763 
L 122.738193 -244.054905 
L 123.15354 -245.360047 
L 123.641068 -246.665189 
L 124.200762 -247.970332 
L 124.832017 -249.275474 
L 125.533463 -250.580616 
L 126.302825 -251.885758 
L 127.136809 -253.1909 
L 128.031029 -254.496042 
L 128.979985 -255.801185 
L 129.977097 -257.106327 
L 131.014783 -258.411469 
L 132.084592 -259.716611 
L 133.177376 -261.021753 
L 134.283504 -262.326896 
L 135.393092 -263.632038 
L 136.496255 -264.93718 
L 137.583354 -266.242322 
L 138.64524 -267.547464 
L 139.673465 -268.852606 
L 140.66048 -270.157749 
L 141.59978 -271.462891 
L 142.486015 -272.768033 
L 143.315057 -274.073175 
L 144.084017 -275.378317 
L 144.791226 -276.68346 
L 145.436173 -277.988602 
L 146.019413 -279.293744 
L 146.542451 -280.598886 
L 147.007601 -281.904028 
L 147.417844 -283.209171 
L 147.776677 -284.514313 
L 148.087959 -285.819455 
L 151.162041 -285.819455 
L 151.162041 -285.819455 
L 151.473323 -284.514313 
L 151.832156 -283.209171 
L 152.242399 -281.904028 
L 152.707549 -280.598886 
L 153.230587 -279.293744 
L 153.813827 -277.988602 
L 154.458774 -276.68346 
L 155.165983 -275.378317 
L 155.934943 -274.073175 
L 156.763985 -272.768033 
L 157.65022 -271.462891 
L 158.58952 -270.157749 
L 159.576535 -268.852606 
L 160.60476 -267.547464 
L 161.666646 -266.242322 
L 162.753745 -264.93718 
L 163.856908 -263.632038 
L 164.966496 -262.326896 
L 166.072624 -261.021753 
L 167.165408 -259.716611 
L 168.235217 -258.411469 
L 169.272903 -257.106327 
L 170.270015 -255.801185 
L 171.218971 -254.496042 
L 172.113191 -253.1909 
L 172.947175 -251.885758 
L 173.716537 -250.580616 
L 174.417983 -249.275474 
L 175.049238 -247.970332 
L 175.608932 -246.665189 
L 176.09646 -245.360047 
L 176.511807 -244.054905 
L 176.855375 -242.749763 
L 177.127802 -241.444621 
L 177.329804 -240.139478 
L 177.462037 -238.834336 
L 177.525 -237.529194 
L 177.518973 -236.224052 
L 177.44401 -234.91891 
L 177.299974 -233.613767 
L 177.086618 -232.308625 
L 176.803711 -231.003483 
L 176.451188 -229.698341 
L 176.029327 -228.393199 
L 175.538934 -227.088057 
L 174.981528 -225.782914 
L 174.3595 -224.477772 
L 173.676251 -223.17263 
L 172.936288 -221.867488 
L 172.145265 -220.562346 
L 171.309974 -219.257203 
L 170.438269 -217.952061 
L 169.53894 -216.646919 
L 168.621525 -215.341777 
L 167.696069 -214.036635 
L 166.772858 -212.731492 
L 165.862108 -211.42635 
L 164.973657 -210.121208 
L 164.116654 -208.816066 
L 163.299262 -207.510924 
L 162.528398 -206.205782 
L 161.809521 -204.900639 
L 161.146473 -203.595497 
L 160.541379 -202.290355 
L 159.994633 -200.985213 
L 159.504932 -199.680071 
L 159.069398 -198.374928 
L 158.683744 -197.069786 
L 158.342508 -195.764644 
L 158.039318 -194.459502 
L 157.767183 -193.15436 
L 157.51881 -191.849217 
L 157.286901 -190.544075 
L 157.064452 -189.238933 
L 156.84501 -187.933791 
L 156.622899 -186.628649 
L 156.393395 -185.323507 
L 156.152843 -184.018364 
L 155.898733 -182.713222 
L 155.629704 -181.40808 
L 155.345505 -180.102938 
L 155.046911 -178.797796 
L 154.735598 -177.492653 
L 154.413987 -176.187511 
L 154.085076 -174.882369 
L 153.752255 -173.577227 
L 153.419123 -172.272085 
L 153.089321 -170.966943 
L 152.766371 -169.6618 
L 152.453543 -168.356658 
L 152.153751 -167.051516 
L 151.869468 -165.746374 
L 151.602677 -164.441232 
L 151.354847 -163.136089 
L 151.12693 -161.830947 
L 150.919391 -160.525805 
L 150.732237 -159.220663 
L 150.565079 -157.915521 
L 150.417185 -156.610378 
z
" id="m47db5047d8"/>
    </defs>
    <g clip-path="url(#p7d2c709457)">
     <use style="fill:#e05230;" x="0" xlink:href="#m47db5047d8" y="936"/>
    </g>
   </g>
   <g id="PolyCollection_7">
    <defs>
     <path d="M 220.463939 -167.125946 
L 218.286061 -167.125946 
L 218.068919 -169.130716 
L 217.819 -171.135485 
L 217.53365 -173.140254 
L 217.210455 -175.145023 
L 216.847346 -177.149793 
L 216.442703 -179.154562 
L 215.995458 -181.159331 
L 215.505201 -183.164101 
L 214.972263 -185.16887 
L 214.397794 -187.173639 
L 213.783823 -189.178408 
L 213.133282 -191.183178 
L 212.45002 -193.187947 
L 211.738772 -195.192716 
L 211.005109 -197.197486 
L 210.255347 -199.202255 
L 209.496433 -201.207024 
L 208.735804 -203.211793 
L 207.981223 -205.216563 
L 207.240598 -207.221332 
L 206.521793 -209.226101 
L 205.832438 -211.230871 
L 205.179737 -213.23564 
L 204.570302 -215.240409 
L 204.009988 -217.245178 
L 203.503774 -219.249948 
L 203.055653 -221.254717 
L 202.668573 -223.259486 
L 202.344403 -225.264256 
L 202.083938 -227.269025 
L 201.886939 -229.273794 
L 201.752201 -231.278563 
L 201.677657 -233.283333 
L 201.660494 -235.288102 
L 201.697294 -237.292871 
L 201.784179 -239.297641 
L 201.916968 -241.30241 
L 202.091321 -243.307179 
L 202.30288 -245.311948 
L 202.547394 -247.316718 
L 202.820825 -249.321487 
L 203.119424 -251.326256 
L 203.439795 -253.331026 
L 203.778918 -255.335795 
L 204.134151 -257.340564 
L 204.503214 -259.345333 
L 204.884139 -261.350103 
L 205.275215 -263.354872 
L 205.674913 -265.359641 
L 206.081814 -267.364411 
L 206.494529 -269.36918 
L 206.911632 -271.373949 
L 207.331603 -273.378718 
L 207.75279 -275.383488 
L 208.17339 -277.388257 
L 208.591454 -279.393026 
L 209.004916 -281.397796 
L 209.411636 -283.402565 
L 209.809472 -285.407334 
L 210.196356 -287.412103 
L 210.570384 -289.416873 
L 210.929902 -291.421642 
L 211.27359 -293.426411 
L 211.600535 -295.431181 
L 211.910283 -297.43595 
L 212.202872 -299.440719 
L 212.478837 -301.445488 
L 212.739194 -303.450258 
L 212.985393 -305.455027 
L 213.21925 -307.459796 
L 213.44286 -309.464566 
L 213.658494 -311.469335 
L 213.868489 -313.474104 
L 214.075133 -315.478873 
L 214.280561 -317.483643 
L 214.486649 -319.488412 
L 214.694942 -321.493181 
L 214.906583 -323.497951 
L 215.122276 -325.50272 
L 215.342268 -327.507489 
L 215.566359 -329.512258 
L 215.793928 -331.517028 
L 216.023982 -333.521797 
L 216.255215 -335.526566 
L 216.48609 -337.531336 
L 216.714912 -339.536105 
L 216.939912 -341.540874 
L 217.159327 -343.545643 
L 217.371474 -345.550413 
L 217.57481 -347.555182 
L 217.767984 -349.559951 
L 217.949878 -351.564721 
L 218.119629 -353.56949 
L 218.276641 -355.574259 
L 218.420583 -357.579028 
L 218.55138 -359.583798 
L 218.669191 -361.588567 
L 218.77438 -363.593336 
L 218.867486 -365.598106 
L 219.882514 -365.598106 
L 219.882514 -365.598106 
L 219.97562 -363.593336 
L 220.080809 -361.588567 
L 220.19862 -359.583798 
L 220.329417 -357.579028 
L 220.473359 -355.574259 
L 220.630371 -353.56949 
L 220.800122 -351.564721 
L 220.982016 -349.559951 
L 221.17519 -347.555182 
L 221.378526 -345.550413 
L 221.590673 -343.545643 
L 221.810088 -341.540874 
L 222.035088 -339.536105 
L 222.26391 -337.531336 
L 222.494785 -335.526566 
L 222.726018 -333.521797 
L 222.956072 -331.517028 
L 223.183641 -329.512258 
L 223.407732 -327.507489 
L 223.627724 -325.50272 
L 223.843417 -323.497951 
L 224.055058 -321.493181 
L 224.263351 -319.488412 
L 224.469439 -317.483643 
L 224.674867 -315.478873 
L 224.881511 -313.474104 
L 225.091506 -311.469335 
L 225.30714 -309.464566 
L 225.53075 -307.459796 
L 225.764607 -305.455027 
L 226.010806 -303.450258 
L 226.271163 -301.445488 
L 226.547128 -299.440719 
L 226.839717 -297.43595 
L 227.149465 -295.431181 
L 227.47641 -293.426411 
L 227.820098 -291.421642 
L 228.179616 -289.416873 
L 228.553644 -287.412103 
L 228.940528 -285.407334 
L 229.338364 -283.402565 
L 229.745084 -281.397796 
L 230.158546 -279.393026 
L 230.57661 -277.388257 
L 230.99721 -275.383488 
L 231.418397 -273.378718 
L 231.838368 -271.373949 
L 232.255471 -269.36918 
L 232.668186 -267.364411 
L 233.075087 -265.359641 
L 233.474785 -263.354872 
L 233.865861 -261.350103 
L 234.246786 -259.345333 
L 234.615849 -257.340564 
L 234.971082 -255.335795 
L 235.310205 -253.331026 
L 235.630576 -251.326256 
L 235.929175 -249.321487 
L 236.202606 -247.316718 
L 236.44712 -245.311948 
L 236.658679 -243.307179 
L 236.833032 -241.30241 
L 236.965821 -239.297641 
L 237.052706 -237.292871 
L 237.089506 -235.288102 
L 237.072343 -233.283333 
L 236.997799 -231.278563 
L 236.863061 -229.273794 
L 236.666062 -227.269025 
L 236.405597 -225.264256 
L 236.081427 -223.259486 
L 235.694347 -221.254717 
L 235.246226 -219.249948 
L 234.740012 -217.245178 
L 234.179698 -215.240409 
L 233.570263 -213.23564 
L 232.917562 -211.230871 
L 232.228207 -209.226101 
L 231.509402 -207.221332 
L 230.768777 -205.216563 
L 230.014196 -203.211793 
L 229.253567 -201.207024 
L 228.494653 -199.202255 
L 227.744891 -197.197486 
L 227.011228 -195.192716 
L 226.29998 -193.187947 
L 225.616718 -191.183178 
L 224.966177 -189.178408 
L 224.352206 -187.173639 
L 223.777737 -185.16887 
L 223.244799 -183.164101 
L 222.754542 -181.159331 
L 222.307297 -179.154562 
L 221.902654 -177.149793 
L 221.539545 -175.145023 
L 221.21635 -173.140254 
L 220.931 -171.135485 
L 220.681081 -169.130716 
L 220.463939 -167.125946 
z
" id="m6211b8d51b"/>
    </defs>
    <g clip-path="url(#p7d2c709457)">
     <use style="fill:#379d4b;" x="0" xlink:href="#m6211b8d51b" y="936"/>
    </g>
   </g>
   <g id="PolyCollection_8">
    <defs>
     <path d="M 289.979645 -215.64254 
L 288.270355 -215.64254 
L 288.108471 -217.743296 
L 287.924565 -219.844052 
L 287.71749 -221.944808 
L 287.48641 -224.045563 
L 287.230875 -226.146319 
L 286.950884 -228.247075 
L 286.646943 -230.34783 
L 286.320109 -232.448586 
L 285.972011 -234.549342 
L 285.604854 -236.650097 
L 285.221401 -238.750853 
L 284.824917 -240.851609 
L 284.419097 -242.952365 
L 284.007963 -245.05312 
L 283.595733 -247.153876 
L 283.186674 -249.254632 
L 282.784941 -251.355387 
L 282.394402 -253.456143 
L 282.018475 -255.556899 
L 281.65996 -257.657655 
L 281.320906 -259.75841 
L 281.002491 -261.859166 
L 280.704949 -263.959922 
L 280.427531 -266.060677 
L 280.168515 -268.161433 
L 279.925268 -270.262189 
L 279.694346 -272.362944 
L 279.47165 -274.4637 
L 279.252613 -276.564456 
L 279.032421 -278.665212 
L 278.806254 -280.765967 
L 278.569534 -282.866723 
L 278.318178 -284.967479 
L 278.048824 -287.068234 
L 277.759044 -289.16899 
L 277.447507 -291.269746 
L 277.114107 -293.370502 
L 276.760033 -295.471257 
L 276.38778 -297.572013 
L 276.001116 -299.672769 
L 275.604975 -301.773524 
L 275.205317 -303.87428 
L 274.808929 -305.975036 
L 274.4232 -308.075791 
L 274.055867 -310.176547 
L 273.714743 -312.277303 
L 273.407452 -314.378059 
L 273.141162 -316.478814 
L 272.922342 -318.57957 
L 272.756553 -320.680326 
L 272.648271 -322.781081 
L 272.600752 -324.881837 
L 272.615955 -326.982593 
L 272.694502 -329.083349 
L 272.835698 -331.184104 
L 273.037598 -333.28486 
L 273.297104 -335.385616 
L 273.610121 -337.486371 
L 273.971718 -339.587127 
L 274.376328 -341.687883 
L 274.817952 -343.788639 
L 275.290362 -345.889394 
L 275.787304 -347.99015 
L 276.302683 -350.090906 
L 276.830723 -352.191661 
L 277.366103 -354.292417 
L 277.904063 -356.393173 
L 278.440468 -358.493928 
L 278.971848 -360.594684 
L 279.495399 -362.69544 
L 280.008952 -364.796196 
L 280.510924 -366.896951 
L 281.000243 -368.997707 
L 281.476262 -371.098463 
L 281.938662 -373.199218 
L 282.38736 -375.299974 
L 282.82241 -377.40073 
L 283.243928 -379.501486 
L 283.652019 -381.602241 
L 284.046722 -383.702997 
L 284.427976 -385.803753 
L 284.795602 -387.904508 
L 285.149299 -390.005264 
L 285.488655 -392.10602 
L 285.813178 -394.206775 
L 286.122322 -396.307531 
L 286.41553 -398.408287 
L 286.692275 -400.509043 
L 286.952097 -402.609798 
L 287.194641 -404.710554 
L 287.419685 -406.81131 
L 287.627162 -408.912065 
L 287.817173 -411.012821 
L 287.989996 -413.113577 
L 288.146074 -415.214333 
L 288.286012 -417.315088 
L 288.410555 -419.415844 
L 288.520569 -421.5166 
L 288.617014 -423.617355 
L 289.632986 -423.617355 
L 289.632986 -423.617355 
L 289.729431 -421.5166 
L 289.839445 -419.415844 
L 289.963988 -417.315088 
L 290.103926 -415.214333 
L 290.260004 -413.113577 
L 290.432827 -411.012821 
L 290.622838 -408.912065 
L 290.830315 -406.81131 
L 291.055359 -404.710554 
L 291.297903 -402.609798 
L 291.557725 -400.509043 
L 291.83447 -398.408287 
L 292.127678 -396.307531 
L 292.436822 -394.206775 
L 292.761345 -392.10602 
L 293.100701 -390.005264 
L 293.454398 -387.904508 
L 293.822024 -385.803753 
L 294.203278 -383.702997 
L 294.597981 -381.602241 
L 295.006072 -379.501486 
L 295.42759 -377.40073 
L 295.86264 -375.299974 
L 296.311338 -373.199218 
L 296.773738 -371.098463 
L 297.249757 -368.997707 
L 297.739076 -366.896951 
L 298.241048 -364.796196 
L 298.754601 -362.69544 
L 299.278152 -360.594684 
L 299.809532 -358.493928 
L 300.345937 -356.393173 
L 300.883897 -354.292417 
L 301.419277 -352.191661 
L 301.947317 -350.090906 
L 302.462696 -347.99015 
L 302.959638 -345.889394 
L 303.432048 -343.788639 
L 303.873672 -341.687883 
L 304.278282 -339.587127 
L 304.639879 -337.486371 
L 304.952896 -335.385616 
L 305.212402 -333.28486 
L 305.414302 -331.184104 
L 305.555498 -329.083349 
L 305.634045 -326.982593 
L 305.649248 -324.881837 
L 305.601729 -322.781081 
L 305.493447 -320.680326 
L 305.327658 -318.57957 
L 305.108838 -316.478814 
L 304.842548 -314.378059 
L 304.535257 -312.277303 
L 304.194133 -310.176547 
L 303.8268 -308.075791 
L 303.441071 -305.975036 
L 303.044683 -303.87428 
L 302.645025 -301.773524 
L 302.248884 -299.672769 
L 301.86222 -297.572013 
L 301.489967 -295.471257 
L 301.135893 -293.370502 
L 300.802493 -291.269746 
L 300.490956 -289.16899 
L 300.201176 -287.068234 
L 299.931822 -284.967479 
L 299.680466 -282.866723 
L 299.443746 -280.765967 
L 299.217579 -278.665212 
L 298.997387 -276.564456 
L 298.77835 -274.4637 
L 298.555654 -272.362944 
L 298.324732 -270.262189 
L 298.081485 -268.161433 
L 297.822469 -266.060677 
L 297.545051 -263.959922 
L 297.247509 -261.859166 
L 296.929094 -259.75841 
L 296.59004 -257.657655 
L 296.231525 -255.556899 
L 295.855598 -253.456143 
L 295.465059 -251.355387 
L 295.063326 -249.254632 
L 294.654267 -247.153876 
L 294.242037 -245.05312 
L 293.830903 -242.952365 
L 293.425083 -240.851609 
L 293.028599 -238.750853 
L 292.645146 -236.650097 
L 292.277989 -234.549342 
L 291.929891 -232.448586 
L 291.603057 -230.34783 
L 291.299116 -228.247075 
L 291.019125 -226.146319 
L 290.76359 -224.045563 
L 290.53251 -221.944808 
L 290.325435 -219.844052 
L 290.141529 -217.743296 
L 289.979645 -215.64254 
z
" id="m86f9b16620"/>
    </defs>
    <g clip-path="url(#p7d2c709457)">
     <use style="fill:#3d63a0;" x="0" xlink:href="#m86f9b16620" y="936"/>
    </g>
   </g>
   <g id="line2d_53">
    <path clip-path="url(#p7d2c709457)" d="M 79.875 748.022757 
L 79.875 640.931472 
" style="fill:none;stroke:#404040;stroke-linecap:square;stroke-width:1.5;"/>
   </g>
   <g id="line2d_54">
    <path clip-path="url(#p7d2c709457)" d="M 79.875 725.914408 
L 79.875 653.4952 
" style="fill:none;stroke:#404040;stroke-linecap:square;stroke-width:4.5;"/>
   </g>
   <g id="line2d_55">
    <path clip-path="url(#p7d2c709457)" d="M 149.625 749.469893 
L 149.625 680.100274 
" style="fill:none;stroke:#404040;stroke-linecap:square;stroke-width:1.5;"/>
   </g>
   <g id="line2d_56">
    <path clip-path="url(#p7d2c709457)" d="M 149.625 715.287047 
L 149.625 688.857021 
" style="fill:none;stroke:#404040;stroke-linecap:square;stroke-width:4.5;"/>
   </g>
   <g id="line2d_57">
    <path clip-path="url(#p7d2c709457)" d="M 219.375 721.901453 
L 219.375 617.374495 
" style="fill:none;stroke:#404040;stroke-linecap:square;stroke-width:1.5;"/>
   </g>
   <g id="line2d_58">
    <path clip-path="url(#p7d2c709457)" d="M 219.375 712.716749 
L 219.375 664.661905 
" style="fill:none;stroke:#404040;stroke-linecap:square;stroke-width:4.5;"/>
   </g>
   <g id="line2d_59">
    <path clip-path="url(#p7d2c709457)" d="M 289.125 671.331105 
L 289.125 561.408999 
" style="fill:none;stroke:#404040;stroke-linecap:square;stroke-width:1.5;"/>
   </g>
   <g id="line2d_60">
    <path clip-path="url(#p7d2c709457)" d="M 289.125 639.40922 
L 289.125 600.061597 
" style="fill:none;stroke:#404040;stroke-linecap:square;stroke-width:4.5;"/>
   </g>
   <g id="patch_8">
    <path d="M 45 819 
L 45 497.781818 
" style="fill:none;stroke:#000000;stroke-linecap:square;stroke-linejoin:miter;stroke-width:0.8;"/>
   </g>
   <g id="patch_9">
    <path d="M 324 819 
L 324 497.781818 
" style="fill:none;stroke:#000000;stroke-linecap:square;stroke-linejoin:miter;stroke-width:0.8;"/>
   </g>
   <g id="patch_10">
    <path d="M 45 819 
L 324 819 
" style="fill:none;stroke:#000000;stroke-linecap:square;stroke-linejoin:miter;stroke-width:0.8;"/>
   </g>
   <g id="patch_11">
    <path d="M 45 497.781818 
L 324 497.781818 
" style="fill:none;stroke:#000000;stroke-linecap:square;stroke-linejoin:miter;stroke-width:0.8;"/>
   </g>
   <g id="PathCollection_5">
    <g clip-path="url(#p7d2c709457)">
     <use style="fill:#ffffff;" x="79.875" xlink:href="#mc7aac9d916" y="698.557951"/>
    </g>
   </g>
   <g id="PathCollection_6">
    <g clip-path="url(#p7d2c709457)">
     <use style="fill:#ffffff;" x="149.625" xlink:href="#mc7aac9d916" y="702.799083"/>
    </g>
   </g>
   <g id="PathCollection_7">
    <g clip-path="url(#p7d2c709457)">
     <use style="fill:#ffffff;" x="219.375" xlink:href="#mc7aac9d916" y="692.530447"/>
    </g>
   </g>
   <g id="PathCollection_8">
    <g clip-path="url(#p7d2c709457)">
     <use style="fill:#ffffff;" x="289.125" xlink:href="#mc7aac9d916" y="614.291325"/>
    </g>
   </g>
   <g id="text_28">
    <!-- Rel. $L^2$ error $\mathcal{E}_\theta$ -->
    <g transform="translate(139.86 491.781818)scale(0.12 -0.12)">
     <defs>
      <path d="M 44.390625 34.1875 
Q 47.5625 33.109375 50.5625 29.59375 
Q 53.5625 26.078125 56.59375 19.921875 
L 66.609375 0 
L 56 0 
L 46.6875 18.703125 
Q 43.0625 26.03125 39.671875 28.421875 
Q 36.28125 30.8125 30.421875 30.8125 
L 19.671875 30.8125 
L 19.671875 0 
L 9.8125 0 
L 9.8125 72.90625 
L 32.078125 72.90625 
Q 44.578125 72.90625 50.734375 67.671875 
Q 56.890625 62.453125 56.890625 51.90625 
Q 56.890625 45.015625 53.6875 40.46875 
Q 50.484375 35.9375 44.390625 34.1875 
z
M 19.671875 64.796875 
L 19.671875 38.921875 
L 32.078125 38.921875 
Q 39.203125 38.921875 42.84375 42.21875 
Q 46.484375 45.515625 46.484375 51.90625 
Q 46.484375 58.296875 42.84375 61.546875 
Q 39.203125 64.796875 32.078125 64.796875 
z
" id="DejaVuSans-82"/>
      <path d="M 16.796875 72.90625 
L 26.703125 72.90625 
L 14.203125 8.203125 
L 49.703125 8.203125 
L 48.09375 0 
L 2.6875 0 
z
" id="DejaVuSans-Oblique-76"/>
      <path d="M 41.109375 46.296875 
Q 39.59375 47.171875 37.8125 47.578125 
Q 36.03125 48 33.890625 48 
Q 26.265625 48 22.1875 43.046875 
Q 18.109375 38.09375 18.109375 28.8125 
L 18.109375 0 
L 9.078125 0 
L 9.078125 54.6875 
L 18.109375 54.6875 
L 18.109375 46.1875 
Q 20.953125 51.171875 25.484375 53.578125 
Q 30.03125 56 36.53125 56 
Q 37.453125 56 38.578125 55.875 
Q 39.703125 55.765625 41.0625 55.515625 
z
" id="DejaVuSans-114"/>
     </defs>
     <use transform="translate(0 0.765625)" xlink:href="#DejaVuSans-82"/>
     <use transform="translate(69.482422 0.765625)" xlink:href="#DejaVuSans-101"/>
     <use transform="translate(131.005859 0.765625)" xlink:href="#DejaVuSans-108"/>
     <use transform="translate(158.789062 0.765625)" xlink:href="#DejaVuSans-46"/>
     <use transform="translate(190.576172 0.765625)" xlink:href="#DejaVuSans-32"/>
     <use transform="translate(222.363281 0.765625)" xlink:href="#DejaVuSans-Oblique-76"/>
     <use transform="translate(285.092943 39.046875)scale(0.7)" xlink:href="#DejaVuSans-50"/>
     <use transform="translate(332.363451 0.765625)" xlink:href="#DejaVuSans-32"/>
     <use transform="translate(364.15056 0.765625)" xlink:href="#DejaVuSans-101"/>
     <use transform="translate(425.673997 0.765625)" xlink:href="#DejaVuSans-114"/>
     <use transform="translate(466.787279 0.765625)" xlink:href="#DejaVuSans-114"/>
     <use transform="translate(507.90056 0.765625)" xlink:href="#DejaVuSans-111"/>
     <use transform="translate(569.082201 0.765625)" xlink:href="#DejaVuSans-114"/>
     <use transform="translate(610.195482 0.765625)" xlink:href="#DejaVuSans-32"/>
     <use transform="translate(641.982591 0.765625)" xlink:href="#STIXNonUnicode-Italic-57905"/>
     <use transform="translate(698.23961 -15.640625)scale(0.7)" xlink:href="#DejaVuSans-Oblique-952"/>
    </g>
   </g>
  </g>
 </g>
 <defs>
  <clipPath id="pc885e80a22">
   <rect height="321.218182" width="279" x="45" y="112.32"/>
  </clipPath>
  <clipPath id="p7d2c709457">
   <rect height="321.218182" width="279" x="45" y="497.781818"/>
  </clipPath>
 </defs>
</svg>
