<?xml version="1.0" encoding="utf-8" standalone="no"?>
<!DOCTYPE svg PUBLIC "-//W3C//DTD SVG 1.1//EN"
  "http://www.w3.org/Graphics/SVG/1.1/DTD/svg11.dtd">
<!-- Created with matplotlib (https://matplotlib.org/) -->
<svg height="936pt" version="1.1" viewBox="0 0 360 936" width="360pt" xmlns="http://www.w3.org/2000/svg" xmlns:xlink="http://www.w3.org/1999/xlink">
 <metadata>
  <rdf:RDF xmlns:cc="http://creativecommons.org/ns#" xmlns:dc="http://purl.org/dc/elements/1.1/" xmlns:rdf="http://www.w3.org/1999/02/22-rdf-syntax-ns#">
   <cc:Work>
    <dc:type rdf:resource="http://purl.org/dc/dcmitype/StillImage"/>
    <dc:date>2022-09-09T14:40:10.716973</dc:date>
    <dc:format>image/svg+xml</dc:format>
    <dc:creator>
     <cc:Agent>
      <dc:title>Matplotlib v3.3.4, https://matplotlib.org/</dc:title>
     </cc:Agent>
    </dc:creator>
   </cc:Work>
  </rdf:RDF>
 </metadata>
 <defs>
  <style type="text/css">*{stroke-linecap:butt;stroke-linejoin:round;}</style>
 </defs>
 <g id="figure_1">
  <g id="patch_1">
   <path d="M 0 936 
L 360 936 
L 360 0 
L 0 0 
z
" style="fill:none;"/>
  </g>
  <g id="axes_1">
   <g id="patch_2">
    <path d="M 45 433.538182 
L 324 433.538182 
L 324 112.32 
L 45 112.32 
z
" style="fill:#ffffff;"/>
   </g>
   <g id="matplotlib.axis_1">
    <g id="xtick_1">
     <g id="line2d_1">
      <path clip-path="url(#p2ea1019056)" d="M 79.875 433.538182 
L 79.875 112.32 
" style="fill:none;stroke:#808080;stroke-linecap:square;stroke-width:0.8;"/>
     </g>
     <g id="line2d_2">
      <defs>
       <path d="M 0 0 
L 0 3.5 
" id="m95721abb69" style="stroke:#000000;stroke-width:0.8;"/>
      </defs>
      <g>
       <use style="stroke:#000000;stroke-width:0.8;" x="79.875" xlink:href="#m95721abb69" y="433.538182"/>
      </g>
     </g>
     <g id="text_1">
      <!-- 1 -->
      <g transform="translate(76.69375 448.136619)scale(0.1 -0.1)">
       <defs>
        <path d="M 12.40625 8.296875 
L 28.515625 8.296875 
L 28.515625 63.921875 
L 10.984375 60.40625 
L 10.984375 69.390625 
L 28.421875 72.90625 
L 38.28125 72.90625 
L 38.28125 8.296875 
L 54.390625 8.296875 
L 54.390625 0 
L 12.40625 0 
z
" id="DejaVuSans-49"/>
       </defs>
       <use xlink:href="#DejaVuSans-49"/>
      </g>
     </g>
    </g>
    <g id="xtick_2">
     <g id="line2d_3">
      <path clip-path="url(#p2ea1019056)" d="M 149.625 433.538182 
L 149.625 112.32 
" style="fill:none;stroke:#808080;stroke-linecap:square;stroke-width:0.8;"/>
     </g>
     <g id="line2d_4">
      <g>
       <use style="stroke:#000000;stroke-width:0.8;" x="149.625" xlink:href="#m95721abb69" y="433.538182"/>
      </g>
     </g>
     <g id="text_2">
      <!-- 2 -->
      <g transform="translate(146.44375 448.136619)scale(0.1 -0.1)">
       <defs>
        <path d="M 19.1875 8.296875 
L 53.609375 8.296875 
L 53.609375 0 
L 7.328125 0 
L 7.328125 8.296875 
Q 12.9375 14.109375 22.625 23.890625 
Q 32.328125 33.6875 34.8125 36.53125 
Q 39.546875 41.84375 41.421875 45.53125 
Q 43.3125 49.21875 43.3125 52.78125 
Q 43.3125 58.59375 39.234375 62.25 
Q 35.15625 65.921875 28.609375 65.921875 
Q 23.96875 65.921875 18.8125 64.3125 
Q 13.671875 62.703125 7.8125 59.421875 
L 7.8125 69.390625 
Q 13.765625 71.78125 18.9375 73 
Q 24.125 74.21875 28.421875 74.21875 
Q 39.75 74.21875 46.484375 68.546875 
Q 53.21875 62.890625 53.21875 53.421875 
Q 53.21875 48.921875 51.53125 44.890625 
Q 49.859375 40.875 45.40625 35.40625 
Q 44.1875 33.984375 37.640625 27.21875 
Q 31.109375 20.453125 19.1875 8.296875 
z
" id="DejaVuSans-50"/>
       </defs>
       <use xlink:href="#DejaVuSans-50"/>
      </g>
     </g>
    </g>
    <g id="xtick_3">
     <g id="line2d_5">
      <path clip-path="url(#p2ea1019056)" d="M 219.375 433.538182 
L 219.375 112.32 
" style="fill:none;stroke:#808080;stroke-linecap:square;stroke-width:0.8;"/>
     </g>
     <g id="line2d_6">
      <g>
       <use style="stroke:#000000;stroke-width:0.8;" x="219.375" xlink:href="#m95721abb69" y="433.538182"/>
      </g>
     </g>
     <g id="text_3">
      <!-- 4 -->
      <g transform="translate(216.19375 448.136619)scale(0.1 -0.1)">
       <defs>
        <path d="M 37.796875 64.3125 
L 12.890625 25.390625 
L 37.796875 25.390625 
z
M 35.203125 72.90625 
L 47.609375 72.90625 
L 47.609375 25.390625 
L 58.015625 25.390625 
L 58.015625 17.1875 
L 47.609375 17.1875 
L 47.609375 0 
L 37.796875 0 
L 37.796875 17.1875 
L 4.890625 17.1875 
L 4.890625 26.703125 
z
" id="DejaVuSans-52"/>
       </defs>
       <use xlink:href="#DejaVuSans-52"/>
      </g>
     </g>
    </g>
    <g id="xtick_4">
     <g id="line2d_7">
      <path clip-path="url(#p2ea1019056)" d="M 289.125 433.538182 
L 289.125 112.32 
" style="fill:none;stroke:#808080;stroke-linecap:square;stroke-width:0.8;"/>
     </g>
     <g id="line2d_8">
      <g>
       <use style="stroke:#000000;stroke-width:0.8;" x="289.125" xlink:href="#m95721abb69" y="433.538182"/>
      </g>
     </g>
     <g id="text_4">
      <!-- 8 -->
      <g transform="translate(285.94375 448.136619)scale(0.1 -0.1)">
       <defs>
        <path d="M 31.78125 34.625 
Q 24.75 34.625 20.71875 30.859375 
Q 16.703125 27.09375 16.703125 20.515625 
Q 16.703125 13.921875 20.71875 10.15625 
Q 24.75 6.390625 31.78125 6.390625 
Q 38.8125 6.390625 42.859375 10.171875 
Q 46.921875 13.96875 46.921875 20.515625 
Q 46.921875 27.09375 42.890625 30.859375 
Q 38.875 34.625 31.78125 34.625 
z
M 21.921875 38.8125 
Q 15.578125 40.375 12.03125 44.71875 
Q 8.5 49.078125 8.5 55.328125 
Q 8.5 64.0625 14.71875 69.140625 
Q 20.953125 74.21875 31.78125 74.21875 
Q 42.671875 74.21875 48.875 69.140625 
Q 55.078125 64.0625 55.078125 55.328125 
Q 55.078125 49.078125 51.53125 44.71875 
Q 48 40.375 41.703125 38.8125 
Q 48.828125 37.15625 52.796875 32.3125 
Q 56.78125 27.484375 56.78125 20.515625 
Q 56.78125 9.90625 50.3125 4.234375 
Q 43.84375 -1.421875 31.78125 -1.421875 
Q 19.734375 -1.421875 13.25 4.234375 
Q 6.78125 9.90625 6.78125 20.515625 
Q 6.78125 27.484375 10.78125 32.3125 
Q 14.796875 37.15625 21.921875 38.8125 
z
M 18.3125 54.390625 
Q 18.3125 48.734375 21.84375 45.5625 
Q 25.390625 42.390625 31.78125 42.390625 
Q 38.140625 42.390625 41.71875 45.5625 
Q 45.3125 48.734375 45.3125 54.390625 
Q 45.3125 60.0625 41.71875 63.234375 
Q 38.140625 66.40625 31.78125 66.40625 
Q 25.390625 66.40625 21.84375 63.234375 
Q 18.3125 60.0625 18.3125 54.390625 
z
" id="DejaVuSans-56"/>
       </defs>
       <use xlink:href="#DejaVuSans-56"/>
      </g>
     </g>
    </g>
    <g id="text_5">
     <!-- size -->
     <g transform="translate(172.866562 463.334432)scale(0.12 -0.12)">
      <defs>
       <path d="M 44.28125 53.078125 
L 44.28125 44.578125 
Q 40.484375 46.53125 36.375 47.5 
Q 32.28125 48.484375 27.875 48.484375 
Q 21.1875 48.484375 17.84375 46.4375 
Q 14.5 44.390625 14.5 40.28125 
Q 14.5 37.15625 16.890625 35.375 
Q 19.28125 33.59375 26.515625 31.984375 
L 29.59375 31.296875 
Q 39.15625 29.25 43.1875 25.515625 
Q 47.21875 21.78125 47.21875 15.09375 
Q 47.21875 7.46875 41.1875 3.015625 
Q 35.15625 -1.421875 24.609375 -1.421875 
Q 20.21875 -1.421875 15.453125 -0.5625 
Q 10.6875 0.296875 5.421875 2 
L 5.421875 11.28125 
Q 10.40625 8.6875 15.234375 7.390625 
Q 20.0625 6.109375 24.8125 6.109375 
Q 31.15625 6.109375 34.5625 8.28125 
Q 37.984375 10.453125 37.984375 14.40625 
Q 37.984375 18.0625 35.515625 20.015625 
Q 33.0625 21.96875 24.703125 23.78125 
L 21.578125 24.515625 
Q 13.234375 26.265625 9.515625 29.90625 
Q 5.8125 33.546875 5.8125 39.890625 
Q 5.8125 47.609375 11.28125 51.796875 
Q 16.75 56 26.8125 56 
Q 31.78125 56 36.171875 55.265625 
Q 40.578125 54.546875 44.28125 53.078125 
z
" id="DejaVuSans-115"/>
       <path d="M 9.421875 54.6875 
L 18.40625 54.6875 
L 18.40625 0 
L 9.421875 0 
z
M 9.421875 75.984375 
L 18.40625 75.984375 
L 18.40625 64.59375 
L 9.421875 64.59375 
z
" id="DejaVuSans-105"/>
       <path d="M 5.515625 54.6875 
L 48.1875 54.6875 
L 48.1875 46.484375 
L 14.40625 7.171875 
L 48.1875 7.171875 
L 48.1875 0 
L 4.296875 0 
L 4.296875 8.203125 
L 38.09375 47.515625 
L 5.515625 47.515625 
z
" id="DejaVuSans-122"/>
       <path d="M 56.203125 29.59375 
L 56.203125 25.203125 
L 14.890625 25.203125 
Q 15.484375 15.921875 20.484375 11.0625 
Q 25.484375 6.203125 34.421875 6.203125 
Q 39.59375 6.203125 44.453125 7.46875 
Q 49.3125 8.734375 54.109375 11.28125 
L 54.109375 2.78125 
Q 49.265625 0.734375 44.1875 -0.34375 
Q 39.109375 -1.421875 33.890625 -1.421875 
Q 20.796875 -1.421875 13.15625 6.1875 
Q 5.515625 13.8125 5.515625 26.8125 
Q 5.515625 40.234375 12.765625 48.109375 
Q 20.015625 56 32.328125 56 
Q 43.359375 56 49.78125 48.890625 
Q 56.203125 41.796875 56.203125 29.59375 
z
M 47.21875 32.234375 
Q 47.125 39.59375 43.09375 43.984375 
Q 39.0625 48.390625 32.421875 48.390625 
Q 24.90625 48.390625 20.390625 44.140625 
Q 15.875 39.890625 15.1875 32.171875 
z
" id="DejaVuSans-101"/>
      </defs>
      <use xlink:href="#DejaVuSans-115"/>
      <use x="52.099609" xlink:href="#DejaVuSans-105"/>
      <use x="79.882812" xlink:href="#DejaVuSans-122"/>
      <use x="132.373047" xlink:href="#DejaVuSans-101"/>
     </g>
    </g>
   </g>
   <g id="matplotlib.axis_2">
    <g id="ytick_1">
     <g id="line2d_9">
      <path clip-path="url(#p2ea1019056)" d="M 45 430.371069 
L 324 430.371069 
" style="fill:none;stroke:#808080;stroke-linecap:square;stroke-width:0.8;"/>
     </g>
     <g id="line2d_10">
      <defs>
       <path d="M 0 0 
L -3.5 0 
" id="m62f6e30c59" style="stroke:#000000;stroke-width:0.8;"/>
      </defs>
      <g>
       <use style="stroke:#000000;stroke-width:0.8;" x="45" xlink:href="#m62f6e30c59" y="430.371069"/>
      </g>
     </g>
     <g id="text_6">
      <!-- −8 -->
      <g transform="translate(23.257812 434.170288)scale(0.1 -0.1)">
       <defs>
        <path d="M 10.59375 35.5 
L 73.1875 35.5 
L 73.1875 27.203125 
L 10.59375 27.203125 
z
" id="DejaVuSans-8722"/>
       </defs>
       <use xlink:href="#DejaVuSans-8722"/>
       <use x="83.789062" xlink:href="#DejaVuSans-56"/>
      </g>
     </g>
    </g>
    <g id="ytick_2">
     <g id="line2d_11">
      <path clip-path="url(#p2ea1019056)" d="M 45 386.14823 
L 324 386.14823 
" style="fill:none;stroke:#808080;stroke-linecap:square;stroke-width:0.8;"/>
     </g>
     <g id="line2d_12">
      <g>
       <use style="stroke:#000000;stroke-width:0.8;" x="45" xlink:href="#m62f6e30c59" y="386.14823"/>
      </g>
     </g>
     <g id="text_7">
      <!-- −7 -->
      <g transform="translate(23.257812 389.947448)scale(0.1 -0.1)">
       <defs>
        <path d="M 8.203125 72.90625 
L 55.078125 72.90625 
L 55.078125 68.703125 
L 28.609375 0 
L 18.3125 0 
L 43.21875 64.59375 
L 8.203125 64.59375 
z
" id="DejaVuSans-55"/>
       </defs>
       <use xlink:href="#DejaVuSans-8722"/>
       <use x="83.789062" xlink:href="#DejaVuSans-55"/>
      </g>
     </g>
    </g>
    <g id="ytick_3">
     <g id="line2d_13">
      <path clip-path="url(#p2ea1019056)" d="M 45 341.92539 
L 324 341.92539 
" style="fill:none;stroke:#808080;stroke-linecap:square;stroke-width:0.8;"/>
     </g>
     <g id="line2d_14">
      <g>
       <use style="stroke:#000000;stroke-width:0.8;" x="45" xlink:href="#m62f6e30c59" y="341.92539"/>
      </g>
     </g>
     <g id="text_8">
      <!-- −6 -->
      <g transform="translate(23.257812 345.724609)scale(0.1 -0.1)">
       <defs>
        <path d="M 33.015625 40.375 
Q 26.375 40.375 22.484375 35.828125 
Q 18.609375 31.296875 18.609375 23.390625 
Q 18.609375 15.53125 22.484375 10.953125 
Q 26.375 6.390625 33.015625 6.390625 
Q 39.65625 6.390625 43.53125 10.953125 
Q 47.40625 15.53125 47.40625 23.390625 
Q 47.40625 31.296875 43.53125 35.828125 
Q 39.65625 40.375 33.015625 40.375 
z
M 52.59375 71.296875 
L 52.59375 62.3125 
Q 48.875 64.0625 45.09375 64.984375 
Q 41.3125 65.921875 37.59375 65.921875 
Q 27.828125 65.921875 22.671875 59.328125 
Q 17.53125 52.734375 16.796875 39.40625 
Q 19.671875 43.65625 24.015625 45.921875 
Q 28.375 48.1875 33.59375 48.1875 
Q 44.578125 48.1875 50.953125 41.515625 
Q 57.328125 34.859375 57.328125 23.390625 
Q 57.328125 12.15625 50.6875 5.359375 
Q 44.046875 -1.421875 33.015625 -1.421875 
Q 20.359375 -1.421875 13.671875 8.265625 
Q 6.984375 17.96875 6.984375 36.375 
Q 6.984375 53.65625 15.1875 63.9375 
Q 23.390625 74.21875 37.203125 74.21875 
Q 40.921875 74.21875 44.703125 73.484375 
Q 48.484375 72.75 52.59375 71.296875 
z
" id="DejaVuSans-54"/>
       </defs>
       <use xlink:href="#DejaVuSans-8722"/>
       <use x="83.789062" xlink:href="#DejaVuSans-54"/>
      </g>
     </g>
    </g>
    <g id="ytick_4">
     <g id="line2d_15">
      <path clip-path="url(#p2ea1019056)" d="M 45 297.70255 
L 324 297.70255 
" style="fill:none;stroke:#808080;stroke-linecap:square;stroke-width:0.8;"/>
     </g>
     <g id="line2d_16">
      <g>
       <use style="stroke:#000000;stroke-width:0.8;" x="45" xlink:href="#m62f6e30c59" y="297.70255"/>
      </g>
     </g>
     <g id="text_9">
      <!-- −5 -->
      <g transform="translate(23.257812 301.501769)scale(0.1 -0.1)">
       <defs>
        <path d="M 10.796875 72.90625 
L 49.515625 72.90625 
L 49.515625 64.59375 
L 19.828125 64.59375 
L 19.828125 46.734375 
Q 21.96875 47.46875 24.109375 47.828125 
Q 26.265625 48.1875 28.421875 48.1875 
Q 40.625 48.1875 47.75 41.5 
Q 54.890625 34.8125 54.890625 23.390625 
Q 54.890625 11.625 47.5625 5.09375 
Q 40.234375 -1.421875 26.90625 -1.421875 
Q 22.3125 -1.421875 17.546875 -0.640625 
Q 12.796875 0.140625 7.71875 1.703125 
L 7.71875 11.625 
Q 12.109375 9.234375 16.796875 8.0625 
Q 21.484375 6.890625 26.703125 6.890625 
Q 35.15625 6.890625 40.078125 11.328125 
Q 45.015625 15.765625 45.015625 23.390625 
Q 45.015625 31 40.078125 35.4375 
Q 35.15625 39.890625 26.703125 39.890625 
Q 22.75 39.890625 18.8125 39.015625 
Q 14.890625 38.140625 10.796875 36.28125 
z
" id="DejaVuSans-53"/>
       </defs>
       <use xlink:href="#DejaVuSans-8722"/>
       <use x="83.789062" xlink:href="#DejaVuSans-53"/>
      </g>
     </g>
    </g>
    <g id="ytick_5">
     <g id="line2d_17">
      <path clip-path="url(#p2ea1019056)" d="M 45 253.479711 
L 324 253.479711 
" style="fill:none;stroke:#808080;stroke-linecap:square;stroke-width:0.8;"/>
     </g>
     <g id="line2d_18">
      <g>
       <use style="stroke:#000000;stroke-width:0.8;" x="45" xlink:href="#m62f6e30c59" y="253.479711"/>
      </g>
     </g>
     <g id="text_10">
      <!-- −4 -->
      <g transform="translate(23.257812 257.278929)scale(0.1 -0.1)">
       <use xlink:href="#DejaVuSans-8722"/>
       <use x="83.789062" xlink:href="#DejaVuSans-52"/>
      </g>
     </g>
    </g>
    <g id="ytick_6">
     <g id="line2d_19">
      <path clip-path="url(#p2ea1019056)" d="M 45 209.256871 
L 324 209.256871 
" style="fill:none;stroke:#808080;stroke-linecap:square;stroke-width:0.8;"/>
     </g>
     <g id="line2d_20">
      <g>
       <use style="stroke:#000000;stroke-width:0.8;" x="45" xlink:href="#m62f6e30c59" y="209.256871"/>
      </g>
     </g>
     <g id="text_11">
      <!-- −3 -->
      <g transform="translate(23.257812 213.05609)scale(0.1 -0.1)">
       <defs>
        <path d="M 40.578125 39.3125 
Q 47.65625 37.796875 51.625 33 
Q 55.609375 28.21875 55.609375 21.1875 
Q 55.609375 10.40625 48.1875 4.484375 
Q 40.765625 -1.421875 27.09375 -1.421875 
Q 22.515625 -1.421875 17.65625 -0.515625 
Q 12.796875 0.390625 7.625 2.203125 
L 7.625 11.71875 
Q 11.71875 9.328125 16.59375 8.109375 
Q 21.484375 6.890625 26.8125 6.890625 
Q 36.078125 6.890625 40.9375 10.546875 
Q 45.796875 14.203125 45.796875 21.1875 
Q 45.796875 27.640625 41.28125 31.265625 
Q 36.765625 34.90625 28.71875 34.90625 
L 20.21875 34.90625 
L 20.21875 43.015625 
L 29.109375 43.015625 
Q 36.375 43.015625 40.234375 45.921875 
Q 44.09375 48.828125 44.09375 54.296875 
Q 44.09375 59.90625 40.109375 62.90625 
Q 36.140625 65.921875 28.71875 65.921875 
Q 24.65625 65.921875 20.015625 65.03125 
Q 15.375 64.15625 9.8125 62.3125 
L 9.8125 71.09375 
Q 15.4375 72.65625 20.34375 73.4375 
Q 25.25 74.21875 29.59375 74.21875 
Q 40.828125 74.21875 47.359375 69.109375 
Q 53.90625 64.015625 53.90625 55.328125 
Q 53.90625 49.265625 50.4375 45.09375 
Q 46.96875 40.921875 40.578125 39.3125 
z
" id="DejaVuSans-51"/>
       </defs>
       <use xlink:href="#DejaVuSans-8722"/>
       <use x="83.789062" xlink:href="#DejaVuSans-51"/>
      </g>
     </g>
    </g>
    <g id="ytick_7">
     <g id="line2d_21">
      <path clip-path="url(#p2ea1019056)" d="M 45 165.034031 
L 324 165.034031 
" style="fill:none;stroke:#808080;stroke-linecap:square;stroke-width:0.8;"/>
     </g>
     <g id="line2d_22">
      <g>
       <use style="stroke:#000000;stroke-width:0.8;" x="45" xlink:href="#m62f6e30c59" y="165.034031"/>
      </g>
     </g>
     <g id="text_12">
      <!-- −2 -->
      <g transform="translate(23.257812 168.83325)scale(0.1 -0.1)">
       <use xlink:href="#DejaVuSans-8722"/>
       <use x="83.789062" xlink:href="#DejaVuSans-50"/>
      </g>
     </g>
    </g>
    <g id="ytick_8">
     <g id="line2d_23">
      <path clip-path="url(#p2ea1019056)" d="M 45 120.811192 
L 324 120.811192 
" style="fill:none;stroke:#808080;stroke-linecap:square;stroke-width:0.8;"/>
     </g>
     <g id="line2d_24">
      <g>
       <use style="stroke:#000000;stroke-width:0.8;" x="45" xlink:href="#m62f6e30c59" y="120.811192"/>
      </g>
     </g>
     <g id="text_13">
      <!-- −1 -->
      <g transform="translate(23.257812 124.610411)scale(0.1 -0.1)">
       <use xlink:href="#DejaVuSans-8722"/>
       <use x="83.789062" xlink:href="#DejaVuSans-49"/>
      </g>
     </g>
    </g>
    <g id="text_14">
     <!-- $\log_{10}(\mathcal{L}_\theta)$ -->
     <g transform="translate(16.737812 299.329091)rotate(-90)scale(0.12 -0.12)">
      <defs>
       <path d="M 9.421875 75.984375 
L 18.40625 75.984375 
L 18.40625 0 
L 9.421875 0 
z
" id="DejaVuSans-108"/>
       <path d="M 30.609375 48.390625 
Q 23.390625 48.390625 19.1875 42.75 
Q 14.984375 37.109375 14.984375 27.296875 
Q 14.984375 17.484375 19.15625 11.84375 
Q 23.34375 6.203125 30.609375 6.203125 
Q 37.796875 6.203125 41.984375 11.859375 
Q 46.1875 17.53125 46.1875 27.296875 
Q 46.1875 37.015625 41.984375 42.703125 
Q 37.796875 48.390625 30.609375 48.390625 
z
M 30.609375 56 
Q 42.328125 56 49.015625 48.375 
Q 55.71875 40.765625 55.71875 27.296875 
Q 55.71875 13.875 49.015625 6.21875 
Q 42.328125 -1.421875 30.609375 -1.421875 
Q 18.84375 -1.421875 12.171875 6.21875 
Q 5.515625 13.875 5.515625 27.296875 
Q 5.515625 40.765625 12.171875 48.375 
Q 18.84375 56 30.609375 56 
z
" id="DejaVuSans-111"/>
       <path d="M 45.40625 27.984375 
Q 45.40625 37.75 41.375 43.109375 
Q 37.359375 48.484375 30.078125 48.484375 
Q 22.859375 48.484375 18.828125 43.109375 
Q 14.796875 37.75 14.796875 27.984375 
Q 14.796875 18.265625 18.828125 12.890625 
Q 22.859375 7.515625 30.078125 7.515625 
Q 37.359375 7.515625 41.375 12.890625 
Q 45.40625 18.265625 45.40625 27.984375 
z
M 54.390625 6.78125 
Q 54.390625 -7.171875 48.1875 -13.984375 
Q 42 -20.796875 29.203125 -20.796875 
Q 24.46875 -20.796875 20.265625 -20.09375 
Q 16.0625 -19.390625 12.109375 -17.921875 
L 12.109375 -9.1875 
Q 16.0625 -11.328125 19.921875 -12.34375 
Q 23.78125 -13.375 27.78125 -13.375 
Q 36.625 -13.375 41.015625 -8.765625 
Q 45.40625 -4.15625 45.40625 5.171875 
L 45.40625 9.625 
Q 42.625 4.78125 38.28125 2.390625 
Q 33.9375 0 27.875 0 
Q 17.828125 0 11.671875 7.65625 
Q 5.515625 15.328125 5.515625 27.984375 
Q 5.515625 40.671875 11.671875 48.328125 
Q 17.828125 56 27.875 56 
Q 33.9375 56 38.28125 53.609375 
Q 42.625 51.21875 45.40625 46.390625 
L 45.40625 54.6875 
L 54.390625 54.6875 
z
" id="DejaVuSans-103"/>
       <path d="M 31.78125 66.40625 
Q 24.171875 66.40625 20.328125 58.90625 
Q 16.5 51.421875 16.5 36.375 
Q 16.5 21.390625 20.328125 13.890625 
Q 24.171875 6.390625 31.78125 6.390625 
Q 39.453125 6.390625 43.28125 13.890625 
Q 47.125 21.390625 47.125 36.375 
Q 47.125 51.421875 43.28125 58.90625 
Q 39.453125 66.40625 31.78125 66.40625 
z
M 31.78125 74.21875 
Q 44.046875 74.21875 50.515625 64.515625 
Q 56.984375 54.828125 56.984375 36.375 
Q 56.984375 17.96875 50.515625 8.265625 
Q 44.046875 -1.421875 31.78125 -1.421875 
Q 19.53125 -1.421875 13.0625 8.265625 
Q 6.59375 17.96875 6.59375 36.375 
Q 6.59375 54.828125 13.0625 64.515625 
Q 19.53125 74.21875 31.78125 74.21875 
z
" id="DejaVuSans-48"/>
       <path d="M 31 75.875 
Q 24.46875 64.65625 21.28125 53.65625 
Q 18.109375 42.671875 18.109375 31.390625 
Q 18.109375 20.125 21.3125 9.0625 
Q 24.515625 -2 31 -13.1875 
L 23.1875 -13.1875 
Q 15.875 -1.703125 12.234375 9.375 
Q 8.59375 20.453125 8.59375 31.390625 
Q 8.59375 42.28125 12.203125 53.3125 
Q 15.828125 64.359375 23.1875 75.875 
z
" id="DejaVuSans-40"/>
       <path d="M 63.59375 14.296875 
L 65.296875 12.5 
Q 52.296875 -0.703125 37.703125 -0.703125 
Q 33.703125 -0.703125 28.90625 0.40625 
Q 21.796875 1.90625 17.90625 1.90625 
Q 15.703125 1.90625 10.5 0.953125 
Q 5.296875 0 3 0 
L 3.59375 2.40625 
Q 9.09375 2.40625 11.40625 11.703125 
L 18.40625 40.09375 
Q 20.09375 47 23.6875 52.390625 
Q 27.296875 57.796875 31.640625 60.84375 
Q 36 63.90625 40.390625 65.453125 
Q 44.796875 67 48.796875 67 
Q 53.796875 67 56.140625 63.796875 
Q 58.5 60.59375 58.5 56 
Q 58.5 52.296875 56.140625 50 
Q 53.796875 47.703125 50.40625 47.703125 
Q 48.203125 47.703125 46.796875 49.203125 
Q 45.40625 50.703125 45.40625 52.796875 
Q 45.40625 54.40625 46.203125 55.5 
Q 47 56.59375 47.890625 56.9375 
Q 48.796875 57.296875 49.59375 57.890625 
Q 50.40625 58.5 50.40625 59.203125 
Q 50.40625 63 44.59375 63 
Q 39.40625 63 36.09375 59.140625 
Q 32.796875 55.296875 31.09375 48.9375 
Q 29.40625 42.59375 28.046875 35.6875 
Q 26.703125 28.796875 24.203125 21.296875 
Q 21.703125 13.796875 18.09375 9.203125 
L 18.09375 8.796875 
Q 21.296875 11 29.5 11 
Q 34.796875 11 38.4375 8.5 
Q 42.09375 6 46.296875 6 
Q 54.796875 6 63.59375 14.296875 
z
" id="STIXNonUnicode-Italic-57912"/>
       <path d="M 45.515625 34.671875 
L 14.453125 34.671875 
Q 12.359375 20.0625 14.5 13.875 
Q 17.1875 6.25 24.46875 6.25 
Q 31.78125 6.25 37.359375 13.921875 
Q 42.234375 20.65625 45.515625 34.671875 
z
M 47.015625 42.96875 
Q 48.34375 56.84375 46.625 61.71875 
Q 43.953125 69.4375 36.765625 69.4375 
Q 29.296875 69.4375 23.828125 61.8125 
Q 19.53125 55.671875 16.15625 42.96875 
z
M 38.1875 76.765625 
Q 49.90625 76.765625 54.59375 66.40625 
Q 59.28125 56.109375 55.71875 37.84375 
Q 52.203125 19.625 43.453125 9.28125 
Q 34.765625 -1.125 23.046875 -1.125 
Q 11.28125 -1.125 6.640625 9.28125 
Q 2 19.625 5.515625 37.84375 
Q 9.078125 56.109375 17.71875 66.40625 
Q 26.421875 76.765625 38.1875 76.765625 
z
" id="DejaVuSans-Oblique-952"/>
       <path d="M 8.015625 75.875 
L 15.828125 75.875 
Q 23.140625 64.359375 26.78125 53.3125 
Q 30.421875 42.28125 30.421875 31.390625 
Q 30.421875 20.453125 26.78125 9.375 
Q 23.140625 -1.703125 15.828125 -13.1875 
L 8.015625 -13.1875 
Q 14.5 -2 17.703125 9.0625 
Q 20.90625 20.125 20.90625 31.390625 
Q 20.90625 42.671875 17.703125 53.65625 
Q 14.5 64.65625 8.015625 75.875 
z
" id="DejaVuSans-41"/>
      </defs>
      <use transform="translate(0 0.015625)" xlink:href="#DejaVuSans-108"/>
      <use transform="translate(27.783203 0.015625)" xlink:href="#DejaVuSans-111"/>
      <use transform="translate(88.964844 0.015625)" xlink:href="#DejaVuSans-103"/>
      <use transform="translate(153.398438 -16.390625)scale(0.7)" xlink:href="#DejaVuSans-49"/>
      <use transform="translate(197.93457 -16.390625)scale(0.7)" xlink:href="#DejaVuSans-48"/>
      <use transform="translate(245.205078 0.015625)" xlink:href="#DejaVuSans-40"/>
      <use transform="translate(284.21875 0.015625)" xlink:href="#STIXNonUnicode-Italic-57912"/>
      <use transform="translate(354.475769 -16.390625)scale(0.7)" xlink:href="#DejaVuSans-Oblique-952"/>
      <use transform="translate(400.037292 0.015625)" xlink:href="#DejaVuSans-41"/>
     </g>
    </g>
   </g>
   <g id="PolyCollection_1">
    <defs>
     <path d="M 80.906647 -562.024787 
L 78.843353 -562.024787 
L 78.637877 -564.520286 
L 78.401547 -567.015785 
L 78.131935 -569.511284 
L 77.826863 -572.006783 
L 77.484512 -574.502281 
L 77.103512 -576.99778 
L 76.68305 -579.493279 
L 76.222958 -581.988778 
L 75.723799 -584.484277 
L 75.186926 -586.979776 
L 74.614524 -589.475274 
L 74.009629 -591.970773 
L 73.376107 -594.466272 
L 72.71861 -596.961771 
L 72.042488 -599.45727 
L 71.353676 -601.952769 
L 70.658548 -604.448268 
L 69.963744 -606.943766 
L 69.275973 -609.439265 
L 68.601816 -611.934764 
L 67.947516 -614.430263 
L 67.318776 -616.925762 
L 66.720578 -619.421261 
L 66.15703 -621.91676 
L 65.631243 -624.412258 
L 65.145253 -626.907757 
L 64.699998 -629.403256 
L 64.295333 -631.898755 
L 63.930108 -634.394254 
L 63.602284 -636.889753 
L 63.309101 -639.385252 
L 63.047268 -641.88075 
L 62.81319 -644.376249 
L 62.603192 -646.871748 
L 62.413762 -649.367247 
L 62.241761 -651.862746 
L 62.084617 -654.358245 
L 61.940491 -656.853744 
L 61.808381 -659.349242 
L 61.68819 -661.844741 
L 61.580737 -664.34024 
L 61.487708 -666.835739 
L 61.411563 -669.331238 
L 61.355395 -671.826737 
L 61.322755 -674.322235 
L 61.317441 -676.817734 
L 61.343282 -679.313233 
L 61.403917 -681.808732 
L 61.502575 -684.304231 
L 61.641889 -686.79973 
L 61.823727 -689.295229 
L 62.049074 -691.790727 
L 62.31795 -694.286226 
L 62.62938 -696.781725 
L 62.981413 -699.277224 
L 63.37119 -701.772723 
L 63.795045 -704.268222 
L 64.248653 -706.763721 
L 64.727195 -709.259219 
L 65.225548 -711.754718 
L 65.738481 -714.250217 
L 66.260839 -716.745716 
L 66.787728 -719.241215 
L 67.314667 -721.736714 
L 67.837721 -724.232213 
L 68.353592 -726.727711 
L 68.859678 -729.22321 
L 69.35409 -731.718709 
L 69.83564 -734.214208 
L 70.303787 -736.709707 
L 70.758558 -739.205206 
L 71.200443 -741.700705 
L 71.630285 -744.196203 
L 72.049147 -746.691702 
L 72.458191 -749.187201 
L 72.858562 -751.6827 
L 73.251276 -754.178199 
L 73.63714 -756.673698 
L 74.016687 -759.169196 
L 74.390132 -761.664695 
L 74.757359 -764.160194 
L 75.117928 -766.655693 
L 75.471102 -769.151192 
L 75.815895 -771.646691 
L 76.15113 -774.14219 
L 76.475509 -776.637688 
L 76.787681 -779.133187 
L 77.086317 -781.628686 
L 77.370176 -784.124185 
L 77.63816 -786.619684 
L 77.889367 -789.115183 
L 78.123122 -791.610682 
L 78.339001 -794.10618 
L 78.536842 -796.601679 
L 78.716737 -799.097178 
L 78.879024 -801.592677 
L 79.024263 -804.088176 
L 79.153205 -806.583675 
L 79.266758 -809.079174 
L 80.483242 -809.079174 
L 80.483242 -809.079174 
L 80.596795 -806.583675 
L 80.725737 -804.088176 
L 80.870976 -801.592677 
L 81.033263 -799.097178 
L 81.213158 -796.601679 
L 81.410999 -794.10618 
L 81.626878 -791.610682 
L 81.860633 -789.115183 
L 82.11184 -786.619684 
L 82.379824 -784.124185 
L 82.663683 -781.628686 
L 82.962319 -779.133187 
L 83.274491 -776.637688 
L 83.59887 -774.14219 
L 83.934105 -771.646691 
L 84.278898 -769.151192 
L 84.632072 -766.655693 
L 84.992641 -764.160194 
L 85.359868 -761.664695 
L 85.733313 -759.169196 
L 86.11286 -756.673698 
L 86.498724 -754.178199 
L 86.891438 -751.6827 
L 87.291809 -749.187201 
L 87.700853 -746.691702 
L 88.119715 -744.196203 
L 88.549557 -741.700705 
L 88.991442 -739.205206 
L 89.446213 -736.709707 
L 89.91436 -734.214208 
L 90.39591 -731.718709 
L 90.890322 -729.22321 
L 91.396408 -726.727711 
L 91.912279 -724.232213 
L 92.435333 -721.736714 
L 92.962272 -719.241215 
L 93.489161 -716.745716 
L 94.011519 -714.250217 
L 94.524452 -711.754718 
L 95.022805 -709.259219 
L 95.501347 -706.763721 
L 95.954955 -704.268222 
L 96.37881 -701.772723 
L 96.768587 -699.277224 
L 97.12062 -696.781725 
L 97.43205 -694.286226 
L 97.700926 -691.790727 
L 97.926273 -689.295229 
L 98.108111 -686.79973 
L 98.247425 -684.304231 
L 98.346083 -681.808732 
L 98.406718 -679.313233 
L 98.432559 -676.817734 
L 98.427245 -674.322235 
L 98.394605 -671.826737 
L 98.338437 -669.331238 
L 98.262292 -666.835739 
L 98.169263 -664.34024 
L 98.06181 -661.844741 
L 97.941619 -659.349242 
L 97.809509 -656.853744 
L 97.665383 -654.358245 
L 97.508239 -651.862746 
L 97.336238 -649.367247 
L 97.146808 -646.871748 
L 96.93681 -644.376249 
L 96.702732 -641.88075 
L 96.440899 -639.385252 
L 96.147716 -636.889753 
L 95.819892 -634.394254 
L 95.454667 -631.898755 
L 95.050002 -629.403256 
L 94.604747 -626.907757 
L 94.118757 -624.412258 
L 93.59297 -621.91676 
L 93.029422 -619.421261 
L 92.431224 -616.925762 
L 91.802484 -614.430263 
L 91.148184 -611.934764 
L 90.474027 -609.439265 
L 89.786256 -606.943766 
L 89.091452 -604.448268 
L 88.396324 -601.952769 
L 87.707512 -599.45727 
L 87.03139 -596.961771 
L 86.373893 -594.466272 
L 85.740371 -591.970773 
L 85.135476 -589.475274 
L 84.563074 -586.979776 
L 84.026201 -584.484277 
L 83.527042 -581.988778 
L 83.06695 -579.493279 
L 82.646488 -576.99778 
L 82.265488 -574.502281 
L 81.923137 -572.006783 
L 81.618065 -569.511284 
L 81.348453 -567.015785 
L 81.112123 -564.520286 
L 80.906647 -562.024787 
z
" id="maea7ac019e"/>
    </defs>
    <g clip-path="url(#p2ea1019056)">
     <use style="fill:#ce1e5c;" x="0" xlink:href="#maea7ac019e" y="936"/>
    </g>
   </g>
   <g id="PolyCollection_2">
    <defs>
     <path d="M 150.472339 -555.10192 
L 148.777661 -555.10192 
L 148.614491 -556.935457 
L 148.428909 -558.768995 
L 148.219741 -560.602533 
L 147.986117 -562.43607 
L 147.727525 -564.269608 
L 147.443865 -566.103146 
L 147.135474 -567.936683 
L 146.803148 -569.770221 
L 146.448127 -571.603758 
L 146.072064 -573.437296 
L 145.676966 -575.270834 
L 145.265107 -577.104371 
L 144.838919 -578.937909 
L 144.400866 -580.771447 
L 143.953301 -582.604984 
L 143.49832 -584.438522 
L 143.037622 -586.272059 
L 142.572379 -588.105597 
L 142.103135 -589.939135 
L 141.629732 -591.772672 
L 141.151285 -593.60621 
L 140.666193 -595.439748 
L 140.172212 -597.273285 
L 139.666568 -599.106823 
L 139.146117 -600.94036 
L 138.607544 -602.773898 
L 138.047592 -604.607436 
L 137.463298 -606.440973 
L 136.85224 -608.274511 
L 136.212753 -610.108049 
L 135.544133 -611.941586 
L 134.846783 -613.775124 
L 134.122308 -615.608661 
L 133.373551 -617.442199 
L 132.604561 -619.275737 
L 131.820493 -621.109274 
L 131.027454 -622.942812 
L 130.232296 -624.77635 
L 129.442369 -626.609887 
L 128.66526 -628.443425 
L 127.908513 -630.276962 
L 127.179374 -632.1105 
L 126.484557 -633.944038 
L 125.830047 -635.777575 
L 125.220959 -637.611113 
L 124.661456 -639.444651 
L 124.154721 -641.278188 
L 123.702992 -643.111726 
L 123.307646 -644.945263 
L 122.969329 -646.778801 
L 122.688112 -648.612339 
L 122.463672 -650.445876 
L 122.295463 -652.279414 
L 122.182889 -654.112952 
L 122.125447 -655.946489 
L 122.122832 -657.780027 
L 122.175017 -659.613564 
L 122.282269 -661.447102 
L 122.445139 -663.28064 
L 122.6644 -665.114177 
L 122.940956 -666.947715 
L 123.275719 -668.781253 
L 123.669474 -670.61479 
L 124.122735 -672.448328 
L 124.635604 -674.281865 
L 125.207643 -676.115403 
L 125.837763 -677.948941 
L 126.524151 -679.782478 
L 127.26421 -681.616016 
L 128.054551 -683.449554 
L 128.890998 -685.283091 
L 129.768643 -687.116629 
L 130.681912 -688.950166 
L 131.624663 -690.783704 
L 132.5903 -692.617242 
L 133.571899 -694.450779 
L 134.562344 -696.284317 
L 135.554462 -698.117855 
L 136.541158 -699.951392 
L 137.515546 -701.78493 
L 138.47107 -703.618467 
L 139.401614 -705.452005 
L 140.301595 -707.285543 
L 141.166045 -709.11908 
L 141.990674 -710.952618 
L 142.771916 -712.786156 
L 143.506957 -714.619693 
L 144.193746 -716.453231 
L 144.830985 -718.286768 
L 145.418105 -720.120306 
L 145.955229 -721.953844 
L 146.443116 -723.787381 
L 146.883097 -725.620919 
L 147.277002 -727.454457 
L 147.627079 -729.287994 
L 147.935913 -731.121532 
L 148.206336 -732.955069 
L 148.441353 -734.788607 
L 148.644057 -736.622145 
L 150.605943 -736.622145 
L 150.605943 -736.622145 
L 150.808647 -734.788607 
L 151.043664 -732.955069 
L 151.314087 -731.121532 
L 151.622921 -729.287994 
L 151.972998 -727.454457 
L 152.366903 -725.620919 
L 152.806884 -723.787381 
L 153.294771 -721.953844 
L 153.831895 -720.120306 
L 154.419015 -718.286768 
L 155.056254 -716.453231 
L 155.743043 -714.619693 
L 156.478084 -712.786156 
L 157.259326 -710.952618 
L 158.083955 -709.11908 
L 158.948405 -707.285543 
L 159.848386 -705.452005 
L 160.77893 -703.618467 
L 161.734454 -701.78493 
L 162.708842 -699.951392 
L 163.695538 -698.117855 
L 164.687656 -696.284317 
L 165.678101 -694.450779 
L 166.6597 -692.617242 
L 167.625337 -690.783704 
L 168.568088 -688.950166 
L 169.481357 -687.116629 
L 170.359002 -685.283091 
L 171.195449 -683.449554 
L 171.98579 -681.616016 
L 172.725849 -679.782478 
L 173.412237 -677.948941 
L 174.042357 -676.115403 
L 174.614396 -674.281865 
L 175.127265 -672.448328 
L 175.580526 -670.61479 
L 175.974281 -668.781253 
L 176.309044 -666.947715 
L 176.5856 -665.114177 
L 176.804861 -663.28064 
L 176.967731 -661.447102 
L 177.074983 -659.613564 
L 177.127168 -657.780027 
L 177.124553 -655.946489 
L 177.067111 -654.112952 
L 176.954537 -652.279414 
L 176.786328 -650.445876 
L 176.561888 -648.612339 
L 176.280671 -646.778801 
L 175.942354 -644.945263 
L 175.547008 -643.111726 
L 175.095279 -641.278188 
L 174.588544 -639.444651 
L 174.029041 -637.611113 
L 173.419953 -635.777575 
L 172.765443 -633.944038 
L 172.070626 -632.1105 
L 171.341487 -630.276962 
L 170.58474 -628.443425 
L 169.807631 -626.609887 
L 169.017704 -624.77635 
L 168.222546 -622.942812 
L 167.429507 -621.109274 
L 166.645439 -619.275737 
L 165.876449 -617.442199 
L 165.127692 -615.608661 
L 164.403217 -613.775124 
L 163.705867 -611.941586 
L 163.037247 -610.108049 
L 162.39776 -608.274511 
L 161.786702 -606.440973 
L 161.202408 -604.607436 
L 160.642456 -602.773898 
L 160.103883 -600.94036 
L 159.583432 -599.106823 
L 159.077788 -597.273285 
L 158.583807 -595.439748 
L 158.098715 -593.60621 
L 157.620268 -591.772672 
L 157.146865 -589.939135 
L 156.677621 -588.105597 
L 156.212378 -586.272059 
L 155.75168 -584.438522 
L 155.296699 -582.604984 
L 154.849134 -580.771447 
L 154.411081 -578.937909 
L 153.984893 -577.104371 
L 153.573034 -575.270834 
L 153.177936 -573.437296 
L 152.801873 -571.603758 
L 152.446852 -569.770221 
L 152.114526 -567.936683 
L 151.806135 -566.103146 
L 151.522475 -564.269608 
L 151.263883 -562.43607 
L 151.030259 -560.602533 
L 150.821091 -558.768995 
L 150.635509 -556.935457 
L 150.472339 -555.10192 
z
" id="m4e32003bfd"/>
    </defs>
    <g clip-path="url(#p2ea1019056)">
     <use style="fill:#e05230;" x="0" xlink:href="#m4e32003bfd" y="936"/>
    </g>
   </g>
   <g id="PolyCollection_3">
    <defs>
     <path d="M 220.140208 -517.062645 
L 218.609792 -517.062645 
L 218.451726 -519.50882 
L 218.267733 -521.954996 
L 218.054975 -524.401171 
L 217.810562 -526.847347 
L 217.531604 -529.293522 
L 217.215258 -531.739698 
L 216.858791 -534.185873 
L 216.459649 -536.632049 
L 216.015522 -539.078224 
L 215.524424 -541.5244 
L 214.984769 -543.970575 
L 214.395456 -546.416751 
L 213.755949 -548.862926 
L 213.06636 -551.309102 
L 212.327534 -553.755277 
L 211.54112 -556.201453 
L 210.709648 -558.647628 
L 209.836586 -561.093804 
L 208.926394 -563.539979 
L 207.984551 -565.986155 
L 207.017572 -568.43233 
L 206.032993 -570.878506 
L 205.039334 -573.324681 
L 204.046025 -575.770857 
L 203.063302 -578.217032 
L 202.102062 -580.663208 
L 201.173691 -583.109383 
L 200.289846 -585.555559 
L 199.462218 -588.001734 
L 198.702259 -590.44791 
L 198.020896 -592.894085 
L 197.428238 -595.340261 
L 196.933276 -597.786436 
L 196.543605 -600.232612 
L 196.26516 -602.678787 
L 196.101999 -605.124963 
L 196.056128 -607.571139 
L 196.127376 -610.017314 
L 196.313347 -612.46349 
L 196.609428 -614.909665 
L 197.008879 -617.355841 
L 197.502985 -619.802016 
L 198.081272 -622.248192 
L 198.731792 -624.694367 
L 199.441446 -627.140543 
L 200.196348 -629.586718 
L 200.982212 -632.032894 
L 201.784746 -634.479069 
L 202.590048 -636.925245 
L 203.384965 -639.37142 
L 204.157438 -641.817596 
L 204.896791 -644.263771 
L 205.593966 -646.709947 
L 206.241703 -649.156122 
L 206.83465 -651.602298 
L 207.369414 -654.048473 
L 207.844533 -656.494649 
L 208.260409 -658.940824 
L 208.619164 -661.387 
L 208.924464 -663.833175 
L 209.1813 -666.279351 
L 209.395738 -668.725526 
L 209.574657 -671.171702 
L 209.725473 -673.617877 
L 209.855869 -676.064053 
L 209.973536 -678.510228 
L 210.085927 -680.956404 
L 210.200043 -683.402579 
L 210.322243 -685.848755 
L 210.458088 -688.29493 
L 210.612229 -690.741106 
L 210.78832 -693.187281 
L 210.988974 -695.633457 
L 211.215754 -698.079632 
L 211.469199 -700.525808 
L 211.748872 -702.971983 
L 212.053442 -705.418159 
L 212.380784 -707.864334 
L 212.728097 -710.31051 
L 213.092036 -712.756685 
L 213.468845 -715.202861 
L 213.854501 -717.649036 
L 214.244849 -720.095212 
L 214.635734 -722.541387 
L 215.023123 -724.987563 
L 215.40321 -727.433739 
L 215.772508 -729.879914 
L 216.127924 -732.32609 
L 216.466809 -734.772265 
L 216.786996 -737.218441 
L 217.086818 -739.664616 
L 217.365104 -742.110792 
L 217.621161 -744.556967 
L 217.854747 -747.003143 
L 218.06603 -749.449318 
L 218.255534 -751.895494 
L 218.424088 -754.341669 
L 218.572771 -756.787845 
L 218.702847 -759.23402 
L 220.047153 -759.23402 
L 220.047153 -759.23402 
L 220.177229 -756.787845 
L 220.325912 -754.341669 
L 220.494466 -751.895494 
L 220.68397 -749.449318 
L 220.895253 -747.003143 
L 221.128839 -744.556967 
L 221.384896 -742.110792 
L 221.663182 -739.664616 
L 221.963004 -737.218441 
L 222.283191 -734.772265 
L 222.622076 -732.32609 
L 222.977492 -729.879914 
L 223.34679 -727.433739 
L 223.726877 -724.987563 
L 224.114266 -722.541387 
L 224.505151 -720.095212 
L 224.895499 -717.649036 
L 225.281155 -715.202861 
L 225.657964 -712.756685 
L 226.021903 -710.31051 
L 226.369216 -707.864334 
L 226.696558 -705.418159 
L 227.001128 -702.971983 
L 227.280801 -700.525808 
L 227.534246 -698.079632 
L 227.761026 -695.633457 
L 227.96168 -693.187281 
L 228.137771 -690.741106 
L 228.291912 -688.29493 
L 228.427757 -685.848755 
L 228.549957 -683.402579 
L 228.664073 -680.956404 
L 228.776464 -678.510228 
L 228.894131 -676.064053 
L 229.024527 -673.617877 
L 229.175343 -671.171702 
L 229.354262 -668.725526 
L 229.5687 -666.279351 
L 229.825536 -663.833175 
L 230.130836 -661.387 
L 230.489591 -658.940824 
L 230.905467 -656.494649 
L 231.380586 -654.048473 
L 231.91535 -651.602298 
L 232.508297 -649.156122 
L 233.156034 -646.709947 
L 233.853209 -644.263771 
L 234.592562 -641.817596 
L 235.365035 -639.37142 
L 236.159952 -636.925245 
L 236.965254 -634.479069 
L 237.767788 -632.032894 
L 238.553652 -629.586718 
L 239.308554 -627.140543 
L 240.018208 -624.694367 
L 240.668728 -622.248192 
L 241.247015 -619.802016 
L 241.741121 -617.355841 
L 242.140572 -614.909665 
L 242.436653 -612.46349 
L 242.622624 -610.017314 
L 242.693872 -607.571139 
L 242.648001 -605.124963 
L 242.48484 -602.678787 
L 242.206395 -600.232612 
L 241.816724 -597.786436 
L 241.321762 -595.340261 
L 240.729104 -592.894085 
L 240.047741 -590.44791 
L 239.287782 -588.001734 
L 238.460154 -585.555559 
L 237.576309 -583.109383 
L 236.647938 -580.663208 
L 235.686698 -578.217032 
L 234.703975 -575.770857 
L 233.710666 -573.324681 
L 232.717007 -570.878506 
L 231.732428 -568.43233 
L 230.765449 -565.986155 
L 229.823606 -563.539979 
L 228.913414 -561.093804 
L 228.040352 -558.647628 
L 227.20888 -556.201453 
L 226.422466 -553.755277 
L 225.68364 -551.309102 
L 224.994051 -548.862926 
L 224.354544 -546.416751 
L 223.765231 -543.970575 
L 223.225576 -541.5244 
L 222.734478 -539.078224 
L 222.290351 -536.632049 
L 221.891209 -534.185873 
L 221.534742 -531.739698 
L 221.218396 -529.293522 
L 220.939438 -526.847347 
L 220.695025 -524.401171 
L 220.482267 -521.954996 
L 220.298274 -519.50882 
L 220.140208 -517.062645 
z
" id="m93bed6d27d"/>
    </defs>
    <g clip-path="url(#p2ea1019056)">
     <use style="fill:#379d4b;" x="0" xlink:href="#m93bed6d27d" y="936"/>
    </g>
   </g>
   <g id="PolyCollection_4">
    <defs>
     <path d="M 290.612017 -572.095977 
L 287.637983 -572.095977 
L 287.336378 -574.043773 
L 286.986939 -575.991569 
L 286.585034 -577.939364 
L 286.126188 -579.88716 
L 285.606229 -581.834956 
L 285.021441 -583.782752 
L 284.368737 -585.730548 
L 283.645841 -587.678344 
L 282.851459 -589.62614 
L 281.985459 -591.573936 
L 281.049029 -593.521731 
L 280.044815 -595.469527 
L 278.977032 -597.417323 
L 277.85154 -599.365119 
L 276.675866 -601.312915 
L 275.459194 -603.260711 
L 274.212277 -605.208507 
L 272.947315 -607.156303 
L 271.677758 -609.104098 
L 270.418068 -611.051894 
L 269.183419 -612.99969 
L 267.989367 -614.947486 
L 266.851477 -616.895282 
L 265.784937 -618.843078 
L 264.804163 -620.790874 
L 263.92241 -622.738669 
L 263.151411 -624.686465 
L 262.501046 -626.634261 
L 261.979068 -628.582057 
L 261.590882 -630.529853 
L 261.339407 -632.477649 
L 261.225 -634.425445 
L 261.245469 -636.373241 
L 261.396161 -638.321036 
L 261.670118 -640.268832 
L 262.058312 -642.216628 
L 262.549924 -644.164424 
L 263.132674 -646.11222 
L 263.793183 -648.060016 
L 264.517348 -650.007812 
L 265.290722 -651.955608 
L 266.098887 -653.903403 
L 266.927794 -655.851199 
L 267.764084 -657.798995 
L 268.595357 -659.746791 
L 269.4104 -661.694587 
L 270.199363 -663.642383 
L 270.953885 -665.590179 
L 271.667169 -667.537974 
L 272.334012 -669.48577 
L 272.95079 -671.433566 
L 273.515407 -673.381362 
L 274.027213 -675.329158 
L 274.48689 -677.276954 
L 274.896328 -679.22475 
L 275.258478 -681.172546 
L 275.577201 -683.120341 
L 275.857105 -685.068137 
L 276.103388 -687.015933 
L 276.321677 -688.963729 
L 276.51787 -690.911525 
L 276.697993 -692.859321 
L 276.868049 -694.807117 
L 277.03389 -696.754913 
L 277.201092 -698.702708 
L 277.374841 -700.650504 
L 277.559834 -702.5983 
L 277.760195 -704.546096 
L 277.979399 -706.493892 
L 278.220221 -708.441688 
L 278.484693 -710.389484 
L 278.774084 -712.33728 
L 279.088897 -714.285075 
L 279.428882 -716.232871 
L 279.793071 -718.180667 
L 280.179823 -720.128463 
L 280.586889 -722.076259 
L 281.011495 -724.024055 
L 281.450424 -725.971851 
L 281.900121 -727.919646 
L 282.356794 -729.867442 
L 282.81652 -731.815238 
L 283.275353 -733.763034 
L 283.729421 -735.71083 
L 284.175024 -737.658626 
L 284.608718 -739.606422 
L 285.027383 -741.554218 
L 285.428285 -743.502013 
L 285.809113 -745.449809 
L 286.168015 -747.397605 
L 286.503599 -749.345401 
L 286.814938 -751.293197 
L 287.101551 -753.240993 
L 287.363372 -755.188789 
L 287.600717 -757.136585 
L 287.814237 -759.08438 
L 288.004869 -761.032176 
L 288.173781 -762.979972 
L 288.322324 -764.927768 
L 289.927676 -764.927768 
L 289.927676 -764.927768 
L 290.076219 -762.979972 
L 290.245131 -761.032176 
L 290.435763 -759.08438 
L 290.649283 -757.136585 
L 290.886628 -755.188789 
L 291.148449 -753.240993 
L 291.435062 -751.293197 
L 291.746401 -749.345401 
L 292.081985 -747.397605 
L 292.440887 -745.449809 
L 292.821715 -743.502013 
L 293.222617 -741.554218 
L 293.641282 -739.606422 
L 294.074976 -737.658626 
L 294.520579 -735.71083 
L 294.974647 -733.763034 
L 295.43348 -731.815238 
L 295.893206 -729.867442 
L 296.349879 -727.919646 
L 296.799576 -725.971851 
L 297.238505 -724.024055 
L 297.663111 -722.076259 
L 298.070177 -720.128463 
L 298.456929 -718.180667 
L 298.821118 -716.232871 
L 299.161103 -714.285075 
L 299.475916 -712.33728 
L 299.765307 -710.389484 
L 300.029779 -708.441688 
L 300.270601 -706.493892 
L 300.489805 -704.546096 
L 300.690166 -702.5983 
L 300.875159 -700.650504 
L 301.048908 -698.702708 
L 301.21611 -696.754913 
L 301.381951 -694.807117 
L 301.552007 -692.859321 
L 301.73213 -690.911525 
L 301.928323 -688.963729 
L 302.146612 -687.015933 
L 302.392895 -685.068137 
L 302.672799 -683.120341 
L 302.991522 -681.172546 
L 303.353672 -679.22475 
L 303.76311 -677.276954 
L 304.222787 -675.329158 
L 304.734593 -673.381362 
L 305.29921 -671.433566 
L 305.915988 -669.48577 
L 306.582831 -667.537974 
L 307.296115 -665.590179 
L 308.050637 -663.642383 
L 308.8396 -661.694587 
L 309.654643 -659.746791 
L 310.485916 -657.798995 
L 311.322206 -655.851199 
L 312.151113 -653.903403 
L 312.959278 -651.955608 
L 313.732652 -650.007812 
L 314.456817 -648.060016 
L 315.117326 -646.11222 
L 315.700076 -644.164424 
L 316.191688 -642.216628 
L 316.579882 -640.268832 
L 316.853839 -638.321036 
L 317.004531 -636.373241 
L 317.025 -634.425445 
L 316.910593 -632.477649 
L 316.659118 -630.529853 
L 316.270932 -628.582057 
L 315.748954 -626.634261 
L 315.098589 -624.686465 
L 314.32759 -622.738669 
L 313.445837 -620.790874 
L 312.465063 -618.843078 
L 311.398523 -616.895282 
L 310.260633 -614.947486 
L 309.066581 -612.99969 
L 307.831932 -611.051894 
L 306.572242 -609.104098 
L 305.302685 -607.156303 
L 304.037723 -605.208507 
L 302.790806 -603.260711 
L 301.574134 -601.312915 
L 300.39846 -599.365119 
L 299.272968 -597.417323 
L 298.205185 -595.469527 
L 297.200971 -593.521731 
L 296.264541 -591.573936 
L 295.398541 -589.62614 
L 294.604159 -587.678344 
L 293.881263 -585.730548 
L 293.228559 -583.782752 
L 292.643771 -581.834956 
L 292.123812 -579.88716 
L 291.664966 -577.939364 
L 291.263061 -575.991569 
L 290.913622 -574.043773 
L 290.612017 -572.095977 
z
" id="m3ad6c5c9bc"/>
    </defs>
    <g clip-path="url(#p2ea1019056)">
     <use style="fill:#3d63a0;" x="0" xlink:href="#m3ad6c5c9bc" y="936"/>
    </g>
   </g>
   <g id="line2d_25">
    <path clip-path="url(#p2ea1019056)" d="M 79.875 315.59624 
L 79.875 185.299799 
" style="fill:none;stroke:#404040;stroke-linecap:square;stroke-width:1.5;"/>
   </g>
   <g id="line2d_26">
    <path clip-path="url(#p2ea1019056)" d="M 79.875 296.996806 
L 79.875 241.293963 
" style="fill:none;stroke:#404040;stroke-linecap:square;stroke-width:4.5;"/>
   </g>
   <g id="line2d_27">
    <path clip-path="url(#p2ea1019056)" d="M 149.625 339.618748 
L 149.625 240.657187 
" style="fill:none;stroke:#404040;stroke-linecap:square;stroke-width:1.5;"/>
   </g>
   <g id="line2d_28">
    <path clip-path="url(#p2ea1019056)" d="M 149.625 301.274168 
L 149.625 261.600535 
" style="fill:none;stroke:#404040;stroke-linecap:square;stroke-width:4.5;"/>
   </g>
   <g id="line2d_29">
    <path clip-path="url(#p2ea1019056)" d="M 219.375 362.32341 
L 219.375 259.433068 
" style="fill:none;stroke:#404040;stroke-linecap:square;stroke-width:1.5;"/>
   </g>
   <g id="line2d_30">
    <path clip-path="url(#p2ea1019056)" d="M 219.375 334.38052 
L 219.375 295.23422 
" style="fill:none;stroke:#404040;stroke-linecap:square;stroke-width:4.5;"/>
   </g>
   <g id="line2d_31">
    <path clip-path="url(#p2ea1019056)" d="M 289.125 316.996663 
L 289.125 217.979592 
" style="fill:none;stroke:#404040;stroke-linecap:square;stroke-width:1.5;"/>
   </g>
   <g id="line2d_32">
    <path clip-path="url(#p2ea1019056)" d="M 289.125 303.533829 
L 289.125 262.490858 
" style="fill:none;stroke:#404040;stroke-linecap:square;stroke-width:4.5;"/>
   </g>
   <g id="patch_3">
    <path d="M 45 433.538182 
L 45 112.32 
" style="fill:none;stroke:#000000;stroke-linecap:square;stroke-linejoin:miter;stroke-width:0.8;"/>
   </g>
   <g id="patch_4">
    <path d="M 324 433.538182 
L 324 112.32 
" style="fill:none;stroke:#000000;stroke-linecap:square;stroke-linejoin:miter;stroke-width:0.8;"/>
   </g>
   <g id="patch_5">
    <path d="M 45 433.538182 
L 324 433.538182 
" style="fill:none;stroke:#000000;stroke-linecap:square;stroke-linejoin:miter;stroke-width:0.8;"/>
   </g>
   <g id="patch_6">
    <path d="M 45 112.32 
L 324 112.32 
" style="fill:none;stroke:#000000;stroke-linecap:square;stroke-linejoin:miter;stroke-width:0.8;"/>
   </g>
   <g id="PathCollection_1">
    <defs>
     <path d="M 0 1.5 
C 0.397805 1.5 0.77937 1.341951 1.06066 1.06066 
C 1.341951 0.77937 1.5 0.397805 1.5 0 
C 1.5 -0.397805 1.341951 -0.77937 1.06066 -1.06066 
C 0.77937 -1.341951 0.397805 -1.5 0 -1.5 
C -0.397805 -1.5 -0.77937 -1.341951 -1.06066 -1.06066 
C -1.341951 -0.77937 -1.5 -0.397805 -1.5 0 
C -1.5 0.397805 -1.341951 0.77937 -1.06066 1.06066 
C -0.77937 1.341951 -0.397805 1.5 0 1.5 
z
" id="m360bf2b840"/>
    </defs>
    <g clip-path="url(#p2ea1019056)">
     <use style="fill:#ffffff;" x="79.875" xlink:href="#m360bf2b840" y="255.831406"/>
    </g>
   </g>
   <g id="PathCollection_2">
    <g clip-path="url(#p2ea1019056)">
     <use style="fill:#ffffff;" x="149.625" xlink:href="#m360bf2b840" y="283.028609"/>
    </g>
   </g>
   <g id="PathCollection_3">
    <g clip-path="url(#p2ea1019056)">
     <use style="fill:#ffffff;" x="219.375" xlink:href="#m360bf2b840" y="323.526831"/>
    </g>
   </g>
   <g id="PathCollection_4">
    <g clip-path="url(#p2ea1019056)">
     <use style="fill:#ffffff;" x="289.125" xlink:href="#m360bf2b840" y="297.643139"/>
    </g>
   </g>
   <g id="text_15">
    <!-- Loss $\mathcal{L}_\theta$ -->
    <g transform="translate(162.36 106.32)scale(0.12 -0.12)">
     <defs>
      <path d="M 9.8125 72.90625 
L 19.671875 72.90625 
L 19.671875 8.296875 
L 55.171875 8.296875 
L 55.171875 0 
L 9.8125 0 
z
" id="DejaVuSans-76"/>
      <path id="DejaVuSans-32"/>
     </defs>
     <use transform="translate(0 0.09375)" xlink:href="#DejaVuSans-76"/>
     <use transform="translate(55.712891 0.09375)" xlink:href="#DejaVuSans-111"/>
     <use transform="translate(116.894531 0.09375)" xlink:href="#DejaVuSans-115"/>
     <use transform="translate(168.994141 0.09375)" xlink:href="#DejaVuSans-115"/>
     <use transform="translate(221.09375 0.09375)" xlink:href="#DejaVuSans-32"/>
     <use transform="translate(252.880859 0.09375)" xlink:href="#STIXNonUnicode-Italic-57912"/>
     <use transform="translate(323.137878 -16.3125)scale(0.7)" xlink:href="#DejaVuSans-Oblique-952"/>
    </g>
   </g>
  </g>
  <g id="axes_2">
   <g id="patch_7">
    <path d="M 45 819 
L 324 819 
L 324 497.781818 
L 45 497.781818 
z
" style="fill:#ffffff;"/>
   </g>
   <g id="matplotlib.axis_3">
    <g id="xtick_5">
     <g id="line2d_33">
      <path clip-path="url(#p2e5290dafe)" d="M 79.875 819 
L 79.875 497.781818 
" style="fill:none;stroke:#808080;stroke-linecap:square;stroke-width:0.8;"/>
     </g>
     <g id="line2d_34">
      <g>
       <use style="stroke:#000000;stroke-width:0.8;" x="79.875" xlink:href="#m95721abb69" y="819"/>
      </g>
     </g>
     <g id="text_16">
      <!-- 1 -->
      <g transform="translate(76.69375 833.598437)scale(0.1 -0.1)">
       <use xlink:href="#DejaVuSans-49"/>
      </g>
     </g>
    </g>
    <g id="xtick_6">
     <g id="line2d_35">
      <path clip-path="url(#p2e5290dafe)" d="M 149.625 819 
L 149.625 497.781818 
" style="fill:none;stroke:#808080;stroke-linecap:square;stroke-width:0.8;"/>
     </g>
     <g id="line2d_36">
      <g>
       <use style="stroke:#000000;stroke-width:0.8;" x="149.625" xlink:href="#m95721abb69" y="819"/>
      </g>
     </g>
     <g id="text_17">
      <!-- 2 -->
      <g transform="translate(146.44375 833.598437)scale(0.1 -0.1)">
       <use xlink:href="#DejaVuSans-50"/>
      </g>
     </g>
    </g>
    <g id="xtick_7">
     <g id="line2d_37">
      <path clip-path="url(#p2e5290dafe)" d="M 219.375 819 
L 219.375 497.781818 
" style="fill:none;stroke:#808080;stroke-linecap:square;stroke-width:0.8;"/>
     </g>
     <g id="line2d_38">
      <g>
       <use style="stroke:#000000;stroke-width:0.8;" x="219.375" xlink:href="#m95721abb69" y="819"/>
      </g>
     </g>
     <g id="text_18">
      <!-- 4 -->
      <g transform="translate(216.19375 833.598437)scale(0.1 -0.1)">
       <use xlink:href="#DejaVuSans-52"/>
      </g>
     </g>
    </g>
    <g id="xtick_8">
     <g id="line2d_39">
      <path clip-path="url(#p2e5290dafe)" d="M 289.125 819 
L 289.125 497.781818 
" style="fill:none;stroke:#808080;stroke-linecap:square;stroke-width:0.8;"/>
     </g>
     <g id="line2d_40">
      <g>
       <use style="stroke:#000000;stroke-width:0.8;" x="289.125" xlink:href="#m95721abb69" y="819"/>
      </g>
     </g>
     <g id="text_19">
      <!-- 8 -->
      <g transform="translate(285.94375 833.598437)scale(0.1 -0.1)">
       <use xlink:href="#DejaVuSans-56"/>
      </g>
     </g>
    </g>
    <g id="text_20">
     <!-- size -->
     <g transform="translate(172.866562 848.79625)scale(0.12 -0.12)">
      <use xlink:href="#DejaVuSans-115"/>
      <use x="52.099609" xlink:href="#DejaVuSans-105"/>
      <use x="79.882812" xlink:href="#DejaVuSans-122"/>
      <use x="132.373047" xlink:href="#DejaVuSans-101"/>
     </g>
    </g>
   </g>
   <g id="matplotlib.axis_4">
    <g id="ytick_9">
     <g id="line2d_41">
      <path clip-path="url(#p2e5290dafe)" d="M 45 782.2867 
L 324 782.2867 
" style="fill:none;stroke:#808080;stroke-linecap:square;stroke-width:0.8;"/>
     </g>
     <g id="line2d_42">
      <g>
       <use style="stroke:#000000;stroke-width:0.8;" x="45" xlink:href="#m62f6e30c59" y="782.2867"/>
      </g>
     </g>
     <g id="text_21">
      <!-- −3.0 -->
      <g transform="translate(13.717187 786.085919)scale(0.1 -0.1)">
       <defs>
        <path d="M 10.6875 12.40625 
L 21 12.40625 
L 21 0 
L 10.6875 0 
z
" id="DejaVuSans-46"/>
       </defs>
       <use xlink:href="#DejaVuSans-8722"/>
       <use x="83.789062" xlink:href="#DejaVuSans-51"/>
       <use x="147.412109" xlink:href="#DejaVuSans-46"/>
       <use x="179.199219" xlink:href="#DejaVuSans-48"/>
      </g>
     </g>
    </g>
    <g id="ytick_10">
     <g id="line2d_43">
      <path clip-path="url(#p2e5290dafe)" d="M 45 728.739477 
L 324 728.739477 
" style="fill:none;stroke:#808080;stroke-linecap:square;stroke-width:0.8;"/>
     </g>
     <g id="line2d_44">
      <g>
       <use style="stroke:#000000;stroke-width:0.8;" x="45" xlink:href="#m62f6e30c59" y="728.739477"/>
      </g>
     </g>
     <g id="text_22">
      <!-- −2.5 -->
      <g transform="translate(13.717187 732.538696)scale(0.1 -0.1)">
       <use xlink:href="#DejaVuSans-8722"/>
       <use x="83.789062" xlink:href="#DejaVuSans-50"/>
       <use x="147.412109" xlink:href="#DejaVuSans-46"/>
       <use x="179.199219" xlink:href="#DejaVuSans-53"/>
      </g>
     </g>
    </g>
    <g id="ytick_11">
     <g id="line2d_45">
      <path clip-path="url(#p2e5290dafe)" d="M 45 675.192254 
L 324 675.192254 
" style="fill:none;stroke:#808080;stroke-linecap:square;stroke-width:0.8;"/>
     </g>
     <g id="line2d_46">
      <g>
       <use style="stroke:#000000;stroke-width:0.8;" x="45" xlink:href="#m62f6e30c59" y="675.192254"/>
      </g>
     </g>
     <g id="text_23">
      <!-- −2.0 -->
      <g transform="translate(13.717187 678.991473)scale(0.1 -0.1)">
       <use xlink:href="#DejaVuSans-8722"/>
       <use x="83.789062" xlink:href="#DejaVuSans-50"/>
       <use x="147.412109" xlink:href="#DejaVuSans-46"/>
       <use x="179.199219" xlink:href="#DejaVuSans-48"/>
      </g>
     </g>
    </g>
    <g id="ytick_12">
     <g id="line2d_47">
      <path clip-path="url(#p2e5290dafe)" d="M 45 621.645031 
L 324 621.645031 
" style="fill:none;stroke:#808080;stroke-linecap:square;stroke-width:0.8;"/>
     </g>
     <g id="line2d_48">
      <g>
       <use style="stroke:#000000;stroke-width:0.8;" x="45" xlink:href="#m62f6e30c59" y="621.645031"/>
      </g>
     </g>
     <g id="text_24">
      <!-- −1.5 -->
      <g transform="translate(13.717187 625.44425)scale(0.1 -0.1)">
       <use xlink:href="#DejaVuSans-8722"/>
       <use x="83.789062" xlink:href="#DejaVuSans-49"/>
       <use x="147.412109" xlink:href="#DejaVuSans-46"/>
       <use x="179.199219" xlink:href="#DejaVuSans-53"/>
      </g>
     </g>
    </g>
    <g id="ytick_13">
     <g id="line2d_49">
      <path clip-path="url(#p2e5290dafe)" d="M 45 568.097808 
L 324 568.097808 
" style="fill:none;stroke:#808080;stroke-linecap:square;stroke-width:0.8;"/>
     </g>
     <g id="line2d_50">
      <g>
       <use style="stroke:#000000;stroke-width:0.8;" x="45" xlink:href="#m62f6e30c59" y="568.097808"/>
      </g>
     </g>
     <g id="text_25">
      <!-- −1.0 -->
      <g transform="translate(13.717187 571.897027)scale(0.1 -0.1)">
       <use xlink:href="#DejaVuSans-8722"/>
       <use x="83.789062" xlink:href="#DejaVuSans-49"/>
       <use x="147.412109" xlink:href="#DejaVuSans-46"/>
       <use x="179.199219" xlink:href="#DejaVuSans-48"/>
      </g>
     </g>
    </g>
    <g id="ytick_14">
     <g id="line2d_51">
      <path clip-path="url(#p2e5290dafe)" d="M 45 514.550586 
L 324 514.550586 
" style="fill:none;stroke:#808080;stroke-linecap:square;stroke-width:0.8;"/>
     </g>
     <g id="line2d_52">
      <g>
       <use style="stroke:#000000;stroke-width:0.8;" x="45" xlink:href="#m62f6e30c59" y="514.550586"/>
      </g>
     </g>
     <g id="text_26">
      <!-- −0.5 -->
      <g transform="translate(13.717187 518.349804)scale(0.1 -0.1)">
       <use xlink:href="#DejaVuSans-8722"/>
       <use x="83.789062" xlink:href="#DejaVuSans-48"/>
       <use x="147.412109" xlink:href="#DejaVuSans-46"/>
       <use x="179.199219" xlink:href="#DejaVuSans-53"/>
      </g>
     </g>
    </g>
    <g id="text_27">
     <!-- $\log_{10}(\mathcal{E}_\theta)$ -->
     <g transform="translate(7.197187 683.950909)rotate(-90)scale(0.12 -0.12)">
      <defs>
       <path d="M 51.09375 15.203125 
L 52.703125 13.40625 
Q 45.203125 5.40625 35.5 2 
Q 29 -0.40625 20.796875 -0.40625 
Q 14 -0.40625 9 2.640625 
Q 4 5.703125 4 11.5 
Q 4 19.796875 10.296875 25.796875 
Q 16.59375 31.796875 25.296875 35.296875 
Q 23.203125 36.296875 22.09375 37 
Q 21 37.703125 19.640625 38.953125 
Q 18.296875 40.203125 17.6875 42 
Q 17.09375 43.796875 17.09375 46.296875 
Q 17.09375 51.703125 21.890625 56.703125 
Q 26.703125 61.703125 33 64.34375 
Q 39.296875 67 44.5 67 
Q 51.5 67 55.703125 64.5 
Q 59.90625 62 59.90625 57.09375 
Q 59.90625 54.90625 58.09375 52.15625 
Q 56.296875 49.40625 52.703125 49.40625 
Q 50.59375 49.40625 48.9375 50.796875 
Q 47.296875 52.203125 47.296875 54.296875 
Q 47.296875 56.59375 48.796875 58.296875 
Q 50.296875 60 50.296875 60.296875 
Q 50.296875 62.203125 49.1875 62.953125 
Q 48.09375 63.703125 45.59375 63.703125 
Q 38 63.703125 31.84375 59.25 
Q 25.703125 54.796875 25.703125 49.296875 
Q 25.703125 45.203125 29.390625 42.84375 
Q 33.09375 40.5 39.09375 40.5 
L 45.90625 40.5 
L 45 36.703125 
Q 40.703125 36.703125 35.546875 35.046875 
Q 30.40625 33.40625 25.703125 30.59375 
Q 21 27.796875 17.84375 23.34375 
Q 14.703125 18.90625 14.703125 14 
Q 14.703125 9.59375 18.046875 7.296875 
Q 21.40625 5 27.203125 5 
Q 33.296875 5 40.25 8.046875 
Q 47.203125 11.09375 51.09375 15.203125 
z
" id="STIXNonUnicode-Italic-57905"/>
      </defs>
      <use transform="translate(0 0.015625)" xlink:href="#DejaVuSans-108"/>
      <use transform="translate(27.783203 0.015625)" xlink:href="#DejaVuSans-111"/>
      <use transform="translate(88.964844 0.015625)" xlink:href="#DejaVuSans-103"/>
      <use transform="translate(153.398438 -16.390625)scale(0.7)" xlink:href="#DejaVuSans-49"/>
      <use transform="translate(197.93457 -16.390625)scale(0.7)" xlink:href="#DejaVuSans-48"/>
      <use transform="translate(245.205078 0.015625)" xlink:href="#DejaVuSans-40"/>
      <use transform="translate(284.21875 0.015625)" xlink:href="#STIXNonUnicode-Italic-57905"/>
      <use transform="translate(340.475769 -16.390625)scale(0.7)" xlink:href="#DejaVuSans-Oblique-952"/>
      <use transform="translate(386.037292 0.015625)" xlink:href="#DejaVuSans-41"/>
     </g>
    </g>
   </g>
   <g id="PolyCollection_5">
    <defs>
     <path d="M 80.844309 -131.600826 
L 78.905691 -131.600826 
L 78.713808 -134.550488 
L 78.492899 -137.50015 
L 78.240499 -140.449812 
L 77.95431 -143.399474 
L 77.632287 -146.349136 
L 77.27272 -149.298798 
L 76.874329 -152.24846 
L 76.436341 -155.198122 
L 75.958578 -158.147784 
L 75.441521 -161.097446 
L 74.886366 -164.047107 
L 74.295064 -166.996769 
L 73.670336 -169.946431 
L 73.015666 -172.896093 
L 72.335271 -175.845755 
L 71.634044 -178.795417 
L 70.917471 -181.745079 
L 70.191524 -184.694741 
L 69.462538 -187.644403 
L 68.737068 -190.594065 
L 68.021732 -193.543727 
L 67.323057 -196.493388 
L 66.647317 -199.44305 
L 66.000383 -202.392712 
L 65.387584 -205.342374 
L 64.813586 -208.292036 
L 64.282299 -211.241698 
L 63.796803 -214.19136 
L 63.359316 -217.141022 
L 62.971179 -220.090684 
L 62.632883 -223.040346 
L 62.34412 -225.990008 
L 62.103855 -228.939669 
L 61.910431 -231.889331 
L 61.761675 -234.838993 
L 61.655026 -237.788655 
L 61.587656 -240.738317 
L 61.556601 -243.687979 
L 61.55887 -246.637641 
L 61.59155 -249.587303 
L 61.651889 -252.536965 
L 61.737361 -255.486627 
L 61.845708 -258.436289 
L 61.974961 -261.38595 
L 62.12344 -264.335612 
L 62.289736 -267.285274 
L 62.472678 -270.234936 
L 62.671291 -273.184598 
L 62.884744 -276.13426 
L 63.112305 -279.083922 
L 63.353289 -282.033584 
L 63.60702 -284.983246 
L 63.8728 -287.932908 
L 64.149893 -290.882569 
L 64.437516 -293.832231 
L 64.734849 -296.781893 
L 65.041049 -299.731555 
L 65.355282 -302.681217 
L 65.67675 -305.630879 
L 66.00473 -308.580541 
L 66.338603 -311.530203 
L 66.677887 -314.479865 
L 67.022252 -317.429527 
L 67.371534 -320.379189 
L 67.725732 -323.32885 
L 68.084989 -326.278512 
L 68.44957 -329.228174 
L 68.81982 -332.177836 
L 69.196116 -335.127498 
L 69.578815 -338.07716 
L 69.968193 -341.026822 
L 70.364393 -343.976484 
L 70.767371 -346.926146 
L 71.176849 -349.875808 
L 71.592283 -352.82547 
L 72.012842 -355.775131 
L 72.437398 -358.724793 
L 72.864536 -361.674455 
L 73.292573 -364.624117 
L 73.719596 -367.573779 
L 74.143509 -370.523441 
L 74.562086 -373.473103 
L 74.973041 -376.422765 
L 75.374086 -379.372427 
L 75.763002 -382.322089 
L 76.137702 -385.271751 
L 76.496286 -388.221412 
L 76.837094 -391.171074 
L 77.158739 -394.120736 
L 77.460143 -397.070398 
L 77.740546 -400.02006 
L 77.999514 -402.969722 
L 78.236931 -405.919384 
L 78.452984 -408.869046 
L 78.648136 -411.818708 
L 78.823096 -414.76837 
L 78.978779 -417.718032 
L 79.116273 -420.667693 
L 79.23679 -423.617355 
L 80.51321 -423.617355 
L 80.51321 -423.617355 
L 80.633727 -420.667693 
L 80.771221 -417.718032 
L 80.926904 -414.76837 
L 81.101864 -411.818708 
L 81.297016 -408.869046 
L 81.513069 -405.919384 
L 81.750486 -402.969722 
L 82.009454 -400.02006 
L 82.289857 -397.070398 
L 82.591261 -394.120736 
L 82.912906 -391.171074 
L 83.253714 -388.221412 
L 83.612298 -385.271751 
L 83.986998 -382.322089 
L 84.375914 -379.372427 
L 84.776959 -376.422765 
L 85.187914 -373.473103 
L 85.606491 -370.523441 
L 86.030404 -367.573779 
L 86.457427 -364.624117 
L 86.885464 -361.674455 
L 87.312602 -358.724793 
L 87.737158 -355.775131 
L 88.157717 -352.82547 
L 88.573151 -349.875808 
L 88.982629 -346.926146 
L 89.385607 -343.976484 
L 89.781807 -341.026822 
L 90.171185 -338.07716 
L 90.553884 -335.127498 
L 90.93018 -332.177836 
L 91.30043 -329.228174 
L 91.665011 -326.278512 
L 92.024268 -323.32885 
L 92.378466 -320.379189 
L 92.727748 -317.429527 
L 93.072113 -314.479865 
L 93.411397 -311.530203 
L 93.74527 -308.580541 
L 94.07325 -305.630879 
L 94.394718 -302.681217 
L 94.708951 -299.731555 
L 95.015151 -296.781893 
L 95.312484 -293.832231 
L 95.600107 -290.882569 
L 95.8772 -287.932908 
L 96.14298 -284.983246 
L 96.396711 -282.033584 
L 96.637695 -279.083922 
L 96.865256 -276.13426 
L 97.078709 -273.184598 
L 97.277322 -270.234936 
L 97.460264 -267.285274 
L 97.62656 -264.335612 
L 97.775039 -261.38595 
L 97.904292 -258.436289 
L 98.012639 -255.486627 
L 98.098111 -252.536965 
L 98.15845 -249.587303 
L 98.19113 -246.637641 
L 98.193399 -243.687979 
L 98.162344 -240.738317 
L 98.094974 -237.788655 
L 97.988325 -234.838993 
L 97.839569 -231.889331 
L 97.646145 -228.939669 
L 97.40588 -225.990008 
L 97.117117 -223.040346 
L 96.778821 -220.090684 
L 96.390684 -217.141022 
L 95.953197 -214.19136 
L 95.467701 -211.241698 
L 94.936414 -208.292036 
L 94.362416 -205.342374 
L 93.749617 -202.392712 
L 93.102683 -199.44305 
L 92.426943 -196.493388 
L 91.728268 -193.543727 
L 91.012932 -190.594065 
L 90.287462 -187.644403 
L 89.558476 -184.694741 
L 88.832529 -181.745079 
L 88.115956 -178.795417 
L 87.414729 -175.845755 
L 86.734334 -172.896093 
L 86.079664 -169.946431 
L 85.454936 -166.996769 
L 84.863634 -164.047107 
L 84.308479 -161.097446 
L 83.791422 -158.147784 
L 83.313659 -155.198122 
L 82.875671 -152.24846 
L 82.47728 -149.298798 
L 82.117713 -146.349136 
L 81.79569 -143.399474 
L 81.509501 -140.449812 
L 81.257101 -137.50015 
L 81.036192 -134.550488 
L 80.844309 -131.600826 
z
" id="m4881eb7af4"/>
    </defs>
    <g clip-path="url(#p2e5290dafe)">
     <use style="fill:#ce1e5c;" x="0" xlink:href="#m4881eb7af4" y="936"/>
    </g>
   </g>
   <g id="PolyCollection_6">
    <defs>
     <path d="M 150.493432 -141.226295 
L 148.756568 -141.226295 
L 148.596777 -143.277883 
L 148.41531 -145.329471 
L 148.210753 -147.38106 
L 147.98187 -149.432648 
L 147.727644 -151.484236 
L 147.447317 -153.535824 
L 147.140429 -155.587412 
L 146.806841 -157.639 
L 146.446751 -159.690589 
L 146.060703 -161.742177 
L 145.649571 -163.793765 
L 145.214542 -165.845353 
L 144.757078 -167.896941 
L 144.278869 -169.948529 
L 143.781773 -172.000118 
L 143.267753 -174.051706 
L 142.738808 -176.103294 
L 142.196905 -178.154882 
L 141.643912 -180.20647 
L 141.08155 -182.258058 
L 140.511342 -184.309647 
L 139.934595 -186.361235 
L 139.352387 -188.412823 
L 138.765578 -190.464411 
L 138.174842 -192.515999 
L 137.580712 -194.567587 
L 136.983646 -196.619176 
L 136.384092 -198.670764 
L 135.782572 -200.722352 
L 135.179753 -202.77394 
L 134.576523 -204.825528 
L 133.974041 -206.877116 
L 133.373783 -208.928705 
L 132.777555 -210.980293 
L 132.187486 -213.031881 
L 131.605996 -215.083469 
L 131.035737 -217.135057 
L 130.479506 -219.186645 
L 129.94015 -221.238233 
L 129.420445 -223.289822 
L 128.922982 -225.34141 
L 128.450045 -227.392998 
L 128.003502 -229.444586 
L 127.58472 -231.496174 
L 127.194493 -233.547762 
L 126.833013 -235.599351 
L 126.49987 -237.650939 
L 126.194091 -239.702527 
L 125.914215 -241.754115 
L 125.658402 -243.805703 
L 125.424578 -245.857291 
L 125.210591 -247.90888 
L 125.014395 -249.960468 
L 124.83423 -252.012056 
L 124.668798 -254.063644 
L 124.517428 -256.115232 
L 124.380207 -258.16682 
L 124.258089 -260.218409 
L 124.152945 -262.269997 
L 124.067585 -264.321585 
L 124.005717 -266.373173 
L 123.971862 -268.424761 
L 123.971222 -270.476349 
L 124.009502 -272.527938 
L 124.092701 -274.579526 
L 124.226871 -276.631114 
L 124.417863 -278.682702 
L 124.671071 -280.73429 
L 124.991176 -282.785878 
L 125.381913 -284.837467 
L 125.845864 -286.889055 
L 126.384295 -288.940643 
L 126.997033 -290.992231 
L 127.682395 -293.043819 
L 128.437179 -295.095407 
L 129.256701 -297.146995 
L 130.134889 -299.198584 
L 131.064431 -301.250172 
L 132.03696 -303.30176 
L 133.043275 -305.353348 
L 134.073585 -307.404936 
L 135.117774 -309.456524 
L 136.165665 -311.508113 
L 137.207276 -313.559701 
L 138.233063 -315.611289 
L 139.234139 -317.662877 
L 140.202456 -319.714465 
L 141.130958 -321.766053 
L 142.013683 -323.817642 
L 142.845837 -325.86923 
L 143.623814 -327.920818 
L 144.345186 -329.972406 
L 145.008656 -332.023994 
L 145.613979 -334.075582 
L 146.161865 -336.127171 
L 146.653857 -338.178759 
L 147.092201 -340.230347 
L 147.479715 -342.281935 
L 147.819647 -344.333523 
L 151.430353 -344.333523 
L 151.430353 -344.333523 
L 151.770285 -342.281935 
L 152.157799 -340.230347 
L 152.596143 -338.178759 
L 153.088135 -336.127171 
L 153.636021 -334.075582 
L 154.241344 -332.023994 
L 154.904814 -329.972406 
L 155.626186 -327.920818 
L 156.404163 -325.86923 
L 157.236317 -323.817642 
L 158.119042 -321.766053 
L 159.047544 -319.714465 
L 160.015861 -317.662877 
L 161.016937 -315.611289 
L 162.042724 -313.559701 
L 163.084335 -311.508113 
L 164.132226 -309.456524 
L 165.176415 -307.404936 
L 166.206725 -305.353348 
L 167.21304 -303.30176 
L 168.185569 -301.250172 
L 169.115111 -299.198584 
L 169.993299 -297.146995 
L 170.812821 -295.095407 
L 171.567605 -293.043819 
L 172.252967 -290.992231 
L 172.865705 -288.940643 
L 173.404136 -286.889055 
L 173.868087 -284.837467 
L 174.258824 -282.785878 
L 174.578929 -280.73429 
L 174.832137 -278.682702 
L 175.023129 -276.631114 
L 175.157299 -274.579526 
L 175.240498 -272.527938 
L 175.278778 -270.476349 
L 175.278138 -268.424761 
L 175.244283 -266.373173 
L 175.182415 -264.321585 
L 175.097055 -262.269997 
L 174.991911 -260.218409 
L 174.869793 -258.16682 
L 174.732572 -256.115232 
L 174.581202 -254.063644 
L 174.41577 -252.012056 
L 174.235605 -249.960468 
L 174.039409 -247.90888 
L 173.825422 -245.857291 
L 173.591598 -243.805703 
L 173.335785 -241.754115 
L 173.055909 -239.702527 
L 172.75013 -237.650939 
L 172.416987 -235.599351 
L 172.055507 -233.547762 
L 171.66528 -231.496174 
L 171.246498 -229.444586 
L 170.799955 -227.392998 
L 170.327018 -225.34141 
L 169.829555 -223.289822 
L 169.30985 -221.238233 
L 168.770494 -219.186645 
L 168.214263 -217.135057 
L 167.644004 -215.083469 
L 167.062514 -213.031881 
L 166.472445 -210.980293 
L 165.876217 -208.928705 
L 165.275959 -206.877116 
L 164.673477 -204.825528 
L 164.070247 -202.77394 
L 163.467428 -200.722352 
L 162.865908 -198.670764 
L 162.266354 -196.619176 
L 161.669288 -194.567587 
L 161.075158 -192.515999 
L 160.484422 -190.464411 
L 159.897613 -188.412823 
L 159.315405 -186.361235 
L 158.738658 -184.309647 
L 158.16845 -182.258058 
L 157.606088 -180.20647 
L 157.053095 -178.154882 
L 156.511192 -176.103294 
L 155.982247 -174.051706 
L 155.468227 -172.000118 
L 154.971131 -169.948529 
L 154.492922 -167.896941 
L 154.035458 -165.845353 
L 153.600429 -163.793765 
L 153.189297 -161.742177 
L 152.803249 -159.690589 
L 152.443159 -157.639 
L 152.109571 -155.587412 
L 151.802683 -153.535824 
L 151.522356 -151.484236 
L 151.26813 -149.432648 
L 151.039247 -147.38106 
L 150.83469 -145.329471 
L 150.653223 -143.277883 
L 150.493432 -141.226295 
z
" id="mf968b34aa8"/>
    </defs>
    <g clip-path="url(#p2e5290dafe)">
     <use style="fill:#e05230;" x="0" xlink:href="#mf968b34aa8" y="936"/>
    </g>
   </g>
   <g id="PolyCollection_7">
    <defs>
     <path d="M 220.509161 -145.585248 
L 218.240839 -145.585248 
L 218.016439 -147.928578 
L 217.756618 -150.271907 
L 217.457682 -152.615236 
L 217.115909 -154.958565 
L 216.727633 -157.301894 
L 216.289328 -159.645224 
L 215.797702 -161.988553 
L 215.249807 -164.331882 
L 214.643149 -166.675211 
L 213.975808 -169.01854 
L 213.246553 -171.361869 
L 212.454961 -173.705199 
L 211.601528 -176.048528 
L 210.687777 -178.391857 
L 209.716341 -180.735186 
L 208.691038 -183.078515 
L 207.616924 -185.421844 
L 206.50032 -187.765174 
L 205.348806 -190.108503 
L 204.171192 -192.451832 
L 202.977451 -194.795161 
L 201.778614 -197.13849 
L 200.586641 -199.481819 
L 199.414245 -201.825149 
L 198.274693 -204.168478 
L 197.181573 -206.511807 
L 196.148537 -208.855136 
L 195.189026 -211.198465 
L 194.315979 -213.541794 
L 193.54154 -215.885124 
L 192.876763 -218.228453 
L 192.331333 -220.571782 
L 191.913302 -222.915111 
L 191.628856 -225.25844 
L 191.482119 -227.60177 
L 191.475 -229.945099 
L 191.607089 -232.288428 
L 191.875613 -234.631757 
L 192.275446 -236.975086 
L 192.799181 -239.318415 
L 193.437262 -241.661745 
L 194.17817 -244.005074 
L 195.008668 -246.348403 
L 195.914084 -248.691732 
L 196.878643 -251.035061 
L 197.885818 -253.37839 
L 198.918707 -255.72172 
L 199.96042 -258.065049 
L 200.994458 -260.408378 
L 202.00509 -262.751707 
L 202.977694 -265.095036 
L 203.899077 -267.438365 
L 204.757751 -269.781695 
L 205.544161 -272.125024 
L 206.250859 -274.468353 
L 206.872625 -276.811682 
L 207.406526 -279.155011 
L 207.851914 -281.49834 
L 208.21037 -283.84167 
L 208.485586 -286.184999 
L 208.683196 -288.528328 
L 208.810563 -290.871657 
L 208.876518 -293.214986 
L 208.891075 -295.558316 
L 208.865115 -297.901645 
L 208.810056 -300.244974 
L 208.737521 -302.588303 
L 208.659004 -304.931632 
L 208.585555 -307.274961 
L 208.52749 -309.618291 
L 208.494125 -311.96162 
L 208.493557 -314.304949 
L 208.532488 -316.648278 
L 208.616094 -318.991607 
L 208.747956 -321.334936 
L 208.930037 -323.678266 
L 209.162709 -326.021595 
L 209.444835 -328.364924 
L 209.773893 -330.708253 
L 210.146131 -333.051582 
L 210.556761 -335.394911 
L 211.000166 -337.738241 
L 211.470128 -340.08157 
L 211.960046 -342.424899 
L 212.463166 -344.768228 
L 212.972784 -347.111557 
L 213.482439 -349.454886 
L 213.986071 -351.798216 
L 214.478166 -354.141545 
L 214.953853 -356.484874 
L 215.408981 -358.828203 
L 215.84016 -361.171532 
L 216.244774 -363.514862 
L 216.620966 -365.858191 
L 216.967602 -368.20152 
L 217.284216 -370.544849 
L 217.570936 -372.888178 
L 217.828414 -375.231507 
L 218.057729 -377.574837 
L 220.692271 -377.574837 
L 220.692271 -377.574837 
L 220.921586 -375.231507 
L 221.179064 -372.888178 
L 221.465784 -370.544849 
L 221.782398 -368.20152 
L 222.129034 -365.858191 
L 222.505226 -363.514862 
L 222.90984 -361.171532 
L 223.341019 -358.828203 
L 223.796147 -356.484874 
L 224.271834 -354.141545 
L 224.763929 -351.798216 
L 225.267561 -349.454886 
L 225.777216 -347.111557 
L 226.286834 -344.768228 
L 226.789954 -342.424899 
L 227.279872 -340.08157 
L 227.749834 -337.738241 
L 228.193239 -335.394911 
L 228.603869 -333.051582 
L 228.976107 -330.708253 
L 229.305165 -328.364924 
L 229.587291 -326.021595 
L 229.819963 -323.678266 
L 230.002044 -321.334936 
L 230.133906 -318.991607 
L 230.217512 -316.648278 
L 230.256443 -314.304949 
L 230.255875 -311.96162 
L 230.22251 -309.618291 
L 230.164445 -307.274961 
L 230.090996 -304.931632 
L 230.012479 -302.588303 
L 229.939944 -300.244974 
L 229.884885 -297.901645 
L 229.858925 -295.558316 
L 229.873482 -293.214986 
L 229.939437 -290.871657 
L 230.066804 -288.528328 
L 230.264414 -286.184999 
L 230.53963 -283.84167 
L 230.898086 -281.49834 
L 231.343474 -279.155011 
L 231.877375 -276.811682 
L 232.499141 -274.468353 
L 233.205839 -272.125024 
L 233.992249 -269.781695 
L 234.850923 -267.438365 
L 235.772306 -265.095036 
L 236.74491 -262.751707 
L 237.755542 -260.408378 
L 238.78958 -258.065049 
L 239.831293 -255.72172 
L 240.864182 -253.37839 
L 241.871357 -251.035061 
L 242.835916 -248.691732 
L 243.741332 -246.348403 
L 244.57183 -244.005074 
L 245.312738 -241.661745 
L 245.950819 -239.318415 
L 246.474554 -236.975086 
L 246.874387 -234.631757 
L 247.142911 -232.288428 
L 247.275 -229.945099 
L 247.267881 -227.60177 
L 247.121144 -225.25844 
L 246.836698 -222.915111 
L 246.418667 -220.571782 
L 245.873237 -218.228453 
L 245.20846 -215.885124 
L 244.434021 -213.541794 
L 243.560974 -211.198465 
L 242.601463 -208.855136 
L 241.568427 -206.511807 
L 240.475307 -204.168478 
L 239.335755 -201.825149 
L 238.163359 -199.481819 
L 236.971386 -197.13849 
L 235.772549 -194.795161 
L 234.578808 -192.451832 
L 233.401194 -190.108503 
L 232.24968 -187.765174 
L 231.133076 -185.421844 
L 230.058962 -183.078515 
L 229.033659 -180.735186 
L 228.062223 -178.391857 
L 227.148472 -176.048528 
L 226.295039 -173.705199 
L 225.503447 -171.361869 
L 224.774192 -169.01854 
L 224.106851 -166.675211 
L 223.500193 -164.331882 
L 222.952298 -161.988553 
L 222.460672 -159.645224 
L 222.022367 -157.301894 
L 221.634091 -154.958565 
L 221.292318 -152.615236 
L 220.993382 -150.271907 
L 220.733561 -147.928578 
L 220.509161 -145.585248 
z
" id="m8cda78b07a"/>
    </defs>
    <g clip-path="url(#p2e5290dafe)">
     <use style="fill:#379d4b;" x="0" xlink:href="#m8cda78b07a" y="936"/>
    </g>
   </g>
   <g id="PolyCollection_8">
    <defs>
     <path d="M 290.694387 -155.171094 
L 287.555613 -155.171094 
L 287.249095 -157.508689 
L 286.897092 -159.846285 
L 286.495985 -162.183881 
L 286.042506 -164.521476 
L 285.533884 -166.859072 
L 284.968006 -169.196667 
L 284.343574 -171.534263 
L 283.660257 -173.871859 
L 282.918841 -176.209454 
L 282.12135 -178.54705 
L 281.271144 -180.884645 
L 280.372984 -183.222241 
L 279.433053 -185.559837 
L 278.45893 -187.897432 
L 277.45951 -190.235028 
L 276.444876 -192.572623 
L 275.426104 -194.910219 
L 274.41503 -197.247815 
L 273.423962 -199.58541 
L 272.465353 -201.923006 
L 271.551454 -204.260601 
L 270.69394 -206.598197 
L 269.903552 -208.935793 
L 269.189735 -211.273388 
L 268.560328 -213.610984 
L 268.021281 -215.948579 
L 267.576445 -218.286175 
L 267.227428 -220.623771 
L 266.973537 -222.961366 
L 266.811798 -225.298962 
L 266.737065 -227.636557 
L 266.742222 -229.974153 
L 266.818447 -232.311749 
L 266.955555 -234.649344 
L 267.142385 -236.98694 
L 267.367228 -239.324535 
L 267.618269 -241.662131 
L 267.884024 -243.999727 
L 268.153761 -246.337322 
L 268.417878 -248.674918 
L 268.66822 -251.012513 
L 268.898335 -253.350109 
L 269.103643 -255.687705 
L 269.281525 -258.0253 
L 269.431322 -260.362896 
L 269.554254 -262.700491 
L 269.653253 -265.038087 
L 269.732743 -267.375683 
L 269.798356 -269.713278 
L 269.856611 -272.050874 
L 269.914577 -274.388469 
L 269.979527 -276.726065 
L 270.058607 -279.063661 
L 270.158529 -281.401256 
L 270.285309 -283.738852 
L 270.444051 -286.076447 
L 270.638792 -288.414043 
L 270.872402 -290.751639 
L 271.146549 -293.089234 
L 271.461721 -295.42683 
L 271.817295 -297.764425 
L 272.211653 -300.102021 
L 272.64233 -302.439617 
L 273.106181 -304.777212 
L 273.599557 -307.114808 
L 274.118488 -309.452403 
L 274.658846 -311.789999 
L 275.216499 -314.127595 
L 275.787432 -316.46519 
L 276.367849 -318.802786 
L 276.954237 -321.140381 
L 277.543407 -323.477977 
L 278.132506 -325.815573 
L 278.719006 -328.153168 
L 279.300676 -330.490764 
L 279.87554 -332.828359 
L 280.441832 -335.165955 
L 280.997946 -337.503551 
L 281.542392 -339.841146 
L 282.073761 -342.178742 
L 282.590695 -344.516337 
L 283.091871 -346.853933 
L 283.576004 -349.191529 
L 284.041844 -351.529124 
L 284.488205 -353.86672 
L 284.913979 -356.204315 
L 285.318169 -358.541911 
L 285.699922 -360.879507 
L 286.058552 -363.217102 
L 286.393569 -365.554698 
L 286.704699 -367.892293 
L 286.991893 -370.229889 
L 287.255336 -372.567485 
L 287.495443 -374.90508 
L 287.712843 -377.242676 
L 287.908368 -379.580271 
L 288.083023 -381.917867 
L 288.237961 -384.255462 
L 288.37445 -386.593058 
L 289.87555 -386.593058 
L 289.87555 -386.593058 
L 290.012039 -384.255462 
L 290.166977 -381.917867 
L 290.341632 -379.580271 
L 290.537157 -377.242676 
L 290.754557 -374.90508 
L 290.994664 -372.567485 
L 291.258107 -370.229889 
L 291.545301 -367.892293 
L 291.856431 -365.554698 
L 292.191448 -363.217102 
L 292.550078 -360.879507 
L 292.931831 -358.541911 
L 293.336021 -356.204315 
L 293.761795 -353.86672 
L 294.208156 -351.529124 
L 294.673996 -349.191529 
L 295.158129 -346.853933 
L 295.659305 -344.516337 
L 296.176239 -342.178742 
L 296.707608 -339.841146 
L 297.252054 -337.503551 
L 297.808168 -335.165955 
L 298.37446 -332.828359 
L 298.949324 -330.490764 
L 299.530994 -328.153168 
L 300.117494 -325.815573 
L 300.706593 -323.477977 
L 301.295763 -321.140381 
L 301.882151 -318.802786 
L 302.462568 -316.46519 
L 303.033501 -314.127595 
L 303.591154 -311.789999 
L 304.131512 -309.452403 
L 304.650443 -307.114808 
L 305.143819 -304.777212 
L 305.60767 -302.439617 
L 306.038347 -300.102021 
L 306.432705 -297.764425 
L 306.788279 -295.42683 
L 307.103451 -293.089234 
L 307.377598 -290.751639 
L 307.611208 -288.414043 
L 307.805949 -286.076447 
L 307.964691 -283.738852 
L 308.091471 -281.401256 
L 308.191393 -279.063661 
L 308.270473 -276.726065 
L 308.335423 -274.388469 
L 308.393389 -272.050874 
L 308.451644 -269.713278 
L 308.517257 -267.375683 
L 308.596747 -265.038087 
L 308.695746 -262.700491 
L 308.818678 -260.362896 
L 308.968475 -258.0253 
L 309.146357 -255.687705 
L 309.351665 -253.350109 
L 309.58178 -251.012513 
L 309.832122 -248.674918 
L 310.096239 -246.337322 
L 310.365976 -243.999727 
L 310.631731 -241.662131 
L 310.882772 -239.324535 
L 311.107615 -236.98694 
L 311.294445 -234.649344 
L 311.431553 -232.311749 
L 311.507778 -229.974153 
L 311.512935 -227.636557 
L 311.438202 -225.298962 
L 311.276463 -222.961366 
L 311.022572 -220.623771 
L 310.673555 -218.286175 
L 310.228719 -215.948579 
L 309.689672 -213.610984 
L 309.060265 -211.273388 
L 308.346448 -208.935793 
L 307.55606 -206.598197 
L 306.698546 -204.260601 
L 305.784647 -201.923006 
L 304.826038 -199.58541 
L 303.83497 -197.247815 
L 302.823896 -194.910219 
L 301.805124 -192.572623 
L 300.79049 -190.235028 
L 299.79107 -187.897432 
L 298.816947 -185.559837 
L 297.877016 -183.222241 
L 296.978856 -180.884645 
L 296.12865 -178.54705 
L 295.331159 -176.209454 
L 294.589743 -173.871859 
L 293.906426 -171.534263 
L 293.281994 -169.196667 
L 292.716116 -166.859072 
L 292.207494 -164.521476 
L 291.754015 -162.183881 
L 291.352908 -159.846285 
L 291.000905 -157.508689 
L 290.694387 -155.171094 
z
" id="m07b92baa4c"/>
    </defs>
    <g clip-path="url(#p2e5290dafe)">
     <use style="fill:#3d63a0;" x="0" xlink:href="#m07b92baa4c" y="936"/>
    </g>
   </g>
   <g id="line2d_53">
    <path clip-path="url(#p2e5290dafe)" d="M 79.875 734.389105 
L 79.875 582.392713 
" style="fill:none;stroke:#404040;stroke-linecap:square;stroke-width:1.5;"/>
   </g>
   <g id="line2d_54">
    <path clip-path="url(#p2e5290dafe)" d="M 79.875 708.834821 
L 79.875 641.869521 
" style="fill:none;stroke:#404040;stroke-linecap:square;stroke-width:4.5;"/>
   </g>
   <g id="line2d_55">
    <path clip-path="url(#p2e5290dafe)" d="M 149.625 745.605688 
L 149.625 640.834493 
" style="fill:none;stroke:#404040;stroke-linecap:square;stroke-width:1.5;"/>
   </g>
   <g id="line2d_56">
    <path clip-path="url(#p2e5290dafe)" d="M 149.625 702.966258 
L 149.625 653.615199 
" style="fill:none;stroke:#404040;stroke-linecap:square;stroke-width:4.5;"/>
   </g>
   <g id="line2d_57">
    <path clip-path="url(#p2e5290dafe)" d="M 219.375 732.341906 
L 219.375 618.254727 
" style="fill:none;stroke:#404040;stroke-linecap:square;stroke-width:1.5;"/>
   </g>
   <g id="line2d_58">
    <path clip-path="url(#p2e5290dafe)" d="M 219.375 712.629837 
L 219.375 674.547324 
" style="fill:none;stroke:#404040;stroke-linecap:square;stroke-width:4.5;"/>
   </g>
   <g id="line2d_59">
    <path clip-path="url(#p2e5290dafe)" d="M 289.125 724.045941 
L 289.125 606.189907 
" style="fill:none;stroke:#404040;stroke-linecap:square;stroke-width:1.5;"/>
   </g>
   <g id="line2d_60">
    <path clip-path="url(#p2e5290dafe)" d="M 289.125 714.932589 
L 289.125 648.18124 
" style="fill:none;stroke:#404040;stroke-linecap:square;stroke-width:4.5;"/>
   </g>
   <g id="patch_8">
    <path d="M 45 819 
L 45 497.781818 
" style="fill:none;stroke:#000000;stroke-linecap:square;stroke-linejoin:miter;stroke-width:0.8;"/>
   </g>
   <g id="patch_9">
    <path d="M 324 819 
L 324 497.781818 
" style="fill:none;stroke:#000000;stroke-linecap:square;stroke-linejoin:miter;stroke-width:0.8;"/>
   </g>
   <g id="patch_10">
    <path d="M 45 819 
L 324 819 
" style="fill:none;stroke:#000000;stroke-linecap:square;stroke-linejoin:miter;stroke-width:0.8;"/>
   </g>
   <g id="patch_11">
    <path d="M 45 497.781818 
L 324 497.781818 
" style="fill:none;stroke:#000000;stroke-linecap:square;stroke-linejoin:miter;stroke-width:0.8;"/>
   </g>
   <g id="PathCollection_5">
    <g clip-path="url(#p2e5290dafe)">
     <use style="fill:#ffffff;" x="79.875" xlink:href="#m360bf2b840" y="672.3006"/>
    </g>
   </g>
   <g id="PathCollection_6">
    <g clip-path="url(#p2e5290dafe)">
     <use style="fill:#ffffff;" x="149.625" xlink:href="#m360bf2b840" y="681.727363"/>
    </g>
   </g>
   <g id="PathCollection_7">
    <g clip-path="url(#p2e5290dafe)">
     <use style="fill:#ffffff;" x="219.375" xlink:href="#m360bf2b840" y="697.802794"/>
    </g>
   </g>
   <g id="PathCollection_8">
    <g clip-path="url(#p2e5290dafe)">
     <use style="fill:#ffffff;" x="289.125" xlink:href="#m360bf2b840" y="682.571443"/>
    </g>
   </g>
   <g id="text_28">
    <!-- Rel. $L^2$ error $\mathcal{E}_\theta$ -->
    <g transform="translate(139.86 491.781818)scale(0.12 -0.12)">
     <defs>
      <path d="M 44.390625 34.1875 
Q 47.5625 33.109375 50.5625 29.59375 
Q 53.5625 26.078125 56.59375 19.921875 
L 66.609375 0 
L 56 0 
L 46.6875 18.703125 
Q 43.0625 26.03125 39.671875 28.421875 
Q 36.28125 30.8125 30.421875 30.8125 
L 19.671875 30.8125 
L 19.671875 0 
L 9.8125 0 
L 9.8125 72.90625 
L 32.078125 72.90625 
Q 44.578125 72.90625 50.734375 67.671875 
Q 56.890625 62.453125 56.890625 51.90625 
Q 56.890625 45.015625 53.6875 40.46875 
Q 50.484375 35.9375 44.390625 34.1875 
z
M 19.671875 64.796875 
L 19.671875 38.921875 
L 32.078125 38.921875 
Q 39.203125 38.921875 42.84375 42.21875 
Q 46.484375 45.515625 46.484375 51.90625 
Q 46.484375 58.296875 42.84375 61.546875 
Q 39.203125 64.796875 32.078125 64.796875 
z
" id="DejaVuSans-82"/>
      <path d="M 16.796875 72.90625 
L 26.703125 72.90625 
L 14.203125 8.203125 
L 49.703125 8.203125 
L 48.09375 0 
L 2.6875 0 
z
" id="DejaVuSans-Oblique-76"/>
      <path d="M 41.109375 46.296875 
Q 39.59375 47.171875 37.8125 47.578125 
Q 36.03125 48 33.890625 48 
Q 26.265625 48 22.1875 43.046875 
Q 18.109375 38.09375 18.109375 28.8125 
L 18.109375 0 
L 9.078125 0 
L 9.078125 54.6875 
L 18.109375 54.6875 
L 18.109375 46.1875 
Q 20.953125 51.171875 25.484375 53.578125 
Q 30.03125 56 36.53125 56 
Q 37.453125 56 38.578125 55.875 
Q 39.703125 55.765625 41.0625 55.515625 
z
" id="DejaVuSans-114"/>
     </defs>
     <use transform="translate(0 0.765625)" xlink:href="#DejaVuSans-82"/>
     <use transform="translate(69.482422 0.765625)" xlink:href="#DejaVuSans-101"/>
     <use transform="translate(131.005859 0.765625)" xlink:href="#DejaVuSans-108"/>
     <use transform="translate(158.789062 0.765625)" xlink:href="#DejaVuSans-46"/>
     <use transform="translate(190.576172 0.765625)" xlink:href="#DejaVuSans-32"/>
     <use transform="translate(222.363281 0.765625)" xlink:href="#DejaVuSans-Oblique-76"/>
     <use transform="translate(285.092943 39.046875)scale(0.7)" xlink:href="#DejaVuSans-50"/>
     <use transform="translate(332.363451 0.765625)" xlink:href="#DejaVuSans-32"/>
     <use transform="translate(364.15056 0.765625)" xlink:href="#DejaVuSans-101"/>
     <use transform="translate(425.673997 0.765625)" xlink:href="#DejaVuSans-114"/>
     <use transform="translate(466.787279 0.765625)" xlink:href="#DejaVuSans-114"/>
     <use transform="translate(507.90056 0.765625)" xlink:href="#DejaVuSans-111"/>
     <use transform="translate(569.082201 0.765625)" xlink:href="#DejaVuSans-114"/>
     <use transform="translate(610.195482 0.765625)" xlink:href="#DejaVuSans-32"/>
     <use transform="translate(641.982591 0.765625)" xlink:href="#STIXNonUnicode-Italic-57905"/>
     <use transform="translate(698.23961 -15.640625)scale(0.7)" xlink:href="#DejaVuSans-Oblique-952"/>
    </g>
   </g>
  </g>
 </g>
 <defs>
  <clipPath id="p2ea1019056">
   <rect height="321.218182" width="279" x="45" y="112.32"/>
  </clipPath>
  <clipPath id="p2e5290dafe">
   <rect height="321.218182" width="279" x="45" y="497.781818"/>
  </clipPath>
 </defs>
</svg>
